<?xml version="1.0" encoding="utf-8"?>
<!-- Generator: Adobe Illustrator 23.0.3, SVG Export Plug-In . SVG Version: 6.00 Build 0)  -->
<svg version="1.1" id="Ebene_2" xmlns="http://www.w3.org/2000/svg" xmlns:xlink="http://www.w3.org/1999/xlink" x="0px" y="0px"
	 viewBox="0 0 264.8 118.1" style="enable-background:new 0 0 264.8 118.1;" xml:space="preserve">
<style type="text/css">
	.st0{fill:#FAD151;}
	.st1{fill:#1F2223;}
	.st2{fill:#FFFFFF;}
</style>
<g>
	<g>
		<path class="st0" d="M0,0v80.1c0,21,17,38.1,38.1,38.1s38.1-17,38.1-38.1V0H0z"/>
		<g>
			<path class="st1" d="M28.6,87.2c-2.4-2.4-3.9-5.7-3.9-9.4c0-7.4,6-13.3,13.3-13.3c3.7,0,7,1.5,9.4,3.9l6.9-6.9
				c-4.2-4.2-9.9-6.7-16.3-6.7c-12.7,0-23,10.3-23,23c0,6.4,2.6,12.1,6.7,16.3L28.6,87.2z"/>
			<path class="st1" d="M49,85.4c-2.4,3.4-6.4,5.7-10.9,5.7c-0.8,0-1.7-0.1-2.5-0.2L28,98.5c3,1.5,6.5,2.3,10.1,2.3
				c7.8,0,14.7-3.9,18.9-9.9L49,85.4z"/>
		</g>
	</g>
	<g>
		<path class="st2" d="M126.2,91.8c-2.1-1.2-3.8-2.9-5-5.3c-1.2-2.3-1.8-5.1-1.8-8.3c0-3.2,0.6-6,1.9-8.4c1.3-2.4,3-4.2,5.1-5.4
			c2.1-1.3,4.5-1.9,7-1.9c1.8,0,3.5,0.4,5,1.1c1.5,0.7,2.8,1.6,3.9,2.8l-3.4,4c-0.8-0.8-1.7-1.4-2.5-1.8c-0.9-0.4-1.8-0.6-2.9-0.6
			c-1.5,0-2.8,0.4-3.9,1.2c-1.2,0.8-2.1,2-2.7,3.5c-0.7,1.5-1,3.3-1,5.3c0,3.2,0.7,5.6,2,7.4c1.4,1.8,3.2,2.7,5.5,2.7
			c2.3,0,4.3-1,6-2.9l3.4,3.9c-2.5,2.9-5.7,4.4-9.6,4.4C130.6,93.6,128.3,93,126.2,91.8z"/>
		<path class="st2" d="M151.6,91.8c-2.2-1.2-3.9-2.9-5.2-5.3c-1.3-2.3-1.9-5.1-1.9-8.3c0-3.2,0.6-6,1.9-8.4c1.3-2.4,3-4.2,5.2-5.4
			c2.2-1.3,4.6-1.9,7.3-1.9c3.6,0,6.8,1.3,9.3,3.9l-3.3,4c-0.9-0.8-1.7-1.4-2.6-1.8c-0.9-0.4-2-0.6-3.1-0.6c-2.5,0-4.5,0.9-6,2.7
			c-1.5,1.8-2.2,4.2-2.2,7.3c0,3.2,0.7,5.7,2.2,7.5c1.5,1.8,3.6,2.6,6.5,2.6c0.7,0,1.3-0.1,2-0.3c0.6-0.2,1.2-0.4,1.6-0.7v-5.6H158
			v-5.1h10.8V90c-1.1,1.1-2.5,1.9-4.2,2.6c-1.7,0.7-3.6,1-5.6,1C156.2,93.6,153.8,93,151.6,91.8z"/>
		<path class="st2" d="M173.6,65.9c-0.7-0.6-1-1.4-1-2.4c0-1,0.3-1.8,1-2.4c0.7-0.6,1.5-0.9,2.5-0.9c1,0,1.9,0.3,2.5,0.9
			c0.7,0.6,1,1.4,1,2.4c0,1-0.3,1.8-1,2.4c-0.7,0.6-1.5,0.9-2.5,0.9C175.1,66.8,174.2,66.5,173.6,65.9z M173,70.3h6.2v22.7H173V70.3
			z"/>
		<path class="st2" d="M192.3,68.6v1.7h4.2v5h-4.2v17.8H186V75.3h-3v-4.7l3-0.2v-1.6c0-2.6,0.7-4.6,2-6.2c1.3-1.6,3.3-2.3,6.1-2.3
			c1.6,0,3.1,0.3,4.4,0.8l-1.1,4.6c-0.8-0.3-1.6-0.5-2.4-0.5C193.2,65.2,192.3,66.3,192.3,68.6z"/>
		<path class="st2" d="M204.6,91.4c-1.2-1.5-1.8-3.6-1.8-6.4v-9.7h-3.2v-4.7l3.5-0.3l0.7-6.1h5.2v6.1h5.6v5h-5.6v9.6
			c0,2.5,1,3.7,3,3.7c0.6,0,1.4-0.2,2.2-0.5l1,4.6c-1.7,0.6-3.3,0.8-4.9,0.8C207.8,93.6,205.9,92.9,204.6,91.4z"/>
		<path class="st2" d="M220.3,92.5c-0.7-0.8-1.1-1.7-1.1-2.9c0-1.2,0.4-2.1,1.1-2.9c0.7-0.8,1.7-1.1,2.8-1.1c1.1,0,2,0.4,2.8,1.1
			c0.7,0.8,1.1,1.7,1.1,2.9c0,1.2-0.4,2.1-1.1,2.9c-0.7,0.8-1.7,1.1-2.8,1.1C221.9,93.6,221,93.2,220.3,92.5z"/>
		<path class="st2" d="M232.9,65.9c-0.7-0.6-1-1.4-1-2.4c0-1,0.3-1.8,1-2.4c0.7-0.6,1.5-0.9,2.5-0.9c1,0,1.9,0.3,2.5,0.9
			c0.7,0.6,1,1.4,1,2.4c0,1-0.3,1.8-1,2.4c-0.7,0.6-1.5,0.9-2.5,0.9C234.4,66.8,233.5,66.5,232.9,65.9z M232.3,70.3h6.2v22.7h-6.2
			V70.3z"/>
		<path class="st2" d="M248.4,92.2c-1.7-0.9-3-2.3-4-4.1c-1-1.8-1.5-3.9-1.5-6.3c0-2.4,0.5-4.6,1.5-6.4c1-1.8,2.3-3.2,4-4.1
			c1.7-0.9,3.5-1.4,5.4-1.4c1.9,0,3.7,0.5,5.4,1.4c1.7,0.9,3,2.3,4,4.2c1,1.8,1.5,3.9,1.5,6.4c0,2.4-0.5,4.5-1.5,6.3
			c-1,1.8-2.4,3.2-4,4.1c-1.7,0.9-3.5,1.4-5.4,1.4C251.8,93.6,250,93.1,248.4,92.2z M257.2,86.7c0.8-1.2,1.2-2.9,1.2-5
			s-0.4-3.8-1.2-5s-1.9-1.8-3.4-1.8c-1.5,0-2.6,0.6-3.4,1.8c-0.8,1.2-1.2,2.9-1.2,5s0.4,3.8,1.2,5c0.8,1.2,1.9,1.8,3.4,1.8
			C255.2,88.5,256.4,87.9,257.2,86.7z"/>
	</g>
</g>
</svg>
