<?xml version="1.0" encoding="utf-8"?>
<!-- Generator: Adobe Illustrator 23.0.3, SVG Export Plug-In . SVG Version: 6.00 Build 0)  -->
<svg version="1.1" id="Ebene_2" xmlns="http://www.w3.org/2000/svg" xmlns:xlink="http://www.w3.org/1999/xlink" x="0px" y="0px"
	 viewBox="0 0 76.1 118.1" style="enable-background:new 0 0 76.1 118.1;" xml:space="preserve">
<style type="text/css">
	.st0{fill:#FAD151;}
	.st1{fill:#1F2223;}
</style>
<g>
	<path class="st0" d="M0,0v80.1c0,21,17,38.1,38.1,38.1s38.1-17,38.1-38.1V0H0z"/>
	<g>
		<path class="st1" d="M28.6,87.2c-2.4-2.4-3.9-5.7-3.9-9.4c0-7.4,6-13.3,13.3-13.3c3.7,0,7,1.5,9.4,3.9l6.9-6.9
			c-4.2-4.2-9.9-6.7-16.3-6.7c-12.7,0-23,10.3-23,23c0,6.4,2.6,12.1,6.7,16.3L28.6,87.2z"/>
		<path class="st1" d="M49,85.4c-2.4,3.4-6.4,5.7-10.9,5.7c-0.8,0-1.7-0.1-2.5-0.2L28,98.5c3,1.5,6.5,2.3,10.1,2.3
			c7.8,0,14.7-3.9,18.9-9.9L49,85.4z"/>
	</g>
</g>
</svg>
