<?xml version="1.0" encoding="utf-8"?>
<!-- Generator: Adobe Illustrator 23.0.3, SVG Export Plug-In . SVG Version: 6.00 Build 0)  -->
<svg version="1.1" id="Ebene_1" xmlns="http://www.w3.org/2000/svg" xmlns:xlink="http://www.w3.org/1999/xlink" x="0px" y="0px"
	 viewBox="0 0 100 100" style="enable-background:new 0 0 100 100;" xml:space="preserve">
<style type="text/css">
	.st0{fill:#1F2223;}
</style>
<g>
	<path class="st0" d="M74,35.9c-2.3,0-4.1,1.8-4.1,4.1v17.2c0,2.3,1.8,4.1,4.1,4.1s4.1-1.8,4.1-4.1V40C78.1,37.7,76.3,35.9,74,35.9z
		"/>
	<path class="st0" d="M26,35.9c-2.3,0-4.1,1.8-4.1,4.1v17.2c0,2.3,1.8,4.1,4.1,4.1s4.1-1.8,4.1-4.1V40C30.1,37.7,28.2,35.9,26,35.9z
		"/>
	<path class="st0" d="M31.6,37.1v5v21.1c0,2.5,2,4.4,4.4,4.4h1.5h0.7H39v1.5v7.6c0,2.3,1.8,4.1,4.1,4.1s4.1-1.8,4.1-4.1v-7.6v-1.5
		H48h0.7h2.6H52h0.7v1.5v7.6c0,2.3,1.8,4.1,4.1,4.1c2.3,0,4.1-1.8,4.1-4.1v-7.6v-1.5h0.7h0.7h1.5c2.5,0,4.4-2,4.4-4.4V42.1v-5H31.6z
		"/>
	<path class="st0" d="M33.1,35.1L33.1,35.1h33.8h0h1.4h0c0-1.5-0.2-2.9-0.6-4.2c-1.1-4.1-3.9-7.5-7.5-9.8c-0.2-0.1-0.4-0.3-0.6-0.4
		c-0.2-0.1-0.4-0.2-0.6-0.3l0.7-1.3l2.2-4c0.2-0.3,0.1-0.6-0.2-0.8c-0.1,0-0.2-0.1-0.3-0.1c-0.2,0-0.4,0.1-0.5,0.3l-2.2,4L58,19.9
		c-0.2-0.1-0.4-0.2-0.7-0.3c-0.2-0.1-0.5-0.2-0.7-0.3c-2-0.7-4.3-1.1-6.6-1.1c-2.3,0-4.5,0.4-6.6,1.1c-0.2,0.1-0.5,0.2-0.7,0.3
		c-0.2,0.1-0.5,0.2-0.7,0.3l-0.7-1.3l-2.2-4c-0.2-0.3-0.5-0.4-0.8-0.2c-0.3,0.2-0.4,0.5-0.2,0.8l2.2,4l0.7,1.3
		c-0.2,0.1-0.4,0.2-0.6,0.3c-0.2,0.1-0.4,0.2-0.6,0.4c-3.7,2.3-6.4,5.8-7.5,9.8c-0.4,1.4-0.6,2.8-0.6,4.2h0H33.1z M41.5,25.3
		c0.2,0,0.4,0.1,0.6,0.1c0.5,0.2,0.9,0.8,0.9,1.4c0,0.1,0,0.1,0,0.2c-0.1,0.8-0.7,1.3-1.5,1.3c-0.8,0-1.5-0.7-1.5-1.5
		S40.7,25.3,41.5,25.3z M58.5,25.3c0.8,0,1.5,0.7,1.5,1.5s-0.7,1.5-1.5,1.5c-0.8,0-1.4-0.6-1.5-1.3c0-0.1,0-0.1,0-0.2
		c0-0.6,0.4-1.1,0.9-1.4C58,25.4,58.2,25.3,58.5,25.3z"/>
</g>
</svg>
