<?xml version="1.0" encoding="utf-8"?>
<!-- Generator: Adobe Illustrator 15.0.0, SVG Export Plug-In . SVG Version: 6.00 Build 0)  -->
<!DOCTYPE svg PUBLIC "-//W3C//DTD SVG 1.1//EN" "http://www.w3.org/Graphics/SVG/1.1/DTD/svg11.dtd">
<svg version="1.1" id="Ebene_1" xmlns="http://www.w3.org/2000/svg" xmlns:xlink="http://www.w3.org/1999/xlink" x="0px" y="0px"
	 width="550px" height="550px" viewBox="0 0 550 550" enable-background="new 0 0 550 550" xml:space="preserve">
<path fill="#FFFFFF" d="M468.721,409.484c-7.249,16.914-16.108,32.223-25.772,46.719c-13.694,19.332-24.974,33.025-33.027,40.273
	c-12.888,12.082-27.386,18.525-42.69,18.525c-11.277,0-24.164-3.223-39.471-9.664c-15.304-6.445-29.802-9.666-42.688-9.666
	c-13.695,0-28.192,3.223-43.497,9.666c-15.306,6.443-28.192,9.664-37.858,9.664c-14.499,0.807-28.998-5.639-43.498-19.332
	c-9.667-8.055-20.943-21.748-34.636-41.887c-15.306-20.941-27.387-45.107-37.053-73.299c-10.472-29.803-15.305-58.803-15.305-86.994
	c0-32.22,7.249-59.604,20.942-82.966c11.278-18.525,25.776-33.025,43.497-44.301c18.527-10.472,37.858-16.11,58.802-16.915
	c11.276,0,26.58,3.222,45.912,10.471c18.527,7.249,30.61,10.472,36.247,10.472c4.027,0,17.723-4.027,40.276-12.888
	c21.745-8.054,39.469-11.277,54.772-9.667c40.273,3.222,70.883,19.332,91.02,47.524c-36.248,21.749-53.968,52.357-53.968,91.826
	c0,30.609,11.278,56.387,33.024,76.521c9.667,9.668,20.942,16.916,33.025,21.752C474.361,394.984,471.943,402.234,468.721,409.484
	L468.721,409.484z M376.09,44.596c0,24.166-8.858,46.718-26.581,66.856c-20.94,24.971-46.717,38.663-74.104,37.053
	c0-3.222-0.806-5.639-0.806-8.861c0-23.359,9.668-47.524,28.193-67.661c8.86-10.472,20.138-18.527,33.831-25.776
	c13.694-6.444,26.58-10.471,38.663-11.276C376.09,38.151,376.09,41.373,376.09,44.596L376.09,44.596z"/>
</svg>
