<?xml version="1.0" encoding="utf-8"?>
<!-- Generator: Adobe Illustrator 15.0.0, SVG Export Plug-In . SVG Version: 6.00 Build 0)  -->
<!DOCTYPE svg PUBLIC "-//W3C//DTD SVG 1.1//EN" "http://www.w3.org/Graphics/SVG/1.1/DTD/svg11.dtd">
<svg version="1.1" id="Ebene_1" xmlns="http://www.w3.org/2000/svg" xmlns:xlink="http://www.w3.org/1999/xlink" x="0px" y="0px"
	 width="650px" height="650px" viewBox="469.1 0 650 650" enable-background="new 469.1 0 650 650" xml:space="preserve">
<g>
	<path fill="#FFFFFF" d="M1010.1,220.6c-20.7,0-36.9,16.2-36.9,36.9v154.8c0,20.7,16.2,36.9,36.9,36.9s36.9-16.2,36.9-36.9V257.5
		C1047,236.8,1030.8,220.6,1010.1,220.6z"/>
	<path fill="#FFFFFF" d="M578.1,220.6c-20.7,0-36.9,16.2-36.9,36.9v154.8c0,20.7,16.2,36.9,36.9,36.9S615,433,615,412.3V257.5
		C615,236.8,597.899,220.6,578.1,220.6z"/>
	<path fill="#FFFFFF" d="M628.5,231.401v45v189.9c0,22.499,18,39.601,39.6,39.601h13.5h6.3h7.2v13.5V587.8
		c0,20.701,16.2,36.9,36.9,36.9c20.699,0,36.899-16.199,36.899-36.9v-68.398v-13.5h7.2h6.3h23.4h6.3h6.3v13.5V587.8
		c0,20.701,16.2,36.9,36.9,36.9s36.899-16.199,36.899-36.9v-68.398v-13.5h6.301h6.3h13.5c22.5,0,39.6-18,39.6-39.601v-189.9v-45
		H628.5z"/>
	<path fill="#FFFFFF" d="M642,213.401L642,213.401h304.199l0,0H958.8l0,0c0-13.5-1.8-26.101-5.4-37.8
		c-9.899-36.9-35.1-67.5-67.5-88.2c-1.8-0.9-3.6-2.7-5.399-3.6c-1.801-0.9-3.601-1.8-5.4-2.7l6.3-11.7l19.8-36
		c1.801-2.7,0.9-5.4-1.8-7.2c-0.899,0-1.8-0.9-2.7-0.9c-1.8,0-3.6,0.9-4.5,2.7l-19.8,36l-6.3,12.6c-1.8-0.9-3.6-1.8-6.3-2.7
		c-1.8-0.9-4.5-1.8-6.3-2.7c-18-6.3-38.7-9.9-59.4-9.9s-40.5,3.6-59.4,9.9c-1.8,0.9-4.5,1.8-6.3,2.7s-4.5,1.8-6.3,2.7l-6.3-11.7
		l-19.8-36c-1.801-2.7-4.5-3.6-7.2-1.8c-2.7,1.8-3.601,4.5-1.8,7.2l19.8,36l6.3,11.7c-1.8,0.9-3.6,1.8-5.4,2.7
		c-1.8,0.9-3.6,1.8-5.399,3.6c-33.3,20.7-57.601,52.2-67.5,88.2c-3.601,12.6-5.4,25.2-5.4,37.8l0,0H642V213.401z M717.6,125.201
		c1.8,0,3.6,0.9,5.4,0.9c4.5,1.8,8.1,7.2,8.1,12.6c0,0.9,0,0.9,0,1.8c-0.9,7.2-6.3,11.7-13.5,11.7s-13.5-6.3-13.5-13.5
		C704.1,131.5,710.399,125.201,717.6,125.201z M870.6,125.201c7.2,0,13.5,6.3,13.5,13.5c0,7.2-6.3,13.5-13.5,13.5
		s-12.6-5.4-13.5-11.7c0-0.9,0-0.9,0-1.8c0-5.4,3.6-9.9,8.1-12.6C866.1,126.101,867.899,125.201,870.6,125.201z"/>
</g>
</svg>
