<?xml version="1.0" encoding="utf-8"?>
<!-- Generator: Adobe Illustrator 15.0.0, SVG Export Plug-In . SVG Version: 6.00 Build 0)  -->
<!DOCTYPE svg PUBLIC "-//W3C//DTD SVG 1.1//EN" "http://www.w3.org/Graphics/SVG/1.1/DTD/svg11.dtd">
<svg version="1.1" id="Ebene_1" xmlns="http://www.w3.org/2000/svg" xmlns:xlink="http://www.w3.org/1999/xlink" x="0px" y="0px"
	 width="550px" height="550px" viewBox="0 0 550 550" enable-background="new 0 0 550 550" xml:space="preserve">
<path fill="#FFFFFF" d="M468.721,409.472c-7.249,16.915-16.109,32.222-25.773,46.718c-13.694,19.333-24.973,33.026-33.027,40.274
	c-12.888,12.082-27.386,18.526-42.691,18.526c-11.277,0-24.164-3.222-39.47-9.665c-15.304-6.444-29.802-9.666-42.688-9.666
	c-13.695,0-28.192,3.223-43.497,9.666c-15.306,6.444-28.192,9.665-37.858,9.665c-14.499,0.807-28.998-5.638-43.498-19.332
	c-9.667-8.055-20.943-21.748-34.636-41.886c-15.306-20.943-27.387-45.108-37.053-73.3c-10.472-29.803-15.305-58.802-15.305-86.993
	c0-32.221,7.249-59.606,20.942-82.967c11.278-18.525,25.776-33.025,43.497-44.301c18.527-10.472,37.858-16.11,58.802-16.915
	c11.276,0,26.58,3.222,45.912,10.471c18.527,7.249,30.61,10.472,36.247,10.472c4.027,0,17.722-4.027,40.276-12.888
	c21.746-8.054,39.469-11.277,54.773-9.667c40.273,3.222,70.883,19.332,91.019,47.524c-36.248,21.749-53.967,52.357-53.967,91.827
	c0,30.609,11.278,56.386,33.024,76.522c9.667,9.668,20.942,16.916,33.025,21.751C474.361,394.973,471.943,402.223,468.721,409.472
	L468.721,409.472z M376.09,44.583c0,24.166-8.859,46.718-26.581,66.856c-20.941,24.971-46.717,38.663-74.104,37.053
	c0-3.222-0.806-5.639-0.806-8.861c0-23.359,9.668-47.524,28.193-67.661c8.86-10.472,20.138-18.527,33.831-25.776
	c13.694-6.444,26.58-10.471,38.663-11.276C376.09,38.138,376.09,41.36,376.09,44.583L376.09,44.583z"/>
</svg>
