<?xml version="1.0" encoding="utf-8"?>
<!-- Generator: Adobe Illustrator 23.0.3, SVG Export Plug-In . SVG Version: 6.00 Build 0)  -->
<svg version="1.1" id="Ebene_1" xmlns="http://www.w3.org/2000/svg" xmlns:xlink="http://www.w3.org/1999/xlink" x="0px" y="0px"
	 viewBox="0 0 76 120" style="enable-background:new 0 0 76 120;" xml:space="preserve">
<style type="text/css">
	.st0{fill:#1F2223;}
	.st1{fill:#FFFFFF;}
</style>
<g>
	<polygon class="st0" points="4.7,56.8 38,119.6 71.3,56.8 	"/>
	<g>
		<circle class="st0" cx="38" cy="38.4" r="38"/>
		<g>
			<path class="st1" d="M29.6,46.8c-2.1-2.1-3.5-5.1-3.5-8.4c0-6.5,5.3-11.8,11.8-11.8c3.3,0,6.2,1.3,8.4,3.5l6.1-6.1
				c-3.7-3.7-8.8-6-14.4-6c-11.3,0-20.4,9.1-20.4,20.4c0,5.6,2.3,10.7,6,14.4L29.6,46.8z"/>
			<path class="st1" d="M47.7,45.2c-2.1,3.1-5.7,5.1-9.7,5.1c-0.7,0-1.5-0.1-2.2-0.2l-6.8,6.8c2.7,1.3,5.7,2.1,8.9,2.1
				c6.9,0,13.1-3.5,16.7-8.7L47.7,45.2z"/>
		</g>
	</g>
</g>
</svg>
