<?xml version="1.0" standalone="no"?>
<!DOCTYPE svg PUBLIC "-//W3C//DTD SVG 20010904//EN"
 "http://www.w3.org/TR/2001/REC-SVG-20010904/DTD/svg10.dtd">
<svg version="1.0" xmlns="http://www.w3.org/2000/svg"
 width="700.000000pt" height="700.000000pt" viewBox="0 0 700.000000 700.000000"
 preserveAspectRatio="xMidYMid meet">
<metadata>
Created by potrace 1.11, written by Peter Selinger 2001-2013
</metadata>
<g transform="translate(0.000000,700.000000) scale(0.100000,-0.100000)"
fill="#000000" stroke="none">
<path d="M3370 5374 c-454 -33 -871 -224 -1195 -549 -292 -291 -463 -628 -531
-1045 -23 -142 -23 -417 0 -560 59 -366 211 -690 458 -976 35 -40 65 -73 68
-73 3 -1 131 125 284 278 l279 279 -46 51 c-174 195 -268 448 -268 721 0 300
104 554 316 765 211 212 465 316 765 316 274 0 526 -94 721 -268 l51 -46 280
280 280 280 -57 54 c-257 243 -613 414 -985 473 -100 16 -326 26 -420 20z"/>
<path d="M4364 2833 c-128 -169 -331 -310 -539 -376 -128 -40 -220 -51 -379
-44 l-143 6 -306 -307 c-169 -169 -307 -310 -307 -314 0 -10 103 -55 214 -94
282 -98 651 -123 957 -64 365 69 691 242 955 505 109 108 241 263 232 270 -52
39 -635 448 -643 452 -7 2 -25 -13 -41 -34z"/>
</g>
</svg>
