<?xml version="1.0" encoding="utf-8"?>
<!-- Generator: Adobe Illustrator 15.0.0, SVG Export Plug-In . SVG Version: 6.00 Build 0)  -->
<!DOCTYPE svg PUBLIC "-//W3C//DTD SVG 1.1//EN" "http://www.w3.org/Graphics/SVG/1.1/DTD/svg11.dtd">
<svg version="1.1" id="Ebene_1" xmlns="http://www.w3.org/2000/svg" xmlns:xlink="http://www.w3.org/1999/xlink" x="0px" y="0px"
	 width="450.9px" height="900px" viewBox="485.3 0 450.9 900" enable-background="new 485.3 0 450.9 900" xml:space="preserve">
<path fill="#FFFFFF" d="M927.2,572.4c-8.101,18.899-18,36-28.8,52.199c-15.301,21.601-27.9,36.9-36.9,45
	c-14.4,13.5-30.6,20.7-47.7,20.7c-12.6,0-27-3.6-44.1-10.8c-17.101-7.2-33.3-10.8-47.7-10.8c-15.3,0-31.5,3.6-48.6,10.8
	c-17.101,7.2-31.5,10.8-42.301,10.8c-16.199,0.9-32.399-6.3-48.6-21.6c-10.8-9-23.4-24.3-38.7-46.8
	c-17.1-23.4-30.6-50.4-41.399-81.9c-11.7-33.3-17.101-65.7-17.101-97.2c0-36,8.101-66.6,23.4-92.7
	c12.6-20.699,28.8-36.899,48.6-49.5c20.7-11.7,42.3-18,65.7-18.899c12.6,0,29.7,3.6,51.3,11.7c20.7,8.1,34.2,11.7,40.5,11.7
	c4.5,0,19.8-4.5,45-14.399c24.3-9,44.101-12.6,61.2-10.8c45,3.6,79.2,21.6,101.7,53.1c-40.5,24.3-60.3,58.5-60.3,102.6
	c0,34.2,12.6,63,36.899,85.5c10.8,10.801,23.4,18.9,36.9,24.301C933.5,556.2,930.8,564.3,927.2,572.4L927.2,572.4z M823.7,164.7
	c0,27-9.9,52.2-29.7,74.7c-23.4,27.9-52.2,43.2-82.8,41.4c0-3.6-0.9-6.3-0.9-9.9c0-26.1,10.8-53.1,31.5-75.6
	c9.9-11.7,22.5-20.7,37.8-28.8c15.301-7.2,29.7-11.7,43.2-12.6C823.7,157.5,823.7,161.1,823.7,164.7L823.7,164.7z"/>
</svg>
