<?xml version="1.0" encoding="utf-8"?>
<!-- Generator: Adobe Illustrator 23.0.3, SVG Export Plug-In . SVG Version: 6.00 Build 0)  -->
<svg version="1.1" id="Ebene_1" xmlns="http://www.w3.org/2000/svg" xmlns:xlink="http://www.w3.org/1999/xlink" x="0px" y="0px"
	 viewBox="0 0 100 100" style="enable-background:new 0 0 100 100;" xml:space="preserve">
<style type="text/css">
	.st0{fill:#1F2223;}
</style>
<path class="st0" d="M72.8,63.6c-0.9,2.1-2,4-3.2,5.8c-1.7,2.4-3.1,4.1-4.1,5c-1.6,1.5-3.4,2.3-5.3,2.3c-1.4,0-3-0.4-4.9-1.2
	c-1.9-0.8-3.7-1.2-5.3-1.2c-1.7,0-3.5,0.4-5.4,1.2c-1.9,0.8-3.5,1.2-4.7,1.2c-1.8,0.1-3.6-0.7-5.4-2.4c-1.2-1-2.6-2.7-4.3-5.2
	c-1.9-2.6-3.4-5.6-4.6-9.1c-1.3-3.7-1.9-7.3-1.9-10.8c0-4,0.9-7.4,2.6-10.3c1.4-2.3,3.2-4.1,5.4-5.5c2.3-1.3,4.7-2,7.3-2.1
	c1.4,0,3.3,0.4,5.7,1.3c2.3,0.9,3.8,1.3,4.5,1.3c0.5,0,2.2-0.5,5-1.6c2.7-1,4.9-1.4,6.8-1.2c5,0.4,8.8,2.4,11.3,5.9
	c-4.5,2.7-6.7,6.5-6.7,11.4c0,3.8,1.4,7,4.1,9.5c1.2,1.2,2.6,2.1,4.1,2.7C73.5,61.8,73.2,62.7,72.8,63.6L72.8,63.6z M61.3,18.3
	c0,3-1.1,5.8-3.3,8.3c-2.6,3.1-5.8,4.8-9.2,4.6c0-0.4-0.1-0.7-0.1-1.1c0-2.9,1.2-5.9,3.5-8.4c1.1-1.3,2.5-2.3,4.2-3.2
	c1.7-0.8,3.3-1.3,4.8-1.4C61.3,17.5,61.3,17.9,61.3,18.3L61.3,18.3z"/>
</svg>
