<?xml version="1.0" encoding="utf-8"?>
<!-- Generator: Adobe Illustrator 23.0.3, SVG Export Plug-In . SVG Version: 6.00 Build 0)  -->
<svg version="1.1" id="COFFEE_CUP" xmlns="http://www.w3.org/2000/svg" xmlns:xlink="http://www.w3.org/1999/xlink" x="0px" y="0px"
	 viewBox="0 0 195 158" style="enable-background:new 0 0 195 158;" xml:space="preserve">
<style type="text/css">
	.st0{opacity:0.74;fill:#4E5357;}
	.st1{enable-background:new    ;}
	.st2{fill:#E6E6E6;}
	.st3{fill:#FFFFFF;}
	.st4{fill:#CCCCCC;}
	.st5{fill:#6B461F;}
	.st6{fill:#452714;}
</style>
<g>
	
		<ellipse transform="matrix(0.999 -4.364787e-02 4.364787e-02 0.999 -4.851 4.174)" class="st0" cx="93.2" cy="113.2" rx="93.2" ry="44.6"/>
	<g>
		<g class="st1">
			<g>
				<path class="st2" d="M21.6,98.2l0,3c0,12.8,8.4,25.5,25.2,35.3c33.7,19.6,88.6,19.6,122.6,0c17.1-9.9,25.6-22.8,25.6-35.8l0-3
					c0,12.9-8.5,25.9-25.6,35.8c-34,19.6-88.8,19.6-122.6,0C30.1,123.7,21.7,111,21.6,98.2z"/>
			</g>
			<g>
				<path class="st3" d="M47.2,62.4c-34,19.6-34.1,51.4-0.4,71c33.7,19.6,88.6,19.6,122.6,0c34-19.6,34.1-51.4,0.4-71
					C136.1,42.8,81.2,42.8,47.2,62.4z"/>
			</g>
		</g>
	</g>
	
		<ellipse transform="matrix(0.9963 -8.582672e-02 8.582672e-02 0.9963 -8.2167 8.6849)" class="st4" cx="96.9" cy="99.9" rx="48.6" ry="20.1"/>
	<g>
		<g class="st1">
			<g>
				<polygon class="st3" points="57.8,59.9 64.3,56.1 68.3,51.9 61.8,55.7 				"/>
			</g>
			<g>
				<path class="st3" d="M40.7,21.1c0,3.3,1.4,7.3,3.8,10.5l17.4,24.1l6.5-3.8L50.9,27.8c-2.4-3.3-3.8-7.2-3.8-10.5
					c0-2.8,1-4.8,2.6-5.7l-6.5,3.8C41.7,16.3,40.7,18.3,40.7,21.1z"/>
			</g>
			<g>
				<polygon class="st3" points="59.9,22 66.4,18.2 66.4,10.2 59.9,14 				"/>
			</g>
			<g>
				<path class="st3" d="M38.3,6.9c2.9-1.7,6.9-1.4,11.2,1.1l10.3,6l6.5-3.8l-10.3-6c-4.4-2.5-8.4-2.8-11.3-1.1L38.3,6.9z"/>
			</g>
			<g>
				<path class="st2" d="M49.6,8c-8.7-5-15.8-1-15.9,9c0,5.9,2.5,12.9,6.7,18.8l17.4,24.1l4-4.2L44.4,31.6
					c-2.4-3.3-3.8-7.2-3.8-10.5c0-5.6,4-7.9,8.9-5.1l10.3,6l0-8L49.6,8z"/>
			</g>
		</g>
	</g>
	<g>
		<path class="st2" d="M169.1,34.2c0,33.6-15.8,81.7-60.8,81.7c-45,0-60.8-48.1-60.8-81.7H169.1z"/>
		<ellipse class="st3" cx="108.3" cy="35.2" rx="60.8" ry="35.1"/>
		<path class="st2" d="M55.3,42.5c0.1,0.2,0.2,0.4,0.3,0.6c2.3,5.3,7.1,10.3,14.2,14.4c21.3,12.3,55.8,12.3,77,0
			c1.9-1.1,3.6-2.2,5.1-3.4c4.4-3.4,7.4-7.1,9.2-11c0.1-0.2,0.2-0.4,0.2-0.6c4.2-10.3-0.6-21.5-14.5-29.5c-21.3-12.3-55.8-12.3-77,0
			C55.9,21,51.1,32.2,55.3,42.5z"/>
		<g>
			<path class="st5" d="M55.3,42.5c0.1,0.2,0.2,0.4,0.3,0.6c2.3,5.3,7.1,10.3,14.2,14.4c21.3,12.3,55.8,12.3,77,0
				c1.9-1.1,3.6-2.2,5.1-3.4c4.4-3.4,7.4-7.1,9.2-11c0.1-0.2,0.2-0.4,0.2-0.6c-2.2-5.5-7.1-10.7-14.5-15
				c-16.1-9.3-39.9-11.6-59.7-6.7c-6.3,1.5-12.2,3.8-17.3,6.7C62.4,31.7,57.5,36.9,55.3,42.5z"/>
			<g>
				<g>
					<path class="st6" d="M118.2,26c1,0.6,2.7,0.6,3.7,0c1-0.6,1-1.6,0-2.1c-1-0.6-2.7-0.6-3.7,0S117.2,25.4,118.2,26z"/>
					<path class="st6" d="M118.8,33.7c2.4,1.4,6.4,1.4,8.9,0c2.4-1.4,2.4-3.7,0-5.1c-2.4-1.4-6.4-1.4-8.9,0
						C116.4,30,116.4,32.3,118.8,33.7z"/>
					<path class="st6" d="M132.2,27.3c0.3,0.2,0.9,0.2,1.3,0c0.3-0.2,0.3-0.5,0-0.7c-0.3-0.2-0.9-0.2-1.3,0
						C131.9,26.8,131.9,27.1,132.2,27.3z"/>
					<path class="st6" d="M132.9,35.5c0.5,0.3,1.2,0.3,1.7,0c0.5-0.3,0.5-0.7,0-1c-0.5-0.3-1.2-0.3-1.7,0
						C132.4,34.8,132.4,35.2,132.9,35.5z"/>
					<path class="st6" d="M137.8,32c1.4,0.8,3.7,0.8,5.1,0c1.4-0.8,1.4-2.2,0-3c-1.4-0.8-3.7-0.8-5.1,0
						C136.4,29.9,136.4,31.2,137.8,32z"/>
					<path class="st6" d="M142.7,36.5c0.3,0.2,0.8,0.2,1.1,0c0.3-0.2,0.3-0.5,0-0.7c-0.3-0.2-0.8-0.2-1.1,0
						C142.4,36,142.4,36.3,142.7,36.5z"/>
					<path class="st6" d="M142.8,45.3c2,1.1,5.2,1.1,7.1,0c2-1.1,2-3,0-4.1c-2-1.1-5.2-1.1-7.1,0C140.9,42.3,140.9,44.2,142.8,45.3z
						"/>
					<path class="st6" d="M134.2,40.2c0.8,0.4,2,0.4,2.8,0c0.8-0.4,0.8-1.1,0-1.6c-0.8-0.4-2-0.4-2.8,0
						C133.4,39,133.4,39.7,134.2,40.2z"/>
					<path class="st6" d="M121.2,37.8c0.2,0.1,0.5,0.1,0.7,0c0.2-0.1,0.2-0.3,0-0.4c-0.2-0.1-0.5-0.1-0.7,0
						C121,37.5,121,37.7,121.2,37.8z"/>
					<ellipse class="st6" cx="107.4" cy="23.2" rx="0.8" ry="0.5"/>
					<path class="st6" d="M150.1,37c0.9,0.5,2.2,0.5,3.1,0c0.9-0.5,0.9-1.3,0-1.8c-0.9-0.5-2.2-0.5-3.1,0
						C149.2,35.7,149.2,36.5,150.1,37z"/>
					<path class="st6" d="M156.2,43.6c0.3,0.2,0.8,0.2,1.1,0c0.3-0.2,0.3-0.5,0-0.7c-0.3-0.2-0.8-0.2-1.1,0
						C155.9,43.2,155.9,43.5,156.2,43.6z"/>
					<path class="st6" d="M150.2,49c0.6,0.3,1.5,0.3,2.1,0c0.6-0.3,0.6-0.9,0-1.2c-0.6-0.3-1.5-0.3-2.1,0
						C149.6,48.1,149.6,48.7,150.2,49z"/>
				</g>
			</g>
			<path class="st6" d="M55.3,42.5c0.1,0.2,0.2,0.4,0.3,0.6c2.3,5.3,7.1,10.3,14.2,14.4c21.3,12.3,55.8,12.3,77,0
				c1.9-1.1,3.6-2.2,5.1-3.4c-1.8-0.6-3.8-1.1-5.1-1.7c-2.9-1.3-4-3.8-6.1-5.5c-2.6-2.1-6.6-3.6-11-3.9c-2.5-0.2-5.1-0.1-7.6-0.5
				c-8.8-1.5-9.2-9.1-11.4-13.2c-1.7-3.1-5.6-5.8-10.6-7.4c-0.3-0.1-0.7-0.2-1-0.3c0,0,0,0,0,0c-4.1-1.1-8.1-1.3-11.9-0.9
				c-6.3,1.5-12.2,3.8-17.3,6.7C62.4,31.7,57.5,36.9,55.3,42.5z"/>
		</g>
	</g>
</g>
</svg>
