<?xml version="1.0" encoding="utf-8"?>
<!-- Generator: Adobe Illustrator 23.0.3, SVG Export Plug-In . SVG Version: 6.00 Build 0)  -->
<svg version="1.1" xmlns="http://www.w3.org/2000/svg" xmlns:xlink="http://www.w3.org/1999/xlink" x="0px" y="0px"
	 viewBox="0 0 604 308" style="enable-background:new 0 0 604 308;" xml:space="preserve">
<style type="text/css">
	.st0{opacity:0.6;fill-rule:evenodd;clip-rule:evenodd;fill:#1F2223;}
	.st1{opacity:0.6;fill:#1F2223;}
	.st2{fill:#A4ABAF;}
	.st3{fill:#B4BABD;}
	.st4{fill:#1F2223;}
	.st5{opacity:0.15;}
	.st6{fill:url(#SVGID_1_);}
	.st7{fill:#FAD151;}
	.st8{fill:#FFFFFF;}
	.st9{fill:#AFB5C2;}
	.st10{fill:#9CA2AD;}
	.st11{fill-rule:evenodd;clip-rule:evenodd;fill:#1F2223;}
	.st12{fill-rule:evenodd;clip-rule:evenodd;fill:#3B3E3F;}
	.st13{fill-rule:evenodd;clip-rule:evenodd;fill:#FFFFFF;}
	.st14{fill-rule:evenodd;clip-rule:evenodd;fill:#DFE5E8;}
	.st15{fill-rule:evenodd;clip-rule:evenodd;fill:#B4DCF0;}
	.st16{fill-rule:evenodd;clip-rule:evenodd;fill:#959DA1;}
	.st17{fill-rule:evenodd;clip-rule:evenodd;fill:#FAD151;}
	.st18{fill-rule:evenodd;clip-rule:evenodd;fill:#F5A543;}
	.st19{fill-rule:evenodd;clip-rule:evenodd;fill:#C5CFD4;}
	.st20{opacity:0.7;}
	.st21{fill:#7D8489;}
	.st22{opacity:0.8;}
	.st23{fill-rule:evenodd;clip-rule:evenodd;fill:#292C2D;}
	.st24{opacity:0.82;fill:#252A2B;}
	.st25{fill:#ADADAD;}
	.st26{fill:none;}
	.st27{fill:#C5CFD4;}
	.st28{fill:#F5A543;}
	.st29{fill:url(#SVGID_2_);}
	.st30{fill:#F1F1F1;}
	.st31{fill:#FCE4C7;}
	.st32{fill:#929A9F;}
</style>
<g id="Schatten">
	<path class="st0" d="M411.4,47.4L584.9,148c8.9,5.2,8.3,14-1.3,19.6L377.3,286.6c-9.7,5.6-24.9,5.9-33.9,0.7l-154-89.2
		c-8.7-5-8.7-17.5,0-22.5L411.4,47.4z"/>
	<path class="st1" d="M177.4,230.7c-36.4-0.4-66.4,16.3-67,37.4c-0.6,21.1,28.4,38.5,64.9,39c36.4,0.4,66.4-16.3,67-37.4
		C242.9,248.6,213.8,231.1,177.4,230.7L177.4,230.7z"/>
</g>
<g id="Smartphone">
	<g>
		<path class="st1" d="M297,97.4l-85.3-49.2c-5.3-3.1-14.8-2.7-20.9,0.9L5.1,156.2c-6.2,3.6-6.8,9-1.5,12.1l85.3,49.2
			c5.3,3.1,14.8,2.7,20.9-0.9l185.7-107.2C301.7,105.9,302.4,100.5,297,97.4z"/>
		<path class="st2" d="M100.4,210.4l-91.8-53c-5.8-3.3-9-17.3,1.6-23.4L210.1,29c6.6-3.8,16.8-4.3,22.5-0.9l91.8,42.6
			c8.1,4.3,5,19.6-1.6,23.4L122.9,209.5C116.3,213.3,106.1,213.8,100.4,210.4z"/>
		<path class="st3" d="M100.4,205.2l-91.8-53c-5.8-3.3-6.8-13.9,1.6-18.2L210.1,23.8c6.6-3.8,16.8-4.3,22.5-0.9l91.8,47.8
			c7,3.8,5,14.4-1.6,18.2L122.9,204.3C116.3,208.1,106.1,208.6,100.4,205.2z"/>
		<g>
			<path class="st4" d="M203.2,29.1L28.4,130l101.5,58.6L304.6,87.7L203.2,29.1z"/>
		</g>
		<g class="st5">
			<linearGradient id="SVGID_1_" gradientUnits="userSpaceOnUse" x1="296.8391" y1="131.8248" x2="36.1852" y2="85.8645">
				<stop  offset="0" style="stop-color:#7D8489"/>
				<stop  offset="0.3772" style="stop-color:#1F2223"/>
			</linearGradient>
			<path class="st6" d="M203.2,29.1L28.4,130l101.5,58.6L304.6,87.7L203.2,29.1z"/>
		</g>
		<polygon class="st7" points="50.3,114.1 24.4,130.8 128.6,190.8 180.5,163.5 		"/>
		<g>
			<path class="st7" d="M212.6,34.4l-16.1,9.3c-4.2,2.4-4.7,6.1-1,8.2c3.7,2.1,10.1,1.8,14.3-0.6l16.1-9.3L212.6,34.4z"/>
			<g>
				<path class="st4" d="M200,47.4c0.1-0.5,0.5-1.1,1.2-1.5c1.5-0.9,3.7-0.9,5-0.2c0.6,0.4,0.9,0.9,0.9,1.4l2.6-0.1
					c0.1-0.9-0.4-1.8-1.5-2.4c-2.2-1.3-6.1-1.1-8.6,0.4c-1.3,0.7-2,1.7-2.1,2.6L200,47.4z"/>
				<path class="st4" d="M203.9,49.3c-1.1,0.2-2.3,0-3.1-0.4c-0.1-0.1-0.3-0.2-0.4-0.3l-2.9,0.1c0.2,0.5,0.7,0.9,1.3,1.3
					c1.4,0.8,3.3,1,5.3,0.8L203.9,49.3z"/>
			</g>
		</g>
		<g>
			<path class="st8" d="M214.1,59.4c-0.1-0.4-0.1-0.8,0.2-1.3c0.3-0.4,0.8-0.9,1.6-1.3c0.7-0.4,1.5-0.7,2.3-0.9
				c0.8-0.2,1.6-0.2,2.3-0.1c0.7,0.1,1.3,0.3,1.8,0.6c0.4,0.2,0.6,0.4,0.7,0.7c0.1,0.3,0.2,0.5,0.1,0.8l-1.6,0.2
				c0-0.2,0-0.4-0.1-0.5c-0.1-0.2-0.2-0.3-0.4-0.4c-0.3-0.2-0.7-0.3-1.1-0.3c-0.4,0-0.9,0-1.4,0.1c-0.5,0.1-1,0.3-1.4,0.6
				c-0.7,0.4-1.2,0.8-1.3,1.2c-0.1,0.4,0,0.7,0.5,1c0.5,0.3,1.1,0.4,1.9,0.3L218,61c-1.2,0.1-2.2-0.1-2.9-0.5
				C214.5,60.2,214.2,59.8,214.1,59.4z"/>
			<path class="st8" d="M219.4,62.5c-0.2-0.4-0.1-0.8,0.2-1.3c0.3-0.5,0.8-0.9,1.5-1.3c0.7-0.4,1.5-0.7,2.3-0.9
				c0.8-0.2,1.6-0.2,2.3-0.1c0.7,0.1,1.4,0.3,1.9,0.6c0.7,0.4,1.1,0.9,1,1.6l-1.6,0.2c0-0.2,0-0.4-0.1-0.5c-0.1-0.2-0.2-0.3-0.5-0.4
				c-0.5-0.3-1.1-0.4-1.8-0.3c-0.7,0.1-1.4,0.3-2.1,0.7c-0.7,0.4-1.2,0.9-1.3,1.3c-0.1,0.4,0.1,0.8,0.7,1.1c0.1,0.1,0.3,0.1,0.5,0.2
				c0.2,0,0.3,0.1,0.5,0.1l1.3-0.7l-1-0.6l1.2-0.7l2.2,1.2l-3.1,1.8c-0.5,0-1,0-1.4-0.1c-0.5-0.1-0.9-0.3-1.3-0.5
				C219.9,63.3,219.5,62.9,219.4,62.5z"/>
			<path class="st8" d="M229.1,62.4l1.2,0.7l-5.2,3l-1.2-0.7L229.1,62.4z M230.2,61.8c0-0.2,0.1-0.3,0.4-0.4
				c0.2-0.1,0.5-0.2,0.8-0.2c0.3,0,0.5,0,0.7,0.2s0.3,0.3,0.3,0.4c0,0.2-0.1,0.3-0.4,0.4c-0.2,0.1-0.5,0.2-0.8,0.2
				c-0.3,0-0.5,0-0.7-0.2S230.2,62,230.2,61.8z"/>
			<path class="st8" d="M233.6,64.5l-0.4,0.2l0.8,0.5l-1.1,0.7l-0.8-0.5l-4.1,2.4l-1.3-0.7l4.1-2.4l-0.6-0.3l1.1-0.6l0.7,0.3
				l0.4-0.2c0.6-0.3,1.2-0.5,1.8-0.6c0.6-0.1,1.2,0.1,1.8,0.4c0.3,0.2,0.5,0.4,0.7,0.6l-1.3,0.5c-0.1-0.1-0.2-0.3-0.4-0.3
				C234.5,64.2,234.1,64.2,233.6,64.5z"/>
			<path class="st8" d="M230.8,68.9c0.1-0.3,0.5-0.7,1.1-1.1l2.2-1.3l-0.6-0.4l1.1-0.6l0.8,0.4l1.5-0.7l1,0.6l-1.4,0.8l1.1,0.6
				l-1.1,0.7l-1.1-0.6l-2.2,1.3c-0.6,0.3-0.7,0.6-0.3,0.8c0.1,0.1,0.3,0.1,0.6,0.2l-0.9,0.7c-0.5-0.1-0.8-0.3-1.2-0.5
				C230.9,69.6,230.7,69.3,230.8,68.9z"/>
			<path class="st8" d="M233.9,71c0-0.2,0.2-0.4,0.4-0.5c0.3-0.2,0.6-0.2,0.9-0.3c0.3,0,0.6,0,0.8,0.2c0.2,0.1,0.3,0.3,0.3,0.5
				c0,0.2-0.2,0.4-0.4,0.5c-0.3,0.2-0.6,0.2-0.9,0.3c-0.3,0-0.6,0-0.8-0.2C233.9,71.4,233.9,71.2,233.9,71z"/>
			<path class="st8" d="M241.6,69.6l1.2,0.7l-5.2,3l-1.2-0.7L241.6,69.6z M242.8,69.1c0-0.2,0.1-0.3,0.4-0.4
				c0.2-0.1,0.5-0.2,0.8-0.2c0.3,0,0.5,0,0.7,0.2s0.3,0.3,0.3,0.4c0,0.2-0.1,0.3-0.4,0.4c-0.2,0.1-0.5,0.2-0.8,0.2
				c-0.3,0-0.5,0-0.7-0.2S242.8,69.2,242.8,69.1z"/>
			<path class="st8" d="M240,74.5c-0.1-0.3-0.1-0.7,0.2-1c0.2-0.4,0.6-0.7,1.2-1c0.6-0.3,1.2-0.6,1.8-0.7c0.6-0.1,1.2-0.2,1.8-0.1
				c0.6,0.1,1,0.2,1.4,0.4c0.4,0.2,0.6,0.5,0.8,0.8c0.1,0.3,0.1,0.7-0.2,1c-0.2,0.4-0.6,0.7-1.2,1c-0.6,0.3-1.1,0.5-1.8,0.7
				c-0.6,0.1-1.2,0.2-1.8,0.1c-0.6-0.1-1-0.2-1.4-0.4C240.4,75.1,240.1,74.8,240,74.5z M243.1,74.8c0.4-0.1,0.9-0.2,1.4-0.5
				c0.5-0.3,0.8-0.5,0.9-0.8c0.1-0.3,0-0.5-0.2-0.6c-0.3-0.2-0.7-0.2-1.1-0.1c-0.4,0.1-0.9,0.3-1.4,0.5c-0.5,0.3-0.8,0.5-0.9,0.8
				c-0.1,0.3,0,0.5,0.3,0.6C242.3,74.8,242.6,74.9,243.1,74.8z"/>
		</g>
		<g>
			<path class="st7" d="M173.3,59.5l-1.8-1.1l0.6-0.3l4.4,2.5l-0.6,0.3l-1.8-1.1l-5.4,3.1l-0.7-0.4L173.3,59.5z"/>
			<path class="st7" d="M178.1,61l0.7,0.4l-1.8,1l-1,0.5c0.5,0,0.9,0,1.3,0.1c0.4,0.1,0.7,0.2,1,0.3c0.5,0.3,0.7,0.5,0.6,0.8
				s-0.4,0.6-1,0.9l-2.8,1.6l-0.7-0.4l2.7-1.6c0.4-0.2,0.7-0.5,0.7-0.7s-0.1-0.4-0.4-0.6c-0.2-0.1-0.5-0.2-0.8-0.3s-0.7-0.1-1.2-0.1
				l-3.2,1.9l-0.7-0.4L178.1,61z"/>
			<path class="st7" d="M182.2,68.5l-3.1-1.8c-0.5,0.3-0.7,0.6-0.7,1c0,0.3,0.2,0.6,0.6,0.9c0.4,0.2,0.9,0.4,1.5,0.4l-0.2,0.4
				c-0.4,0-0.7-0.1-1-0.2c-0.3-0.1-0.6-0.2-0.9-0.4c-0.4-0.2-0.7-0.5-0.8-0.8c-0.1-0.3-0.1-0.6,0.1-0.9c0.2-0.3,0.5-0.6,1-0.9
				c0.5-0.3,1-0.4,1.5-0.5c0.5-0.1,1.1-0.1,1.6,0s0.9,0.2,1.3,0.4c0.5,0.3,0.8,0.7,0.7,1.1c-0.1,0.4-0.4,0.8-1.1,1.1
				C182.4,68.4,182.3,68.4,182.2,68.5z M182.1,67.9c0.5-0.3,0.7-0.5,0.8-0.8c0-0.3-0.1-0.5-0.5-0.7c-0.3-0.2-0.7-0.3-1.3-0.3
				c-0.5,0-1,0.1-1.5,0.4L182.1,67.9z"/>
			<path class="st7" d="M184.1,71.4c0.1-0.4,0.5-0.8,1.2-1.3c0.5-0.3,1-0.5,1.5-0.6s1-0.1,1.5-0.1c0.5,0.1,0.9,0.2,1.2,0.4
				c0.2,0.1,0.4,0.3,0.5,0.4c0.1,0.2,0.2,0.4,0.2,0.6l0.7-0.5l1.7-1l0.7,0.4l-6.5,3.8l-0.5-0.3l0.5-0.3l0,0c-0.4,0-0.8,0-1.1-0.1
				c-0.4-0.1-0.7-0.2-0.9-0.3C184.2,72.2,184,71.8,184.1,71.4z M186.3,72.5c0.3,0.1,0.6,0.1,1.1,0.1l2.4-1.4c0-0.2-0.1-0.4-0.2-0.5
				s-0.3-0.3-0.5-0.4c-0.2-0.1-0.6-0.2-0.9-0.3c-0.4,0-0.7,0-1.1,0.1c-0.4,0.1-0.7,0.2-1.1,0.4c-0.5,0.3-0.9,0.6-1,0.9
				s0.1,0.6,0.5,0.8C185.7,72.4,186,72.5,186.3,72.5z"/>
			<path class="st7" d="M193,72l0.7,0.4l-4.4,2.6l-0.7-0.4L193,72z M194.1,71.4c0-0.1,0.1-0.2,0.2-0.3c0.1-0.1,0.3-0.1,0.5-0.1
				c0.2,0,0.3,0,0.5,0.1c0.1,0.1,0.2,0.2,0.2,0.3c0,0.1-0.1,0.2-0.2,0.3c-0.1,0.1-0.3,0.1-0.5,0.1c-0.2,0-0.3,0-0.5-0.1
				C194.2,71.6,194.1,71.5,194.1,71.4z"/>
			<path class="st7" d="M189.3,77c-0.1-0.3,0-0.6,0.4-0.8c0.2-0.1,0.4-0.2,0.7-0.2s0.6,0,1,0l0,0c0-0.1,0-0.2,0-0.3
				c0-0.1,0.2-0.2,0.3-0.3c0.2-0.1,0.4-0.2,0.6-0.2c0.2,0,0.5,0,0.7,0l0,0c0-0.2,0-0.3,0.1-0.5c0.1-0.2,0.3-0.3,0.5-0.5
				c0.3-0.2,0.7-0.3,1-0.4c0.4-0.1,0.8,0,1.2,0c0.4,0.1,0.7,0.2,1,0.4c0.2,0.1,0.4,0.3,0.5,0.4l1.5,0.9l-0.5,0.3l-0.9-0.5
				c0,0.1,0,0.3-0.1,0.4c-0.1,0.1-0.2,0.3-0.4,0.4c-0.3,0.2-0.6,0.3-1,0.3c-0.4,0.1-0.7,0-1.1,0c-0.4-0.1-0.7-0.2-1-0.4
				c-0.2-0.1-0.4-0.3-0.5-0.5c-0.2,0-0.3,0-0.5,0s-0.3,0.1-0.4,0.1c-0.2,0.1-0.2,0.2-0.2,0.3c0,0.1,0.2,0.3,0.5,0.4l0.9,0.5
				c0.5,0.3,0.8,0.6,0.9,0.8c0.1,0.2-0.1,0.5-0.4,0.7c-0.3,0.2-0.6,0.2-1,0.3c-0.4,0-0.9,0-1.3-0.1c-0.5-0.1-0.9-0.3-1.4-0.5
				C189.8,77.6,189.4,77.3,189.3,77z M191.8,78.1c0.3,0.1,0.6,0.1,0.9,0.1c0.3,0,0.5-0.1,0.7-0.2c0.2-0.1,0.3-0.2,0.2-0.4
				c-0.1-0.1-0.3-0.3-0.6-0.5l-0.8-0.5c-0.2-0.1-0.4-0.2-0.5-0.4c-0.5-0.1-1,0-1.3,0.2c-0.2,0.1-0.3,0.3-0.2,0.5
				c0.1,0.2,0.3,0.5,0.8,0.7C191.2,77.9,191.5,78,191.8,78.1z M195.2,75.9c0.4,0,0.8-0.1,1.1-0.3c0.3-0.2,0.5-0.4,0.5-0.6
				c0-0.2-0.1-0.4-0.4-0.6c-0.3-0.2-0.6-0.2-1-0.2c-0.4,0-0.7,0.1-1.1,0.3c-0.3,0.2-0.5,0.4-0.5,0.6c0,0.2,0.1,0.4,0.4,0.6
				C194.5,75.8,194.8,75.9,195.2,75.9z"/>
			<path class="st7" d="M200.1,76.1l0.7,0.4l-4.4,2.6l-0.7-0.4L200.1,76.1z M201.2,75.5c0-0.1,0.1-0.2,0.2-0.3
				c0.1-0.1,0.3-0.1,0.5-0.1c0.2,0,0.3,0,0.5,0.1c0.1,0.1,0.2,0.2,0.2,0.3c0,0.1-0.1,0.2-0.2,0.3c-0.1,0.1-0.3,0.1-0.5,0.1
				c-0.2,0-0.3,0-0.5-0.1C201.3,75.7,201.2,75.6,201.2,75.5z"/>
			<path class="st7" d="M198.7,80.1c0.1-0.3,0.3-0.5,0.8-0.8l2.5-1.5l-0.7-0.4l0.5-0.3l0.7,0.4l1.3-0.7l0.6,0.3l-1.3,0.7l1.2,0.7
				l-0.5,0.3l-1.2-0.7l-2.6,1.5c-0.3,0.2-0.5,0.3-0.5,0.5s0.1,0.3,0.3,0.4c0.1,0.1,0.3,0.1,0.6,0.2l-0.4,0.4c-0.4-0.1-0.8-0.2-1-0.4
				C198.8,80.6,198.6,80.4,198.7,80.1z"/>
			<path class="st7" d="M201.6,81.9c0-0.3,0.2-0.5,0.6-0.7c0.5-0.3,1.1-0.4,1.8-0.3c0.7,0.1,1.6,0.4,2.6,0.9
				c0.3-0.2,0.6-0.4,0.6-0.6c0.1-0.2-0.1-0.4-0.4-0.6c-0.4-0.2-1-0.4-1.8-0.5l0.2-0.4c1,0.1,1.7,0.3,2.3,0.7
				c0.5,0.3,0.7,0.6,0.7,0.9c-0.1,0.3-0.4,0.6-1,1l-2.7,1.6l-0.5-0.3l0.5-0.3l0,0c-1-0.1-1.7-0.2-2.1-0.5
				C201.9,82.4,201.7,82.1,201.6,81.9z M203.7,82.7c0.3,0.1,0.7,0.1,1.1,0.1l1.3-0.7c-0.9-0.4-1.5-0.6-2-0.7c-0.5-0.1-0.9,0-1.2,0.2
				c-0.2,0.1-0.4,0.3-0.3,0.5c0,0.2,0.2,0.3,0.4,0.4C203.2,82.5,203.4,82.6,203.7,82.7z"/>
			<path class="st7" d="M206.4,84.7c0-0.2,0.2-0.3,0.5-0.5l5.7-3.3l0.7,0.4l-5.8,3.3c-0.1,0.1-0.2,0.1-0.2,0.2c0,0.1,0,0.1,0.1,0.1
				c0,0,0.1,0.1,0.2,0.1l-0.4,0.3c-0.2,0-0.3-0.1-0.5-0.2C206.4,85,206.3,84.9,206.4,84.7z"/>
			<path class="st7" d="M155.4,68.5c-0.1-0.3,0-0.6,0.4-0.8c0.2-0.1,0.4-0.2,0.7-0.2c0.3,0,0.6,0,1,0l0,0c0-0.1,0-0.2,0-0.3
				c0-0.1,0.2-0.2,0.3-0.3c0.2-0.1,0.4-0.2,0.6-0.2s0.5,0,0.7,0l0,0c0-0.2,0-0.3,0.1-0.5c0.1-0.2,0.3-0.3,0.5-0.5
				c0.3-0.2,0.7-0.3,1-0.4c0.4-0.1,0.8,0,1.2,0c0.4,0.1,0.7,0.2,1,0.4c0.2,0.1,0.4,0.3,0.5,0.4l1.5,0.9l-0.5,0.3l-0.9-0.5
				c0,0.1,0,0.3-0.1,0.4c-0.1,0.1-0.2,0.3-0.4,0.4c-0.3,0.2-0.6,0.3-1,0.3c-0.4,0.1-0.7,0-1.1,0c-0.4-0.1-0.7-0.2-1-0.4
				c-0.2-0.1-0.4-0.3-0.5-0.5c-0.2,0-0.3,0-0.5,0c-0.1,0-0.3,0.1-0.4,0.1c-0.2,0.1-0.2,0.2-0.2,0.3c0,0.1,0.2,0.3,0.5,0.4l0.9,0.5
				c0.5,0.3,0.8,0.6,0.9,0.8c0.1,0.2-0.1,0.5-0.4,0.7c-0.3,0.2-0.6,0.2-1,0.3c-0.4,0-0.9,0-1.3-0.1c-0.5-0.1-0.9-0.3-1.4-0.5
				C155.9,69.1,155.5,68.8,155.4,68.5z M157.9,69.6c0.3,0.1,0.6,0.1,0.9,0.1c0.3,0,0.5-0.1,0.7-0.2c0.2-0.1,0.3-0.2,0.2-0.4
				c-0.1-0.1-0.3-0.3-0.6-0.5l-0.8-0.5c-0.2-0.1-0.4-0.2-0.5-0.4c-0.5-0.1-1,0-1.3,0.2c-0.2,0.1-0.3,0.3-0.2,0.5
				c0.1,0.2,0.3,0.5,0.8,0.7C157.3,69.4,157.5,69.5,157.9,69.6z M161.3,67.4c0.4,0,0.8-0.1,1.1-0.3c0.3-0.2,0.5-0.4,0.5-0.6
				c0-0.2-0.1-0.4-0.4-0.6s-0.6-0.2-1-0.2c-0.4,0-0.7,0.1-1.1,0.3c-0.3,0.2-0.5,0.4-0.5,0.6c0,0.2,0.1,0.4,0.4,0.6
				C160.6,67.3,160.9,67.4,161.3,67.4z"/>
			<path class="st7" d="M166.2,67.6l0.7,0.4l-4.4,2.6l-0.7-0.4L166.2,67.6z M167.3,66.9c0-0.1,0.1-0.2,0.2-0.3
				c0.1-0.1,0.3-0.1,0.5-0.1c0.2,0,0.3,0,0.5,0.1c0.1,0.1,0.2,0.2,0.2,0.3c0,0.1-0.1,0.2-0.2,0.3c-0.1,0.1-0.3,0.1-0.5,0.1
				c-0.2,0-0.3,0-0.5-0.1C167.3,67.1,167.3,67,167.3,66.9z"/>
			<path class="st7" d="M170.1,68.9l-0.8,0.4l1,0.6l-0.5,0.3l-1-0.6l-3.9,2.2l-0.7-0.4l3.9-2.2l-0.6-0.3l0.5-0.3l0.6,0.3l0.8-0.4
				c0.5-0.3,0.9-0.4,1.4-0.4c0.5,0,0.9,0.1,1.3,0.3c0.2,0.1,0.4,0.3,0.6,0.5l-0.7,0.2c-0.1-0.1-0.2-0.3-0.4-0.4
				C171.2,68.5,170.7,68.6,170.1,68.9z"/>
			<path class="st7" d="M167.9,73.3c0.1-0.3,0.3-0.5,0.8-0.8l2.5-1.5l-0.7-0.4l0.5-0.3l0.7,0.4l1.3-0.7l0.6,0.3l-1.3,0.7l1.2,0.7
				l-0.5,0.3l-1.2-0.7l-2.6,1.5c-0.3,0.2-0.5,0.3-0.5,0.5c0,0.1,0.1,0.3,0.3,0.4c0.1,0.1,0.3,0.1,0.6,0.2l-0.4,0.4
				c-0.4-0.1-0.8-0.2-1-0.4C168,73.9,167.8,73.6,167.9,73.3z"/>
			<path class="st7" d="M173.2,76.6c-0.1-0.3-0.1-0.6,0.1-0.9c0.2-0.3,0.5-0.6,1-0.9c0.5-0.3,1-0.5,1.5-0.6c0.5-0.1,1.1-0.1,1.6,0
				c0.5,0.1,1,0.2,1.3,0.4c0.5,0.3,0.7,0.6,0.8,1l-0.8,0.1c0-0.2-0.1-0.3-0.1-0.4c-0.1-0.1-0.2-0.2-0.4-0.3c-0.3-0.2-0.6-0.3-1-0.3
				c-0.4,0-0.7,0-1.1,0.1c-0.4,0.1-0.8,0.2-1.1,0.4c-0.5,0.3-0.8,0.6-0.9,1c-0.1,0.3,0.1,0.6,0.5,0.9c0.4,0.2,0.9,0.3,1.5,0.4
				l-0.2,0.4c-0.4,0-0.7-0.1-1.1-0.1c-0.3-0.1-0.6-0.2-0.9-0.4C173.6,77.1,173.4,76.9,173.2,76.6z"/>
			<path class="st7" d="M177.1,78.7c0-0.3,0.2-0.5,0.6-0.7c0.5-0.3,1.1-0.4,1.8-0.3c0.7,0.1,1.6,0.4,2.6,0.9
				c0.3-0.2,0.6-0.4,0.6-0.6c0.1-0.2-0.1-0.4-0.4-0.6c-0.4-0.2-1-0.4-1.8-0.5l0.2-0.4c1,0.1,1.7,0.3,2.3,0.7
				c0.5,0.3,0.7,0.6,0.7,0.9c-0.1,0.3-0.4,0.6-1,1l-2.7,1.6l-0.5-0.3l0.5-0.3l0,0c-1-0.1-1.7-0.2-2.1-0.5
				C177.4,79.3,177.1,79,177.1,78.7z M179.2,79.5c0.3,0.1,0.7,0.1,1.1,0.1l1.3-0.7c-0.9-0.4-1.5-0.6-2-0.7c-0.5-0.1-0.9,0-1.2,0.2
				c-0.2,0.1-0.4,0.3-0.3,0.5c0,0.2,0.2,0.3,0.4,0.4C178.7,79.4,178.9,79.5,179.2,79.5z"/>
			<path class="st7" d="M186,79l0.5,0.3l-0.8,0.5l0,0c0.4-0.1,0.9-0.1,1.2-0.1c0.4,0,0.7,0.1,0.9,0.3c0.2,0.1,0.3,0.2,0.4,0.3
				l-0.7,0.3c-0.1-0.1-0.2-0.2-0.3-0.3c-0.2-0.1-0.5-0.2-0.9-0.2c-0.4,0-0.8,0-1.3,0.2l-2.9,1.7l-0.7-0.4L186,79z"/>
			<path class="st7" d="M185.5,83.3c0.1-0.4,0.5-0.8,1.2-1.3c0.5-0.3,1-0.5,1.5-0.6s1-0.1,1.5-0.1c0.5,0.1,0.9,0.2,1.2,0.4
				c0.2,0.1,0.4,0.3,0.5,0.4c0.1,0.2,0.2,0.4,0.2,0.6l0.7-0.5l1.7-1l0.7,0.4l-6.5,3.8l-0.5-0.3l0.5-0.3l0,0c-0.4,0-0.8,0-1.1-0.1
				c-0.4-0.1-0.7-0.2-0.9-0.3C185.7,84.1,185.4,83.7,185.5,83.3z M187.7,84.4c0.3,0.1,0.6,0.1,1.1,0.1l2.4-1.4
				c0-0.2-0.1-0.4-0.2-0.5c-0.1-0.1-0.3-0.3-0.5-0.4c-0.2-0.1-0.6-0.2-0.9-0.3c-0.4,0-0.7,0-1.1,0.1c-0.4,0.1-0.7,0.2-1.1,0.4
				c-0.5,0.3-0.9,0.6-1,0.9s0.1,0.6,0.5,0.8C187.1,84.3,187.4,84.3,187.7,84.4z"/>
		</g>
		<path class="st8" d="M324.4,70.7l-91.8-53c-5.8-3.3-15.9-2.9-22.5,0.9L10.2,134c-6.6,3.8-7.4,9.7-1.6,13l91.8,53
			c5.8,3.3,15.9,2.9,22.5-0.9L322.8,83.7C329.5,79.8,330.2,74,324.4,70.7z M129.9,188.6L28.4,130L203.2,29.1l101.5,58.6L129.9,188.6
			z"/>
		
			<ellipse transform="matrix(5.423482e-03 -1 1 5.423482e-03 -99.9611 232.3133)" class="st3" cx="66.8" cy="166.4" rx="6.4" ry="11.1"/>
		<path class="st3" d="M275.7,58.5c-0.6,0-1.1-0.1-1.5-0.3l-19.6-11.3c-0.4-0.2-0.7-0.6-0.7-1c0-0.5,0.3-0.9,0.9-1.3
			c0.5-0.3,1.2-0.5,1.9-0.5c0.6,0,1.1,0.1,1.5,0.3l19.6,11.3c0.4,0.2,0.7,0.6,0.7,1c0,0.5-0.3,0.9-0.9,1.3
			C277.1,58.3,276.4,58.5,275.7,58.5z"/>
		<path class="st9" d="M59,183.7l-9-5.2c-0.8-0.4-1.4-1.6-1.4-2.7l0,0c0-1,0.6-1.5,1.4-1.1l9,5.2c0.8,0.4,1.4,1.6,1.4,2.7l0,0
			C60.4,183.6,59.8,184.1,59,183.7z"/>
		<path class="st10" d="M60.4,182.6c0-1-0.6-2.2-1.4-2.7l-7.7-4.5c0,0,0,0,0,0l0,0c0,1,0.6,2.2,1.4,2.7L60.4,182.6
			C60.4,182.6,60.4,182.6,60.4,182.6L60.4,182.6z"/>
		<polygon class="st7" points="158.9,90.3 137.4,77.9 138.4,77.3 159.9,89.8 		"/>
	</g>
</g>
<g id="Notizblick">
	<g>
		<path class="st11" d="M446.7,54.5L598,141.9c8.5,4.9,7.9,13.4-1.3,18.7L399.9,274.2c-9.2,5.3-23.7,5.6-32.3,0.7l-151.3-87.3
			L446.7,54.5z"/>
		<path class="st11" d="M430.9,1.5l-230.3,133c-4,2.3-6.5,7.3-6.5,14.4c0,14.2,10,31.5,22.3,38.6l230.3-133
			c-12.3-7.1-22.3-24.4-22.3-38.6C424.4,8.8,426.9,3.8,430.9,1.5L430.9,1.5z"/>
		<path class="st12" d="M430.9,1.5l-230.3,133c4-2.3,9.6-2,15.8,1.5l5.3-3L446.7,3C440.5-0.5,434.9-0.8,430.9,1.5L430.9,1.5z"/>
		<path class="st13" d="M440.1,58.3l135.1,78c1.6,0.9,2.4,2.4,2.4,4.2c0,1.8-0.9,3.3-2.4,4.2L380.7,257.1c-4.7,2.7-10,2.7-14.7,0
			l-135.1-78L440.1,58.3z"/>
		<path class="st13" d="M440.1,53.2l135.1,78c1.6,0.9,2.4,2.4,2.4,4.2c0,1.8-0.9,3.3-2.4,4.2L380.7,252c-4.7,2.7-10,2.7-14.7,0
			l-135.1-78L440.1,53.2z"/>
		<path class="st13" d="M440.1,48l135.1,78c1.6,0.9,2.4,2.4,2.4,4.2c0,1.8-0.9,3.3-2.4,4.2L380.7,246.9c-4.7,2.7-10,2.7-14.7,0
			l-135.1-78L440.1,48z"/>
		<path class="st13" d="M440.1,42.9l135.1,78c1.6,0.9,2.4,2.4,2.4,4.2c0,1.8-0.9,3.3-2.4,4.2L380.7,241.7c-4.7,2.7-10,2.7-14.7,0
			l-135.1-78L440.1,42.9z"/>
		<path class="st13" d="M440.1,37.8l135.1,78c1.6,0.9,2.4,2.4,2.4,4.2c0,1.8-0.9,3.3-2.4,4.2L380.7,236.6c-4.7,2.7-10,2.7-14.7,0
			l-135-77.9l21.9-12.8L440.1,37.8z"/>
		<path class="st13" d="M440.1,32.6l135.1,78c1.6,0.9,2.4,2.4,2.4,4.2c0,1.8-0.9,3.3-2.4,4.2L380.7,231.4c-4.7,2.7-10,2.7-14.7,0
			l-135.1-78L440.1,32.6z"/>
		<path class="st13" d="M440.1,27.5l135.1,78c1.6,0.9,2.4,2.4,2.4,4.2c0,1.8-0.9,3.3-2.4,4.2L380.7,226.3c-4.7,2.7-10,2.7-14.7,0
			l-135.1-78L440.1,27.5z"/>
		<path class="st14" d="M380.7,113.9l59.4-86.5L230.9,148.3l4.5,2.6l-4.5,2.6l4.6,2.6l-4.4,2.6l4.3,2.5l-4.4,2.6l4.5,2.6l-4.5,2.6
			l4.4,2.6l-4.4,2.6l4.4,2.6l-4.4,2.6l135.1,78c0,0,0.1,0,0.1,0c4,2.3,8.9-0.7,8.9-5.2v-88L380.7,113.9z"/>
		<path class="st15" d="M440.1,22.3l135.1,78c1.6,0.9,2.4,2.4,2.4,4.2c0,1.8-0.9,3.3-2.4,4.2L380.7,221.2c-4.7,2.7-10,2.7-14.7,0
			l-135.1-78L440.1,22.3z"/>
		<path class="st16" d="M443.7,210.5c1,0.6,2.1,1.2,3.2,1.8c1.1,0.6,2.1,1.2,3.2,1.8c1.2,0.7,2.7,1.1,4.2,1.2
			c1.5,0.1,2.9-0.2,3.9-0.8c4.1-2.4,8.3-4.8,12.4-7.1c4.1-2.4,8.2-4.8,12.4-7.1c1-0.6,1.5-1.4,1.3-2.3c-0.1-0.8-0.8-1.7-2-2.4
			c-1.1-0.6-2.1-1.2-3.2-1.8c-1.1-0.6-2.1-1.2-3.2-1.8c-5.4,3.1-10.7,6.2-16.1,9.3C454.5,204.3,449.1,207.4,443.7,210.5L443.7,210.5
			z"/>
		<path class="st17" d="M412.1,223.6c1,0.6,2.1,1.2,3.2,1.8c1.1,0.6,2.1,1.2,3.2,1.8c1.2,0.7,2.7,1.1,4.2,1.2
			c1.5,0.1,2.9-0.2,3.9-0.8c4.1-2.4,8.2-4.8,12.4-7.1c4.1-2.4,8.3-4.8,12.4-7.1c1-0.6,1.5-1.4,1.3-2.3c-0.1-0.8-0.8-1.7-2-2.4
			c-1.1-0.6-2.1-1.2-3.2-1.8c-1.1-0.6-2.1-1.2-3.2-1.8c-5.4,3.1-10.7,6.2-16.1,9.3C422.8,217.4,417.5,220.5,412.1,223.6L412.1,223.6
			z"/>
		<path class="st18" d="M380.6,236.6c1,0.6,2.1,1.2,3.2,1.8c1.1,0.6,2.1,1.2,3.2,1.8c1.2,0.7,2.7,1.1,4.2,1.2
			c1.5,0.1,2.9-0.2,3.9-0.8c4.1-2.4,8.2-4.8,12.4-7.1c4.1-2.4,8.2-4.8,12.4-7.1c1-0.6,1.5-1.4,1.3-2.3c-0.1-0.8-0.8-1.7-2-2.4
			c-1.1-0.6-2.1-1.2-3.2-1.8c-1.1-0.6-2.1-1.2-3.2-1.8c-5.4,3.1-10.7,6.2-16.1,9.3C391.4,230.5,386,233.6,380.6,236.6L380.6,236.6z"
			/>
		<path class="st19" d="M231,181.1c10.4,6,12.7-2.5,12.7-14.5c0-12-2.3-23-12.7-29l-2.1-1.2v43.5L231,181.1z"/>
		<g class="st20">
			<path class="st21" d="M384.8,274c-0.3,0-0.6-0.3-0.6-0.6c0-0.4,0.3-0.7,0.6-0.7c0.4,0,0.8-0.1,1.3-0.1c0.4,0,0.7,0.2,0.7,0.6
				c0,0.4-0.2,0.7-0.6,0.7C385.8,274,385.3,274,384.8,274C384.9,274,384.9,274,384.8,274z M381,274C381,274,380.9,274,381,274
				c-0.5,0-0.9-0.1-1.4-0.2c-0.4-0.1-0.6-0.4-0.5-0.7c0.1-0.4,0.4-0.6,0.7-0.5c0.4,0.1,0.8,0.1,1.2,0.1c0.4,0,0.6,0.3,0.6,0.7
				C381.6,273.7,381.3,274,381,274z M390,273.3c-0.3,0-0.6-0.2-0.6-0.5c-0.1-0.3,0.1-0.7,0.5-0.8c0.4-0.1,0.8-0.2,1.2-0.3
				c0.3-0.1,0.7,0.1,0.8,0.4c0.1,0.3-0.1,0.7-0.4,0.8c-0.4,0.1-0.8,0.2-1.3,0.4C390.1,273.3,390,273.3,390,273.3z M375.9,272.9
				c-0.1,0-0.1,0-0.2,0c-0.4-0.1-0.8-0.3-1.3-0.5c-0.3-0.1-0.5-0.5-0.3-0.8c0.1-0.3,0.5-0.5,0.8-0.3c0.4,0.2,0.8,0.3,1.2,0.4
				c0.3,0.1,0.5,0.5,0.4,0.8C376.4,272.7,376.2,272.9,375.9,272.9z M394.8,271.5c-0.2,0-0.5-0.1-0.6-0.3c-0.2-0.3,0-0.7,0.3-0.9
				c0.2-0.1,0.3-0.2,0.5-0.3l0.6-0.3c0.3-0.2,0.7-0.1,0.9,0.2c0.2,0.3,0.1,0.7-0.2,0.9l-0.6,0.3c-0.2,0.1-0.4,0.2-0.5,0.3
				C395,271.5,394.9,271.5,394.8,271.5z M371.3,270.6c-0.1,0-0.2,0-0.3-0.1l-1.1-0.6c-0.3-0.2-0.4-0.6-0.2-0.9
				c0.2-0.3,0.6-0.4,0.9-0.2l1.1,0.6c0.3,0.2,0.4,0.6,0.2,0.9C371.8,270.5,371.5,270.6,371.3,270.6z M399.3,268.9
				c-0.2,0-0.4-0.1-0.6-0.3c-0.2-0.3-0.1-0.7,0.2-0.9l1.1-0.6c0.3-0.2,0.7-0.1,0.9,0.2c0.2,0.3,0.1,0.7-0.2,0.9l-1.1,0.6
				C399.5,268.9,399.4,268.9,399.3,268.9z M366.8,268c-0.1,0-0.2,0-0.3-0.1l-1.1-0.6c-0.3-0.2-0.4-0.6-0.2-0.9
				c0.2-0.3,0.6-0.4,0.9-0.2l1.1,0.6c0.3,0.2,0.4,0.6,0.2,0.9C367.3,267.9,367.1,268,366.8,268z M403.7,266.3
				c-0.2,0-0.4-0.1-0.6-0.3c-0.2-0.3-0.1-0.7,0.2-0.9l1.1-0.6c0.3-0.2,0.7-0.1,0.9,0.2c0.2,0.3,0.1,0.7-0.2,0.9l-1.1,0.6
				C404,266.3,403.8,266.3,403.7,266.3z M362.4,265.4c-0.1,0-0.2,0-0.3-0.1l-1.1-0.6c-0.3-0.2-0.4-0.6-0.2-0.9
				c0.2-0.3,0.6-0.4,0.9-0.2l1.1,0.6c0.3,0.2,0.4,0.6,0.2,0.9C362.8,265.3,362.6,265.4,362.4,265.4z M408.2,263.7
				c-0.2,0-0.4-0.1-0.6-0.3c-0.2-0.3-0.1-0.7,0.2-0.9l1.1-0.6c0.3-0.2,0.7-0.1,0.9,0.2c0.2,0.3,0.1,0.7-0.2,0.9l-1.1,0.6
				C408.4,263.7,408.3,263.7,408.2,263.7z M357.9,262.9c-0.1,0-0.2,0-0.3-0.1l-1.1-0.6c-0.3-0.2-0.4-0.6-0.2-0.9
				c0.2-0.3,0.6-0.4,0.9-0.2l1.1,0.6c0.3,0.2,0.4,0.6,0.2,0.9C358.3,262.7,358.1,262.9,357.9,262.9z M412.7,261.2
				c-0.2,0-0.4-0.1-0.6-0.3c-0.2-0.3-0.1-0.7,0.2-0.9l1.1-0.6c0.3-0.2,0.7-0.1,0.9,0.2c0.2,0.3,0.1,0.7-0.2,0.9l-1.1,0.6
				C412.9,261.1,412.8,261.2,412.7,261.2z M353.4,260.3c-0.1,0-0.2,0-0.3-0.1l-1.1-0.6c-0.3-0.2-0.4-0.6-0.2-0.9
				c0.2-0.3,0.6-0.4,0.9-0.2l1.1,0.6c0.3,0.2,0.4,0.6,0.2,0.9C353.9,260.2,353.7,260.3,353.4,260.3z M417.1,258.6
				c-0.2,0-0.4-0.1-0.6-0.3c-0.2-0.3-0.1-0.7,0.2-0.9l1.1-0.6c0.3-0.2,0.7-0.1,0.9,0.2c0.2,0.3,0.1,0.7-0.2,0.9l-1.1,0.6
				C417.4,258.5,417.3,258.6,417.1,258.6z M349,257.7c-0.1,0-0.2,0-0.3-0.1l-1.1-0.6c-0.3-0.2-0.4-0.6-0.2-0.9
				c0.2-0.3,0.6-0.4,0.9-0.2l1.1,0.6c0.3,0.2,0.4,0.6,0.2,0.9C349.4,257.6,349.2,257.7,349,257.7z M421.6,256
				c-0.2,0-0.4-0.1-0.6-0.3c-0.2-0.3-0.1-0.7,0.2-0.9l1.1-0.6c0.3-0.2,0.7-0.1,0.9,0.2c0.2,0.3,0.1,0.7-0.2,0.9l-1.1,0.6
				C421.8,256,421.7,256,421.6,256z M344.5,255.1c-0.1,0-0.2,0-0.3-0.1l-1.1-0.6c-0.3-0.2-0.4-0.6-0.2-0.9c0.2-0.3,0.6-0.4,0.9-0.2
				l1.1,0.6c0.3,0.2,0.4,0.6,0.2,0.9C344.9,255,344.7,255.1,344.5,255.1z M426.1,253.4c-0.2,0-0.4-0.1-0.6-0.3
				c-0.2-0.3-0.1-0.7,0.2-0.9l1.1-0.6c0.3-0.2,0.7-0.1,0.9,0.2c0.2,0.3,0.1,0.7-0.2,0.9l-1.1,0.6
				C426.3,253.4,426.2,253.4,426.1,253.4z M340,252.5c-0.1,0-0.2,0-0.3-0.1l-1.1-0.6c-0.3-0.2-0.4-0.6-0.2-0.9
				c0.2-0.3,0.6-0.4,0.9-0.2l1.1,0.6c0.3,0.2,0.4,0.6,0.2,0.9C340.4,252.4,340.2,252.5,340,252.5z M430.6,250.8
				c-0.2,0-0.4-0.1-0.6-0.3c-0.2-0.3-0.1-0.7,0.2-0.9l1.1-0.6c0.3-0.2,0.7-0.1,0.9,0.2c0.2,0.3,0.1,0.7-0.2,0.9l-1.1,0.6
				C430.8,250.8,430.7,250.8,430.6,250.8z M335.5,249.9c-0.1,0-0.2,0-0.3-0.1l-1.1-0.6c-0.3-0.2-0.4-0.6-0.2-0.9
				c0.2-0.3,0.6-0.4,0.9-0.2l1.1,0.6c0.3,0.2,0.4,0.6,0.2,0.9C336,249.8,335.8,249.9,335.5,249.9z M435,248.2
				c-0.2,0-0.4-0.1-0.6-0.3c-0.2-0.3-0.1-0.7,0.2-0.9l1.1-0.6c0.3-0.2,0.7-0.1,0.9,0.2c0.2,0.3,0.1,0.7-0.2,0.9l-1.1,0.6
				C435.3,248.2,435.2,248.2,435,248.2z M331.1,247.4c-0.1,0-0.2,0-0.3-0.1l-1.1-0.6c-0.3-0.2-0.4-0.6-0.2-0.9
				c0.2-0.3,0.6-0.4,0.9-0.2l1.1,0.6c0.3,0.2,0.4,0.6,0.2,0.9C331.5,247.2,331.3,247.4,331.1,247.4z M439.5,245.7
				c-0.2,0-0.4-0.1-0.6-0.3c-0.2-0.3-0.1-0.7,0.2-0.9l1.1-0.6c0.3-0.2,0.7-0.1,0.9,0.2c0.2,0.3,0.1,0.7-0.2,0.9l-1.1,0.6
				C439.7,245.6,439.6,245.7,439.5,245.7z M326.6,244.8c-0.1,0-0.2,0-0.3-0.1l-1.1-0.6c-0.3-0.2-0.4-0.6-0.2-0.9
				c0.2-0.3,0.6-0.4,0.9-0.2l1.1,0.6c0.3,0.2,0.4,0.6,0.2,0.9C327,244.7,326.8,244.8,326.6,244.8z M444,243.1
				c-0.2,0-0.4-0.1-0.6-0.3c-0.2-0.3-0.1-0.7,0.2-0.9l1.1-0.6c0.3-0.2,0.7-0.1,0.9,0.2c0.2,0.3,0.1,0.7-0.2,0.9l-1.1,0.6
				C444.2,243.1,444.1,243.1,444,243.1z M322.1,242.2c-0.1,0-0.2,0-0.3-0.1l-1.1-0.6c-0.3-0.2-0.4-0.6-0.2-0.9
				c0.2-0.3,0.6-0.4,0.9-0.2l1.1,0.6c0.3,0.2,0.4,0.6,0.2,0.9C322.6,242.1,322.3,242.2,322.1,242.2z M448.5,240.5
				c-0.2,0-0.4-0.1-0.6-0.3c-0.2-0.3-0.1-0.7,0.2-0.9l1.1-0.6c0.3-0.2,0.7-0.1,0.9,0.2c0.2,0.3,0.1,0.7-0.2,0.9l-1.1,0.6
				C448.7,240.5,448.6,240.5,448.5,240.5z M317.6,239.6c-0.1,0-0.2,0-0.3-0.1l-1.1-0.6c-0.3-0.2-0.4-0.6-0.2-0.9
				c0.2-0.3,0.6-0.4,0.9-0.2l1.1,0.6c0.3,0.2,0.4,0.6,0.2,0.9C318.1,239.5,317.9,239.6,317.6,239.6z M452.9,237.9
				c-0.2,0-0.4-0.1-0.6-0.3c-0.2-0.3-0.1-0.7,0.2-0.9l1.1-0.6c0.3-0.2,0.7-0.1,0.9,0.2c0.2,0.3,0.1,0.7-0.2,0.9l-1.1,0.6
				C453.2,237.9,453,237.9,452.9,237.9z M313.2,237c-0.1,0-0.2,0-0.3-0.1l-1.1-0.6c-0.3-0.2-0.4-0.6-0.2-0.9
				c0.2-0.3,0.6-0.4,0.9-0.2l1.1,0.6c0.3,0.2,0.4,0.6,0.2,0.9C313.6,236.9,313.4,237,313.2,237z M457.4,235.3
				c-0.2,0-0.4-0.1-0.6-0.3c-0.2-0.3-0.1-0.7,0.2-0.9l1.1-0.6c0.3-0.2,0.7-0.1,0.9,0.2c0.2,0.3,0.1,0.7-0.2,0.9l-1.1,0.6
				C457.6,235.3,457.5,235.3,457.4,235.3z M308.7,234.4c-0.1,0-0.2,0-0.3-0.1l-1.1-0.6c-0.3-0.2-0.4-0.6-0.2-0.9
				c0.2-0.3,0.6-0.4,0.9-0.2l1.1,0.6c0.3,0.2,0.4,0.6,0.2,0.9C309.1,234.3,308.9,234.4,308.7,234.4z M461.9,232.8
				c-0.2,0-0.4-0.1-0.6-0.3c-0.2-0.3-0.1-0.7,0.2-0.9l1.1-0.6c0.3-0.2,0.7-0.1,0.9,0.2c0.2,0.3,0.1,0.7-0.2,0.9l-1.1,0.6
				C462.1,232.7,462,232.8,461.9,232.8z M304.2,231.9c-0.1,0-0.2,0-0.3-0.1l-1.1-0.6c-0.3-0.2-0.4-0.6-0.2-0.9
				c0.2-0.3,0.6-0.4,0.9-0.2l1.1,0.6c0.3,0.2,0.4,0.6,0.2,0.9C304.7,231.8,304.5,231.9,304.2,231.9z M466.4,230.2
				c-0.2,0-0.4-0.1-0.6-0.3c-0.2-0.3-0.1-0.7,0.2-0.9l1.1-0.6c0.3-0.2,0.7-0.1,0.9,0.2c0.2,0.3,0.1,0.7-0.2,0.9l-1.1,0.6
				C466.6,230.1,466.5,230.2,466.4,230.2z M299.8,229.3c-0.1,0-0.2,0-0.3-0.1l-1.1-0.6c-0.3-0.2-0.4-0.6-0.2-0.9
				c0.2-0.3,0.6-0.4,0.9-0.2l1.1,0.6c0.3,0.2,0.4,0.6,0.2,0.9C300.2,229.2,300,229.3,299.8,229.3z M470.8,227.6
				c-0.2,0-0.4-0.1-0.6-0.3c-0.2-0.3-0.1-0.7,0.2-0.9l1.1-0.6c0.3-0.2,0.7-0.1,0.9,0.2c0.2,0.3,0.1,0.7-0.2,0.9l-1.1,0.6
				C471,227.6,470.9,227.6,470.8,227.6z M295.3,226.7c-0.1,0-0.2,0-0.3-0.1l-1.1-0.6c-0.3-0.2-0.4-0.6-0.2-0.9
				c0.2-0.3,0.6-0.4,0.9-0.2l1.1,0.6c0.3,0.2,0.4,0.6,0.2,0.9C295.7,226.6,295.5,226.7,295.3,226.7z M475.3,225
				c-0.2,0-0.4-0.1-0.6-0.3c-0.2-0.3-0.1-0.7,0.2-0.9l1.1-0.6c0.3-0.2,0.7-0.1,0.9,0.2c0.2,0.3,0.1,0.7-0.2,0.9l-1.1,0.6
				C475.5,225,475.4,225,475.3,225z M290.8,224.1c-0.1,0-0.2,0-0.3-0.1l-1.1-0.6c-0.3-0.2-0.4-0.6-0.2-0.9c0.2-0.3,0.6-0.4,0.9-0.2
				l1.1,0.6c0.3,0.2,0.4,0.6,0.2,0.9C291.2,224,291,224.1,290.8,224.1z M479.8,222.4c-0.2,0-0.4-0.1-0.6-0.3
				c-0.2-0.3-0.1-0.7,0.2-0.9l1.1-0.6c0.3-0.2,0.7-0.1,0.9,0.2c0.2,0.3,0.1,0.7-0.2,0.9l-1.1,0.6C480,222.4,479.9,222.4,479.8,222.4
				z M286.3,221.5c-0.1,0-0.2,0-0.3-0.1l-1.1-0.6c-0.3-0.2-0.4-0.6-0.2-0.9c0.2-0.3,0.6-0.4,0.9-0.2l1.1,0.6
				c0.3,0.2,0.4,0.6,0.2,0.9C286.8,221.4,286.6,221.5,286.3,221.5z M484.2,219.8c-0.2,0-0.4-0.1-0.6-0.3c-0.2-0.3-0.1-0.7,0.2-0.9
				l1.1-0.6c0.3-0.2,0.7-0.1,0.9,0.2c0.2,0.3,0.1,0.7-0.2,0.9l-1.1,0.6C484.5,219.8,484.4,219.8,484.2,219.8z M281.9,219
				c-0.1,0-0.2,0-0.3-0.1l-1.1-0.6c-0.3-0.2-0.4-0.6-0.2-0.9c0.2-0.3,0.6-0.4,0.9-0.2l1.1,0.6c0.3,0.2,0.4,0.6,0.2,0.9
				C282.3,218.8,282.1,219,281.9,219z M488.7,217.3c-0.2,0-0.4-0.1-0.6-0.3c-0.2-0.3-0.1-0.7,0.2-0.9l1.1-0.6
				c0.3-0.2,0.7-0.1,0.9,0.2c0.2,0.3,0.1,0.7-0.2,0.9l-1.1,0.6C488.9,217.2,488.8,217.3,488.7,217.3z M277.4,216.4
				c-0.1,0-0.2,0-0.3-0.1l-1.1-0.6c-0.3-0.2-0.4-0.6-0.2-0.9c0.2-0.3,0.6-0.4,0.9-0.2l1.1,0.6c0.3,0.2,0.4,0.6,0.2,0.9
				C277.8,216.3,277.6,216.4,277.4,216.4z M493.2,214.7c-0.2,0-0.4-0.1-0.6-0.3c-0.2-0.3-0.1-0.7,0.2-0.9l1.1-0.6
				c0.3-0.2,0.7-0.1,0.9,0.2c0.2,0.3,0.1,0.7-0.2,0.9l-1.1,0.6C493.4,214.6,493.3,214.7,493.2,214.7z M272.9,213.8
				c-0.1,0-0.2,0-0.3-0.1l-1.1-0.6c-0.3-0.2-0.4-0.6-0.2-0.9c0.2-0.3,0.6-0.4,0.9-0.2l1.1,0.6c0.3,0.2,0.4,0.6,0.2,0.9
				C273.4,213.7,273.1,213.8,272.9,213.8z M497.7,212.1c-0.2,0-0.4-0.1-0.6-0.3c-0.2-0.3-0.1-0.7,0.2-0.9l1.1-0.6
				c0.3-0.2,0.7-0.1,0.9,0.2c0.2,0.3,0.1,0.7-0.2,0.9L498,212C497.9,212.1,497.8,212.1,497.7,212.1z M268.4,211.2
				c-0.1,0-0.2,0-0.3-0.1l-1.1-0.6c-0.3-0.2-0.4-0.6-0.2-0.9c0.2-0.3,0.6-0.4,0.9-0.2l1.1,0.6c0.3,0.2,0.4,0.6,0.2,0.9
				C268.9,211.1,268.7,211.2,268.4,211.2z M502.1,209.5c-0.2,0-0.4-0.1-0.6-0.3c-0.2-0.3-0.1-0.7,0.2-0.9l1.1-0.6
				c0.3-0.2,0.7-0.1,0.9,0.2c0.2,0.3,0.1,0.7-0.2,0.9l-1.1,0.6C502.4,209.5,502.2,209.5,502.1,209.5z M264,208.6
				c-0.1,0-0.2,0-0.3-0.1l-1.1-0.6c-0.3-0.2-0.4-0.6-0.2-0.9c0.2-0.3,0.6-0.4,0.9-0.2l1.1,0.6c0.3,0.2,0.4,0.6,0.2,0.9
				C264.4,208.5,264.2,208.6,264,208.6z M506.6,206.9c-0.2,0-0.4-0.1-0.6-0.3c-0.2-0.3-0.1-0.7,0.2-0.9l1.1-0.6
				c0.3-0.2,0.7-0.1,0.9,0.2c0.2,0.3,0.1,0.7-0.2,0.9l-1.1,0.6C506.8,206.9,506.7,206.9,506.6,206.9z M259.5,206
				c-0.1,0-0.2,0-0.3-0.1l-1.1-0.6c-0.3-0.2-0.4-0.6-0.2-0.9c0.2-0.3,0.6-0.4,0.9-0.2l1.1,0.6c0.3,0.2,0.4,0.6,0.2,0.9
				C259.9,205.9,259.7,206,259.5,206z M511.1,204.3c-0.2,0-0.4-0.1-0.6-0.3c-0.2-0.3-0.1-0.7,0.2-0.9l1.1-0.6
				c0.3-0.2,0.7-0.1,0.9,0.2c0.2,0.3,0.1,0.7-0.2,0.9l-1.1,0.6C511.3,204.3,511.2,204.3,511.1,204.3z M255,203.5
				c-0.1,0-0.2,0-0.3-0.1l-1.1-0.6c-0.3-0.2-0.4-0.6-0.2-0.9c0.2-0.3,0.6-0.4,0.9-0.2l1.1,0.6c0.3,0.2,0.4,0.6,0.2,0.9
				C255.5,203.3,255.3,203.5,255,203.5z M515.6,201.8c-0.2,0-0.4-0.1-0.6-0.3c-0.2-0.3-0.1-0.7,0.2-0.9l1.1-0.6
				c0.3-0.2,0.7-0.1,0.9,0.2c0.2,0.3,0.1,0.7-0.2,0.9l-1.1,0.6C515.8,201.7,515.7,201.8,515.6,201.8z M250.6,200.9
				c-0.1,0-0.2,0-0.3-0.1l-1.1-0.6c-0.3-0.2-0.4-0.6-0.2-0.9c0.2-0.3,0.6-0.4,0.9-0.2l1.1,0.6c0.3,0.2,0.4,0.6,0.2,0.9
				C251,200.8,250.8,200.9,250.6,200.9z M520,199.2c-0.2,0-0.4-0.1-0.6-0.3c-0.2-0.3-0.1-0.7,0.2-0.9l1.1-0.6
				c0.3-0.2,0.7-0.1,0.9,0.2c0.2,0.3,0.1,0.7-0.2,0.9l-1.1,0.6C520.2,199.2,520.1,199.2,520,199.2z M246.1,198.3
				c-0.1,0-0.2,0-0.3-0.1l-1.1-0.6c-0.3-0.2-0.4-0.6-0.2-0.9c0.2-0.3,0.6-0.4,0.9-0.2l1.1,0.6c0.3,0.2,0.4,0.6,0.2,0.9
				C246.5,198.2,246.3,198.3,246.1,198.3z M524.5,196.6c-0.2,0-0.4-0.1-0.6-0.3c-0.2-0.3-0.1-0.7,0.2-0.9l1.1-0.6
				c0.3-0.2,0.7-0.1,0.9,0.2c0.2,0.3,0.1,0.7-0.2,0.9l-1.1,0.6C524.7,196.6,524.6,196.6,524.5,196.6z M241.6,195.7
				c-0.1,0-0.2,0-0.3-0.1l-1.1-0.6c-0.3-0.2-0.4-0.6-0.2-0.9c0.2-0.3,0.6-0.4,0.9-0.2l1.1,0.6c0.3,0.2,0.4,0.6,0.2,0.9
				C242.1,195.6,241.8,195.7,241.6,195.7z M529,194c-0.2,0-0.4-0.1-0.6-0.3c-0.2-0.3-0.1-0.7,0.2-0.9l1.1-0.6
				c0.3-0.2,0.7-0.1,0.9,0.2c0.2,0.3,0.1,0.7-0.2,0.9l-1.1,0.6C529.2,194,529.1,194,529,194z M237.1,193.1c-0.1,0-0.2,0-0.3-0.1
				l-1.1-0.6c-0.3-0.2-0.4-0.6-0.2-0.9c0.2-0.3,0.6-0.4,0.9-0.2l1.1,0.6c0.3,0.2,0.4,0.6,0.2,0.9C237.6,193,237.4,193.1,237.1,193.1
				z M533.4,191.4c-0.2,0-0.4-0.1-0.6-0.3c-0.2-0.3-0.1-0.7,0.2-0.9l1.1-0.6c0.3-0.2,0.7-0.1,0.9,0.2c0.2,0.3,0.1,0.7-0.2,0.9
				l-1.1,0.6C533.7,191.4,533.6,191.4,533.4,191.4z M232.7,190.5c-0.1,0-0.2,0-0.3-0.1l-1.1-0.6c-0.3-0.2-0.4-0.6-0.2-0.9
				c0.2-0.3,0.6-0.4,0.9-0.2l1.1,0.6c0.3,0.2,0.4,0.6,0.2,0.9C233.1,190.4,232.9,190.5,232.7,190.5z M537.9,188.8
				c-0.2,0-0.4-0.1-0.6-0.3c-0.2-0.3-0.1-0.7,0.2-0.9l1.1-0.6c0.3-0.2,0.7-0.1,0.9,0.2c0.2,0.3,0.1,0.7-0.2,0.9l-1.1,0.6
				C538.1,188.8,538,188.8,537.9,188.8z M228.2,188c-0.1,0-0.2,0-0.3-0.1l-1.1-0.6c-0.3-0.2-0.4-0.6-0.2-0.9
				c0.2-0.3,0.6-0.4,0.9-0.2l1.1,0.6c0.3,0.2,0.4,0.6,0.2,0.9C228.6,187.8,228.4,188,228.2,188z M542.4,186.3
				c-0.2,0-0.4-0.1-0.6-0.3c-0.2-0.3-0.1-0.7,0.2-0.9l1.1-0.6c0.3-0.2,0.7-0.1,0.9,0.2c0.2,0.3,0.1,0.7-0.2,0.9l-1.1,0.6
				C542.6,186.2,542.5,186.3,542.4,186.3z M223.7,185.4c-0.1,0-0.2,0-0.3-0.1l-0.4-0.2c-0.2-0.1-0.5-0.3-0.7-0.4
				c-0.3-0.2-0.4-0.6-0.2-0.9c0.2-0.3,0.6-0.4,0.9-0.2c0.2,0.1,0.5,0.3,0.7,0.4l0.4,0.2c0.3,0.2,0.4,0.6,0.2,0.9
				C224.2,185.3,223.9,185.4,223.7,185.4z M546.9,183.7c-0.2,0-0.4-0.1-0.6-0.3c-0.2-0.3-0.1-0.7,0.2-0.9l1.1-0.6
				c0.3-0.2,0.7-0.1,0.9,0.2c0.2,0.3,0.1,0.7-0.2,0.9l-1.1,0.6C547.1,183.7,547,183.7,546.9,183.7z M219.5,182.4
				c-0.1,0-0.3,0-0.4-0.1c-0.3-0.3-0.7-0.6-1-0.9c-0.3-0.2-0.3-0.6-0.1-0.9c0.2-0.3,0.6-0.3,0.9-0.1c0.3,0.3,0.6,0.6,1,0.8
				c0.3,0.2,0.3,0.6,0.1,0.9C219.8,182.4,219.7,182.4,219.5,182.4z M551.3,181.1c-0.2,0-0.4-0.1-0.6-0.3c-0.2-0.3-0.1-0.7,0.2-0.9
				l1.1-0.6c0.3-0.2,0.7-0.1,0.9,0.2c0.2,0.3,0.1,0.7-0.2,0.9l-1.1,0.6C551.6,181.1,551.4,181.1,551.3,181.1z M215.7,178.9
				c-0.2,0-0.3-0.1-0.5-0.2c-0.3-0.3-0.6-0.6-0.9-1c-0.2-0.3-0.2-0.7,0.1-0.9c0.3-0.2,0.7-0.2,0.9,0.1c0.3,0.3,0.6,0.6,0.8,0.9
				c0.2,0.3,0.2,0.7,0,0.9C216,178.8,215.9,178.9,215.7,178.9z M555.8,178.5c-0.2,0-0.4-0.1-0.6-0.3c-0.2-0.3-0.1-0.7,0.2-0.9
				l1.1-0.6c0.3-0.2,0.7-0.1,0.9,0.2c0.2,0.3,0.1,0.7-0.2,0.9l-1.1,0.6C556,178.5,555.9,178.5,555.8,178.5z M560.3,175.9
				c-0.2,0-0.4-0.1-0.6-0.3c-0.2-0.3-0.1-0.7,0.2-0.9l1.1-0.6c0.3-0.2,0.7-0.1,0.9,0.2c0.2,0.3,0.1,0.7-0.2,0.9l-1.1,0.6
				C560.5,175.9,560.4,175.9,560.3,175.9z M212.4,174.9c-0.2,0-0.4-0.1-0.5-0.3c-0.3-0.3-0.5-0.7-0.8-1.1c-0.2-0.3-0.1-0.7,0.2-0.9
				c0.3-0.2,0.7-0.1,0.9,0.2c0.2,0.4,0.5,0.7,0.7,1c0.2,0.3,0.1,0.7-0.1,0.9C212.7,174.9,212.6,174.9,212.4,174.9z M564.8,173.4
				c-0.2,0-0.4-0.1-0.6-0.3c-0.2-0.3-0.1-0.7,0.2-0.9l1.1-0.6c0.3-0.2,0.7-0.1,0.9,0.2c0.2,0.3,0.1,0.7-0.2,0.9l-1.1,0.6
				C565,173.3,564.9,173.4,564.8,173.4z M569.2,170.8c-0.2,0-0.4-0.1-0.6-0.3c-0.2-0.3-0.1-0.7,0.2-0.9l1.1-0.6
				c0.3-0.2,0.7-0.1,0.9,0.2c0.2,0.3,0.1,0.7-0.2,0.9l-1.1,0.6C569.5,170.7,569.3,170.8,569.2,170.8z M209.6,170.6
				c-0.2,0-0.4-0.1-0.6-0.3c-0.2-0.4-0.4-0.8-0.7-1.1c-0.2-0.3-0.1-0.7,0.2-0.9c0.3-0.2,0.7-0.1,0.9,0.2c0.2,0.4,0.4,0.7,0.6,1.1
				c0.2,0.3,0.1,0.7-0.2,0.9C209.8,170.6,209.7,170.6,209.6,170.6z M573.7,168.2c-0.2,0-0.4-0.1-0.6-0.3c-0.2-0.3-0.1-0.7,0.2-0.9
				l1.1-0.6c0.3-0.2,0.7-0.1,0.9,0.2c0.2,0.3,0.1,0.7-0.2,0.9l-1.1,0.6C573.9,168.2,573.8,168.2,573.7,168.2z M207.1,166
				c-0.2,0-0.5-0.1-0.6-0.4c-0.2-0.4-0.4-0.8-0.6-1.2c-0.1-0.3,0-0.7,0.3-0.9c0.3-0.1,0.7,0,0.9,0.3c0.2,0.4,0.4,0.8,0.5,1.2
				c0.2,0.3,0,0.7-0.3,0.9C207.3,166,207.2,166,207.1,166z M578.2,165.6c-0.2,0-0.4-0.1-0.6-0.3c-0.2-0.3-0.1-0.7,0.2-0.9l1.1-0.6
				c0.3-0.2,0.7-0.1,0.9,0.2c0.2,0.3,0.1,0.7-0.2,0.9l-1.1,0.6C578.4,165.6,578.3,165.6,578.2,165.6z M582.6,163
				c-0.2,0-0.4-0.1-0.6-0.3c-0.2-0.3-0.1-0.7,0.2-0.9l1.1-0.6c0.3-0.2,0.7-0.1,0.9,0.2c0.2,0.3,0.1,0.7-0.2,0.9l-1.1,0.6
				C582.9,163,582.8,163,582.6,163z M205.1,161.3c-0.3,0-0.5-0.2-0.6-0.4c-0.1-0.4-0.3-0.8-0.4-1.2c-0.1-0.3,0.1-0.7,0.4-0.8
				c0.3-0.1,0.7,0.1,0.8,0.4c0.1,0.4,0.3,0.8,0.4,1.2c0.1,0.3-0.1,0.7-0.4,0.8C205.3,161.3,205.2,161.3,205.1,161.3z M587.1,160.4
				c-0.2,0-0.4-0.1-0.6-0.3c-0.2-0.3-0.1-0.7,0.2-0.9l1.1-0.6c0.3-0.2,0.7-0.1,0.9,0.2c0.2,0.3,0.1,0.7-0.2,0.9l-1.1,0.6
				C587.3,160.4,587.2,160.4,587.1,160.4z M591.6,157.9c-0.2,0-0.4-0.1-0.6-0.3c-0.2-0.3-0.1-0.7,0.2-0.9l0.5-0.3
				c0.2-0.1,0.4-0.2,0.6-0.4c0.3-0.2,0.7-0.1,0.9,0.2c0.2,0.3,0.1,0.7-0.2,0.9c-0.2,0.1-0.4,0.3-0.7,0.4l-0.5,0.3
				C591.8,157.8,591.7,157.9,591.6,157.9z M203.6,156.4c-0.3,0-0.6-0.2-0.6-0.5c-0.1-0.4-0.2-0.9-0.3-1.3c-0.1-0.3,0.1-0.7,0.5-0.8
				c0.3-0.1,0.7,0.1,0.8,0.5c0.1,0.4,0.2,0.8,0.3,1.2c0.1,0.3-0.1,0.7-0.5,0.8C203.7,156.4,203.7,156.4,203.6,156.4z M595.6,154.6
				c-0.1,0-0.3,0-0.4-0.1c-0.3-0.2-0.3-0.6-0.1-0.9c0.3-0.3,0.5-0.7,0.7-1c0.2-0.3,0.6-0.4,0.9-0.3c0.3,0.2,0.4,0.6,0.3,0.9
				c-0.2,0.4-0.5,0.8-0.8,1.2C596,154.6,595.8,154.6,595.6,154.6z M202.7,151.3c-0.3,0-0.6-0.2-0.6-0.6c-0.1-0.4-0.1-0.9-0.1-1.3
				c0-0.4,0.2-0.7,0.6-0.7c0.4,0,0.7,0.2,0.7,0.6c0,0.4,0.1,0.8,0.1,1.3C203.4,150.9,203.1,151.2,202.7,151.3
				C202.7,151.3,202.7,151.3,202.7,151.3z M597,149.8c-0.3,0-0.6-0.2-0.6-0.5c-0.1-0.4-0.2-0.7-0.3-1.1c-0.1-0.3,0-0.7,0.3-0.8
				c0.3-0.1,0.7,0,0.8,0.3c0.2,0.4,0.3,0.9,0.4,1.4c0.1,0.4-0.2,0.7-0.5,0.7C597,149.8,597,149.8,597,149.8z M202.5,146.1
				C202.4,146.1,202.4,146.1,202.5,146.1c-0.4,0-0.7-0.3-0.6-0.7c0-0.4,0-0.9,0.1-1.3c0-0.4,0.3-0.6,0.7-0.6c0.4,0,0.6,0.3,0.6,0.7
				c0,0.4-0.1,0.8-0.1,1.3C203.1,145.9,202.8,146.1,202.5,146.1z M594.2,145.6c-0.1,0-0.3,0-0.4-0.1c-0.3-0.2-0.6-0.5-1-0.7
				c-0.3-0.2-0.4-0.6-0.2-0.9c0.2-0.3,0.6-0.4,0.9-0.2c0.4,0.2,0.8,0.5,1.1,0.8c0.3,0.2,0.3,0.6,0.1,0.9
				C594.6,145.5,594.4,145.6,594.2,145.6z M589.8,143c-0.1,0-0.2,0-0.3-0.1l-1.1-0.6c-0.3-0.2-0.4-0.6-0.2-0.9
				c0.2-0.3,0.6-0.4,0.9-0.2l1.1,0.6c0.3,0.2,0.4,0.6,0.2,0.9C590.2,142.8,590,143,589.8,143z M203.2,141c-0.1,0-0.1,0-0.2,0
				c-0.3-0.1-0.5-0.4-0.5-0.8c0.1-0.4,0.3-0.9,0.4-1.3c0.1-0.3,0.5-0.5,0.8-0.4c0.3,0.1,0.5,0.5,0.4,0.8c-0.1,0.4-0.3,0.8-0.4,1.2
				C203.8,140.8,203.5,141,203.2,141z M585.3,140.4c-0.1,0-0.2,0-0.3-0.1l-1.1-0.6c-0.3-0.2-0.4-0.6-0.2-0.9
				c0.2-0.3,0.6-0.4,0.9-0.2l1.1,0.6c0.3,0.2,0.4,0.6,0.2,0.9C585.7,140.3,585.5,140.4,585.3,140.4z M580.8,137.8
				c-0.1,0-0.2,0-0.3-0.1l-0.5-0.3c-0.3-0.2-0.4-0.6-0.2-0.9c0.2-0.3,0.6-0.4,0.9-0.2l0.5,0.3c0.3,0.2,0.4,0.6,0.2,0.9
				C581.2,137.7,581,137.8,580.8,137.8z M205.3,136.3c-0.1,0-0.3,0-0.4-0.1c-0.3-0.2-0.4-0.6-0.2-0.9c0.3-0.4,0.5-0.7,0.8-1.1
				c0.2-0.3,0.6-0.3,0.9-0.1c0.3,0.2,0.3,0.6,0.1,0.9c-0.3,0.3-0.5,0.6-0.7,1C205.7,136.2,205.5,136.3,205.3,136.3z"/>
		</g>
		<path class="st12" d="M446.6,3L598,90.4c6.4,3.5,7.9,13.4-1.3,18.7L399.9,222.7c-11.2,6.5-23.7,5.6-32.3,0.7L216.3,136L446.6,3z"
			/>
		<g class="st22">
			<path class="st21" d="M384.6,223.3c-0.3,0-0.6-0.3-0.6-0.6c0-0.4,0.3-0.7,0.6-0.7c0.4,0,0.8-0.1,1.3-0.1c0.4-0.1,0.7,0.2,0.7,0.6
				c0,0.4-0.2,0.7-0.6,0.7C385.5,223.3,385.1,223.3,384.6,223.3C384.6,223.3,384.6,223.3,384.6,223.3z M380.7,223.3
				C380.7,223.3,380.7,223.3,380.7,223.3c-0.5,0-0.9-0.1-1.4-0.2c-0.4-0.1-0.6-0.4-0.5-0.7c0.1-0.4,0.4-0.6,0.7-0.5
				c0.4,0.1,0.8,0.1,1.2,0.1c0.4,0,0.6,0.3,0.6,0.7C381.3,223,381,223.3,380.7,223.3z M389.7,222.6c-0.3,0-0.6-0.2-0.6-0.5
				c-0.1-0.3,0.1-0.7,0.5-0.8c0.4-0.1,0.8-0.2,1.2-0.3c0.3-0.1,0.7,0.1,0.8,0.4c0.1,0.3-0.1,0.7-0.4,0.8c-0.4,0.1-0.8,0.2-1.3,0.4
				C389.8,222.6,389.7,222.6,389.7,222.6z M375.7,222.2c-0.1,0-0.1,0-0.2,0c-0.4-0.1-0.8-0.3-1.3-0.5c-0.3-0.1-0.5-0.5-0.3-0.8
				c0.1-0.3,0.5-0.5,0.8-0.3c0.4,0.2,0.8,0.3,1.2,0.4c0.3,0.1,0.5,0.5,0.4,0.8C376.2,222.1,375.9,222.2,375.7,222.2z M394.5,220.8
				c-0.2,0-0.5-0.1-0.6-0.3c-0.2-0.3,0-0.7,0.3-0.9c0.2-0.1,0.3-0.2,0.5-0.3l0.6-0.4c0.3-0.2,0.7-0.1,0.9,0.2
				c0.2,0.3,0.1,0.7-0.2,0.9l-0.6,0.4c-0.2,0.1-0.4,0.2-0.5,0.3C394.7,220.8,394.6,220.8,394.5,220.8z M371,219.9
				c-0.1,0-0.2,0-0.3-0.1l-1.1-0.6c-0.3-0.2-0.4-0.6-0.2-0.9c0.2-0.3,0.6-0.4,0.9-0.2l1.1,0.6c0.3,0.2,0.4,0.6,0.2,0.9
				C371.5,219.8,371.3,219.9,371,219.9z M399,218.2c-0.2,0-0.4-0.1-0.6-0.3c-0.2-0.3-0.1-0.7,0.2-0.9l1.1-0.6
				c0.3-0.2,0.7-0.1,0.9,0.2c0.2,0.3,0.1,0.7-0.2,0.9l-1.1,0.6C399.2,218.2,399.1,218.2,399,218.2z M366.6,217.3
				c-0.1,0-0.2,0-0.3-0.1l-1.1-0.6c-0.3-0.2-0.4-0.6-0.2-0.9c0.2-0.3,0.6-0.4,0.9-0.2l1.1,0.6c0.3,0.2,0.4,0.6,0.2,0.9
				C367,217.2,366.8,217.3,366.6,217.3z M403.5,215.6c-0.2,0-0.4-0.1-0.6-0.3c-0.2-0.3-0.1-0.7,0.2-0.9l1.1-0.6
				c0.3-0.2,0.7-0.1,0.9,0.2c0.2,0.3,0.1,0.7-0.2,0.9l-1.1,0.6C403.7,215.6,403.6,215.6,403.5,215.6z M362.1,214.8
				c-0.1,0-0.2,0-0.3-0.1l-1.1-0.6c-0.3-0.2-0.4-0.6-0.2-0.9c0.2-0.3,0.6-0.4,0.9-0.2l1.1,0.6c0.3,0.2,0.4,0.6,0.2,0.9
				C362.5,214.6,362.3,214.8,362.1,214.8z M407.9,213c-0.2,0-0.4-0.1-0.6-0.3c-0.2-0.3-0.1-0.7,0.2-0.9l1.1-0.6
				c0.3-0.2,0.7-0.1,0.9,0.2c0.2,0.3,0.1,0.7-0.2,0.9l-1.1,0.6C408.2,213,408,213,407.9,213z M357.6,212.2c-0.1,0-0.2,0-0.3-0.1
				l-1.1-0.6c-0.3-0.2-0.4-0.6-0.2-0.9c0.2-0.3,0.6-0.4,0.9-0.2l1.1,0.6c0.3,0.2,0.4,0.6,0.2,0.9
				C358.1,212.1,357.9,212.2,357.6,212.2z M412.4,210.5c-0.2,0-0.4-0.1-0.6-0.3c-0.2-0.3-0.1-0.7,0.2-0.9l1.1-0.6
				c0.3-0.2,0.7-0.1,0.9,0.2c0.2,0.3,0.1,0.7-0.2,0.9l-1.1,0.6C412.6,210.4,412.5,210.5,412.4,210.5z M353.2,209.6
				c-0.1,0-0.2,0-0.3-0.1l-1.1-0.6c-0.3-0.2-0.4-0.6-0.2-0.9c0.2-0.3,0.6-0.4,0.9-0.2l1.1,0.6c0.3,0.2,0.4,0.6,0.2,0.9
				C353.6,209.5,353.4,209.6,353.2,209.6z M416.9,207.9c-0.2,0-0.4-0.1-0.6-0.3c-0.2-0.3-0.1-0.7,0.2-0.9l1.1-0.6
				c0.3-0.2,0.7-0.1,0.9,0.2c0.2,0.3,0.1,0.7-0.2,0.9l-1.1,0.6C417.1,207.9,417,207.9,416.9,207.9z M348.7,207c-0.1,0-0.2,0-0.3-0.1
				l-1.1-0.6c-0.3-0.2-0.4-0.6-0.2-0.9c0.2-0.3,0.6-0.4,0.9-0.2l1.1,0.6c0.3,0.2,0.4,0.6,0.2,0.9C349.1,206.9,348.9,207,348.7,207z
				 M421.4,205.3c-0.2,0-0.4-0.1-0.6-0.3c-0.2-0.3-0.1-0.7,0.2-0.9l1.1-0.6c0.3-0.2,0.7-0.1,0.9,0.2c0.2,0.3,0.1,0.7-0.2,0.9
				l-1.1,0.6C421.6,205.3,421.5,205.3,421.4,205.3z M344.2,204.4c-0.1,0-0.2,0-0.3-0.1l-1.1-0.6c-0.3-0.2-0.4-0.6-0.2-0.9
				c0.2-0.3,0.6-0.4,0.9-0.2l1.1,0.6c0.3,0.2,0.4,0.6,0.2,0.9C344.7,204.3,344.4,204.4,344.2,204.4z M425.8,202.7
				c-0.2,0-0.4-0.1-0.6-0.3c-0.2-0.3-0.1-0.7,0.2-0.9l1.1-0.6c0.3-0.2,0.7-0.1,0.9,0.2c0.2,0.3,0.1,0.7-0.2,0.9l-1.1,0.6
				C426,202.7,425.9,202.7,425.8,202.7z M339.7,201.8c-0.1,0-0.2,0-0.3-0.1l-1.1-0.6c-0.3-0.2-0.4-0.6-0.2-0.9
				c0.2-0.3,0.6-0.4,0.9-0.2l1.1,0.6c0.3,0.2,0.4,0.6,0.2,0.9C340.2,201.7,340,201.8,339.7,201.8z M430.3,200.1
				c-0.2,0-0.4-0.1-0.6-0.3c-0.2-0.3-0.1-0.7,0.2-0.9l1.1-0.6c0.3-0.2,0.7-0.1,0.9,0.2c0.2,0.3,0.1,0.7-0.2,0.9l-1.1,0.6
				C430.5,200.1,430.4,200.1,430.3,200.1z M335.3,199.3c-0.1,0-0.2,0-0.3-0.1l-1.1-0.6c-0.3-0.2-0.4-0.6-0.2-0.9
				c0.2-0.3,0.6-0.4,0.9-0.2l1.1,0.6c0.3,0.2,0.4,0.6,0.2,0.9C335.7,199.1,335.5,199.3,335.3,199.3z M434.8,197.6
				c-0.2,0-0.4-0.1-0.6-0.3c-0.2-0.3-0.1-0.7,0.2-0.9l1.1-0.6c0.3-0.2,0.7-0.1,0.9,0.2c0.2,0.3,0.1,0.7-0.2,0.9l-1.1,0.6
				C435,197.5,434.9,197.6,434.8,197.6z M330.8,196.7c-0.1,0-0.2,0-0.3-0.1l-1.1-0.6c-0.3-0.2-0.4-0.6-0.2-0.9
				c0.2-0.3,0.6-0.4,0.9-0.2l1.1,0.6c0.3,0.2,0.4,0.6,0.2,0.9C331.2,196.6,331,196.7,330.8,196.7z M439.2,195
				c-0.2,0-0.4-0.1-0.6-0.3c-0.2-0.3-0.1-0.7,0.2-0.9l1.1-0.6c0.3-0.2,0.7-0.1,0.9,0.2c0.2,0.3,0.1,0.7-0.2,0.9l-1.1,0.6
				C439.5,194.9,439.4,195,439.2,195z M326.3,194.1c-0.1,0-0.2,0-0.3-0.1l-1.1-0.6c-0.3-0.2-0.4-0.6-0.2-0.9
				c0.2-0.3,0.6-0.4,0.9-0.2l1.1,0.6c0.3,0.2,0.4,0.6,0.2,0.9C326.8,194,326.5,194.1,326.3,194.1z M443.7,192.4
				c-0.2,0-0.4-0.1-0.6-0.3c-0.2-0.3-0.1-0.7,0.2-0.9l1.1-0.6c0.3-0.2,0.7-0.1,0.9,0.2c0.2,0.3,0.1,0.7-0.2,0.9l-1.1,0.6
				C443.9,192.4,443.8,192.4,443.7,192.4z M321.9,191.5c-0.1,0-0.2,0-0.3-0.1l-1.1-0.6c-0.3-0.2-0.4-0.6-0.2-0.9
				c0.2-0.3,0.6-0.4,0.9-0.2l1.1,0.6c0.3,0.2,0.4,0.6,0.2,0.9C322.3,191.4,322.1,191.5,321.9,191.5z M448.2,189.8
				c-0.2,0-0.4-0.1-0.6-0.3c-0.2-0.3-0.1-0.7,0.2-0.9l1.1-0.6c0.3-0.2,0.7-0.1,0.9,0.2c0.2,0.3,0.1,0.7-0.2,0.9l-1.1,0.6
				C448.4,189.8,448.3,189.8,448.2,189.8z M317.4,188.9c-0.1,0-0.2,0-0.3-0.1l-1.1-0.6c-0.3-0.2-0.4-0.6-0.2-0.9
				c0.2-0.3,0.6-0.4,0.9-0.2l1.1,0.6c0.3,0.2,0.4,0.6,0.2,0.9C317.8,188.8,317.6,188.9,317.4,188.9z M452.7,187.2
				c-0.2,0-0.4-0.1-0.6-0.3c-0.2-0.3-0.1-0.7,0.2-0.9l1.1-0.6c0.3-0.2,0.7-0.1,0.9,0.2c0.2,0.3,0.1,0.7-0.2,0.9l-1.1,0.6
				C452.9,187.2,452.8,187.2,452.7,187.2z M312.9,186.3c-0.1,0-0.2,0-0.3-0.1l-1.1-0.6c-0.3-0.2-0.4-0.6-0.2-0.9
				c0.2-0.3,0.6-0.4,0.9-0.2l1.1,0.6c0.3,0.2,0.4,0.6,0.2,0.9C313.3,186.2,313.1,186.3,312.9,186.3z M457.1,184.6
				c-0.2,0-0.4-0.1-0.6-0.3c-0.2-0.3-0.1-0.7,0.2-0.9l1.1-0.6c0.3-0.2,0.7-0.1,0.9,0.2c0.2,0.3,0.1,0.7-0.2,0.9l-1.1,0.6
				C457.4,184.6,457.2,184.6,457.1,184.6z M308.4,183.8c-0.1,0-0.2,0-0.3-0.1L307,183c-0.3-0.2-0.4-0.6-0.2-0.9
				c0.2-0.3,0.6-0.4,0.9-0.2l1.1,0.6c0.3,0.2,0.4,0.6,0.2,0.9C308.9,183.6,308.7,183.8,308.4,183.8z M461.6,182.1
				c-0.2,0-0.4-0.1-0.6-0.3c-0.2-0.3-0.1-0.7,0.2-0.9l1.1-0.6c0.3-0.2,0.7-0.1,0.9,0.2c0.2,0.3,0.1,0.7-0.2,0.9l-1.1,0.6
				C461.8,182,461.7,182.1,461.6,182.1z M304,181.2c-0.1,0-0.2,0-0.3-0.1l-1.1-0.6c-0.3-0.2-0.4-0.6-0.2-0.9
				c0.2-0.3,0.6-0.4,0.9-0.2l1.1,0.6c0.3,0.2,0.4,0.6,0.2,0.9C304.4,181.1,304.2,181.2,304,181.2z M466.1,179.5
				c-0.2,0-0.4-0.1-0.6-0.3c-0.2-0.3-0.1-0.7,0.2-0.9l1.1-0.6c0.3-0.2,0.7-0.1,0.9,0.2c0.2,0.3,0.1,0.7-0.2,0.9l-1.1,0.6
				C466.3,179.4,466.2,179.5,466.1,179.5z M299.5,178.6c-0.1,0-0.2,0-0.3-0.1l-1.1-0.6c-0.3-0.2-0.4-0.6-0.2-0.9
				c0.2-0.3,0.6-0.4,0.9-0.2l1.1,0.6c0.3,0.2,0.4,0.6,0.2,0.9C299.9,178.5,299.7,178.6,299.5,178.6z M470.6,176.9
				c-0.2,0-0.4-0.1-0.6-0.3c-0.2-0.3-0.1-0.7,0.2-0.9l1.1-0.6c0.3-0.2,0.7-0.1,0.9,0.2c0.2,0.3,0.1,0.7-0.2,0.9l-1.1,0.6
				C470.8,176.9,470.7,176.9,470.6,176.9z M295,176c-0.1,0-0.2,0-0.3-0.1l-1.1-0.6c-0.3-0.2-0.4-0.6-0.2-0.9
				c0.2-0.3,0.6-0.4,0.9-0.2l1.1,0.6c0.3,0.2,0.4,0.6,0.2,0.9C295.5,175.9,295.2,176,295,176z M475,174.3c-0.2,0-0.4-0.1-0.6-0.3
				c-0.2-0.3-0.1-0.7,0.2-0.9l1.1-0.6c0.3-0.2,0.7-0.1,0.9,0.2c0.2,0.3,0.1,0.7-0.2,0.9l-1.1,0.6C475.2,174.3,475.1,174.3,475,174.3
				z M290.5,173.4c-0.1,0-0.2,0-0.3-0.1l-1.1-0.6c-0.3-0.2-0.4-0.6-0.2-0.9c0.2-0.3,0.6-0.4,0.9-0.2l1.1,0.6
				c0.3,0.2,0.4,0.6,0.2,0.9C291,173.3,290.8,173.4,290.5,173.4z M479.5,171.7c-0.2,0-0.4-0.1-0.6-0.3c-0.2-0.3-0.1-0.7,0.2-0.9
				l1.1-0.6c0.3-0.2,0.7-0.1,0.9,0.2c0.2,0.3,0.1,0.7-0.2,0.9l-1.1,0.6C479.7,171.7,479.6,171.7,479.5,171.7z M286.1,170.8
				c-0.1,0-0.2,0-0.3-0.1l-1.1-0.6c-0.3-0.2-0.4-0.6-0.2-0.9c0.2-0.3,0.6-0.4,0.9-0.2l1.1,0.6c0.3,0.2,0.4,0.6,0.2,0.9
				C286.5,170.7,286.3,170.8,286.1,170.8z M484,169.1c-0.2,0-0.4-0.1-0.6-0.3c-0.2-0.3-0.1-0.7,0.2-0.9l1.1-0.6
				c0.3-0.2,0.7-0.1,0.9,0.2c0.2,0.3,0.1,0.7-0.2,0.9l-1.1,0.6C484.2,169.1,484.1,169.1,484,169.1z M281.6,168.3
				c-0.1,0-0.2,0-0.3-0.1l-1.1-0.6c-0.3-0.2-0.4-0.6-0.2-0.9c0.2-0.3,0.6-0.4,0.9-0.2l1.1,0.6c0.3,0.2,0.4,0.6,0.2,0.9
				C282,168.1,281.8,168.3,281.6,168.3z M488.4,166.6c-0.2,0-0.4-0.1-0.6-0.3c-0.2-0.3-0.1-0.7,0.2-0.9l1.1-0.6
				c0.3-0.2,0.7-0.1,0.9,0.2c0.2,0.3,0.1,0.7-0.2,0.9l-1.1,0.6C488.7,166.5,488.6,166.6,488.4,166.6z M277.1,165.7
				c-0.1,0-0.2,0-0.3-0.1l-1.1-0.6c-0.3-0.2-0.4-0.6-0.2-0.9c0.2-0.3,0.6-0.4,0.9-0.2l1.1,0.6c0.3,0.2,0.4,0.6,0.2,0.9
				C277.6,165.6,277.3,165.7,277.1,165.7z M492.9,164c-0.2,0-0.4-0.1-0.6-0.3c-0.2-0.3-0.1-0.7,0.2-0.9l1.1-0.6
				c0.3-0.2,0.7-0.1,0.9,0.2c0.2,0.3,0.1,0.7-0.2,0.9l-1.1,0.6C493.1,164,493,164,492.9,164z M272.7,163.1c-0.1,0-0.2,0-0.3-0.1
				l-1.1-0.6c-0.3-0.2-0.4-0.6-0.2-0.9c0.2-0.3,0.6-0.4,0.9-0.2l1.1,0.6c0.3,0.2,0.4,0.6,0.2,0.9C273.1,163,272.9,163.1,272.7,163.1
				z M497.4,161.4c-0.2,0-0.4-0.1-0.6-0.3c-0.2-0.3-0.1-0.7,0.2-0.9l1.1-0.6c0.3-0.2,0.7-0.1,0.9,0.2c0.2,0.3,0.1,0.7-0.2,0.9
				l-1.1,0.6C497.6,161.4,497.5,161.4,497.4,161.4z M268.2,160.5c-0.1,0-0.2,0-0.3-0.1l-1.1-0.6c-0.3-0.2-0.4-0.6-0.2-0.9
				c0.2-0.3,0.6-0.4,0.9-0.2l1.1,0.6c0.3,0.2,0.4,0.6,0.2,0.9C268.6,160.4,268.4,160.5,268.2,160.5z M501.9,158.8
				c-0.2,0-0.4-0.1-0.6-0.3c-0.2-0.3-0.1-0.7,0.2-0.9l1.1-0.6c0.3-0.2,0.7-0.1,0.9,0.2c0.2,0.3,0.1,0.7-0.2,0.9l-1.1,0.6
				C502.1,158.8,502,158.8,501.9,158.8z M263.7,157.9c-0.1,0-0.2,0-0.3-0.1l-1.1-0.6c-0.3-0.2-0.4-0.6-0.2-0.9
				c0.2-0.3,0.6-0.4,0.9-0.2l1.1,0.6c0.3,0.2,0.4,0.6,0.2,0.9C264.1,157.8,263.9,157.9,263.7,157.9z M506.3,156.2
				c-0.2,0-0.4-0.1-0.6-0.3c-0.2-0.3-0.1-0.7,0.2-0.9l1.1-0.6c0.3-0.2,0.7-0.1,0.9,0.2c0.2,0.3,0.1,0.7-0.2,0.9l-1.1,0.6
				C506.6,156.2,506.4,156.2,506.3,156.2z M259.2,155.4c-0.1,0-0.2,0-0.3-0.1l-1.1-0.6c-0.3-0.2-0.4-0.6-0.2-0.9
				c0.2-0.3,0.6-0.4,0.9-0.2l1.1,0.6c0.3,0.2,0.4,0.6,0.2,0.9C259.7,155.2,259.5,155.4,259.2,155.4z M510.8,153.6
				c-0.2,0-0.4-0.1-0.6-0.3c-0.2-0.3-0.1-0.7,0.2-0.9l1.1-0.6c0.3-0.2,0.7-0.1,0.9,0.2c0.2,0.3,0.1,0.7-0.2,0.9l-1.1,0.6
				C511,153.6,510.9,153.6,510.8,153.6z M254.8,152.8c-0.1,0-0.2,0-0.3-0.1l-1.1-0.6c-0.3-0.2-0.4-0.6-0.2-0.9
				c0.2-0.3,0.6-0.4,0.9-0.2l1.1,0.6c0.3,0.2,0.4,0.6,0.2,0.9C255.2,152.7,255,152.8,254.8,152.8z M515.3,151.1
				c-0.2,0-0.4-0.1-0.6-0.3c-0.2-0.3-0.1-0.7,0.2-0.9l1.1-0.6c0.3-0.2,0.7-0.1,0.9,0.2c0.2,0.3,0.1,0.7-0.2,0.9l-1.1,0.6
				C515.5,151,515.4,151.1,515.3,151.1z M250.3,150.2c-0.1,0-0.2,0-0.3-0.1l-1.1-0.6c-0.3-0.2-0.4-0.6-0.2-0.9
				c0.2-0.3,0.6-0.4,0.9-0.2l1.1,0.6c0.3,0.2,0.4,0.6,0.2,0.9C250.7,150.1,250.5,150.2,250.3,150.2z M519.8,148.5
				c-0.2,0-0.4-0.1-0.6-0.3c-0.2-0.3-0.1-0.7,0.2-0.9l1.1-0.6c0.3-0.2,0.7-0.1,0.9,0.2c0.2,0.3,0.1,0.7-0.2,0.9l-1.1,0.6
				C520,148.5,519.9,148.5,519.8,148.5z M245.8,147.6c-0.1,0-0.2,0-0.3-0.1l-1.1-0.6c-0.3-0.2-0.4-0.6-0.2-0.9
				c0.2-0.3,0.6-0.4,0.9-0.2l1.1,0.6c0.3,0.2,0.4,0.6,0.2,0.9C246.3,147.5,246,147.6,245.8,147.6z M524.2,145.9
				c-0.2,0-0.4-0.1-0.6-0.3c-0.2-0.3-0.1-0.7,0.2-0.9l1.1-0.6c0.3-0.2,0.7-0.1,0.9,0.2c0.2,0.3,0.1,0.7-0.2,0.9l-1.1,0.6
				C524.5,145.9,524.3,145.9,524.2,145.9z M241.3,145c-0.1,0-0.2,0-0.3-0.1l-1.1-0.6c-0.3-0.2-0.4-0.6-0.2-0.9
				c0.2-0.3,0.6-0.4,0.9-0.2l1.1,0.6c0.3,0.2,0.4,0.6,0.2,0.9C241.8,144.9,241.6,145,241.3,145z M528.7,143.3
				c-0.2,0-0.4-0.1-0.6-0.3c-0.2-0.3-0.1-0.7,0.2-0.9l1.1-0.6c0.3-0.2,0.7-0.1,0.9,0.2c0.2,0.3,0.1,0.7-0.2,0.9l-1.1,0.6
				C528.9,143.3,528.8,143.3,528.7,143.3z M236.9,142.4c-0.1,0-0.2,0-0.3-0.1l-1.1-0.6c-0.3-0.2-0.4-0.6-0.2-0.9
				c0.2-0.3,0.6-0.4,0.9-0.2l1.1,0.6c0.3,0.2,0.4,0.6,0.2,0.9C237.3,142.3,237.1,142.4,236.9,142.4z M533.2,140.7
				c-0.2,0-0.4-0.1-0.6-0.3c-0.2-0.3-0.1-0.7,0.2-0.9l1.1-0.6c0.3-0.2,0.7-0.1,0.9,0.2c0.2,0.3,0.1,0.7-0.2,0.9l-1.1,0.6
				C533.4,140.7,533.3,140.7,533.2,140.7z M232.4,139.9c-0.1,0-0.2,0-0.3-0.1l-1.1-0.6c-0.3-0.2-0.4-0.6-0.2-0.9
				c0.2-0.3,0.6-0.4,0.9-0.2l1.1,0.6c0.3,0.2,0.4,0.6,0.2,0.9C232.8,139.7,232.6,139.9,232.4,139.9z M537.6,138.2
				c-0.2,0-0.4-0.1-0.6-0.3c-0.2-0.3-0.1-0.7,0.2-0.9l1.1-0.6c0.3-0.2,0.7-0.1,0.9,0.2c0.2,0.3,0.1,0.7-0.2,0.9l-1.1,0.6
				C537.9,138.1,537.8,138.2,537.6,138.2z M227.9,137.3c-0.1,0-0.2,0-0.3-0.1l-1.1-0.6c-0.3-0.2-0.4-0.6-0.2-0.9
				c0.2-0.3,0.6-0.4,0.9-0.2l1.1,0.6c0.3,0.2,0.4,0.6,0.2,0.9C228.4,137.2,228.1,137.3,227.9,137.3z M542.1,135.6
				c-0.2,0-0.4-0.1-0.6-0.3c-0.2-0.3-0.1-0.7,0.2-0.9l1.1-0.6c0.3-0.2,0.7-0.1,0.9,0.2c0.2,0.3,0.1,0.7-0.2,0.9l-1.1,0.6
				C542.3,135.5,542.2,135.6,542.1,135.6z M223.5,134.7c-0.1,0-0.2,0-0.3-0.1L222,134c-0.3-0.2-0.4-0.6-0.2-0.9
				c0.2-0.3,0.6-0.4,0.9-0.2l1.1,0.6c0.3,0.2,0.4,0.6,0.2,0.9C223.9,134.6,223.7,134.7,223.5,134.7z M546.6,133
				c-0.2,0-0.4-0.1-0.6-0.3c-0.2-0.3-0.1-0.7,0.2-0.9l1.1-0.6c0.3-0.2,0.7-0.1,0.9,0.2c0.2,0.3,0.1,0.7-0.2,0.9l-1.1,0.6
				C546.8,133,546.7,133,546.6,133z M218.9,132.2c-0.1,0-0.2,0-0.3-0.1c-0.4-0.2-0.7-0.4-1.2-0.5c-0.3-0.1-0.5-0.5-0.3-0.9
				c0.1-0.3,0.5-0.5,0.9-0.3c0.4,0.2,0.8,0.4,1.2,0.6c0.3,0.2,0.5,0.5,0.3,0.9C219.4,132,219.2,132.2,218.9,132.2z M551.1,130.4
				c-0.2,0-0.4-0.1-0.6-0.3c-0.2-0.3-0.1-0.7,0.2-0.9l1.1-0.6c0.3-0.2,0.7-0.1,0.9,0.2c0.2,0.3,0.1,0.7-0.2,0.9l-1.1,0.6
				C551.3,130.4,551.2,130.4,551.1,130.4z M214.1,130.3c-0.1,0-0.1,0-0.2,0c-0.4-0.1-0.8-0.2-1.2-0.3c-0.3-0.1-0.6-0.4-0.5-0.8
				c0.1-0.3,0.4-0.6,0.8-0.5c0.4,0.1,0.9,0.2,1.3,0.3c0.3,0.1,0.5,0.4,0.5,0.8C214.7,130.1,214.4,130.3,214.1,130.3z M555.5,127.8
				c-0.2,0-0.4-0.1-0.6-0.3c-0.2-0.3-0.1-0.7,0.2-0.9l1.1-0.6c0.3-0.2,0.7-0.1,0.9,0.2c0.2,0.3,0.1,0.7-0.2,0.9l-1.1,0.6
				C555.8,127.8,555.7,127.8,555.5,127.8z M560,125.2c-0.2,0-0.4-0.1-0.6-0.3c-0.2-0.3-0.1-0.7,0.2-0.9l1.1-0.6
				c0.3-0.2,0.7-0.1,0.9,0.2c0.2,0.3,0.1,0.7-0.2,0.9l-1.1,0.6C560.2,125.2,560.1,125.2,560,125.2z M564.5,122.7
				c-0.2,0-0.4-0.1-0.6-0.3c-0.2-0.3-0.1-0.7,0.2-0.9l1.1-0.6c0.3-0.2,0.7-0.1,0.9,0.2c0.2,0.3,0.1,0.7-0.2,0.9l-1.1,0.6
				C564.7,122.6,564.6,122.7,564.5,122.7z M569,120.1c-0.2,0-0.4-0.1-0.6-0.3c-0.2-0.3-0.1-0.7,0.2-0.9l1.1-0.6
				c0.3-0.2,0.7-0.1,0.9,0.2c0.2,0.3,0.1,0.7-0.2,0.9l-1.1,0.6C569.2,120,569.1,120.1,569,120.1z M573.4,117.5
				c-0.2,0-0.4-0.1-0.6-0.3c-0.2-0.3-0.1-0.7,0.2-0.9l1.1-0.6c0.3-0.2,0.7-0.1,0.9,0.2c0.2,0.3,0.1,0.7-0.2,0.9l-1.1,0.6
				C573.7,117.5,573.5,117.5,573.4,117.5z M577.9,114.9c-0.2,0-0.4-0.1-0.6-0.3c-0.2-0.3-0.1-0.7,0.2-0.9l1.1-0.6
				c0.3-0.2,0.7-0.1,0.9,0.2c0.2,0.3,0.1,0.7-0.2,0.9l-1.1,0.6C578.1,114.9,578,114.9,577.9,114.9z M582.4,112.3
				c-0.2,0-0.4-0.1-0.6-0.3c-0.2-0.3-0.1-0.7,0.2-0.9l1.1-0.6c0.3-0.2,0.7-0.1,0.9,0.2c0.2,0.3,0.1,0.7-0.2,0.9l-1.1,0.6
				C582.6,112.3,582.5,112.3,582.4,112.3z M586.9,109.7c-0.2,0-0.4-0.1-0.6-0.3c-0.2-0.3-0.1-0.7,0.2-0.9l1.1-0.6
				c0.3-0.2,0.7-0.1,0.9,0.2c0.2,0.3,0.1,0.7-0.2,0.9l-1.1,0.6C587.1,109.7,587,109.7,586.9,109.7z M591.3,107.2
				c-0.2,0-0.4-0.1-0.6-0.3c-0.2-0.3-0.1-0.7,0.2-0.9l0.5-0.3c0.2-0.1,0.4-0.2,0.6-0.4c0.3-0.2,0.7-0.1,0.9,0.2
				c0.2,0.3,0.1,0.7-0.2,0.9c-0.2,0.1-0.4,0.3-0.7,0.4l-0.5,0.3C591.5,107.1,591.4,107.2,591.3,107.2z M595.3,103.9
				c-0.1,0-0.3,0-0.4-0.1c-0.3-0.2-0.3-0.6-0.1-0.9c0.3-0.3,0.5-0.7,0.6-1c0.2-0.3,0.6-0.4,0.9-0.3c0.3,0.2,0.4,0.6,0.3,0.9
				c-0.2,0.4-0.5,0.8-0.8,1.2C595.7,103.9,595.5,103.9,595.3,103.9z M596.7,99.1c-0.3,0-0.6-0.2-0.6-0.5c-0.1-0.4-0.2-0.7-0.3-1.1
				c-0.1-0.3,0-0.7,0.3-0.8c0.3-0.1,0.7,0,0.9,0.3c0.2,0.4,0.3,0.9,0.4,1.4c0.1,0.4-0.2,0.7-0.5,0.7
				C596.8,99.1,596.7,99.1,596.7,99.1z M593.9,94.9c-0.1,0-0.3,0-0.4-0.1c-0.3-0.2-0.6-0.5-1-0.7c-0.3-0.2-0.4-0.6-0.2-0.9
				c0.2-0.3,0.6-0.4,0.9-0.2c0.4,0.2,0.8,0.5,1.1,0.8c0.3,0.2,0.3,0.6,0.1,0.9C594.3,94.8,594.1,94.9,593.9,94.9z M589.5,92.3
				c-0.1,0-0.2,0-0.3-0.1l-1.1-0.6c-0.3-0.2-0.4-0.6-0.2-0.9c0.2-0.3,0.6-0.4,0.9-0.2l1.1,0.6c0.3,0.2,0.4,0.6,0.2,0.9
				C589.9,92.2,589.7,92.3,589.5,92.3z M585,89.7c-0.1,0-0.2,0-0.3-0.1l-1.1-0.6c-0.3-0.2-0.4-0.6-0.2-0.9c0.2-0.3,0.6-0.4,0.9-0.2
				l1.1,0.6c0.3,0.2,0.4,0.6,0.2,0.9C585.4,89.6,585.2,89.7,585,89.7z M580.5,87.1c-0.1,0-0.2,0-0.3-0.1l-1.1-0.6
				c-0.3-0.2-0.4-0.6-0.2-0.9c0.2-0.3,0.6-0.4,0.9-0.2l1.1,0.6c0.3,0.2,0.4,0.6,0.2,0.9C581,87,580.7,87.1,580.5,87.1z M576.1,84.5
				c-0.1,0-0.2,0-0.3-0.1l-1.1-0.6c-0.3-0.2-0.4-0.6-0.2-0.9c0.2-0.3,0.6-0.4,0.9-0.2l1.1,0.6c0.3,0.2,0.4,0.6,0.2,0.9
				C576.5,84.4,576.3,84.5,576.1,84.5z M571.6,81.9c-0.1,0-0.2,0-0.3-0.1l-1.1-0.6c-0.3-0.2-0.4-0.6-0.2-0.9
				c0.2-0.3,0.6-0.4,0.9-0.2l1.1,0.6c0.3,0.2,0.4,0.6,0.2,0.9C572,81.8,571.8,81.9,571.6,81.9z M567.1,79.4c-0.1,0-0.2,0-0.3-0.1
				l-1.1-0.6c-0.3-0.2-0.4-0.6-0.2-0.9c0.2-0.3,0.6-0.4,0.9-0.2l1.1,0.6c0.3,0.2,0.4,0.6,0.2,0.9C567.5,79.2,567.3,79.4,567.1,79.4z
				 M562.6,76.8c-0.1,0-0.2,0-0.3-0.1l-1.1-0.6c-0.3-0.2-0.4-0.6-0.2-0.9c0.2-0.3,0.6-0.4,0.9-0.2l1.1,0.6c0.3,0.2,0.4,0.6,0.2,0.9
				C563.1,76.7,562.9,76.8,562.6,76.8z M558.2,74.2c-0.1,0-0.2,0-0.3-0.1l-1.1-0.6c-0.3-0.2-0.4-0.6-0.2-0.9
				c0.2-0.3,0.6-0.4,0.9-0.2l1.1,0.6c0.3,0.2,0.4,0.6,0.2,0.9C558.6,74.1,558.4,74.2,558.2,74.2z M553.7,71.6c-0.1,0-0.2,0-0.3-0.1
				l-1.1-0.6c-0.3-0.2-0.4-0.6-0.2-0.9c0.2-0.3,0.6-0.4,0.9-0.2l1.1,0.6c0.3,0.2,0.4,0.6,0.2,0.9C554.1,71.5,553.9,71.6,553.7,71.6z
				 M549.2,69c-0.1,0-0.2,0-0.3-0.1l-1.1-0.6c-0.3-0.2-0.4-0.6-0.2-0.9c0.2-0.3,0.6-0.4,0.9-0.2l1.1,0.6c0.3,0.2,0.4,0.6,0.2,0.9
				C549.7,68.9,549.4,69,549.2,69z M544.7,66.4c-0.1,0-0.2,0-0.3-0.1l-1.1-0.6c-0.3-0.2-0.4-0.6-0.2-0.9c0.2-0.3,0.6-0.4,0.9-0.2
				l1.1,0.6c0.3,0.2,0.4,0.6,0.2,0.9C545.2,66.3,545,66.4,544.7,66.4z M540.3,63.9c-0.1,0-0.2,0-0.3-0.1l-1.1-0.6
				c-0.3-0.2-0.4-0.6-0.2-0.9c0.2-0.3,0.6-0.4,0.9-0.2l1.1,0.6c0.3,0.2,0.4,0.6,0.2,0.9C540.7,63.7,540.5,63.9,540.3,63.9z
				 M535.8,61.3c-0.1,0-0.2,0-0.3-0.1l-1.1-0.6c-0.3-0.2-0.4-0.6-0.2-0.9c0.2-0.3,0.6-0.4,0.9-0.2l1.1,0.6c0.3,0.2,0.4,0.6,0.2,0.9
				C536.2,61.2,536,61.3,535.8,61.3z M531.3,58.7c-0.1,0-0.2,0-0.3-0.1l-1.1-0.6c-0.3-0.2-0.4-0.6-0.2-0.9c0.2-0.3,0.6-0.4,0.9-0.2
				l1.1,0.6c0.3,0.2,0.4,0.6,0.2,0.9C531.8,58.6,531.5,58.7,531.3,58.7z M526.9,56.1c-0.1,0-0.2,0-0.3-0.1l-1.1-0.6
				c-0.3-0.2-0.4-0.6-0.2-0.9c0.2-0.3,0.6-0.4,0.9-0.2l1.1,0.6c0.3,0.2,0.4,0.6,0.2,0.9C527.3,56,527.1,56.1,526.9,56.1z
				 M522.4,53.5c-0.1,0-0.2,0-0.3-0.1l-1.1-0.6c-0.3-0.2-0.4-0.6-0.2-0.9c0.2-0.3,0.6-0.4,0.9-0.2l1.1,0.6c0.3,0.2,0.4,0.6,0.2,0.9
				C522.8,53.4,522.6,53.5,522.4,53.5z M517.9,50.9c-0.1,0-0.2,0-0.3-0.1l-1.1-0.6c-0.3-0.2-0.4-0.6-0.2-0.9
				c0.2-0.3,0.6-0.4,0.9-0.2l1.1,0.6c0.3,0.2,0.4,0.6,0.2,0.9C518.3,50.8,518.1,50.9,517.9,50.9z M513.4,48.4c-0.1,0-0.2,0-0.3-0.1
				l-1.1-0.6c-0.3-0.2-0.4-0.6-0.2-0.9c0.2-0.3,0.6-0.4,0.9-0.2l1.1,0.6c0.3,0.2,0.4,0.6,0.2,0.9C513.9,48.2,513.7,48.4,513.4,48.4z
				 M509,45.8c-0.1,0-0.2,0-0.3-0.1l-1.1-0.6c-0.3-0.2-0.4-0.6-0.2-0.9c0.2-0.3,0.6-0.4,0.9-0.2l1.1,0.6c0.3,0.2,0.4,0.6,0.2,0.9
				C509.4,45.7,509.2,45.8,509,45.8z M504.5,43.2c-0.1,0-0.2,0-0.3-0.1l-1.1-0.6c-0.3-0.2-0.4-0.6-0.2-0.9c0.2-0.3,0.6-0.4,0.9-0.2
				l1.1,0.6c0.3,0.2,0.4,0.6,0.2,0.9C504.9,43.1,504.7,43.2,504.5,43.2z M500,40.6c-0.1,0-0.2,0-0.3-0.1l-1.1-0.6
				c-0.3-0.2-0.4-0.6-0.2-0.9c0.2-0.3,0.6-0.4,0.9-0.2l1.1,0.6c0.3,0.2,0.4,0.6,0.2,0.9C500.5,40.5,500.2,40.6,500,40.6z M495.5,38
				c-0.1,0-0.2,0-0.3-0.1l-1.1-0.6c-0.3-0.2-0.4-0.6-0.2-0.9c0.2-0.3,0.6-0.4,0.9-0.2l1.1,0.6c0.3,0.2,0.4,0.6,0.2,0.9
				C496,37.9,495.8,38,495.5,38z M491.1,35.4c-0.1,0-0.2,0-0.3-0.1l-1.1-0.6c-0.3-0.2-0.4-0.6-0.2-0.9c0.2-0.3,0.6-0.4,0.9-0.2
				l1.1,0.6c0.3,0.2,0.4,0.6,0.2,0.9C491.5,35.3,491.3,35.4,491.1,35.4z M486.6,32.9c-0.1,0-0.2,0-0.3-0.1l-1.1-0.6
				c-0.3-0.2-0.4-0.6-0.2-0.9c0.2-0.3,0.6-0.4,0.9-0.2l1.1,0.6c0.3,0.2,0.4,0.6,0.2,0.9C487,32.7,486.8,32.9,486.6,32.9z
				 M482.1,30.3c-0.1,0-0.2,0-0.3-0.1l-1.1-0.6c-0.3-0.2-0.4-0.6-0.2-0.9c0.2-0.3,0.6-0.4,0.9-0.2l1.1,0.6c0.3,0.2,0.4,0.6,0.2,0.9
				C482.6,30.2,482.3,30.3,482.1,30.3z M477.7,27.7c-0.1,0-0.2,0-0.3-0.1l-1.1-0.6c-0.3-0.2-0.4-0.6-0.2-0.9
				c0.2-0.3,0.6-0.4,0.9-0.2l1.1,0.6c0.3,0.2,0.4,0.6,0.2,0.9C478.1,27.6,477.9,27.7,477.7,27.7z M473.2,25.1c-0.1,0-0.2,0-0.3-0.1
				l-1.1-0.6c-0.3-0.2-0.4-0.6-0.2-0.9c0.2-0.3,0.6-0.4,0.9-0.2l1.1,0.6c0.3,0.2,0.4,0.6,0.2,0.9C473.6,25,473.4,25.1,473.2,25.1z
				 M468.7,22.5c-0.1,0-0.2,0-0.3-0.1l-1.1-0.6c-0.3-0.2-0.4-0.6-0.2-0.9c0.2-0.3,0.6-0.4,0.9-0.2l1.1,0.6c0.3,0.2,0.4,0.6,0.2,0.9
				C469.1,22.4,468.9,22.5,468.7,22.5z M464.2,19.9c-0.1,0-0.2,0-0.3-0.1l-1.1-0.6c-0.3-0.2-0.4-0.6-0.2-0.9
				c0.2-0.3,0.6-0.4,0.9-0.2l1.1,0.6c0.3,0.2,0.4,0.6,0.2,0.9C464.7,19.8,464.5,19.9,464.2,19.9z M459.8,17.4c-0.1,0-0.2,0-0.3-0.1
				l-1.1-0.6c-0.3-0.2-0.4-0.6-0.2-0.9c0.2-0.3,0.6-0.4,0.9-0.2l1.1,0.6c0.3,0.2,0.4,0.6,0.2,0.9C460.2,17.2,460,17.4,459.8,17.4z
				 M455.3,14.8c-0.1,0-0.2,0-0.3-0.1l-1.1-0.6c-0.3-0.2-0.4-0.6-0.2-0.9c0.2-0.3,0.6-0.4,0.9-0.2l1.1,0.6c0.3,0.2,0.4,0.6,0.2,0.9
				C455.7,14.7,455.5,14.8,455.3,14.8z M450.8,12.2c-0.1,0-0.2,0-0.3-0.1l-1.1-0.6c-0.3-0.2-0.4-0.6-0.2-0.9
				c0.2-0.3,0.6-0.4,0.9-0.2l1.1,0.6c0.3,0.2,0.4,0.6,0.2,0.9C451.3,12.1,451,12.2,450.8,12.2z M446.3,9.6c-0.1,0-0.2,0-0.3-0.1
				l-1.1-0.6c-0.3-0.2-0.4-0.6-0.2-0.9c0.2-0.3,0.6-0.4,0.9-0.2l1.1,0.6c0.3,0.2,0.4,0.6,0.2,0.9C446.8,9.5,446.6,9.6,446.3,9.6z
				 M441.9,7c-0.1,0-0.2,0-0.3-0.1l-0.5-0.3c0,0-0.2-0.1-0.6-0.3c-0.3-0.2-0.4-0.6-0.3-0.9c0.2-0.3,0.6-0.4,0.9-0.3
				c0.4,0.2,0.7,0.4,0.7,0.4l0.5,0.3c0.3,0.2,0.4,0.6,0.2,0.9C442.3,6.9,442.1,7,441.9,7z M437.2,4.8c-0.1,0-0.1,0-0.2,0
				c-0.4-0.1-0.8-0.3-1.2-0.4c-0.3-0.1-0.5-0.5-0.4-0.8c0.1-0.3,0.5-0.5,0.8-0.4c0.4,0.1,0.9,0.3,1.3,0.4c0.3,0.1,0.5,0.5,0.4,0.8
				C437.7,4.6,437.5,4.8,437.2,4.8z M430.9,3.8c-0.3,0-0.6-0.3-0.6-0.6c0-0.4,0.2-0.7,0.6-0.7c0.4,0,0.9,0,1.4,0
				c0.4,0,0.6,0.3,0.6,0.7c0,0.4-0.3,0.7-0.7,0.6C431.7,3.7,431.3,3.7,430.9,3.8C430.9,3.8,430.9,3.8,430.9,3.8z"/>
		</g>
		<path class="st23" d="M483.1,226.2l-4.9,2.8c1.2,0.7,2.5,0.7,3.4,0.2C482.5,228.7,483.1,227.6,483.1,226.2L483.1,226.2z"/>
		<path class="st23" d="M472.2,174l40.2-23.2l6,3.5c3.1,1.8,4.9,4.9,4.9,8.5v40.2c0,1.5-0.6,2.5-1.5,3l-40.2,23.2
			c0.9-0.5,1.5-1.5,1.5-3V186c0-3.6-1.8-6.7-4.9-8.5L472.2,174z"/>
		<path class="st23" d="M518.4,154.3c-8.2-4.7-16.5-9.5-24.7-14.2c-8.2-4.7-16.4-9.5-24.6-14.2c-10.2-5.9-27.6-5.5-38.7,0.9l0,0
			c-11,6.4-11.7,16.5-1.5,22.4c8.2,4.7,16.4,9.5,24.6,14.2c8.2,4.7,16.4,9.5,24.7,14.2C491.6,169.7,505,162,518.4,154.3L518.4,154.3
			z"/>
		<g class="st20">
			<path class="st21" d="M487.3,220.4c-0.4,0-0.6-0.3-0.6-0.6v-1.3c0-0.4,0.3-0.6,0.6-0.6c0.4,0,0.6,0.3,0.6,0.6v1.3
				C488,220.1,487.7,220.4,487.3,220.4z M487.3,215.2c-0.4,0-0.6-0.3-0.6-0.6v-1.3c0-0.4,0.3-0.6,0.6-0.6c0.4,0,0.6,0.3,0.6,0.6v1.3
				C488,215,487.7,215.2,487.3,215.2z M487.3,210.1c-0.4,0-0.6-0.3-0.6-0.6v-1.3c0-0.4,0.3-0.6,0.6-0.6c0.4,0,0.6,0.3,0.6,0.6v1.3
				C488,209.8,487.7,210.1,487.3,210.1z M518.9,206.1c-0.4,0-0.6-0.3-0.6-0.6v-1.3c0-0.4,0.3-0.6,0.6-0.6c0.4,0,0.6,0.3,0.6,0.6v1.3
				C519.6,205.8,519.3,206.1,518.9,206.1z M487.3,204.9c-0.4,0-0.6-0.3-0.6-0.6V203c0-0.4,0.3-0.6,0.6-0.6c0.4,0,0.6,0.3,0.6,0.6
				v1.3C488,204.6,487.7,204.9,487.3,204.9z M518.9,200.9c-0.4,0-0.6-0.3-0.6-0.6V199c0-0.4,0.3-0.6,0.6-0.6c0.4,0,0.6,0.3,0.6,0.6
				v1.3C519.6,200.7,519.3,200.9,518.9,200.9z M487.3,199.7c-0.4,0-0.6-0.3-0.6-0.6v-1.3c0-0.4,0.3-0.6,0.6-0.6
				c0.4,0,0.6,0.3,0.6,0.6v1.3C488,199.5,487.7,199.7,487.3,199.7z M518.9,195.8c-0.4,0-0.6-0.3-0.6-0.6v-1.3c0-0.4,0.3-0.6,0.6-0.6
				c0.4,0,0.6,0.3,0.6,0.6v1.3C519.6,195.5,519.3,195.8,518.9,195.8z M487.3,194.6c-0.4,0-0.6-0.3-0.6-0.6v-1.3
				c0-0.4,0.3-0.6,0.6-0.6c0.4,0,0.6,0.3,0.6,0.6v1.3C488,194.3,487.7,194.6,487.3,194.6z M518.9,190.6c-0.4,0-0.6-0.3-0.6-0.6v-1.3
				c0-0.4,0.3-0.6,0.6-0.6c0.4,0,0.6,0.3,0.6,0.6v1.3C519.6,190.3,519.3,190.6,518.9,190.6z M487.3,189.4c-0.4,0-0.6-0.3-0.6-0.6
				v-1.3c0-0.4,0.3-0.6,0.6-0.6c0.4,0,0.6,0.3,0.6,0.6v1.3C488,189.1,487.7,189.4,487.3,189.4z M518.9,185.4c-0.4,0-0.6-0.3-0.6-0.6
				v-1.3c0-0.4,0.3-0.6,0.6-0.6c0.4,0,0.6,0.3,0.6,0.6v1.3C519.6,185.2,519.3,185.4,518.9,185.4z M487.3,184.3
				c-0.4,0-0.6-0.3-0.6-0.6v-0.2c0-0.3,0-0.7-0.1-1c0-0.4,0.2-0.7,0.6-0.7c0.4,0,0.7,0.2,0.7,0.6c0,0.4,0.1,0.8,0.1,1.1v0.2
				C488,184,487.7,184.3,487.3,184.3z M518.9,180.3c-0.4,0-0.6-0.3-0.6-0.6v-1.3c0-0.4,0.3-0.6,0.6-0.6c0.4,0,0.6,0.3,0.6,0.6v1.3
				C519.6,180,519.3,180.3,518.9,180.3z M486.1,179.3c-0.2,0-0.4-0.1-0.6-0.3c-0.2-0.4-0.4-0.7-0.6-1c-0.2-0.3-0.2-0.7,0.1-0.9
				c0.3-0.2,0.7-0.2,0.9,0.1c0.3,0.4,0.5,0.8,0.7,1.2c0.2,0.3,0.1,0.7-0.3,0.9C486.4,179.3,486.3,179.3,486.1,179.3z M482.6,175.6
				c-0.1,0-0.2,0-0.3-0.1l-1.1-0.6c-0.3-0.2-0.4-0.6-0.2-0.9c0.2-0.3,0.6-0.4,0.9-0.2l1.1,0.6c0.3,0.2,0.4,0.6,0.2,0.9
				C483,175.5,482.8,175.6,482.6,175.6z M518.9,175.1c-0.4,0-0.6-0.3-0.6-0.6v-1.3c0-0.4,0.3-0.6,0.6-0.6c0.4,0,0.6,0.3,0.6,0.6v1.3
				C519.6,174.8,519.3,175.1,518.9,175.1z M478.1,173.1c-0.1,0-0.2,0-0.3-0.1l-1.1-0.6c-0.3-0.2-0.4-0.6-0.2-0.9
				c0.2-0.3,0.6-0.4,0.9-0.2l1.1,0.6c0.3,0.2,0.4,0.6,0.2,0.9C478.5,172.9,478.3,173.1,478.1,173.1z M473.6,170.5
				c-0.1,0-0.2,0-0.3-0.1l-1.1-0.6c-0.3-0.2-0.4-0.6-0.2-0.9c0.2-0.3,0.6-0.4,0.9-0.2l1.1,0.6c0.3,0.2,0.4,0.6,0.2,0.9
				C474.1,170.4,473.9,170.5,473.6,170.5z M518.9,169.9c-0.4,0-0.6-0.3-0.6-0.6V168c0-0.4,0.3-0.6,0.6-0.6c0.4,0,0.6,0.3,0.6,0.6
				v1.3C519.6,169.7,519.3,169.9,518.9,169.9z M469.2,167.9c-0.1,0-0.2,0-0.3-0.1l-1.1-0.6c-0.3-0.2-0.4-0.6-0.2-0.9
				c0.2-0.3,0.6-0.4,0.9-0.2l1.1,0.6c0.3,0.2,0.4,0.6,0.2,0.9C469.6,167.8,469.4,167.9,469.2,167.9z M464.7,165.3
				c-0.1,0-0.2,0-0.3-0.1l-1.1-0.6c-0.3-0.2-0.4-0.6-0.2-0.9c0.2-0.3,0.6-0.4,0.9-0.2l1.1,0.6c0.3,0.2,0.4,0.6,0.2,0.9
				C465.1,165.2,464.9,165.3,464.7,165.3z M518.9,164.8c-0.3,0-0.6-0.2-0.6-0.6c0-0.4-0.1-0.8-0.2-1.2c-0.1-0.3,0.1-0.7,0.5-0.8
				c0.4-0.1,0.7,0.1,0.8,0.5c0.1,0.4,0.2,0.9,0.2,1.4C519.6,164.4,519.3,164.7,518.9,164.8C518.9,164.8,518.9,164.8,518.9,164.8z
				 M460.2,162.7c-0.1,0-0.2,0-0.3-0.1l-1.1-0.6c-0.3-0.2-0.4-0.6-0.2-0.9c0.2-0.3,0.6-0.4,0.9-0.2l1.1,0.6c0.3,0.2,0.4,0.6,0.2,0.9
				C460.7,162.6,460.4,162.7,460.2,162.7z M455.7,160.1c-0.1,0-0.2,0-0.3-0.1l-1.1-0.6c-0.3-0.2-0.4-0.6-0.2-0.9
				c0.2-0.3,0.6-0.4,0.9-0.2l1.1,0.6c0.3,0.2,0.4,0.6,0.2,0.9C456.2,160,456,160.1,455.7,160.1z M517,160c-0.2,0-0.4-0.1-0.5-0.3
				c-0.2-0.3-0.5-0.6-0.8-0.9c-0.3-0.3-0.3-0.7,0-0.9c0.3-0.3,0.7-0.3,0.9,0c0.3,0.3,0.6,0.7,0.9,1c0.2,0.3,0.2,0.7-0.1,0.9
				C517.3,160,517.1,160,517,160z M451.3,157.6c-0.1,0-0.2,0-0.3-0.1l-1.1-0.6c-0.3-0.2-0.4-0.6-0.2-0.9c0.2-0.3,0.6-0.4,0.9-0.2
				l1.1,0.6c0.3,0.2,0.4,0.6,0.2,0.9C451.7,157.4,451.5,157.6,451.3,157.6z M513,156.8c-0.1,0-0.2,0-0.3-0.1l-1.1-0.6
				c-0.3-0.2-0.4-0.6-0.2-0.9c0.2-0.3,0.6-0.4,0.9-0.2l1.1,0.6c0.3,0.2,0.4,0.6,0.2,0.9C513.4,156.7,513.2,156.8,513,156.8z
				 M446.8,155c-0.1,0-0.2,0-0.3-0.1l-1.1-0.6c-0.3-0.2-0.4-0.6-0.2-0.9c0.2-0.3,0.6-0.4,0.9-0.2l1.1,0.6c0.3,0.2,0.4,0.6,0.2,0.9
				C447.2,154.9,447,155,446.8,155z M508.5,154.3c-0.1,0-0.2,0-0.3-0.1l-1.1-0.6c-0.3-0.2-0.4-0.6-0.2-0.9c0.2-0.3,0.6-0.4,0.9-0.2
				l1.1,0.6c0.3,0.2,0.4,0.6,0.2,0.9C509,154.1,508.8,154.3,508.5,154.3z M442.3,152.4c-0.1,0-0.2,0-0.3-0.1l-1.1-0.6
				c-0.3-0.2-0.4-0.6-0.2-0.9c0.2-0.3,0.6-0.4,0.9-0.2l1.1,0.6c0.3,0.2,0.4,0.6,0.2,0.9C442.8,152.3,442.5,152.4,442.3,152.4z
				 M504.1,151.7c-0.1,0-0.2,0-0.3-0.1l-1.1-0.6c-0.3-0.2-0.4-0.6-0.2-0.9c0.2-0.3,0.6-0.4,0.9-0.2l1.1,0.6c0.3,0.2,0.4,0.6,0.2,0.9
				C504.5,151.6,504.3,151.7,504.1,151.7z M437.8,149.8c-0.1,0-0.2,0-0.3-0.1l-1.1-0.6c-0.3-0.2-0.4-0.6-0.2-0.9
				c0.2-0.3,0.6-0.4,0.9-0.2l1.1,0.6c0.3,0.2,0.4,0.6,0.2,0.9C438.3,149.7,438.1,149.8,437.8,149.8z M499.6,149.1
				c-0.1,0-0.2,0-0.3-0.1l-1.1-0.6c-0.3-0.2-0.4-0.6-0.2-0.9c0.2-0.3,0.6-0.4,0.9-0.2l1.1,0.6c0.3,0.2,0.4,0.6,0.2,0.9
				C500,149,499.8,149.1,499.6,149.1z M433.4,147.2c-0.1,0-0.2,0-0.3-0.1c-0.5-0.3-0.8-0.5-1.2-0.7c-0.3-0.2-0.4-0.6-0.2-0.9
				c0.2-0.3,0.6-0.4,0.9-0.2c0.3,0.2,0.6,0.4,1,0.6c0.3,0.2,0.4,0.6,0.3,0.9C433.8,147.1,433.6,147.2,433.4,147.2z M495.1,146.5
				c-0.1,0-0.2,0-0.3-0.1l-1.1-0.6c-0.3-0.2-0.4-0.6-0.2-0.9c0.2-0.3,0.6-0.4,0.9-0.2l1.1,0.6c0.3,0.2,0.4,0.6,0.2,0.9
				C495.6,146.4,495.3,146.5,495.1,146.5z M429.4,143.9c-0.2,0-0.4-0.1-0.5-0.2c-0.3-0.4-0.5-0.8-0.8-1.1c-0.2-0.3-0.1-0.7,0.2-0.9
				c0.3-0.2,0.7-0.1,0.9,0.2c0.2,0.3,0.4,0.7,0.7,1c0.2,0.3,0.2,0.7-0.1,0.9C429.7,143.9,429.6,143.9,429.4,143.9z M490.6,143.9
				c-0.1,0-0.2,0-0.3-0.1l-1.1-0.6c-0.3-0.2-0.4-0.6-0.2-0.9c0.2-0.3,0.6-0.4,0.9-0.2l1.1,0.6c0.3,0.2,0.4,0.6,0.2,0.9
				C491.1,143.8,490.9,143.9,490.6,143.9z M486.2,141.3c-0.1,0-0.2,0-0.3-0.1l-1.1-0.6c-0.3-0.2-0.4-0.6-0.2-0.9
				c0.2-0.3,0.6-0.4,0.9-0.2l1.1,0.6c0.3,0.2,0.4,0.6,0.2,0.9C486.6,141.2,486.4,141.3,486.2,141.3z M427.6,139.1
				c-0.3,0-0.6-0.2-0.6-0.6c0-0.6,0-1,0.1-1.4c0.1-0.4,0.4-0.6,0.7-0.5c0.4,0.1,0.6,0.4,0.5,0.7c-0.1,0.4-0.1,0.7-0.1,1.1
				C428.3,138.8,428,139.1,427.6,139.1C427.7,139.1,427.7,139.1,427.6,139.1z M481.7,138.8c-0.1,0-0.2,0-0.3-0.1l-1.1-0.6
				c-0.3-0.2-0.4-0.6-0.2-0.9c0.2-0.3,0.6-0.4,0.9-0.2l1.1,0.6c0.3,0.2,0.4,0.6,0.2,0.9C482.1,138.6,481.9,138.8,481.7,138.8z
				 M477.2,136.2c-0.1,0-0.2,0-0.3-0.1l-1.1-0.6c-0.3-0.2-0.4-0.6-0.2-0.9c0.2-0.3,0.6-0.4,0.9-0.2l1.1,0.6c0.3,0.2,0.4,0.6,0.2,0.9
				C477.7,136.1,477.4,136.2,477.2,136.2z M429.2,134.4c-0.1,0-0.3,0-0.4-0.1c-0.3-0.2-0.4-0.6-0.2-0.9c0.2-0.4,0.5-0.7,0.8-1.1
				c0.2-0.3,0.6-0.3,0.9-0.1c0.3,0.2,0.3,0.6,0.1,0.9c-0.3,0.3-0.5,0.6-0.7,1C429.6,134.3,429.4,134.4,429.2,134.4z M472.7,133.6
				c-0.1,0-0.2,0-0.3-0.1l-1.1-0.6c-0.3-0.2-0.4-0.6-0.2-0.9c0.2-0.3,0.6-0.4,0.9-0.2l1.1,0.6c0.3,0.2,0.4,0.6,0.2,0.9
				C473.2,133.5,473,133.6,472.7,133.6z M468.3,131c-0.1,0-0.2,0-0.3-0.1l-1.1-0.6c-0.3-0.2-0.4-0.6-0.2-0.9
				c0.2-0.3,0.6-0.4,0.9-0.2l1.1,0.6c0.3,0.2,0.4,0.6,0.2,0.9C468.7,130.9,468.5,131,468.3,131z M432.9,130.8
				c-0.2,0-0.4-0.1-0.5-0.3c-0.2-0.3-0.1-0.7,0.2-0.9c0.4-0.3,0.7-0.5,1.1-0.7c0.3-0.2,0.7-0.1,0.9,0.2c0.2,0.3,0.1,0.7-0.2,0.9
				c-0.4,0.2-0.7,0.5-1,0.7C433.1,130.7,433,130.8,432.9,130.8z M463.8,128.5c-0.1,0-0.2,0-0.3-0.1c-0.4-0.2-0.7-0.4-1.1-0.5
				c-0.3-0.1-0.5-0.5-0.3-0.8c0.1-0.3,0.5-0.5,0.8-0.3c0.4,0.2,0.8,0.4,1.2,0.6c0.3,0.2,0.4,0.5,0.3,0.9
				C464.2,128.3,464,128.5,463.8,128.5z M437.4,128.3c-0.3,0-0.5-0.1-0.6-0.4c-0.1-0.3,0-0.7,0.3-0.8c0.4-0.2,0.8-0.3,1.2-0.5
				c0.3-0.1,0.7,0,0.8,0.4c0.1,0.3-0.1,0.7-0.4,0.8c-0.4,0.1-0.8,0.3-1.2,0.5C437.6,128.3,437.5,128.3,437.4,128.3z M458.9,126.7
				c-0.1,0-0.1,0-0.2,0c-0.4-0.1-0.8-0.2-1.2-0.3c-0.3-0.1-0.6-0.4-0.5-0.8c0.1-0.3,0.4-0.6,0.8-0.5c0.4,0.1,0.9,0.2,1.3,0.3
				c0.3,0.1,0.6,0.4,0.5,0.8C459.5,126.5,459.2,126.7,458.9,126.7z M442.3,126.7c-0.3,0-0.6-0.2-0.6-0.5c-0.1-0.3,0.1-0.7,0.5-0.8
				c0.4-0.1,0.9-0.2,1.3-0.3c0.4-0.1,0.7,0.2,0.8,0.5c0.1,0.3-0.2,0.7-0.5,0.8c-0.4,0.1-0.8,0.2-1.2,0.3
				C442.4,126.7,442.4,126.7,442.3,126.7z M447.4,125.9c-0.3,0-0.6-0.3-0.6-0.6c0-0.4,0.2-0.7,0.6-0.7c0.4,0,0.9-0.1,1.3-0.1
				c0.4,0,0.7,0.3,0.7,0.6c0,0.4-0.3,0.7-0.6,0.7C448.3,125.8,447.9,125.9,447.4,125.9C447.4,125.9,447.4,125.9,447.4,125.9z
				 M453.8,125.9C453.8,125.9,453.8,125.9,453.8,125.9c-0.5,0-0.9-0.1-1.3-0.1c-0.4,0-0.6-0.3-0.6-0.7c0-0.4,0.3-0.6,0.7-0.6
				c0.4,0,0.9,0.1,1.3,0.1c0.4,0,0.6,0.3,0.6,0.7C454.5,125.6,454.2,125.9,453.8,125.9z"/>
		</g>
		<path class="st11" d="M457.4,131.2c4.1,2.3,3.8,6.2-0.7,8.8c-4.5,2.5-11.4,2.7-15.5,0.4c-4.1-2.3-3.9-6.3,0.6-8.8
			C446.3,129,453.3,128.9,457.4,131.2L457.4,131.2z"/>
	</g>
</g>
<g id="Kompass">
	<path class="st24" d="M251.5,246.5l-0.1,15.4c0,1.1-0.1,2.2-0.3,3.3c-3.2,21-35.2,36.5-71.5,34.6c-16-0.8-30.1-4.9-40.7-11
		c-12.1-7-19.5-16.7-19.5-27.2l0.1-15.4c0,10.5,7.4,20.2,19.5,27.2c10.6,6.1,24.7,10.2,40.7,11c36.3,1.9,68.3-13.6,71.5-34.6
		C251.4,248.7,251.5,247.6,251.5,246.5z"/>
	<path class="st25" d="M228,221.6c12.3,7.1,19.2,17.1,17.6,27.9c-2.9,19.2-32.2,33.4-65.3,31.6c-14.6-0.8-27.5-4.5-37.2-10.1
		c-12.3-7.1-19.2-17.1-17.6-27.9c2.9-19.2,32.2-33.4,65.3-31.6C205.4,212.3,218.4,216.1,228,221.6z"/>
	<path class="st26" d="M232,219.3c13.4,7.7,21,18.7,19.2,30.5c-3.2,21-35.2,36.5-71.5,34.6c-16-0.8-30.1-4.9-40.7-11
		c-13.4-7.7-21-18.7-19.2-30.5c3.2-21,35.2-36.5,71.5-34.6C207.3,209.1,221.4,213.2,232,219.3z"/>
	<path class="st21" d="M184.6,278.8c-30.9-0.4-55.6-15.2-55.1-33.1c0.5-17.9,26-32.1,56.9-31.8c30.9,0.4,55.6,15.2,55.1,33.1
		C241,264.9,215.5,279.1,184.6,278.8L184.6,278.8z M186.6,208.1c-36.4-0.4-66.4,16.3-67,37.4c-0.6,21.1,28.4,38.5,64.9,39
		c36.4,0.4,66.4-16.3,67-37.4C252.1,226,223.1,208.6,186.6,208.1L186.6,208.1z"/>
	<path class="st8" d="M186.5,213.9c-30.9-0.4-56.4,13.9-56.9,31.8c-0.5,17.9,24.1,32.7,55.1,33.1c30.9,0.4,56.4-13.9,56.9-31.8
		C242.1,229.1,217.4,214.2,186.5,213.9L186.5,213.9z"/>
	<path class="st27" d="M186.5,213.9c-30.9-0.4-56.4,13.9-56.9,31.8c0,1.7,0.1,3.3,0.5,4.9c1.5-16.8,25.8-30,55.1-29.6
		c30,0.3,53.9,14.7,53.4,32.1c-0.1,1.9-0.4,3.7-1,5.4c2.5-3.6,3.9-7.4,4-11.5C242.1,229.1,217.4,214.2,186.5,213.9z"/>
	<path class="st27" d="M198.5,244.3l-6.9,5.7l-10.1,3.8l3.3,18.4l5-20.9l18.4,8.7l-14.3-11l36.2-2.1L198.5,244.3L198.5,244.3z
		 M186.3,220.5l-5,20.9l-18.4-8.7l14.3,11l-36.2,2.1l31.5,2.6l6.9-5.7l10.1-3.8L186.3,220.5L186.3,220.5z"/>
	<path class="st28" d="M217.6,228.5l-28,10.4l-10.1,3.8l3,1.8c0.8-0.5,1.9-0.7,3.2-0.7c2.5,0,4.4,1.2,4.4,2.6c0,0.7-0.5,1.4-1.4,1.8
		l2.9,1.8l6.9-5.7L217.6,228.5L217.6,228.5z"/>
	<linearGradient id="SVGID_2_" gradientUnits="userSpaceOnUse" x1="153.4782" y1="253.4206" x2="191.592" y2="253.4206">
		<stop  offset="0" style="stop-color:#7D8489"/>
		<stop  offset="0.3772" style="stop-color:#1F2223"/>
	</linearGradient>
	<path class="st29" d="M179.5,242.7l-6.9,5.7l-19.1,15.8l28-10.4l10.1-3.8l-2.9-1.8c-0.8,0.5-1.9,0.7-3.2,0.7
		c-2.5,0-4.4-1.2-4.4-2.6c0-0.7,0.5-1.4,1.4-1.8L179.5,242.7L179.5,242.7z"/>
	<path class="st30" d="M185.6,243.7c-1.2,0-2.4,0.3-3.2,0.7c-0.8,0.5-1.3,1.1-1.4,1.8c0,1.4,1.9,2.6,4.4,2.6c1.2,0,2.4-0.3,3.2-0.7
		c0.8-0.5,1.3-1.1,1.4-1.8C190.1,245,188.1,243.8,185.6,243.7L185.6,243.7z"/>
</g>
<g id="Stift">
	<path class="st1" d="M591,208.8l-6,1.5l-12.7,3.1l0,0.1c-0.4,0.1-0.7,0.2-1,0.4L453,281.7c-1.1,0.4-1.8,1.6-1.8,3.4
		c-0.1,3.3,2.1,7.3,4.8,9c1.4,0.8,2.6,0.9,3.5,0.4l0,0.1l119.1-68.3l0-0.1c0.1-0.1,0.2-0.3,0.4-0.5l0.1,0.1l10.5-11.3l4.2-4.5
		L591,208.8z"/>
	<g>
		<path class="st31" d="M593.6,207.2l-13.5,14.7l-8.6-16.1l16.4-4C590.8,203,592.6,204.7,593.6,207.2z"/>
		<path class="st21" d="M599,201.4l-5.4,5.8c-1-2.5-2.7-4.2-5.7-5.5l7.7-1.9L599,201.4z"/>
		<path class="st28" d="M581.1,218.4c0.1-4.3-2.7-9.5-6.2-11.6c-1.8-1.1-3.5-1.2-4.7-0.4l-113,65.6l9,16.3l113.3-65.8l-0.1-0.1
			C580.5,221.6,581.1,220.3,581.1,218.4z"/>
		<path class="st28" d="M581.1,218.4c0.1-4.3-2.7-9.5-6.2-11.6c-1.8-1.1-3.5-1.2-4.7-0.4l-113,65.6l9,16.3l113.3-65.8l-0.1-0.1
			C580.5,221.6,581.1,220.3,581.1,218.4z"/>
		<path class="st7" d="M574.9,206.8c-1.8-1.1-3.5-1.2-4.7-0.4l-113,65.6l4,7.3l117.3-68.7C577.6,209,576.3,207.6,574.9,206.8z"/>
		<path class="st31" d="M468.1,283.9c-0.1,4.2-3,5.9-6.4,3.7c-3.5-2.2-6.2-7.4-6.2-11.6c0.1-4.2,3-5.9,6.4-3.7
			C465.4,274.5,468.2,279.7,468.1,283.9z"/>
		<path class="st32" d="M465,282c0,2.2-1.5,3-3.3,1.9c-1.8-1.1-3.2-3.8-3.2-6c0-2.2,1.5-3,3.3-1.9C463.7,277.1,465.1,279.8,465,282z
			"/>
	</g>
</g>
</svg>
