<?xml version="1.0" encoding="utf-8"?>
<!-- Generator: Adobe Illustrator 23.0.3, SVG Export Plug-In . SVG Version: 6.00 Build 0)  -->
<svg version="1.1" xmlns="http://www.w3.org/2000/svg" xmlns:xlink="http://www.w3.org/1999/xlink" x="0px" y="0px"
	 viewBox="0 0 480 302.7" style="enable-background:new 0 0 480 302.7;" xml:space="preserve">
<style type="text/css">
	.st0{fill:#FAD151;}
	.st1{fill:#1F2223;}
	.st2{fill:#5C656B;}
	.st3{fill:#7D8489;}
	.st4{fill:#131617;}
	.st5{fill:#FFFFFF;}
	.st6{fill:none;stroke:#FAD151;stroke-width:3.4016;stroke-miterlimit:10;}
	.st7{fill-rule:evenodd;clip-rule:evenodd;fill:none;stroke:#FFFFFF;stroke-width:3.4016;stroke-miterlimit:10;}
	.st8{fill:none;stroke:#FFFFFF;stroke-width:3.4016;stroke-miterlimit:10;}
	.st9{fill:#2E3133;}
	.st10{opacity:0.6;fill:#FFFFFF;}
</style>
<g id="Karten">
</g>
<g id="Ebene_3">
	<g>
		<path class="st3" d="M462.2,0h-33.8l-18,16l-18-16H17.8C8,0,0,8,0,17.8v267c0,9.8,8,17.8,17.8,17.8h444.3c9.8,0,17.8-8,17.8-17.8
			v-267C480,8,472,0,462.2,0z"/>
		<g>
			<g>
				<path class="st1" d="M145.4,130.6h9.4c3,0,5.4,0.5,7.2,1.5c1.8,1,2.6,2.6,2.6,5c0,1.2-0.3,2.3-0.9,3.4c-0.6,1.1-1.4,1.8-2.4,2.2
					v0.2c1.3,0.4,2.4,1.1,3.2,2.1c0.8,1,1.2,2.3,1.2,4c0,2.6-1,4.5-2.9,5.8c-1.9,1.3-4.4,1.9-7.4,1.9h-10.2V130.6z M154.6,140.8
					c1.1,0,1.9-0.2,2.5-0.7c0.5-0.5,0.8-1.1,0.8-1.9c0-0.8-0.3-1.4-0.8-1.7c-0.5-0.3-1.4-0.5-2.5-0.5h-2.3v4.9H154.6z M155.1,151.3
					c2.7,0,4-1,4-2.9c0-0.9-0.3-1.6-1-2c-0.6-0.4-1.7-0.6-3-0.6h-2.8v5.5H155.1z"/>
				<path class="st1" d="M170.6,130.6h16.8v5.8h-9.9v4.1h8.5v5.8h-8.5v4.6h10.3v5.8h-17.2V130.6z"/>
				<path class="st1" d="M196.4,156.2c-1.7-0.6-3.3-1.6-4.7-2.8l3.9-4.7c0.9,0.7,1.9,1.4,3,1.8c1.1,0.5,2.1,0.7,3,0.7
					c2,0,3-0.6,3-1.8c0-0.4-0.1-0.7-0.4-1s-0.7-0.5-1.2-0.8c-0.6-0.3-1.2-0.5-1.9-0.8l-3.2-1.4c-1.5-0.6-2.8-1.5-3.8-2.8
					c-1-1.2-1.5-2.7-1.5-4.5c0-1.5,0.4-2.8,1.2-4.1c0.8-1.2,2-2.2,3.5-2.9c1.5-0.7,3.1-1.1,5-1.1c1.5,0,3.1,0.3,4.6,0.9
					c1.5,0.6,2.9,1.5,4,2.6l-3.4,4.3c-0.9-0.6-1.8-1.1-2.6-1.4c-0.8-0.3-1.7-0.5-2.6-0.5c-0.9,0-1.5,0.2-2,0.5
					c-0.5,0.3-0.7,0.7-0.7,1.3c0,0.4,0.1,0.7,0.4,1c0.3,0.3,0.7,0.5,1.4,0.8c0.6,0.3,1.3,0.5,2,0.8l3.2,1.2c3.4,1.3,5.1,3.7,5.1,7.1
					c0,1.5-0.4,2.9-1.2,4.1c-0.8,1.3-2,2.3-3.5,3c-1.5,0.8-3.3,1.1-5.4,1.1C199.9,157.1,198.1,156.8,196.4,156.2z"/>
				<path class="st1" d="M221.6,136.4h-6.9v-5.8h20.6v5.8h-6.9v20.2h-6.9V136.4z"/>
				<path class="st1" d="M245.4,136.4h-6.9v-5.8h20.6v5.8h-6.9v20.2h-6.9V136.4z"/>
				<path class="st1" d="M277.3,156.6l-4.5-8.7h-2.6v8.7h-6.9v-26h9.8c3.1,0,5.6,0.6,7.5,1.9c1.9,1.3,2.9,3.4,2.9,6.5
					c0,1.8-0.4,3.3-1.1,4.6c-0.7,1.3-1.8,2.2-3.1,3l5.6,10.1H277.3z M270.2,142.5h2.5c1.4,0,2.4-0.3,3.1-0.9
					c0.7-0.6,1.1-1.4,1.1-2.6c0-1.1-0.3-1.9-1-2.3s-1.7-0.7-3.1-0.7h-2.5V142.5z"/>
				<path class="st1" d="M303,151.1h-7.3l-1.3,5.5h-7l7.9-26h8.3l7.9,26h-7.3L303,151.1z M301.8,145.8l-0.4-1.8
					c-0.3-1.4-0.7-2.9-1-4.5l-0.9-3.8h-0.2l-0.2,1.1c-0.6,2.9-1.1,5.3-1.6,7.1l-0.4,1.8H301.8z"/>
				<path class="st1" d="M310.9,130.6h7.3l2.7,11.4c0.3,1.4,0.7,2.8,1,4.2c0.1,0.5,0.3,1.1,0.4,1.8c0.1,0.7,0.3,1.4,0.5,2.3h0.2
					c0.2-0.9,0.4-1.8,0.6-2.5c0.2-0.8,0.3-1.4,0.5-2c0.2-1.2,0.5-2.5,0.8-3.7l2.6-11.4h7l-7.7,26h-8.3L310.9,130.6z"/>
				<path class="st1" d="M338,130.6h16.8v5.8h-9.9v4.1h8.5v5.8h-8.5v4.6h10.3v5.8H338V130.6z"/>
				<path class="st1" d="M360.8,130.6h6.9v20.2h9.8v5.8h-16.7V130.6z"/>
				<path class="st1" d="M145.4,166.6h16.8v5.8h-9.9v4.1h8.5v5.8h-8.5v4.6h10.3v5.8h-17.2V166.6z"/>
				<path class="st1" d="M170.3,189.9c-1.8-2.1-2.7-5.4-2.7-9.8v-13.4h6.9v14.2c0,2.3,0.3,3.9,0.9,4.9s1.6,1.4,3,1.4s2.4-0.5,3-1.5
					c0.6-1,1-2.6,1-4.9v-14.2h6.6v13.4c0,4.5-0.9,7.7-2.6,9.9c-1.7,2.1-4.4,3.2-8,3.2C174.8,193.1,172,192,170.3,189.9z"/>
				<path class="st1" d="M209.1,192.6l-4.5-8.7H202v8.7h-6.9v-26h9.8c3.1,0,5.6,0.6,7.5,1.9c1.9,1.3,2.9,3.4,2.9,6.5
					c0,1.8-0.4,3.3-1.1,4.6c-0.7,1.3-1.8,2.2-3.1,3l5.6,10.1H209.1z M202,178.5h2.5c1.4,0,2.4-0.3,3.1-0.9c0.7-0.6,1.1-1.4,1.1-2.6
					c0-1.1-0.3-1.9-1-2.3s-1.7-0.7-3.1-0.7H202V178.5z"/>
				<path class="st1" d="M225.2,191.5c-1.8-1.1-3.2-2.6-4.2-4.7c-1-2.1-1.5-4.5-1.5-7.3c0-2.8,0.5-5.2,1.5-7.2c1-2,2.4-3.5,4.2-4.6
					c1.8-1,3.9-1.6,6.3-1.6c2.4,0,4.5,0.5,6.3,1.6c1.8,1.1,3.2,2.6,4.2,4.6s1.5,4.4,1.5,7.2c0,2.8-0.5,5.2-1.5,7.3
					c-1,2.1-2.4,3.6-4.2,4.7s-3.9,1.6-6.3,1.6C229.1,193.1,227,192.6,225.2,191.5z M235.2,185.1c0.9-1.4,1.4-3.2,1.4-5.6
					c0-2.3-0.4-4.2-1.3-5.5c-0.9-1.3-2.1-2-3.7-2s-2.8,0.7-3.7,2c-0.9,1.3-1.3,3.1-1.3,5.5c0,2.4,0.5,4.2,1.4,5.6
					c0.9,1.4,2.1,2.1,3.7,2.1S234.3,186.5,235.2,185.1z"/>
				<path class="st1" d="M248.7,166.6h9.5c3.1,0,5.7,0.7,7.6,2c1.9,1.3,2.9,3.6,2.9,6.6c0,2-0.5,3.7-1.4,5.1c-0.9,1.4-2.2,2.4-3.8,3
					c-1.6,0.7-3.3,1-5.2,1h-2.8v8.2h-6.9V166.6z M258.1,178.9c1.3,0,2.3-0.3,3-1c0.7-0.6,1-1.5,1-2.7c0-1.1-0.4-1.9-1.1-2.4
					c-0.7-0.5-1.7-0.8-3.1-0.8h-2.3v6.9H258.1z"/>
				<path class="st1" d="M273.1,166.6h16.8v5.8H280v4.1h8.5v5.8H280v4.6h10.3v5.8h-17.2V166.6z"/>
			</g>
		</g>
		<g>
			<path class="st0" d="M148.2,209.9h-5v-2.2h12.7v2.2h-5v14.8h-2.7V209.9z"/>
			<path class="st0" d="M168.9,224.7l-3.8-6.9h-2.8v6.9h-2.7v-17h5.6c1.9,0,3.4,0.4,4.5,1.2c1.1,0.8,1.6,2,1.6,3.8
				c0,1.3-0.3,2.3-0.9,3.1c-0.6,0.8-1.5,1.4-2.6,1.7l4.2,7.3H168.9z M162.3,215.7h2.6c1.2,0,2.2-0.3,2.8-0.8s1-1.3,1-2.3
				c0-1-0.3-1.7-0.9-2.2c-0.6-0.4-1.6-0.6-2.9-0.6h-2.6V215.7z"/>
			<path class="st0" d="M184.5,219.8h-5.9l-1.5,4.9h-2.7l5.6-17h3.1l5.6,17H186L184.5,219.8z M183.9,217.7l-0.7-2.3
				c-0.2-0.8-0.5-1.8-0.8-2.8c-0.3-1.1-0.5-1.9-0.7-2.3c0-0.1-0.1-0.3-0.1-0.5h-0.1c-0.6,2.1-1.1,4-1.6,5.7l-0.7,2.3H183.9z"/>
			<path class="st0" d="M189.1,207.7h2.8l2.5,8.8c0.1,0.5,0.3,0.9,0.4,1.4s0.2,0.8,0.3,1.1c0.3,1.3,0.6,2.3,0.9,3.1h0.1
				c0.4-1.5,0.8-2.7,1-3.7c0,0.1,0.1-0.5,0.5-1.9l2.5-8.8h2.7l-5.3,17h-3.1L189.1,207.7z"/>
			<path class="st0" d="M206.2,207.7h10.1v2.2h-7.4v4.8h6.3v2.2h-6.3v5.5h7.7v2.2h-10.3V207.7z"/>
			<path class="st0" d="M220.6,207.7h2.7v14.8h7.2v2.2h-9.9V207.7z"/>
			<path class="st0" d="M248.5,219.8h-5.9l-1.5,4.9h-2.7l5.6-17h3.1l5.6,17H250L248.5,219.8z M247.9,217.7l-0.7-2.3
				c-0.2-0.8-0.5-1.8-0.8-2.8c-0.3-1.1-0.5-1.9-0.7-2.3c0-0.1-0.1-0.3-0.1-0.5h-0.1c-0.6,2.1-1.1,4-1.6,5.7l-0.7,2.3H247.9z"/>
			<path class="st0" d="M258.5,224c-1.2-0.7-2.1-1.7-2.8-3c-0.7-1.3-1-2.9-1-4.7c0-1.8,0.3-3.4,1-4.7c0.7-1.3,1.6-2.4,2.8-3.1
				c1.2-0.7,2.6-1.1,4.1-1.1c2,0,3.7,0.7,5,2.1l-1.4,1.7c-0.5-0.5-1-0.9-1.6-1.1c-0.6-0.3-1.2-0.4-2-0.4c-1.1,0-2,0.3-2.8,0.8
				c-0.8,0.5-1.4,1.3-1.9,2.2c-0.4,1-0.7,2.1-0.7,3.4c0,2,0.5,3.6,1.4,4.8c0.9,1.2,2.3,1.7,4,1.7c0.5,0,1-0.1,1.5-0.2
				c0.5-0.1,0.9-0.4,1.2-0.6v-4h-3.4v-2.2h5.8v7.4c-0.6,0.6-1.4,1.1-2.3,1.5s-2,0.5-3.1,0.5C261,225,259.7,224.7,258.5,224z"/>
			<path class="st0" d="M272.7,207.7h10.1v2.2h-7.4v4.8h6.3v2.2h-6.3v5.5h7.7v2.2h-10.3V207.7z"/>
			<path class="st0" d="M287,207.7h2.7l5.7,10.1l1.8,3.6h0.1c0-0.6-0.1-0.9-0.1-1.2c0-0.2-0.1-0.8-0.1-1.7c-0.1-1-0.1-1.9-0.1-2.7
				v-8h2.5v17h-2.7l-5.7-10.1l-1.8-3.6h-0.1l0.1,1.3c0,0.2,0.1,0.8,0.1,1.7s0.1,1.8,0.1,2.6v8.1H287V207.7z"/>
			<path class="st0" d="M307.5,224c-1.1-0.7-2-1.7-2.7-3c-0.7-1.3-1-2.9-1-4.7c0-1.8,0.3-3.4,1-4.7c0.7-1.3,1.6-2.4,2.8-3.1
				c1.2-0.7,2.5-1.1,3.9-1.1c1,0,1.9,0.2,2.7,0.6c0.8,0.4,1.5,0.9,2.1,1.5l-1.4,1.7c-1-1-2.1-1.5-3.3-1.5c-1,0-1.9,0.3-2.6,0.8
				c-0.8,0.5-1.3,1.3-1.8,2.2c-0.4,1-0.6,2.1-0.6,3.4c0,2,0.4,3.6,1.3,4.8c0.9,1.2,2.1,1.8,3.6,1.8c1.4,0,2.7-0.6,3.8-1.8l1.4,1.7
				c-1.4,1.6-3.2,2.5-5.3,2.5C309.9,225,308.7,224.7,307.5,224z"/>
			<path class="st0" d="M323.9,218.2l-5.1-10.6h2.8l2,4.5c0.7,1.7,1.2,3,1.6,3.7h0.1l0.6-1.4c0.5-1.2,0.9-2,1-2.3l2-4.5h2.8
				l-5.1,10.6v6.4h-2.7V218.2z"/>
		</g>
		<g>
			<g>
				<path class="st1" d="M54.6,41.8L50,32.6h1.8l2,4.4l0.4,0.9c0.6,1.3,1,2.2,1.1,2.4h0.1l0.4-0.8c0.7-1.4,1-2.2,1.2-2.5l2-4.4h1.8
					l-4.6,9.3v6h-1.7V41.8z"/>
				<path class="st1" d="M63.9,47.4c-0.8-0.5-1.4-1.2-1.9-2c-0.5-0.9-0.7-1.9-0.7-3.2s0.2-2.3,0.7-3.2s1.1-1.6,1.9-2.1
					c0.8-0.5,1.7-0.7,2.6-0.7c0.9,0,1.8,0.2,2.6,0.7c0.8,0.5,1.4,1.2,1.9,2.1c0.5,0.9,0.7,2,0.7,3.2s-0.2,2.3-0.7,3.2
					c-0.5,0.9-1.1,1.6-1.9,2c-0.8,0.5-1.7,0.7-2.6,0.7C65.6,48.1,64.7,47.9,63.9,47.4z M68.3,46.1c0.5-0.4,0.9-0.9,1.2-1.6
					c0.3-0.7,0.4-1.5,0.4-2.3s-0.1-1.7-0.4-2.3c-0.3-0.7-0.7-1.2-1.2-1.6s-1.1-0.6-1.8-0.6c-0.7,0-1.3,0.2-1.8,0.6s-0.9,0.9-1.2,1.6
					c-0.3,0.7-0.4,1.5-0.4,2.3c0,1.3,0.3,2.4,1,3.3c0.6,0.8,1.5,1.2,2.5,1.2C67.2,46.7,67.8,46.5,68.3,46.1z"/>
				<path class="st1" d="M75.8,47c-0.6-0.7-0.8-1.8-0.8-3.3v-7.2h1.7v7c0,1.1,0.2,1.9,0.5,2.4s0.9,0.8,1.7,0.8
					c0.6,0,1.1-0.2,1.6-0.5c0.5-0.3,1-0.8,1.6-1.5v-8.1h1.7v11.3h-1.4L82.2,46h-0.1c-0.6,0.7-1.2,1.2-1.8,1.5s-1.3,0.5-2,0.5
					C77.2,48.1,76.3,47.7,75.8,47z"/>
				<path class="st1" d="M87.8,36.6h1.4l0.1,2.1h0.1c0.4-0.7,0.9-1.3,1.4-1.7c0.6-0.4,1.2-0.6,1.8-0.6c0.4,0,0.8,0.1,1.2,0.2
					L93.5,38c-0.4-0.1-0.8-0.2-1.1-0.2c-0.5,0-1.1,0.2-1.6,0.7c-0.5,0.4-1,1.1-1.3,2v7.3h-1.7V36.6z"/>
				<path class="st1" d="M102,46.6c-0.8-1-1.2-2.5-1.2-4.3c0-1.2,0.2-2.2,0.7-3.1c0.4-0.9,1-1.6,1.8-2.1c0.8-0.5,1.6-0.7,2.4-0.7
					c0.6,0,1.1,0.1,1.6,0.3c0.5,0.2,1,0.5,1.6,1l-0.1-2v-4.4h1.7v16.6h-1.4l-0.1-1.4h-0.1c-0.5,0.5-1,0.9-1.6,1.2
					c-0.6,0.3-1.2,0.5-1.9,0.5C103.9,48.1,102.8,47.6,102,46.6z M107.3,46.3c0.5-0.3,1-0.7,1.5-1.2V39c-0.5-0.4-1-0.7-1.4-0.9
					c-0.5-0.2-0.9-0.3-1.4-0.3c-0.6,0-1.2,0.2-1.7,0.6c-0.5,0.4-0.9,0.9-1.2,1.6c-0.3,0.7-0.5,1.4-0.5,2.3c0,1.4,0.3,2.5,0.8,3.3
					c0.6,0.8,1.4,1.2,2.4,1.2C106.3,46.7,106.8,46.5,107.3,46.3z"/>
				<path class="st1" d="M114.6,33.8c-0.2-0.2-0.3-0.5-0.3-0.9c0-0.3,0.1-0.6,0.3-0.8c0.2-0.2,0.5-0.3,0.8-0.3s0.6,0.1,0.8,0.3
					s0.3,0.5,0.3,0.8c0,0.4-0.1,0.6-0.3,0.9c-0.2,0.2-0.5,0.3-0.8,0.3S114.8,34,114.6,33.8z M114.6,36.6h1.7v11.3h-1.7V36.6z"/>
				<path class="st1" d="M120.7,52.3c-0.8-0.5-1.3-1.3-1.3-2.2c0-0.5,0.1-0.9,0.4-1.4c0.3-0.5,0.7-0.9,1.2-1.2v-0.1
					c-0.3-0.2-0.5-0.4-0.7-0.7c-0.2-0.3-0.3-0.7-0.3-1.1c0-0.4,0.1-0.8,0.4-1.2s0.5-0.7,0.9-0.9v-0.1c-0.4-0.3-0.7-0.8-1-1.3
					c-0.3-0.5-0.4-1.1-0.4-1.7c0-0.8,0.2-1.5,0.6-2.1s0.9-1.1,1.5-1.4c0.6-0.3,1.3-0.5,2.1-0.5c0.5,0,1,0.1,1.6,0.3h3.9v1.3h-2.4
					c0.3,0.3,0.5,0.6,0.7,1.1c0.2,0.4,0.3,0.9,0.3,1.4c0,0.8-0.2,1.5-0.5,2.1s-0.8,1.1-1.5,1.4c-0.6,0.3-1.3,0.5-2.1,0.5
					c-0.6,0-1.2-0.1-1.7-0.4c-0.2,0.2-0.4,0.4-0.6,0.6c-0.1,0.2-0.2,0.5-0.2,0.8c0,0.4,0.2,0.7,0.5,0.9c0.3,0.2,0.8,0.3,1.5,0.3h2.3
					c1.3,0,2.3,0.2,2.9,0.7c0.6,0.4,1,1.1,1,2c0,0.7-0.2,1.3-0.7,1.9c-0.5,0.6-1.1,1.1-2,1.4c-0.9,0.4-1.8,0.5-2.9,0.5
					C122.7,53.1,121.6,52.8,120.7,52.3z M126.3,51.5c0.6-0.2,1-0.5,1.3-0.9c0.3-0.4,0.5-0.8,0.5-1.2c0-0.5-0.2-0.9-0.6-1.1
					s-1-0.3-1.8-0.3h-2.1c-0.5,0-1-0.1-1.4-0.2c-0.8,0.6-1.2,1.2-1.2,2c0,0.6,0.3,1.1,0.9,1.5s1.4,0.6,2.5,0.6
					C125.1,51.9,125.7,51.8,126.3,51.5z M125.9,42.3c0.5-0.5,0.7-1.2,0.7-2c0-0.8-0.2-1.5-0.7-2s-1.1-0.8-1.8-0.8
					c-0.7,0-1.3,0.3-1.8,0.8s-0.7,1.2-0.7,2c0,0.8,0.2,1.5,0.7,2c0.5,0.5,1.1,0.8,1.8,0.8C124.8,43.1,125.4,42.8,125.9,42.3z"/>
				<path class="st1" d="M132.4,33.8c-0.2-0.2-0.3-0.5-0.3-0.9c0-0.3,0.1-0.6,0.3-0.8c0.2-0.2,0.5-0.3,0.8-0.3s0.6,0.1,0.8,0.3
					s0.3,0.5,0.3,0.8c0,0.4-0.1,0.6-0.3,0.9c-0.2,0.2-0.5,0.3-0.8,0.3S132.6,34,132.4,33.8z M132.4,36.6h1.7v11.3h-1.7V36.6z"/>
				<path class="st1" d="M139.3,47.2c-0.5-0.6-0.7-1.5-0.7-2.7V38h-1.7v-1.3l1.8-0.1l0.2-3.2h1.4v3.2h3.1V38h-3.1v6.5
					c0,0.7,0.1,1.3,0.4,1.7s0.7,0.6,1.4,0.6c0.3,0,0.8-0.1,1.3-0.3l0.3,1.3c-0.8,0.3-1.5,0.4-2,0.4
					C140.6,48.1,139.8,47.8,139.3,47.2z"/>
				<path class="st1" d="M146.8,47.3c-0.6-0.6-0.9-1.3-0.9-2.3c0-1.2,0.6-2.2,1.7-2.8s2.9-1.1,5.3-1.4c0-0.9-0.2-1.6-0.5-2.2
					s-1-0.8-1.9-0.8c-1.1,0-2.2,0.4-3.4,1.2l-0.7-1.2c1.5-1,2.9-1.5,4.4-1.5c1.3,0,2.3,0.4,2.9,1.2c0.6,0.8,0.9,1.9,0.9,3.4v7h-1.4
					l-0.1-1.4h-0.1c-1.3,1.1-2.6,1.7-3.8,1.7C148.2,48.1,147.4,47.8,146.8,47.3z M151.2,46.4c0.5-0.3,1.1-0.7,1.7-1.2v-3.3
					c-1.9,0.2-3.3,0.6-4.1,1.1c-0.8,0.5-1.2,1.1-1.2,1.9c0,0.6,0.2,1.1,0.6,1.4c0.4,0.3,0.9,0.5,1.5,0.5
					C150.1,46.7,150.7,46.6,151.2,46.4z"/>
				<path class="st1" d="M158.9,47.5c-0.3-0.4-0.4-1-0.4-1.8V31.2h1.7v14.7c0,0.3,0.1,0.5,0.2,0.6s0.2,0.2,0.4,0.2
					c0.1,0,0.3,0,0.4,0l0.2,1.3c-0.3,0.1-0.6,0.2-1,0.2C159.7,48.1,159.2,47.9,158.9,47.5z"/>
				<path class="st1" d="M170.5,52.3c-0.8-0.5-1.3-1.3-1.3-2.2c0-0.5,0.1-0.9,0.4-1.4c0.3-0.5,0.7-0.9,1.2-1.2v-0.1
					c-0.3-0.2-0.5-0.4-0.7-0.7c-0.2-0.3-0.3-0.7-0.3-1.1c0-0.4,0.1-0.8,0.4-1.2s0.5-0.7,0.9-0.9v-0.1c-0.4-0.3-0.7-0.8-1-1.3
					c-0.3-0.5-0.4-1.1-0.4-1.7c0-0.8,0.2-1.5,0.6-2.1s0.9-1.1,1.5-1.4c0.6-0.3,1.3-0.5,2.1-0.5c0.5,0,1,0.1,1.6,0.3h3.9v1.3h-2.4
					c0.3,0.3,0.5,0.6,0.7,1.1c0.2,0.4,0.3,0.9,0.3,1.4c0,0.8-0.2,1.5-0.5,2.1s-0.8,1.1-1.5,1.4c-0.6,0.3-1.3,0.5-2.1,0.5
					c-0.6,0-1.2-0.1-1.7-0.4c-0.2,0.2-0.4,0.4-0.6,0.6c-0.1,0.2-0.2,0.5-0.2,0.8c0,0.4,0.2,0.7,0.5,0.9c0.3,0.2,0.8,0.3,1.5,0.3h2.3
					c1.3,0,2.3,0.2,2.9,0.7c0.6,0.4,1,1.1,1,2c0,0.7-0.2,1.3-0.7,1.9c-0.5,0.6-1.1,1.1-2,1.4c-0.9,0.4-1.8,0.5-2.9,0.5
					C172.5,53.1,171.3,52.8,170.5,52.3z M176,51.5c0.6-0.2,1-0.5,1.3-0.9c0.3-0.4,0.5-0.8,0.5-1.2c0-0.5-0.2-0.9-0.6-1.1
					s-1-0.3-1.8-0.3h-2.1c-0.5,0-1-0.1-1.4-0.2c-0.8,0.6-1.2,1.2-1.2,2c0,0.6,0.3,1.1,0.9,1.5s1.4,0.6,2.5,0.6
					C174.8,51.9,175.5,51.8,176,51.5z M175.6,42.3c0.5-0.5,0.7-1.2,0.7-2c0-0.8-0.2-1.5-0.7-2s-1.1-0.8-1.8-0.8
					c-0.7,0-1.3,0.3-1.8,0.8s-0.7,1.2-0.7,2c0,0.8,0.2,1.5,0.7,2c0.5,0.5,1.1,0.8,1.8,0.8C174.5,43.1,175.1,42.8,175.6,42.3z"/>
				<path class="st1" d="M182.1,33.8c-0.2-0.2-0.3-0.5-0.3-0.9c0-0.3,0.1-0.6,0.3-0.8c0.2-0.2,0.5-0.3,0.8-0.3s0.6,0.1,0.8,0.3
					s0.3,0.5,0.3,0.8c0,0.4-0.1,0.6-0.3,0.9c-0.2,0.2-0.5,0.3-0.8,0.3S182.4,34,182.1,33.8z M182.1,36.6h1.7v11.3h-1.7V36.6z"/>
				<path class="st1" d="M189.9,34.6v1.9h2.4V38h-2.4v9.9h-1.7V38h-1.5v-1.3l1.5-0.1v-2c0-1.2,0.3-2.1,0.8-2.7c0.5-0.6,1.3-1,2.4-1
					c0.6,0,1.2,0.1,1.8,0.4l-0.4,1.3c-0.4-0.2-0.9-0.3-1.3-0.3C190.5,32.3,189.9,33.1,189.9,34.6z"/>
				<path class="st1" d="M196.8,47.2c-0.5-0.6-0.7-1.5-0.7-2.7V38h-1.7v-1.3l1.8-0.1l0.2-3.2h1.4v3.2h3.1V38h-3.1v6.5
					c0,0.7,0.1,1.3,0.4,1.7s0.7,0.6,1.4,0.6c0.3,0,0.8-0.1,1.3-0.3l0.3,1.3c-0.8,0.3-1.5,0.4-2,0.4
					C198.1,48.1,197.3,47.8,196.8,47.2z"/>
				<path class="st1" d="M211,47.4c-0.8-0.5-1.4-1.2-1.9-2c-0.5-0.9-0.7-1.9-0.7-3.2c0-1.2,0.2-2.3,0.7-3.2s1.1-1.6,2-2.1
					c0.8-0.5,1.7-0.7,2.7-0.7c1.2,0,2.3,0.5,3.3,1.3l-0.9,1.1c-0.4-0.3-0.7-0.6-1.1-0.8c-0.4-0.2-0.8-0.3-1.2-0.3
					c-0.7,0-1.3,0.2-1.9,0.6c-0.6,0.4-1,0.9-1.3,1.6c-0.3,0.7-0.5,1.5-0.5,2.3c0,1.3,0.3,2.4,1,3.3c0.7,0.8,1.5,1.2,2.6,1.2
					c1,0,1.9-0.4,2.7-1.2l0.7,1.1c-0.5,0.4-1.1,0.8-1.7,1.1c-0.6,0.3-1.3,0.4-1.9,0.4C212.7,48.1,211.8,47.9,211,47.4z"/>
				<path class="st1" d="M220.6,47.3c-0.6-0.6-0.9-1.3-0.9-2.3c0-1.2,0.6-2.2,1.7-2.8s2.9-1.1,5.3-1.4c0-0.9-0.2-1.6-0.5-2.2
					s-1-0.8-1.9-0.8c-1.1,0-2.2,0.4-3.4,1.2l-0.7-1.2c1.5-1,2.9-1.5,4.4-1.5c1.3,0,2.3,0.4,2.9,1.2c0.6,0.8,0.9,1.9,0.9,3.4v7H227
					l-0.1-1.4h-0.1c-1.3,1.1-2.6,1.7-3.8,1.7C222,48.1,221.2,47.8,220.6,47.3z M225,46.4c0.5-0.3,1.1-0.7,1.7-1.2v-3.3
					c-1.9,0.2-3.3,0.6-4.1,1.1c-0.8,0.5-1.2,1.1-1.2,1.9c0,0.6,0.2,1.1,0.6,1.4c0.4,0.3,0.9,0.5,1.5,0.5
					C224,46.7,224.5,46.6,225,46.4z"/>
				<path class="st1" d="M232.3,36.6h1.4l0.1,2.1h0.1c0.4-0.7,0.9-1.3,1.4-1.7c0.6-0.4,1.2-0.6,1.8-0.6c0.4,0,0.8,0.1,1.2,0.2
					L238,38c-0.4-0.1-0.8-0.2-1.1-0.2c-0.5,0-1.1,0.2-1.6,0.7c-0.5,0.4-1,1.1-1.3,2v7.3h-1.7V36.6z"/>
				<path class="st1" d="M241,46.6c-0.8-1-1.2-2.5-1.2-4.3c0-1.2,0.2-2.2,0.7-3.1c0.4-0.9,1-1.6,1.8-2.1c0.8-0.5,1.6-0.7,2.4-0.7
					c0.6,0,1.1,0.1,1.6,0.3c0.5,0.2,1,0.5,1.6,1l-0.1-2v-4.4h1.7v16.6H248l-0.1-1.4h-0.1c-0.5,0.5-1,0.9-1.6,1.2
					c-0.6,0.3-1.2,0.5-1.9,0.5C242.9,48.1,241.8,47.6,241,46.6z M246.3,46.3c0.5-0.3,1-0.7,1.5-1.2V39c-0.5-0.4-1-0.7-1.4-0.9
					c-0.5-0.2-0.9-0.3-1.4-0.3c-0.6,0-1.2,0.2-1.7,0.6c-0.5,0.4-0.9,0.9-1.2,1.6c-0.3,0.7-0.5,1.4-0.5,2.3c0,1.4,0.3,2.5,0.8,3.3
					c0.6,0.8,1.4,1.2,2.4,1.2C245.3,46.7,245.8,46.5,246.3,46.3z"/>
			</g>
		</g>
		<g>
			<path class="st1" d="M392.2,0v38c0,10,8.1,18,18,18c10,0,18-8.1,18-18V0H392.2z"/>
			<g>
				<path class="st3" d="M405.8,41.4c-1.5-1.5-2.2-3.6-1.7-5.9c0.5-2.3,2.4-4.2,4.7-4.7c2.3-0.5,4.5,0.2,5.9,1.7l3.3-3.3
					c-2.4-2.4-5.8-3.7-9.6-3c-4.5,0.7-8.2,4.4-8.9,8.9c-0.6,3.7,0.7,7.2,3,9.6L405.8,41.4z"/>
				<path class="st3" d="M415.5,40.5c-1.1,1.6-3,2.7-5.2,2.7c-0.4,0-0.8,0-1.2-0.1l-3.6,3.6c1.4,0.7,3.1,1.1,4.8,1.1
					c3.7,0,7-1.8,9-4.7L415.5,40.5z"/>
			</g>
		</g>
		<g>
			
				<ellipse transform="matrix(0.7071 -0.7071 0.7071 0.7071 -88.1232 109.8448)" class="st0" cx="88.5" cy="161.3" rx="38.9" ry="38.2"/>
			
				<ellipse transform="matrix(0.7071 -0.7071 0.7071 0.7071 -88.1232 109.8448)" class="st3" cx="88.5" cy="161.3" rx="29.6" ry="29.1"/>
			<polygon class="st0" points="67.6,182.2 81.2,153.9 109.5,140.4 95.9,168.6 			"/>
		</g>
	</g>
</g>
</svg>
