<?xml version="1.0" encoding="utf-8"?>
<!-- Generator: Adobe Illustrator 23.0.3, SVG Export Plug-In . SVG Version: 6.00 Build 0)  -->
<svg version="1.1" id="Ebene_3" xmlns="http://www.w3.org/2000/svg" xmlns:xlink="http://www.w3.org/1999/xlink" x="0px" y="0px"
	 viewBox="0 0 308 182" style="enable-background:new 0 0 308 182;" xml:space="preserve">
<style type="text/css">
	.st0{fill:#F5A543;}
	.st1{fill:#FCE4C7;}
	.st2{fill:#2E3133;}
	.st3{fill:#FFFFFF;}
	.st4{fill:#D5DADE;}
	.st5{opacity:0.29;fill:#C7CED3;}
</style>
<g>
	<path class="st0" d="M176,2.7l5.1,1.3L192,6.9l0,0.1c0.3,0.1,0.6,0.1,0.9,0.3L267,52.1c0.9,0.4,1.5,1.4,1.5,3
		c0,2.8-1.9,6.3-4.2,7.7c-1.2,0.7-2.2,0.8-3,0.3l0,0.1L186.4,18l0-0.1c-0.1-0.1-0.2-0.2-0.3-0.4l0,0l-8.9-9.9l-3.5-3.9L176,2.7z"/>
	<path class="st1" d="M181.5,5.1l8.8,9.9l5.9-10.6l-10.9-2.9C183.4,2.3,182.2,3.4,181.5,5.1z"/>
	<path class="st2" d="M178,1.1l3.5,3.9c0.7-1.7,1.9-2.8,3.9-3.6l-5.1-1.4L178,1.1z"/>
	<polygon class="st0" points="281.7,114 164.2,181.9 0,87.4 117.5,19.6 	"/>
	<polygon class="st3" points="240.1,85.7 118.9,155.7 70.6,103 191.8,33 	"/>
	<polygon class="st4" points="191.8,33 70.6,103 14.4,79.1 135.6,9.1 	"/>
	<polygon class="st4" points="308,102.9 186.8,172.9 118.9,155.7 240.1,85.7 	"/>
	<path class="st0" d="M189.7,12.7c0-2.8,1.9-6.3,4.3-7.7c1.2-0.7,2.3-0.8,3.1-0.2l74.6,45l-6.2,10.8l-74.8-45.1l0-0.1
		C190.1,14.8,189.7,13.9,189.7,12.7z"/>
	<path class="st2" d="M189.7,12.7c0-2.8,1.9-6.3,4.3-7.7c1.2-0.7,2.3-0.8,3.1-0.2l74.6,45l-6.2,10.8l-74.8-45.1l0-0.1
		C190.1,14.8,189.7,13.9,189.7,12.7z"/>
	<path class="st5" d="M194,5c1.2-0.7,2.3-0.8,3.1-0.2l74.6,45l-2.8,4.8L191.5,7.5C192.2,6.4,193,5.5,194,5z"/>
	<path class="st1" d="M264.3,57.6c0,2.8,1.9,4,4.3,2.6c2.3-1.4,4.2-4.9,4.2-7.7c0-2.8-1.9-4-4.2-2.6
		C266.2,51.3,264.3,54.8,264.3,57.6z"/>
	<path class="st2" d="M266.4,56.3c0,1.4,1,2,2.2,1.3c1.2-0.7,2.2-2.5,2.2-3.9c0-1.5-1-2-2.2-1.3C267.3,53.1,266.4,54.9,266.4,56.3z"
		/>
</g>
</svg>
