<?xml version="1.0" encoding="utf-8"?>
<!-- Generator: Adobe Illustrator 23.0.3, SVG Export Plug-In . SVG Version: 6.00 Build 0)  -->
<svg version="1.1" id="CGift-Startseite-Keyvisual-02-Konfetti"
	 xmlns="http://www.w3.org/2000/svg" xmlns:xlink="http://www.w3.org/1999/xlink" x="0px" y="0px" viewBox="0 0 880 534"
	 style="enable-background:new 0 0 880 534;" xml:space="preserve">
<style type="text/css">
	.st0{fill:#FAD151;}
	.st1{fill:#FDEDBC;}
	.st2{fill:#FEF7E0;}
</style>
<g>
	<polygon id="Plane-mesh_30_" class="st0" points="536.6,146.2 537.3,147.5 534.9,149.4 	"/>
	<polygon id="Plane-mesh_29_" class="st0" points="534.3,148 536.6,146.2 534.9,149.4 	"/>
</g>
<g>
	<polygon id="Plane_002-mesh_23_" class="st0" points="557,112.4 559.9,113.4 558.3,109.8 	"/>
</g>
<g>
	<polygon id="Plane_002-mesh_13_" class="st0" points="479.2,6.5 482.2,7.5 480.6,4 	"/>
</g>
<g>
	<polygon id="Plane_001-mesh_10_" class="st0" points="489.8,192 490.3,187.3 488.1,190.2 	"/>
	<polygon id="Plane_001-mesh_9_" class="st0" points="490.3,187.3 488.7,185.4 488.1,190.2 	"/>
</g>
<g>
	<polygon id="Plane_001-mesh_8_" class="st0" points="453,317.7 453.5,313 451.3,315.9 	"/>
	<polygon id="Plane_001-mesh_7_" class="st0" points="453.5,313 451.9,311.1 451.3,315.9 	"/>
</g>
<g>
	<polygon id="Plane_001-mesh_14_" class="st0" points="445.4,156.3 447,157.9 445.7,160.3 	"/>
	<polygon id="Plane_001-mesh_13_" class="st1" points="444.1,158.8 445.4,156.3 445.7,160.3 	"/>
</g>
<g>
	<polygon id="Plane-mesh_14_" class="st0" points="476.2,257.3 476.8,258.7 474.4,260.6 	"/>
	<polygon id="Plane-mesh_13_" class="st0" points="473.8,259.2 476.2,257.3 474.4,260.6 	"/>
</g>
<g>
	<polygon id="Plane-mesh_18_" class="st0" points="355.6,240.2 356.3,241.6 353.9,243.5 	"/>
	<polygon id="Plane-mesh_17_" class="st0" points="353.3,242.1 355.6,240.2 353.9,243.5 	"/>
</g>
<g>
	<polygon id="Plane-mesh_10_" class="st0" points="372.5,207.9 374.9,210.1 374.9,205.6 	"/>
	<polygon id="Plane-mesh_9_" class="st1" points="374.9,210.1 377.4,207.7 374.9,205.6 	"/>
</g>
<g>
	<polygon id="Plane-mesh_6_" class="st0" points="398.8,107 399.7,108.9 401.7,105.5 	"/>
	<polygon id="Plane-mesh_5_" class="st1" points="399.7,108.9 402.6,107.5 401.7,105.5 	"/>
</g>
<g>
	<polygon id="Plane_001-mesh_12_" class="st0" points="410.9,254.3 411.4,249.6 409.2,252.5 	"/>
	<polygon id="Plane_001-mesh_11_" class="st0" points="411.4,249.6 409.8,247.7 409.2,252.5 	"/>
</g>
<g>
	<polygon id="Plane_002-mesh_16_" class="st0" points="408.6,77.2 414.3,79.2 411.2,72.3 	"/>
</g>
<g>
	<polygon id="Plane-mesh_16_" class="st0" points="384.6,45.1 385.4,47.1 387.5,43.7 	"/>
	<polygon id="Plane-mesh_15_" class="st1" points="385.4,47.1 388.3,45.6 387.5,43.7 	"/>
</g>
<g>
	<polygon id="Plane_001-mesh_18_" class="st2" points="358.9,172.8 359.5,168 357.2,170.9 	"/>
	<polygon id="Plane_001-mesh_17_" class="st0" points="359.5,168 357.8,166.1 357.2,170.9 	"/>
</g>
<g>
	<polygon id="Plane_001-mesh_28_" class="st0" points="420.2,200.1 420.8,195.4 418.5,198.3 	"/>
	<polygon id="Plane_001-mesh_27_" class="st0" points="420.8,195.4 419.1,193.5 418.5,198.3 	"/>
</g>
<g>
	<polygon id="Plane_002-mesh_15_" class="st0" points="389.1,150.9 386.5,151 390,152.3 	"/>
	<polygon id="Plane_002-mesh_14_" class="st0" points="392.7,152.1 389.1,150.9 390,152.3 	"/>
</g>
<g>
	<polygon id="Plane_002-mesh_18_" class="st0" points="439.5,15.9 436.9,16 440.5,17.2 	"/>
	<polygon id="Plane_002-mesh_17_" class="st0" points="443.1,17.1 439.5,15.9 440.5,17.2 	"/>
</g>
<g>
	<polygon id="Plane_001-mesh_16_" class="st0" points="321.5,193.1 319,193.1 322.3,191.5 	"/>
	<polygon id="Plane_001-mesh_15_" class="st2" points="319,193.1 319.8,191.5 322.3,191.5 	"/>
</g>
<g>
	<polygon id="Plane-mesh_34_" class="st0" points="478.6,99 479.2,96.2 476.8,97.5 	"/>
	<polygon id="Plane-mesh_33_" class="st0" points="479.2,96.2 477.4,94.8 476.8,97.5 	"/>
</g>
<g>
	<polygon id="Plane-mesh_3_" class="st0" points="526.1,303.7 528.5,305.8 528.5,301.3 	"/>
	<polygon id="Plane-mesh_1_" class="st1" points="528.5,305.8 531,303.5 528.5,301.3 	"/>
</g>
<g>
	<polygon id="Plane_002-mesh_1_" class="st0" points="366,274.7 371.7,276.6 368.6,269.7 	"/>
</g>
<g>
	<polygon id="Plane-mesh_28_" class="st0" points="461.6,43.4 462.4,45.4 464.5,42 	"/>
	<polygon id="Plane-mesh_27_" class="st1" points="462.4,45.4 465.3,43.9 464.5,42 	"/>
</g>
<g>
	<polygon id="Plane_001-mesh_24_" class="st0" points="478.6,147.3 479.1,142.6 476.9,145.5 	"/>
	<polygon id="Plane_001-mesh_23_" class="st0" points="479.1,142.6 477.5,140.7 476.9,145.5 	"/>
</g>
<g>
	<polygon id="Plane_001-mesh_22_" class="st0" points="432.9,132.9 430.4,132.9 433.7,131.3 	"/>
	<polygon id="Plane_001-mesh_21_" class="st0" points="430.4,132.9 431.2,131.3 433.7,131.3 	"/>
</g>
</svg>
