<?xml version="1.0" encoding="utf-8"?>
<!-- Generator: Adobe Illustrator 23.0.3, SVG Export Plug-In . SVG Version: 6.00 Build 0)  -->
<svg version="1.1" xmlns="http://www.w3.org/2000/svg" xmlns:xlink="http://www.w3.org/1999/xlink" x="0px" y="0px"
	 viewBox="0 0 480 302.7" style="enable-background:new 0 0 480 302.7;" xml:space="preserve">
<style type="text/css">
	.st0{fill:#FAD151;}
	.st1{fill:#1F2223;}
	.st2{fill:#5C656B;}
	.st3{fill:#7D8489;}
	.st4{fill:#131617;}
	.st5{fill:#FFFFFF;}
	.st6{fill:none;stroke:#FAD151;stroke-width:3.4016;stroke-miterlimit:10;}
	.st7{fill-rule:evenodd;clip-rule:evenodd;fill:none;stroke:#FFFFFF;stroke-width:3.4016;stroke-miterlimit:10;}
	.st8{fill:none;stroke:#FFFFFF;stroke-width:3.4016;stroke-miterlimit:10;}
	.st9{fill:#2E3133;}
	.st10{opacity:0.6;fill:#FFFFFF;}
</style>
<g id="Karten">
</g>
<g id="Ebene_3">
	<g>
		<path class="st0" d="M462.2,0h-33.8l-18,16l-18-16H17.8C8,0,0,8,0,17.8v267c0,9.8,8,17.8,17.8,17.8h444.3c9.8,0,17.8-8,17.8-17.8
			v-267C480,8,472,0,462.2,0z"/>
		<g>
			<path class="st1" d="M153,187.6c-2.2-1.2-4-3-5.3-5.3c-1.3-2.4-2-5.2-2-8.6c0-3.3,0.7-6.2,2.1-8.6c1.4-2.4,3.2-4.3,5.4-5.6
				c2.2-1.3,4.7-1.9,7.3-1.9c1.9,0,3.7,0.4,5.3,1.1s3.1,1.7,4.2,2.9l-4.2,5.2c-0.8-0.8-1.7-1.3-2.5-1.7c-0.8-0.4-1.7-0.6-2.6-0.6
				c-1.2,0-2.3,0.4-3.3,1.1c-1,0.7-1.8,1.8-2.5,3.1c-0.6,1.3-0.9,2.9-0.9,4.7c0,2.8,0.6,5,1.8,6.6c1.2,1.6,2.8,2.4,4.8,2.4
				c2.1,0,3.9-0.9,5.6-2.6l4.2,5.1c-1.3,1.5-2.8,2.6-4.5,3.4c-1.7,0.8-3.6,1.1-5.6,1.1C157.7,189.4,155.2,188.8,153,187.6z"/>
			<path class="st1" d="M177.3,188.4c-1.1-0.7-1.9-1.5-2.5-2.6s-0.8-2.3-0.8-3.6c0-2.5,1-4.4,3-5.8c2-1.4,5.3-2.3,9.8-2.8
				c-0.1-0.8-0.4-1.5-0.9-1.9c-0.5-0.4-1.3-0.6-2.4-0.6c-0.8,0-1.7,0.2-2.6,0.5c-0.9,0.3-2,0.8-3.3,1.5l-2.8-5.3
				c3.5-2.1,6.9-3.1,10.4-3.1c6.5,0,9.8,3.7,9.8,11v13.1h-6.6l-0.6-2.3h-0.2c-2.1,1.9-4.3,2.8-6.5,2.8
				C179.6,189.4,178.4,189.1,177.3,188.4z M185.4,182.8c0.4-0.3,0.9-0.7,1.4-1.2v-3.2c-3.4,0.5-5.1,1.5-5.1,3.1c0,0.5,0.2,1,0.6,1.3
				c0.4,0.3,0.9,0.4,1.6,0.4C184.5,183.2,185,183,185.4,182.8z"/>
			<path class="st1" d="M200.8,165.2h6.6l0.6,4.1h0.2c0.8-1.5,1.8-2.7,3-3.5c1.2-0.8,2.4-1.2,3.7-1.2s2.2,0.2,2.9,0.5l-1.3,7
				c-1.1-0.3-2-0.4-2.6-0.4c-0.9,0-1.9,0.3-2.8,1c-0.9,0.6-1.6,1.6-2.1,3v13.1h-8.1V165.2z"/>
			<path class="st1" d="M221.7,158.1h9.1c4.9,0,8.8,1.2,11.6,3.7c2.8,2.5,4.2,6.3,4.2,11.5c0,5.2-1.4,9.1-4.1,11.7
				c-2.8,2.5-6.5,3.8-11.2,3.8h-9.5V158.1z M230.3,182.3c2.5,0,4.4-0.7,5.8-2c1.4-1.3,2.1-3.7,2.1-7c0-3.3-0.7-5.6-2.1-6.8
				c-1.4-1.2-3.3-1.9-5.9-1.9h-0.5v17.7H230.3z"/>
			<path class="st1" d="M252.9,161.2c-0.8-0.8-1.2-1.7-1.2-2.9s0.4-2.2,1.2-2.9c0.8-0.8,1.9-1.1,3.1-1.1c1.3,0,2.3,0.4,3.1,1.1
				c0.8,0.8,1.2,1.7,1.2,2.9s-0.4,2.2-1.2,2.9c-0.8,0.8-1.9,1.1-3.1,1.1C254.8,162.3,253.7,161.9,252.9,161.2z M252,165.2h8.1v23.6
				H252V165.2z"/>
			<path class="st1" d="M266.1,165.2h6.6l0.6,4.1h0.2c0.8-1.5,1.8-2.7,3-3.5c1.2-0.8,2.4-1.2,3.7-1.2s2.2,0.2,2.9,0.5l-1.3,7
				c-1.1-0.3-2-0.4-2.6-0.4c-0.9,0-1.9,0.3-2.8,1c-0.9,0.6-1.6,1.6-2.1,3v13.1h-8.1V165.2z"/>
			<path class="st1" d="M306.2,179.5h-13.6c0.4,1.4,1.1,2.4,2.1,2.9s2.2,0.8,3.5,0.8c1.5,0,3.1-0.5,4.8-1.4l2.6,4.8
				c-1.2,0.9-2.6,1.6-4.2,2c-1.6,0.5-3,0.7-4.4,0.7c-2.3,0-4.4-0.5-6.3-1.5c-1.8-1-3.3-2.4-4.3-4.3c-1.1-1.9-1.6-4.1-1.6-6.6
				c0-2.5,0.5-4.6,1.6-6.5c1.1-1.9,2.5-3.3,4.2-4.3c1.7-1,3.6-1.5,5.5-1.5c3.3,0,5.9,1.1,7.6,3.2s2.6,4.9,2.6,8.2
				C306.5,177.5,306.4,178.6,306.2,179.5z M299.6,174.2c0-1-0.3-1.8-0.8-2.5c-0.5-0.6-1.3-0.9-2.5-0.9c-0.9,0-1.7,0.3-2.3,0.8
				c-0.7,0.6-1.2,1.4-1.5,2.6H299.6z"/>
			<path class="st1" d="M316.1,187.9c-1.8-1-3.2-2.4-4.2-4.3c-1-1.9-1.6-4.1-1.6-6.6c0-2.5,0.6-4.7,1.7-6.6c1.1-1.9,2.7-3.3,4.6-4.3
				s4-1.5,6.3-1.5c2.6,0,4.9,0.8,6.9,2.5l-3.8,5.2c-0.9-0.8-1.8-1.1-2.6-1.1c-1.5,0-2.7,0.5-3.5,1.6c-0.9,1.1-1.3,2.5-1.3,4.3
				c0,1.8,0.4,3.2,1.3,4.2c0.9,1.1,1.9,1.6,3.2,1.6c1.2,0,2.4-0.5,3.8-1.5l3.1,5.3c-1.1,1-2.3,1.7-3.7,2.1c-1.4,0.4-2.7,0.6-4.1,0.6
				C319.9,189.4,317.9,188.9,316.1,187.9z"/>
			<path class="st1" d="M338,186.8c-1.4-1.7-2.1-4.1-2.1-7.1v-8.2h-3.1v-6l3.6-0.3l0.9-6.1h6.7v6.1h5.4v6.3H344v8.1
				c0,1.2,0.3,2.1,0.8,2.6c0.5,0.5,1.2,0.8,2.1,0.8c0.6,0,1.3-0.1,2.1-0.4l1.2,5.9c-1.8,0.6-3.7,0.8-5.6,0.8
				C341.6,189.4,339.4,188.5,338,186.8z"/>
			<path class="st2" d="M353.8,184.2c3.1-2.8,5.4-5,7-6.6c1.6-1.6,3-3.2,4-4.7c1-1.5,1.6-2.9,1.6-4.2c0-1.3-0.3-2.3-1-3
				c-0.7-0.7-1.6-1-2.7-1c-0.9,0-1.7,0.2-2.4,0.7s-1.6,1.2-2.5,2.1l-4.3-4.3c1.6-1.7,3.2-2.9,4.8-3.7c1.6-0.8,3.4-1.1,5.6-1.1
				c2,0,3.8,0.4,5.4,1.2c1.6,0.8,2.8,2,3.6,3.4c0.9,1.5,1.3,3.2,1.3,5.1c0,2.2-0.8,4.4-2.4,6.8c-1.6,2.4-3.7,4.8-6.2,7.5
				c2-0.3,3.7-0.4,5-0.4h5v6.8h-21.7V184.2z"/>
			<path class="st2" d="M403.1,182.1h-3.2v6.7h-7.6v-6.7h-12.7v-5.7l10.2-17.6h10.1V176h3.2V182.1z M392.3,176v-3.4
				c0-1.3,0.1-3.1,0.2-5.5c0.1-0.8,0.1-1.3,0.1-1.6h-0.2c-0.5,1.2-1.3,3-2.5,5.4l-2.7,5.1H392.3z"/>
		</g>
		<g>
			<path class="st1" d="M149.2,223.9c-1.3-0.8-2.3-1.9-3-3.4c-0.7-1.5-1.1-3.3-1.1-5.3c0-2,0.4-3.8,1.1-5.3c0.8-1.5,1.8-2.7,3.1-3.5
				s2.8-1.2,4.4-1.2c1.1,0,2.1,0.2,3.1,0.7c0.9,0.4,1.7,1,2.4,1.7l-1.6,1.9c-1.1-1.2-2.4-1.7-3.7-1.7c-1.1,0-2.1,0.3-2.9,0.9
				s-1.5,1.4-2,2.5c-0.5,1.1-0.7,2.4-0.7,3.9c0,2.3,0.5,4.1,1.5,5.4c1,1.3,2.4,2,4,2c1.6,0,3-0.7,4.2-2l1.6,1.9
				c-1.6,1.9-3.6,2.8-6,2.8C152,225,150.5,224.6,149.2,223.9z"/>
			<path class="st1" d="M173.5,219.2h-6.7l-1.6,5.5h-3l6.3-19.1h3.4l6.3,19.1h-3.2L173.5,219.2z M172.8,216.9l-0.8-2.6
				c-0.3-0.9-0.6-2-0.9-3.2c-0.3-1.2-0.6-2.1-0.7-2.6c0-0.2-0.1-0.3-0.1-0.6h-0.1c-0.6,2.4-1.2,4.5-1.8,6.4l-0.8,2.6H172.8z"/>
			<path class="st1" d="M192.5,224.7l-4.3-7.7H185v7.7h-3v-19.1h6.3c2.1,0,3.8,0.4,5.1,1.3c1.2,0.9,1.8,2.3,1.8,4.3
				c0,1.4-0.4,2.6-1.1,3.5c-0.7,0.9-1.7,1.6-2.9,1.9l4.7,8.2H192.5z M185,214.5h2.9c1.4,0,2.5-0.3,3.2-0.9c0.7-0.6,1.1-1.4,1.1-2.6
				c0-1.1-0.4-1.9-1.1-2.4c-0.7-0.5-1.8-0.7-3.2-0.7H185V214.5z"/>
			<path class="st1" d="M207.2,205.5h3v19.1h-3V205.5z"/>
			<path class="st1" d="M216,205.5h3.1l6.4,11.3l2,4h0.1c0-0.6-0.1-1.1-0.1-1.3c0-0.2-0.1-0.9-0.1-2s-0.1-2.1-0.1-3.1v-9h2.8v19.1
				H227l-6.4-11.3l-2-4h-0.1l0.1,1.5c0,0.2,0.1,0.9,0.1,1.9s0.1,2,0.1,2.9v9.1H216V205.5z"/>
			<path class="st1" d="M237.4,224.3c-1.2-0.5-2.2-1.2-3.1-2.1l1.8-2c0.7,0.7,1.5,1.3,2.4,1.7s1.8,0.6,2.7,0.6c1.1,0,2-0.2,2.7-0.7
				c0.6-0.5,1-1.2,1-2c0-0.5-0.1-1-0.4-1.4c-0.2-0.4-0.6-0.7-1-0.9c-0.4-0.2-1-0.5-1.7-0.8l-2.7-1.2c-2.6-1.1-3.9-2.7-3.9-5
				c0-1,0.3-1.9,0.8-2.7c0.5-0.8,1.3-1.4,2.2-1.9c1-0.5,2-0.7,3.2-0.7c1.1,0,2.2,0.2,3.2,0.6c1,0.4,1.9,1,2.6,1.8l-1.5,1.9
				c-1.3-1.1-2.7-1.7-4.2-1.7c-1,0-1.8,0.2-2.4,0.7s-0.9,1.1-0.9,1.8c0,0.5,0.1,0.9,0.4,1.3c0.3,0.4,0.6,0.6,1,0.8
				c0.4,0.2,0.9,0.5,1.7,0.8l2.7,1.1c1.2,0.5,2.2,1.2,2.9,2c0.7,0.8,1,1.9,1,3.2c0,1-0.3,2-0.8,2.8s-1.3,1.5-2.3,2s-2.2,0.7-3.6,0.7
				C239.9,225,238.6,224.8,237.4,224.3z"/>
			<path class="st1" d="M254,223c-1.2-1.4-1.9-3.5-1.9-6.5v-11h3v11.1c0,2.1,0.4,3.5,1.1,4.4c0.7,0.9,1.7,1.3,3,1.3
				c2.8,0,4.2-1.9,4.2-5.8v-11.1h2.9v11c0,3-0.6,5.2-1.9,6.5s-3,2-5.2,2C257,225,255.2,224.4,254,223z"/>
			<path class="st1" d="M282.5,224.7l-4.3-7.7H275v7.7h-3v-19.1h6.3c2.1,0,3.8,0.4,5.1,1.3c1.2,0.9,1.8,2.3,1.8,4.3
				c0,1.4-0.4,2.6-1.1,3.5c-0.7,0.9-1.7,1.6-2.9,1.9l4.7,8.2H282.5z M275,214.5h2.9c1.4,0,2.5-0.3,3.2-0.9c0.7-0.6,1.1-1.4,1.1-2.6
				c0-1.1-0.4-1.9-1.1-2.4c-0.7-0.5-1.8-0.7-3.2-0.7H275V214.5z"/>
			<path class="st1" d="M300,219.2h-6.7l-1.6,5.5h-3l6.3-19.1h3.4l6.3,19.1h-3.2L300,219.2z M299.3,216.9l-0.8-2.6
				c-0.3-0.9-0.6-2-0.9-3.2c-0.3-1.2-0.6-2.1-0.7-2.6c0-0.2-0.1-0.3-0.1-0.6h-0.1c-0.6,2.4-1.2,4.5-1.8,6.4l-0.8,2.6H299.3z"/>
			<path class="st1" d="M308.5,205.5h3.1l6.4,11.3l2,4h0.1c0-0.6-0.1-1.1-0.1-1.3c0-0.2-0.1-0.9-0.1-2s-0.1-2.1-0.1-3.1v-9h2.8v19.1
				h-3.1l-6.4-11.3l-2-4H311l0.1,1.5c0,0.2,0.1,0.9,0.1,1.9s0.1,2,0.1,2.9v9.1h-2.8V205.5z"/>
			<path class="st1" d="M331.5,223.9c-1.3-0.8-2.3-1.9-3-3.4c-0.7-1.5-1.1-3.3-1.1-5.3c0-2,0.4-3.8,1.1-5.3c0.8-1.5,1.8-2.7,3.1-3.5
				s2.8-1.2,4.4-1.2c1.1,0,2.1,0.2,3.1,0.7c0.9,0.4,1.7,1,2.4,1.7l-1.6,1.9c-1.1-1.2-2.4-1.7-3.7-1.7c-1.1,0-2.1,0.3-2.9,0.9
				s-1.5,1.4-2,2.5c-0.5,1.1-0.7,2.4-0.7,3.9c0,2.3,0.5,4.1,1.5,5.4c1,1.3,2.4,2,4,2c1.6,0,3-0.7,4.2-2l1.6,1.9
				c-1.6,1.9-3.6,2.8-6,2.8C334.3,225,332.8,224.6,331.5,223.9z"/>
			<path class="st1" d="M346,205.5h11.3v2.5H349v5.4h7v2.5h-7v6.2h8.6v2.5H346V205.5z"/>
		</g>
		<g>
			<g>
				<path class="st1" d="M54.6,41.8L50,32.6h1.8l2,4.4l0.4,0.9c0.6,1.3,1,2.2,1.1,2.4h0.1l0.4-0.8c0.7-1.4,1-2.2,1.2-2.5l2-4.4h1.8
					l-4.6,9.3v6h-1.7V41.8z"/>
				<path class="st1" d="M63.9,47.4c-0.8-0.5-1.4-1.2-1.9-2c-0.5-0.9-0.7-1.9-0.7-3.2c0-1.2,0.2-2.3,0.7-3.2
					c0.5-0.9,1.1-1.6,1.9-2.1c0.8-0.5,1.7-0.7,2.6-0.7c0.9,0,1.8,0.2,2.6,0.7c0.8,0.5,1.4,1.2,1.9,2.1c0.5,0.9,0.7,2,0.7,3.2
					c0,1.2-0.2,2.3-0.7,3.2c-0.5,0.9-1.1,1.6-1.9,2c-0.8,0.5-1.7,0.7-2.6,0.7C65.6,48.1,64.7,47.9,63.9,47.4z M68.3,46.1
					c0.5-0.4,0.9-0.9,1.2-1.6c0.3-0.7,0.4-1.5,0.4-2.3c0-0.9-0.1-1.7-0.4-2.3c-0.3-0.7-0.7-1.2-1.2-1.6s-1.1-0.6-1.8-0.6
					c-0.7,0-1.3,0.2-1.8,0.6s-0.9,0.9-1.2,1.6s-0.4,1.5-0.4,2.3c0,1.3,0.3,2.4,1,3.3s1.5,1.2,2.5,1.2C67.2,46.7,67.8,46.5,68.3,46.1
					z"/>
				<path class="st1" d="M75.8,47c-0.6-0.7-0.8-1.8-0.8-3.3v-7.2h1.7v7c0,1.1,0.2,1.9,0.5,2.4s0.9,0.8,1.7,0.8
					c0.6,0,1.1-0.2,1.6-0.5c0.5-0.3,1-0.8,1.6-1.5v-8.1h1.7v11.3h-1.4L82.2,46h-0.1c-0.6,0.7-1.2,1.2-1.8,1.5s-1.3,0.5-2,0.5
					C77.2,48.1,76.3,47.7,75.8,47z"/>
				<path class="st1" d="M87.8,36.6h1.4l0.1,2.1h0.1c0.4-0.7,0.9-1.3,1.4-1.7c0.6-0.4,1.2-0.6,1.8-0.6c0.4,0,0.8,0.1,1.2,0.2
					L93.5,38c-0.4-0.1-0.8-0.2-1.1-0.2c-0.5,0-1.1,0.2-1.6,0.7s-1,1.1-1.3,2v7.3h-1.7V36.6z"/>
				<path class="st1" d="M102,46.6c-0.8-1-1.2-2.5-1.2-4.3c0-1.2,0.2-2.2,0.7-3.1c0.4-0.9,1-1.6,1.8-2.1c0.8-0.5,1.6-0.7,2.4-0.7
					c0.6,0,1.1,0.1,1.6,0.3c0.5,0.2,1,0.6,1.6,1l-0.1-2v-4.4h1.7v16.6h-1.4l-0.1-1.4h-0.1c-0.5,0.5-1,0.9-1.6,1.2s-1.2,0.5-1.9,0.5
					C103.9,48.1,102.8,47.6,102,46.6z M107.3,46.3c0.5-0.3,1-0.7,1.5-1.2V39c-0.5-0.4-1-0.7-1.4-0.9s-0.9-0.3-1.4-0.3
					c-0.6,0-1.2,0.2-1.7,0.6c-0.5,0.4-0.9,0.9-1.2,1.6c-0.3,0.7-0.5,1.4-0.5,2.3c0,1.4,0.3,2.5,0.8,3.3c0.6,0.8,1.4,1.2,2.4,1.2
					C106.3,46.7,106.8,46.5,107.3,46.3z"/>
				<path class="st1" d="M114.6,33.8c-0.2-0.2-0.3-0.5-0.3-0.9c0-0.3,0.1-0.6,0.3-0.8c0.2-0.2,0.5-0.3,0.8-0.3s0.6,0.1,0.8,0.3
					c0.2,0.2,0.3,0.5,0.3,0.8c0,0.4-0.1,0.6-0.3,0.9c-0.2,0.2-0.5,0.3-0.8,0.3S114.8,34,114.6,33.8z M114.6,36.6h1.7v11.3h-1.7V36.6
					z"/>
				<path class="st1" d="M120.7,52.3c-0.8-0.5-1.3-1.3-1.3-2.2c0-0.5,0.1-0.9,0.4-1.4c0.3-0.4,0.7-0.9,1.2-1.2v-0.1
					c-0.3-0.2-0.5-0.4-0.7-0.7c-0.2-0.3-0.3-0.7-0.3-1.1c0-0.4,0.1-0.8,0.4-1.2c0.2-0.4,0.5-0.7,0.9-0.9v-0.1
					c-0.4-0.3-0.7-0.8-1-1.3c-0.3-0.5-0.4-1.1-0.4-1.7c0-0.8,0.2-1.5,0.6-2.1s0.9-1.1,1.5-1.4c0.6-0.3,1.3-0.5,2.1-0.5
					c0.5,0,1,0.1,1.6,0.3h3.9v1.3h-2.4c0.3,0.3,0.5,0.6,0.7,1.1c0.2,0.4,0.3,0.9,0.3,1.4c0,0.8-0.2,1.5-0.5,2.1s-0.8,1.1-1.5,1.4
					c-0.6,0.3-1.3,0.5-2.1,0.5c-0.6,0-1.2-0.1-1.7-0.4c-0.2,0.2-0.4,0.4-0.6,0.6c-0.1,0.2-0.2,0.5-0.2,0.8c0,0.4,0.2,0.7,0.5,0.9
					c0.3,0.2,0.8,0.3,1.5,0.3h2.3c1.3,0,2.3,0.2,2.9,0.7s1,1.1,1,2c0,0.7-0.2,1.3-0.7,1.9c-0.5,0.6-1.1,1.1-2,1.4
					c-0.9,0.4-1.8,0.5-2.9,0.5C122.7,53.1,121.6,52.8,120.7,52.3z M126.3,51.5c0.6-0.2,1-0.5,1.3-0.9c0.3-0.4,0.5-0.8,0.5-1.2
					c0-0.5-0.2-0.9-0.6-1.1s-1-0.3-1.8-0.3h-2.1c-0.5,0-1-0.1-1.4-0.2c-0.8,0.6-1.2,1.2-1.2,2c0,0.6,0.3,1.1,0.9,1.5
					s1.4,0.6,2.5,0.6C125.1,51.9,125.7,51.8,126.3,51.5z M125.9,42.3c0.5-0.5,0.7-1.2,0.7-2c0-0.8-0.2-1.5-0.7-2
					c-0.5-0.5-1.1-0.8-1.8-0.8c-0.7,0-1.3,0.3-1.8,0.8c-0.5,0.5-0.7,1.2-0.7,2c0,0.8,0.2,1.5,0.7,2c0.5,0.5,1.1,0.8,1.8,0.8
					C124.8,43.1,125.4,42.8,125.9,42.3z"/>
				<path class="st1" d="M132.4,33.8c-0.2-0.2-0.3-0.5-0.3-0.9c0-0.3,0.1-0.6,0.3-0.8c0.2-0.2,0.5-0.3,0.8-0.3s0.6,0.1,0.8,0.3
					c0.2,0.2,0.3,0.5,0.3,0.8c0,0.4-0.1,0.6-0.3,0.9c-0.2,0.2-0.5,0.3-0.8,0.3S132.6,34,132.4,33.8z M132.4,36.6h1.7v11.3h-1.7V36.6
					z"/>
				<path class="st1" d="M139.3,47.2c-0.5-0.6-0.7-1.5-0.7-2.7V38h-1.7v-1.3l1.8-0.1l0.2-3.2h1.4v3.2h3.1V38h-3.1v6.5
					c0,0.7,0.1,1.3,0.4,1.7s0.7,0.6,1.4,0.6c0.3,0,0.8-0.1,1.3-0.3l0.3,1.3c-0.8,0.3-1.5,0.4-2,0.4
					C140.6,48.1,139.8,47.8,139.3,47.2z"/>
				<path class="st1" d="M146.8,47.3c-0.6-0.6-0.9-1.3-0.9-2.3c0-1.2,0.6-2.2,1.7-2.8c1.1-0.7,2.9-1.1,5.3-1.4
					c0-0.9-0.2-1.6-0.5-2.2c-0.4-0.6-1-0.8-1.9-0.8c-1.1,0-2.2,0.4-3.4,1.2l-0.7-1.2c1.5-1,2.9-1.5,4.4-1.5c1.3,0,2.3,0.4,2.9,1.2
					c0.6,0.8,0.9,1.9,0.9,3.4v7h-1.4l-0.1-1.4h-0.1c-1.3,1.1-2.6,1.7-3.8,1.7C148.2,48.1,147.4,47.8,146.8,47.3z M151.2,46.4
					c0.5-0.3,1.1-0.7,1.7-1.2v-3.3c-1.9,0.2-3.3,0.6-4.1,1.1c-0.8,0.5-1.2,1.1-1.2,1.9c0,0.6,0.2,1.1,0.6,1.4
					c0.4,0.3,0.9,0.5,1.5,0.5C150.1,46.7,150.7,46.6,151.2,46.4z"/>
				<path class="st1" d="M158.9,47.5c-0.3-0.4-0.4-1-0.4-1.8V31.2h1.7v14.7c0,0.3,0.1,0.5,0.2,0.6s0.2,0.2,0.4,0.2
					c0.1,0,0.3,0,0.4,0l0.2,1.3c-0.3,0.1-0.6,0.2-1,0.2C159.7,48.1,159.2,47.9,158.9,47.5z"/>
				<path class="st1" d="M170.5,52.3c-0.8-0.5-1.3-1.3-1.3-2.2c0-0.5,0.1-0.9,0.4-1.4c0.3-0.4,0.7-0.9,1.2-1.2v-0.1
					c-0.3-0.2-0.5-0.4-0.7-0.7c-0.2-0.3-0.3-0.7-0.3-1.1c0-0.4,0.1-0.8,0.4-1.2c0.2-0.4,0.5-0.7,0.9-0.9v-0.1
					c-0.4-0.3-0.7-0.8-1-1.3c-0.3-0.5-0.4-1.1-0.4-1.7c0-0.8,0.2-1.5,0.6-2.1s0.9-1.1,1.5-1.4c0.6-0.3,1.3-0.5,2.1-0.5
					c0.5,0,1,0.1,1.6,0.3h3.9v1.3h-2.4c0.3,0.3,0.5,0.6,0.7,1.1c0.2,0.4,0.3,0.9,0.3,1.4c0,0.8-0.2,1.5-0.5,2.1s-0.8,1.1-1.5,1.4
					c-0.6,0.3-1.3,0.5-2.1,0.5c-0.6,0-1.2-0.1-1.7-0.4c-0.2,0.2-0.4,0.4-0.6,0.6c-0.1,0.2-0.2,0.5-0.2,0.8c0,0.4,0.2,0.7,0.5,0.9
					c0.3,0.2,0.8,0.3,1.5,0.3h2.3c1.3,0,2.3,0.2,2.9,0.7s1,1.1,1,2c0,0.7-0.2,1.3-0.7,1.9c-0.5,0.6-1.1,1.1-2,1.4
					c-0.9,0.4-1.8,0.5-2.9,0.5C172.5,53.1,171.3,52.8,170.5,52.3z M176,51.5c0.6-0.2,1-0.5,1.3-0.9c0.3-0.4,0.5-0.8,0.5-1.2
					c0-0.5-0.2-0.9-0.6-1.1s-1-0.3-1.8-0.3h-2.1c-0.5,0-1-0.1-1.4-0.2c-0.8,0.6-1.2,1.2-1.2,2c0,0.6,0.3,1.1,0.9,1.5
					s1.4,0.6,2.5,0.6C174.8,51.9,175.5,51.8,176,51.5z M175.6,42.3c0.5-0.5,0.7-1.2,0.7-2c0-0.8-0.2-1.5-0.7-2
					c-0.5-0.5-1.1-0.8-1.8-0.8c-0.7,0-1.3,0.3-1.8,0.8c-0.5,0.5-0.7,1.2-0.7,2c0,0.8,0.2,1.5,0.7,2c0.5,0.5,1.1,0.8,1.8,0.8
					C174.5,43.1,175.1,42.8,175.6,42.3z"/>
				<path class="st1" d="M182.1,33.8c-0.2-0.2-0.3-0.5-0.3-0.9c0-0.3,0.1-0.6,0.3-0.8c0.2-0.2,0.5-0.3,0.8-0.3s0.6,0.1,0.8,0.3
					c0.2,0.2,0.3,0.5,0.3,0.8c0,0.4-0.1,0.6-0.3,0.9c-0.2,0.2-0.5,0.3-0.8,0.3S182.4,34,182.1,33.8z M182.1,36.6h1.7v11.3h-1.7V36.6
					z"/>
				<path class="st1" d="M189.9,34.6v1.9h2.4V38h-2.4v9.9h-1.7V38h-1.5v-1.3l1.5-0.1v-2c0-1.2,0.3-2.1,0.8-2.7c0.5-0.6,1.3-1,2.4-1
					c0.6,0,1.2,0.1,1.8,0.4l-0.4,1.3c-0.4-0.2-0.9-0.3-1.3-0.3C190.5,32.3,189.9,33.1,189.9,34.6z"/>
				<path class="st1" d="M196.8,47.2c-0.5-0.6-0.7-1.5-0.7-2.7V38h-1.7v-1.3l1.8-0.1l0.2-3.2h1.4v3.2h3.1V38h-3.1v6.5
					c0,0.7,0.1,1.3,0.4,1.7s0.7,0.6,1.4,0.6c0.3,0,0.8-0.1,1.3-0.3l0.3,1.3c-0.8,0.3-1.5,0.4-2,0.4
					C198.1,48.1,197.3,47.8,196.8,47.2z"/>
				<path class="st1" d="M211,47.4c-0.8-0.5-1.4-1.2-1.9-2c-0.5-0.9-0.7-1.9-0.7-3.2c0-1.2,0.2-2.3,0.7-3.2c0.5-0.9,1.1-1.6,2-2.1
					c0.8-0.5,1.7-0.7,2.7-0.7c1.2,0,2.3,0.4,3.3,1.3l-0.9,1.1c-0.4-0.3-0.7-0.6-1.1-0.8s-0.8-0.3-1.2-0.3c-0.7,0-1.3,0.2-1.9,0.6
					c-0.6,0.4-1,0.9-1.3,1.6c-0.3,0.7-0.5,1.5-0.5,2.3c0,1.3,0.3,2.4,1,3.3c0.7,0.8,1.5,1.2,2.6,1.2c1,0,1.9-0.4,2.7-1.2l0.7,1.1
					c-0.5,0.4-1.1,0.8-1.7,1.1c-0.6,0.3-1.3,0.4-1.9,0.4C212.7,48.1,211.8,47.9,211,47.4z"/>
				<path class="st1" d="M220.6,47.3c-0.6-0.6-0.9-1.3-0.9-2.3c0-1.2,0.6-2.2,1.7-2.8c1.1-0.7,2.9-1.1,5.3-1.4
					c0-0.9-0.2-1.6-0.5-2.2c-0.4-0.6-1-0.8-1.9-0.8c-1.1,0-2.2,0.4-3.4,1.2l-0.7-1.2c1.5-1,2.9-1.5,4.4-1.5c1.3,0,2.3,0.4,2.9,1.2
					c0.6,0.8,0.9,1.9,0.9,3.4v7H227l-0.1-1.4h-0.1c-1.3,1.1-2.6,1.7-3.8,1.7C222,48.1,221.2,47.8,220.6,47.3z M225,46.4
					c0.5-0.3,1.1-0.7,1.7-1.2v-3.3c-1.9,0.2-3.3,0.6-4.1,1.1c-0.8,0.5-1.2,1.1-1.2,1.9c0,0.6,0.2,1.1,0.6,1.4
					c0.4,0.3,0.9,0.5,1.5,0.5C224,46.7,224.5,46.6,225,46.4z"/>
				<path class="st1" d="M232.3,36.6h1.4l0.1,2.1h0.1c0.4-0.7,0.9-1.3,1.4-1.7c0.6-0.4,1.2-0.6,1.8-0.6c0.4,0,0.8,0.1,1.2,0.2
					L238,38c-0.4-0.1-0.8-0.2-1.1-0.2c-0.5,0-1.1,0.2-1.6,0.7s-1,1.1-1.3,2v7.3h-1.7V36.6z"/>
				<path class="st1" d="M241,46.6c-0.8-1-1.2-2.5-1.2-4.3c0-1.2,0.2-2.2,0.7-3.1c0.4-0.9,1-1.6,1.8-2.1c0.8-0.5,1.6-0.7,2.4-0.7
					c0.6,0,1.1,0.1,1.6,0.3c0.5,0.2,1,0.6,1.6,1l-0.1-2v-4.4h1.7v16.6H248l-0.1-1.4h-0.1c-0.5,0.5-1,0.9-1.6,1.2s-1.2,0.5-1.9,0.5
					C242.9,48.1,241.8,47.6,241,46.6z M246.3,46.3c0.5-0.3,1-0.7,1.5-1.2V39c-0.5-0.4-1-0.7-1.4-0.9s-0.9-0.3-1.4-0.3
					c-0.6,0-1.2,0.2-1.7,0.6c-0.5,0.4-0.9,0.9-1.2,1.6c-0.3,0.7-0.5,1.4-0.5,2.3c0,1.4,0.3,2.5,0.8,3.3c0.6,0.8,1.4,1.2,2.4,1.2
					C245.3,46.7,245.8,46.5,246.3,46.3z"/>
			</g>
		</g>
		<g>
			<path class="st1" d="M392.2,0v38c0,10,8.1,18,18,18c10,0,18-8.1,18-18V0H392.2z"/>
			<g>
				<path class="st0" d="M405.8,41.4c-1.1-1.1-1.9-2.7-1.9-4.5c0-3.5,2.8-6.3,6.3-6.3c1.7,0,3.3,0.7,4.5,1.9l3.3-3.3
					c-2-2-4.7-3.2-7.7-3.2c-6,0-10.9,4.9-10.9,10.9c0,3,1.2,5.7,3.2,7.7L405.8,41.4z"/>
				<path class="st0" d="M415.5,40.5c-1.1,1.6-3,2.7-5.2,2.7c-0.4,0-0.8,0-1.2-0.1l-3.6,3.6c1.4,0.7,3.1,1.1,4.8,1.1
					c3.7,0,7-1.8,9-4.7L415.5,40.5z"/>
			</g>
		</g>
		<g>
			<g>
				<g>
					<path class="st1" d="M63.3,218.6c9.3,7.7,20,12.3,20,12.3s33.3-14.2,33.3-34.9c0-13-0.6-36.5,0-37.4
						C74.9,187,63.3,218.6,63.3,218.6z"/>
				</g>
			</g>
			<path class="st1" d="M116.1,155.2c-2.6-1-14.2-4.9-32.7-4.9c-21.2,0-33.3,5.1-33.3,5.1s0,23.9,0,40.6c0,3.7,1.1,7.2,2.8,10.5
				c0,0,11.9-16.7,31.8-32.5S116.1,155.2,116.1,155.2z"/>
			<polygon class="st0" points="68,159.3 69.6,165.5 75.8,167 69.6,168.6 68,174.8 66.4,168.6 60.3,167 66.4,165.5 			"/>
			<path class="st2" d="M63.3,218.6c2.8,2.3,5.7,4.4,8.4,6.1c12.4-36.2,44.9-66.1,44.9-66.1C74.9,187,63.3,218.6,63.3,218.6z"/>
		</g>
	</g>
</g>
</svg>
