<?xml version="1.0" encoding="utf-8"?>
<!-- Generator: Adobe Illustrator 23.0.3, SVG Export Plug-In . SVG Version: 6.00 Build 0)  -->
<svg version="1.1" xmlns="http://www.w3.org/2000/svg" xmlns:xlink="http://www.w3.org/1999/xlink" x="0px" y="0px"
	 viewBox="0 0 604 412" style="enable-background:new 0 0 604 412;" xml:space="preserve">
<style type="text/css">
	.st0{opacity:0.6;fill:#1F2223;}
	.st1{fill:#FAD151;}
	.st2{opacity:0.5;}
	.st3{fill:#F5A543;}
	.st4{fill:#FBDB76;}
	.st5{fill:#7D8489;}
	.st6{fill:#979DA1;}
	.st7{opacity:0.25;fill:#1F2223;}
	.st8{fill:#626465;}
	.st9{fill:#B0B4B7;}
	.st10{fill:#4C4E4F;}
	.st11{fill:#A4ABAF;}
	.st12{fill:#B4BABD;}
	.st13{fill:#1F2223;}
	.st14{opacity:0.15;}
	.st15{fill:url(#SVGID_1_);}
	.st16{fill:#FFFFFF;}
	.st17{fill:#AFB5C2;}
	.st18{fill:#9CA2AD;}
	.st19{opacity:0.7;}
	.st20{fill:#C7CED3;}
	.st21{opacity:0.35;fill:#C7CED3;}
	.st22{fill:#676F75;}
	.st23{fill:#8E9498;}
	.st24{fill:#FCE7A4;}
	.st25{fill:#FEF7E0;}
</style>
<g id="Deckel">
	<g id="Schatten">
		<polygon class="st0" points="304.7,146.5 170.1,68.4 132.1,72.9 0,149.1 134.6,227.3 172.6,222.8 		"/>
	</g>
	<polygon class="st1" points="304.8,112.7 304.7,112.8 170.2,34.6 38.2,110.8 38.1,110.8 38.1,110.8 38.1,110.8 38.1,110.8 
		38.1,144.5 172.6,222.8 233.1,187.8 244.8,177.5 256.7,174.2 304.7,146.5 	"/>
	<g>
		<polygon class="st1" points="172.7,189 38.1,110.8 38.1,144.5 85.1,171.9 96.4,173.5 108.3,185.4 172.6,222.8 		"/>
	</g>
	<g class="st2">
		<polygon class="st3" points="172.7,189 38.1,110.8 38.1,144.5 85.1,171.9 96.8,172.6 108.3,185.4 172.6,222.8 		"/>
	</g>
	<g>
		<polygon class="st4" points="304.8,112.8 170.2,34.6 38.1,110.8 172.7,189.1 		"/>
	</g>
	<polygon class="st5" points="256.7,140.5 256.7,174.2 233.1,187.8 233.6,153.8 	"/>
	<polyline class="st6" points="233.6,153.8 99,75.6 122.1,62.3 256.7,140.5 256.6,140.5 256.7,140.5 	"/>
	<polygon class="st6" points="217.9,62.3 240.9,75.7 109.2,152.2 86.2,138.9 86.1,138.9 	"/>
	<polyline class="st5" points="109.2,152.2 108.3,185.4 85.1,171.9 86.1,138.9 86.2,138.9 	"/>
	<path class="st7" d="M226.2,117.3c0.8,4.8,0.8,10.4,0.8,10.4s-36.5,6.8-55-8.4l-2.3-1.9c0,0-22.6,20.4-49.9,15.2l-4.4-14.9
		c0,0,4-3.6,11.2-5.2c0,0-8-4-11.6-12l22.6-14.4c0,0,17.5,12.3,18.3,13.2c0.8,0.8,8.4,3.2,8.4,3.2s-2.8-0.8,4.4-10.4
		c7.2-9.6,24.1-3.6,14.9,11.6c-9.2,15.3,13.7,12.5,21.3,12.9C212.6,116.9,226.2,117.3,226.2,117.3z"/>
	<g>
		<path class="st8" d="M204.7,62.2c6.4,2.4-2.3,31.1-34.7,54.7c0,0,36.5-47.3,11.9-62.4c0,0,5.6,4.3,12.4,6.6
			C197.6,62.2,202.6,61.4,204.7,62.2z"/>
		<path class="st6" d="M204.7,62.2c-17.4,7.9-26.1,19.7-30.5,30.3c-5.4,13.2-4,24.6-4,24.6c-6.7-15.5-7-27.9-4.7-37.6
			c4.3-17.4,17.2-25.6,17.2-25.6s5.5,3.1,9.5,4.4C196.3,59.7,204.7,62.2,204.7,62.2z"/>
		<path class="st8" d="M170.2,117.1c-6.7-15.5-7-27.9-4.7-37.6c-1,5.3,7.1,12.8,8.7,13C168.8,105.7,170.2,117.1,170.2,117.1z"/>
		<path class="st8" d="M113.4,85.2c-3.5,1.2,14.6,31.3,57,31.7c0,0-52.9-30.1-38.5-50.3C131.9,66.6,126.1,80.8,113.4,85.2z"/>
		<path class="st9" d="M113.5,85.2c3.7-0.1,7.3,0.2,11,0.8c1.1,0.2,2.3,0.4,3.4,0.7c0.9,0.2,1.8,0.4,2.7,0.7c0.1,0,0.3,0.1,0.4,0.1
			c0.1,0,0.3,0.1,0.4,0.1c7.3,2.1,14.1,5.3,19.9,8.9c3.7,2.3,6.9,4.7,9.6,7.1c7.6,6.7,9.2,13.3,9.2,13.3c-0.1-5.3-0.1-7.7-0.5-11.1
			c-1.1-9.3-5.8-16.8-11.5-22.7c-3.2-3.3-6.7-6-10.1-8.3c-0.6-0.4-1.3-0.8-1.9-1.2c-0.4-0.2-0.8-0.5-1.2-0.7
			c-0.2-0.1-0.4-0.3-0.6-0.4c-0.6-0.4-1.2-0.7-1.8-1c-5.9-3.3-10.4-4.8-10.4-4.8s-3.7,4.7-9,10.5C117.9,82.8,113.5,85.2,113.5,85.2z
			"/>
	</g>
	<path class="st8" d="M207.3,126c-10.9,0.5-24.1-1.6-37.3-9.1c0,0,26.5-0.7,44.8-9.6c6.9-3.4,12.7-8,15.3-14.2c0,0,0,19.5,2.8,23.5
		C234.5,119,223.4,125.3,207.3,126z"/>
	<path class="st10" d="M207.3,126c2.7-5.9,5.4-12.4,7.5-18.7c6.9-3.4,11.7-7,14.3-13.2c0,0,1,18.5,3.8,22.5
		C234.5,119,223.4,125.3,207.3,126z"/>
	<path class="st9" d="M232.9,116.6c-3-2-6.2-3.6-9.4-4.8c-14.1-5.2-29.3-3-39.9,0c-6.8,1.9-11.5,4.4-12.9,5.1
		c-0.3,0.1-0.4,0.2-0.4,0.2c0.2-0.3,0.3-0.7,0.5-1c5.5-8.4,11.8-14.1,18.5-17.8c10.3-5.7,20.9-6.9,28.7-6.7
		c7.2,0.2,12.1,1.5,12.1,1.5L232.9,116.6z"/>
	<path class="st8" d="M124.6,127.3c0.1,5.5,24.2,5.4,45.7-10.7c0,0-40.1,13.8-45.4-8.7C124.9,107.9,124.5,121.8,124.6,127.3z"/>
	<path class="st6" d="M170.1,116.8c0,0-7.3-4.5-18.2-3.4c-4.5,0.4-9.6,1.8-15.1,4.7c-3.9,2.1-8.1,5.1-12.2,9.2l-0.5-18.9
		c0,0,2.2-1.5,6-2.8c5.2-1.9,13.3-3.5,22.4-0.6C158.2,106.8,164.1,110.6,170.1,116.8z"/>
</g>
<g id="Smartphone">
	<g>
		<path class="st0" d="M362.5,247.9l-90.7-52.7c-5.2-3-14.3-2.6-20.3,0.8L71.3,300c-6,3.5-6.6,8.7-1.5,11.7l90.7,52.7
			c5.2,3,14.3,2.6,20.3-0.8l180.2-104C367,256.1,367.6,250.8,362.5,247.9z"/>
		<path class="st11" d="M174.2,360.3l-89.1-51.4c-5.6-3.2-8.7-16.8,1.6-22.7l193.9-101.9c6.4-3.7,16.3-4.1,21.9-0.9l89.1,41.3
			c7.9,4.1,4.9,19-1.6,22.7L196,359.4C189.6,363.1,179.8,363.5,174.2,360.3z"/>
		<path class="st12" d="M174.2,355.2l-89.1-51.4c-5.6-3.2-6.6-13.5,1.6-17.7l193.9-106.9c6.4-3.7,16.3-4.1,21.9-0.9l89.1,46.4
			c6.8,3.7,4.9,14-1.6,17.7L196,354.3C189.6,358,179.8,358.4,174.2,355.2z"/>
		<g>
			<path class="st13" d="M273.9,184.3l-169.5,97.9l98.4,56.8l169.5-97.9L273.9,184.3z"/>
		</g>
		<g class="st14">
			<linearGradient id="SVGID_1_" gradientUnits="userSpaceOnUse" x1="364.7647" y1="283.9903" x2="111.8933" y2="239.4023">
				<stop  offset="0" style="stop-color:#7D8489"/>
				<stop  offset="0.3772" style="stop-color:#1F2223"/>
			</linearGradient>
			<path class="st15" d="M273.9,184.3l-169.5,97.9l98.4,56.8l169.5-97.9L273.9,184.3z"/>
		</g>
		<polygon class="st1" points="125.6,266.8 100.5,283 201.5,341.3 251.9,314.7 		"/>
		<g>
			<path class="st1" d="M283,189.5l-15.6,9c-4.1,2.4-4.5,6-1,8c3.6,2.1,9.8,1.8,13.9-0.6l15.6-9L283,189.5z"/>
			<g>
				<path class="st13" d="M270.8,202.1c0.1-0.5,0.5-1,1.2-1.4c1.4-0.8,3.6-0.9,4.9-0.2c0.6,0.4,0.9,0.9,0.8,1.4l2.5-0.1
					c0.1-0.9-0.4-1.7-1.4-2.3c-2.1-1.2-5.9-1.1-8.4,0.3c-1.2,0.7-1.9,1.6-2,2.5L270.8,202.1z"/>
				<path class="st13" d="M274.6,203.9c-1.1,0.2-2.2,0-3-0.4c-0.1-0.1-0.3-0.2-0.4-0.3l-2.8,0.1c0.2,0.5,0.6,0.9,1.3,1.2
					c1.3,0.8,3.2,1,5.1,0.7L274.6,203.9z"/>
			</g>
		</g>
		<g>
			<path class="st16" d="M284.5,213.8c-0.1-0.4-0.1-0.8,0.2-1.2c0.3-0.4,0.8-0.9,1.5-1.3c0.7-0.4,1.5-0.7,2.2-0.9
				c0.8-0.2,1.5-0.2,2.2-0.1c0.7,0.1,1.3,0.3,1.8,0.5c0.4,0.2,0.6,0.4,0.7,0.7c0.1,0.3,0.2,0.5,0.1,0.8l-1.6,0.1
				c0-0.2,0-0.4-0.1-0.5c-0.1-0.2-0.2-0.3-0.4-0.4c-0.3-0.2-0.6-0.3-1-0.3c-0.4,0-0.8,0-1.3,0.1c-0.5,0.1-0.9,0.3-1.4,0.6
				c-0.7,0.4-1.1,0.8-1.3,1.2c-0.1,0.4,0,0.7,0.5,1c0.4,0.3,1,0.4,1.8,0.3l-0.2,0.9c-1.1,0.1-2.1-0.1-2.8-0.5
				C285,214.5,284.6,214.2,284.5,213.8z"/>
			<path class="st16" d="M289.7,216.8c-0.2-0.4-0.1-0.8,0.2-1.3c0.3-0.4,0.8-0.9,1.5-1.3c0.7-0.4,1.5-0.7,2.2-0.9
				c0.8-0.2,1.5-0.2,2.2-0.1c0.7,0.1,1.3,0.3,1.8,0.6c0.7,0.4,1,0.9,0.9,1.5l-1.5,0.2c0-0.2,0-0.4-0.1-0.5c-0.1-0.2-0.2-0.3-0.5-0.4
				c-0.5-0.3-1.1-0.4-1.8-0.3s-1.4,0.3-2.1,0.7c-0.7,0.4-1.1,0.8-1.3,1.2c-0.1,0.4,0.1,0.7,0.7,1.1c0.1,0.1,0.3,0.1,0.4,0.2
				c0.2,0,0.3,0.1,0.5,0.1l1.3-0.7l-1-0.6l1.2-0.7l2.1,1.2l-3,1.8c-0.5,0-0.9,0-1.4-0.1c-0.5-0.1-0.9-0.3-1.3-0.5
				C290.2,217.5,289.8,217.2,289.7,216.8z"/>
			<path class="st16" d="M299.1,216.7l1.2,0.7l-5.1,2.9l-1.2-0.7L299.1,216.7z M300.2,216.2c0-0.2,0.1-0.3,0.3-0.4
				c0.2-0.1,0.5-0.2,0.7-0.2c0.3,0,0.5,0,0.7,0.2c0.2,0.1,0.3,0.3,0.3,0.4c0,0.2-0.1,0.3-0.3,0.4c-0.2,0.1-0.5,0.2-0.7,0.2
				c-0.3,0-0.5,0-0.7-0.2C300.3,216.5,300.2,216.3,300.2,216.2z"/>
			<path class="st16" d="M303.5,218.7l-0.4,0.2l0.8,0.5l-1.1,0.6l-0.8-0.5l-4,2.3l-1.2-0.7l4-2.3l-0.6-0.3l1-0.6l0.6,0.3l0.4-0.2
				c0.6-0.3,1.2-0.5,1.8-0.6c0.6-0.1,1.2,0.1,1.7,0.4c0.3,0.2,0.5,0.4,0.7,0.6l-1.3,0.5c-0.1-0.1-0.2-0.2-0.3-0.3
				C304.4,218.4,304,218.5,303.5,218.7z"/>
			<path class="st16" d="M300.8,223.1c0.1-0.3,0.5-0.7,1.1-1l2.2-1.3l-0.6-0.4l1-0.6l0.7,0.4l1.5-0.7l1,0.6l-1.4,0.8l1.1,0.6
				l-1.1,0.6l-1.1-0.6l-2.2,1.2c-0.6,0.3-0.6,0.6-0.2,0.8c0.1,0.1,0.3,0.1,0.5,0.2l-0.8,0.7c-0.4-0.1-0.8-0.3-1.1-0.4
				C300.9,223.7,300.7,223.4,300.8,223.1z"/>
			<path class="st16" d="M303.8,225.1c0-0.2,0.2-0.3,0.4-0.5c0.3-0.2,0.5-0.2,0.9-0.2s0.6,0,0.8,0.2c0.2,0.1,0.3,0.3,0.3,0.5
				c0,0.2-0.2,0.3-0.4,0.5c-0.3,0.2-0.5,0.2-0.9,0.3s-0.6,0-0.8-0.2C303.9,225.4,303.8,225.3,303.8,225.1z"/>
			<path class="st16" d="M311.3,223.7l1.2,0.7l-5.1,2.9l-1.2-0.7L311.3,223.7z M312.4,223.2c0-0.2,0.1-0.3,0.3-0.4
				c0.2-0.1,0.5-0.2,0.7-0.2c0.3,0,0.5,0,0.7,0.2s0.3,0.3,0.3,0.4c0,0.2-0.1,0.3-0.3,0.4c-0.2,0.1-0.5,0.2-0.7,0.2
				c-0.3,0-0.5,0-0.7-0.2C312.5,223.5,312.4,223.4,312.4,223.2z"/>
			<path class="st16" d="M309.8,228.5c-0.1-0.3-0.1-0.6,0.1-1c0.2-0.3,0.6-0.7,1.1-1c0.5-0.3,1.1-0.5,1.7-0.7
				c0.6-0.1,1.2-0.1,1.7-0.1c0.5,0.1,1,0.2,1.4,0.4c0.4,0.2,0.6,0.5,0.7,0.8c0.1,0.3,0.1,0.6-0.1,1c-0.2,0.3-0.6,0.7-1.1,1
				s-1.1,0.5-1.7,0.6c-0.6,0.1-1.2,0.1-1.7,0.1c-0.5-0.1-1-0.2-1.4-0.4C310.1,229.1,309.9,228.8,309.8,228.5z M312.7,228.8
				c0.4-0.1,0.9-0.2,1.3-0.5c0.5-0.3,0.8-0.5,0.9-0.8s0-0.5-0.2-0.6c-0.3-0.2-0.6-0.2-1.1-0.1c-0.4,0.1-0.9,0.2-1.3,0.5
				c-0.5,0.3-0.8,0.5-0.9,0.8c-0.1,0.2,0,0.4,0.2,0.6C311.9,228.8,312.3,228.8,312.7,228.8z"/>
		</g>
		<g>
			<path class="st1" d="M245,213.9l-1.8-1l0.6-0.3l4.2,2.4l-0.6,0.3l-1.8-1l-5.3,3l-0.7-0.4L245,213.9z"/>
			<path class="st1" d="M249.6,215.3l0.6,0.4l-1.8,1l-0.9,0.5c0.5,0,0.9,0,1.2,0.1c0.4,0.1,0.7,0.2,0.9,0.3c0.4,0.3,0.6,0.5,0.6,0.8
				c-0.1,0.3-0.4,0.6-0.9,0.9l-2.7,1.6l-0.6-0.4l2.6-1.5c0.4-0.2,0.6-0.5,0.7-0.6c0.1-0.2-0.1-0.4-0.4-0.5c-0.2-0.1-0.5-0.2-0.8-0.2
				c-0.3,0-0.7-0.1-1.2-0.1l-3.1,1.8l-0.6-0.4L249.6,215.3z"/>
			<path class="st1" d="M253.6,222.6l-3-1.7c-0.5,0.3-0.7,0.6-0.7,0.9c0,0.3,0.2,0.6,0.6,0.8c0.4,0.2,0.9,0.4,1.4,0.4l-0.2,0.4
				c-0.3,0-0.7-0.1-1-0.2c-0.3-0.1-0.6-0.2-0.9-0.4c-0.4-0.2-0.6-0.5-0.8-0.8c-0.1-0.3-0.1-0.6,0-0.9c0.2-0.3,0.5-0.6,0.9-0.8
				c0.4-0.3,0.9-0.4,1.5-0.5c0.5-0.1,1-0.1,1.5,0c0.5,0.1,0.9,0.2,1.2,0.4c0.5,0.3,0.8,0.7,0.7,1c-0.1,0.4-0.4,0.7-1,1.1
				C253.8,222.5,253.7,222.5,253.6,222.6z M253.5,222c0.5-0.3,0.7-0.5,0.8-0.8c0-0.3-0.1-0.5-0.5-0.7c-0.3-0.2-0.7-0.3-1.2-0.3
				c-0.5,0-1,0.1-1.5,0.3L253.5,222z"/>
			<path class="st1" d="M255.4,225.4c0.1-0.4,0.5-0.8,1.2-1.2c0.4-0.3,0.9-0.4,1.4-0.5c0.5-0.1,1-0.1,1.5-0.1
				c0.5,0.1,0.9,0.2,1.2,0.4c0.2,0.1,0.4,0.3,0.5,0.4s0.2,0.3,0.2,0.6l0.7-0.4l1.7-1l0.6,0.4l-6.3,3.7l-0.5-0.3l0.5-0.3l0,0
				c-0.4,0-0.7,0-1.1-0.1c-0.3-0.1-0.6-0.2-0.9-0.3C255.6,226.2,255.4,225.8,255.4,225.4z M257.6,226.5c0.3,0,0.6,0.1,1,0.1l2.3-1.3
				c0-0.2-0.1-0.4-0.2-0.5c-0.1-0.1-0.2-0.3-0.4-0.4c-0.2-0.1-0.5-0.2-0.9-0.3c-0.3,0-0.7,0-1.1,0.1c-0.4,0.1-0.7,0.2-1,0.4
				c-0.5,0.3-0.8,0.6-0.9,0.9c-0.1,0.3,0.1,0.6,0.5,0.8C257,226.4,257.3,226.5,257.6,226.5z"/>
			<path class="st1" d="M264.1,226l0.6,0.4l-4.3,2.5l-0.6-0.4L264.1,226z M265.2,225.4c0-0.1,0.1-0.2,0.2-0.3
				c0.1-0.1,0.3-0.1,0.4-0.1c0.2,0,0.3,0,0.4,0.1c0.1,0.1,0.2,0.2,0.2,0.3c0,0.1-0.1,0.2-0.2,0.3c-0.1,0.1-0.3,0.1-0.5,0.1
				s-0.3,0-0.4-0.1C265.2,225.6,265.2,225.5,265.2,225.4z"/>
			<path class="st1" d="M260.5,230.9c-0.1-0.3,0-0.6,0.4-0.8c0.2-0.1,0.4-0.2,0.7-0.2c0.3,0,0.6,0,0.9,0l0,0c0-0.1,0-0.2,0-0.3
				s0.2-0.2,0.3-0.3c0.2-0.1,0.4-0.2,0.6-0.2c0.2,0,0.5,0,0.7,0l0,0c0-0.2,0-0.3,0.1-0.5c0.1-0.2,0.3-0.3,0.5-0.5
				c0.3-0.2,0.6-0.3,1-0.3c0.4-0.1,0.7,0,1.1,0c0.4,0.1,0.7,0.2,1,0.4c0.2,0.1,0.4,0.2,0.5,0.4l1.5,0.9l-0.5,0.3l-0.9-0.5
				c0,0.1,0,0.3-0.1,0.4c-0.1,0.1-0.2,0.3-0.4,0.4c-0.3,0.2-0.6,0.3-1,0.3s-0.7,0-1.1,0s-0.7-0.2-1-0.3c-0.2-0.1-0.4-0.3-0.5-0.5
				c-0.2,0-0.3,0-0.5,0c-0.1,0-0.3,0.1-0.4,0.1c-0.2,0.1-0.2,0.2-0.2,0.3c0,0.1,0.2,0.3,0.5,0.4l0.9,0.5c0.5,0.3,0.8,0.6,0.9,0.8
				c0.1,0.2-0.1,0.5-0.4,0.7c-0.3,0.1-0.6,0.2-1,0.3c-0.4,0-0.8,0-1.3-0.1c-0.5-0.1-0.9-0.3-1.3-0.5
				C261,231.5,260.7,231.2,260.5,230.9z M262.9,231.9c0.3,0.1,0.6,0.1,0.8,0.1c0.3,0,0.5-0.1,0.6-0.2c0.2-0.1,0.3-0.2,0.2-0.4
				c-0.1-0.1-0.2-0.3-0.5-0.5l-0.8-0.5c-0.2-0.1-0.3-0.2-0.5-0.4c-0.5-0.1-0.9,0-1.2,0.2c-0.2,0.1-0.3,0.3-0.2,0.5
				c0.1,0.2,0.3,0.4,0.7,0.7C262.3,231.8,262.6,231.9,262.9,231.9z M266.3,229.8c0.4,0,0.7-0.1,1-0.3c0.3-0.2,0.5-0.4,0.5-0.6
				c0-0.2-0.1-0.4-0.4-0.6c-0.3-0.2-0.6-0.2-1-0.2c-0.4,0-0.7,0.1-1,0.3c-0.3,0.2-0.5,0.4-0.5,0.6c0,0.2,0.1,0.4,0.4,0.6
				C265.6,229.8,265.9,229.8,266.3,229.8z"/>
			<path class="st1" d="M271,230l0.6,0.4l-4.3,2.5l-0.6-0.4L271,230z M272.1,229.4c0-0.1,0.1-0.2,0.2-0.3c0.1-0.1,0.3-0.1,0.4-0.1
				c0.2,0,0.3,0,0.4,0.1c0.1,0.1,0.2,0.2,0.2,0.3c0,0.1-0.1,0.2-0.2,0.3c-0.1,0.1-0.3,0.1-0.5,0.1s-0.3,0-0.4-0.1
				C272.1,229.6,272.1,229.5,272.1,229.4z"/>
			<path class="st1" d="M269.7,233.9c0.1-0.2,0.3-0.5,0.8-0.8l2.5-1.4l-0.6-0.4l0.5-0.3l0.7,0.4l1.3-0.7l0.5,0.3l-1.2,0.7l1.2,0.7
				l-0.5,0.3l-1.2-0.7l-2.5,1.4c-0.3,0.2-0.4,0.3-0.5,0.5c0,0.1,0.1,0.3,0.3,0.4c0.1,0.1,0.3,0.1,0.6,0.2l-0.4,0.4
				c-0.4-0.1-0.7-0.2-0.9-0.4C269.8,234.4,269.6,234.2,269.7,233.9z"/>
			<path class="st1" d="M272.5,235.6c0-0.3,0.2-0.5,0.5-0.7c0.5-0.3,1-0.4,1.7-0.3c0.7,0.1,1.5,0.4,2.6,0.9c0.3-0.2,0.5-0.4,0.6-0.6
				c0.1-0.2-0.1-0.4-0.4-0.6c-0.4-0.2-1-0.4-1.8-0.5l0.2-0.4c0.9,0.1,1.7,0.3,2.2,0.6c0.5,0.3,0.7,0.6,0.6,0.9
				c-0.1,0.3-0.4,0.6-0.9,0.9l-2.7,1.5l-0.5-0.3l0.5-0.3l0,0c-0.9-0.1-1.6-0.2-2.1-0.5C272.7,236.1,272.6,235.9,272.5,235.6z
				 M274.6,236.4c0.3,0.1,0.7,0.1,1.1,0.1l1.3-0.7c-0.8-0.4-1.5-0.6-2-0.7c-0.5-0.1-0.9,0-1.2,0.2c-0.2,0.1-0.4,0.3-0.3,0.4
				c0,0.2,0.2,0.3,0.4,0.4C274,236.2,274.3,236.3,274.6,236.4z"/>
			<path class="st1" d="M277.1,238.4c0-0.2,0.2-0.3,0.5-0.5l5.5-3.2l0.6,0.4l-5.6,3.2c-0.1,0.1-0.2,0.1-0.2,0.2c0,0.1,0,0.1,0.1,0.1
				c0,0,0.1,0.1,0.2,0.1l-0.4,0.3c-0.2,0-0.3-0.1-0.5-0.2C277.2,238.7,277.1,238.5,277.1,238.4z"/>
			<path class="st1" d="M227.6,222.6c-0.1-0.3,0-0.6,0.4-0.8c0.2-0.1,0.4-0.2,0.7-0.2c0.3,0,0.6,0,0.9,0l0,0c0-0.1,0-0.2,0-0.3
				c0-0.1,0.2-0.2,0.3-0.3c0.2-0.1,0.4-0.2,0.6-0.2c0.2,0,0.5,0,0.7,0l0,0c0-0.2,0-0.3,0.1-0.5c0.1-0.2,0.3-0.3,0.5-0.5
				c0.3-0.2,0.6-0.3,1-0.3c0.4-0.1,0.7,0,1.1,0c0.4,0.1,0.7,0.2,1,0.4c0.2,0.1,0.4,0.2,0.5,0.4l1.5,0.9l-0.5,0.3l-0.9-0.5
				c0,0.1,0,0.3-0.1,0.4c-0.1,0.1-0.2,0.3-0.4,0.4c-0.3,0.2-0.6,0.3-1,0.3c-0.4,0.1-0.7,0-1.1,0c-0.4-0.1-0.7-0.2-1-0.3
				c-0.2-0.1-0.4-0.3-0.5-0.5c-0.2,0-0.3,0-0.5,0c-0.1,0-0.3,0.1-0.4,0.1c-0.2,0.1-0.2,0.2-0.2,0.3c0,0.1,0.2,0.3,0.5,0.4l0.9,0.5
				c0.5,0.3,0.8,0.6,0.9,0.8c0.1,0.2-0.1,0.5-0.4,0.7c-0.3,0.2-0.6,0.2-1,0.3c-0.4,0-0.8,0-1.3-0.1c-0.5-0.1-0.9-0.3-1.3-0.5
				C228,223.2,227.7,222.9,227.6,222.6z M230,223.6c0.3,0.1,0.6,0.1,0.8,0.1c0.3,0,0.5-0.1,0.6-0.2c0.2-0.1,0.3-0.2,0.2-0.4
				c-0.1-0.1-0.2-0.3-0.5-0.5l-0.8-0.5c-0.2-0.1-0.3-0.2-0.5-0.4c-0.5-0.1-0.9,0-1.2,0.2c-0.2,0.1-0.3,0.3-0.2,0.5
				c0.1,0.2,0.3,0.4,0.7,0.7C229.4,223.4,229.7,223.6,230,223.6z M233.3,221.5c0.4,0,0.7-0.1,1-0.3c0.3-0.2,0.5-0.4,0.5-0.6
				c0-0.2-0.1-0.4-0.4-0.6c-0.3-0.2-0.6-0.2-1-0.2c-0.4,0-0.7,0.1-1,0.3c-0.3,0.2-0.5,0.4-0.5,0.6c0,0.2,0.1,0.4,0.4,0.6
				C232.6,221.4,233,221.5,233.3,221.5z"/>
			<path class="st1" d="M238.1,221.7l0.6,0.4l-4.3,2.5l-0.6-0.4L238.1,221.7z M239.1,221.1c0-0.1,0.1-0.2,0.2-0.3
				c0.1-0.1,0.3-0.1,0.4-0.1c0.2,0,0.3,0,0.4,0.1s0.2,0.2,0.2,0.3s-0.1,0.2-0.2,0.3c-0.1,0.1-0.3,0.1-0.5,0.1c-0.2,0-0.3,0-0.4-0.1
				S239.1,221.2,239.1,221.1z"/>
			<path class="st1" d="M241.8,223l-0.7,0.4l0.9,0.5l-0.5,0.3l-0.9-0.5l-3.8,2.2l-0.6-0.4l3.8-2.2l-0.6-0.3l0.5-0.3l0.6,0.3l0.7-0.4
				c0.4-0.3,0.9-0.4,1.3-0.4c0.4,0,0.9,0.1,1.3,0.3c0.2,0.1,0.4,0.3,0.5,0.5l-0.6,0.2c-0.1-0.1-0.2-0.3-0.4-0.3
				C242.9,222.6,242.4,222.7,241.8,223z"/>
			<path class="st1" d="M239.7,227.3c0.1-0.2,0.3-0.5,0.8-0.8l2.5-1.4l-0.6-0.4l0.5-0.3l0.7,0.4l1.3-0.7l0.5,0.3l-1.2,0.7l1.2,0.7
				l-0.5,0.3l-1.2-0.7l-2.5,1.4c-0.3,0.2-0.4,0.3-0.5,0.5c0,0.1,0.1,0.3,0.3,0.4c0.1,0.1,0.3,0.1,0.6,0.2l-0.4,0.4
				c-0.4-0.1-0.7-0.2-0.9-0.4C239.8,227.8,239.7,227.6,239.7,227.3z"/>
			<path class="st1" d="M244.9,230.4c-0.1-0.3-0.1-0.6,0.1-0.9c0.2-0.3,0.5-0.6,0.9-0.8c0.5-0.3,1-0.4,1.5-0.5c0.5-0.1,1-0.1,1.5,0
				c0.5,0.1,0.9,0.2,1.3,0.4c0.5,0.3,0.7,0.6,0.7,1l-0.8,0.1c0-0.2-0.1-0.3-0.1-0.4c-0.1-0.1-0.2-0.2-0.4-0.3
				c-0.3-0.2-0.6-0.2-0.9-0.3c-0.4,0-0.7,0-1.1,0.1c-0.4,0.1-0.7,0.2-1.1,0.4c-0.5,0.3-0.8,0.6-0.9,0.9c-0.1,0.3,0.1,0.6,0.5,0.8
				c0.4,0.2,0.9,0.3,1.5,0.3l-0.1,0.4c-0.4,0-0.7-0.1-1-0.1c-0.3-0.1-0.6-0.2-0.9-0.3C245.3,231,245.1,230.7,244.9,230.4z"/>
			<path class="st1" d="M248.7,232.6c0-0.3,0.2-0.5,0.5-0.7c0.5-0.3,1-0.4,1.7-0.3c0.7,0.1,1.5,0.4,2.6,0.9c0.3-0.2,0.5-0.4,0.6-0.6
				c0.1-0.2-0.1-0.4-0.4-0.6c-0.4-0.2-1-0.4-1.8-0.5l0.2-0.4c0.9,0.1,1.7,0.3,2.2,0.6c0.5,0.3,0.7,0.6,0.6,0.9
				c-0.1,0.3-0.4,0.6-0.9,0.9l-2.7,1.5l-0.5-0.3l0.5-0.3l0,0c-0.9-0.1-1.6-0.2-2.1-0.5C248.9,233.1,248.7,232.8,248.7,232.6z
				 M250.7,233.3c0.3,0.1,0.7,0.1,1.1,0.1l1.3-0.7c-0.8-0.4-1.5-0.6-2-0.7c-0.5-0.1-0.9,0-1.2,0.2c-0.2,0.1-0.4,0.3-0.3,0.4
				c0,0.2,0.2,0.3,0.4,0.4C250.2,233.2,250.4,233.3,250.7,233.3z"/>
			<path class="st1" d="M257.3,232.8l0.5,0.3l-0.7,0.5l0,0c0.4-0.1,0.8-0.1,1.2-0.1c0.4,0,0.7,0.1,0.9,0.3c0.2,0.1,0.3,0.2,0.4,0.3
				l-0.7,0.3c-0.1-0.1-0.2-0.2-0.3-0.3c-0.2-0.1-0.5-0.2-0.8-0.2c-0.4,0-0.8,0-1.3,0.2l-2.8,1.6l-0.6-0.4L257.3,232.8z"/>
			<path class="st1" d="M256.9,237c0.1-0.4,0.5-0.8,1.2-1.2c0.4-0.3,0.9-0.4,1.4-0.5c0.5-0.1,1-0.1,1.5-0.1c0.5,0.1,0.9,0.2,1.2,0.4
				c0.2,0.1,0.4,0.3,0.5,0.4c0.1,0.2,0.2,0.3,0.2,0.6l0.7-0.4l1.7-1l0.6,0.4l-6.3,3.7l-0.5-0.3l0.5-0.3l0,0c-0.4,0-0.7,0-1.1-0.1
				c-0.3-0.1-0.6-0.2-0.9-0.3C257,237.7,256.8,237.4,256.9,237z M259,238.1c0.3,0,0.6,0.1,1,0.1l2.3-1.3c0-0.2-0.1-0.4-0.2-0.5
				c-0.1-0.1-0.2-0.3-0.4-0.4c-0.2-0.1-0.5-0.2-0.9-0.3c-0.3,0-0.7,0-1.1,0.1c-0.4,0.1-0.7,0.2-1,0.4c-0.5,0.3-0.8,0.6-0.9,0.9
				c-0.1,0.3,0.1,0.6,0.5,0.8C258.5,237.9,258.7,238,259,238.1z"/>
		</g>
		<path class="st16" d="M391.5,224.7l-89.1-51.4c-5.6-3.2-15.4-2.8-21.9,0.9l-193.9,112c-6.4,3.7-7.1,9.4-1.6,12.6l89.1,51.4
			c5.6,3.2,15.4,2.8,21.9-0.9l193.9-112C396.4,233.6,397.1,227.9,391.5,224.7z M202.8,339.1l-98.4-56.8l169.5-97.9l98.4,56.8
			L202.8,339.1z"/>
		
			<ellipse transform="matrix(5.423482e-03 -1 1 5.423482e-03 -176.7036 457.4193)" class="st12" cx="141.6" cy="317.5" rx="6.2" ry="10.8"/>
		<path class="st12" d="M344.3,212.8c-0.6,0-1.1-0.1-1.4-0.3l-19-11c-0.4-0.2-0.6-0.6-0.6-1c0-0.5,0.3-0.9,0.9-1.2
			c0.5-0.3,1.2-0.5,1.8-0.5c0.6,0,1.1,0.1,1.4,0.3l19,11c0.4,0.2,0.7,0.6,0.7,1c0,0.5-0.3,0.9-0.9,1.2
			C345.6,212.7,344.9,212.8,344.3,212.8z"/>
		<path class="st17" d="M134,334.3l-8.7-5.1c-0.7-0.4-1.4-1.6-1.4-2.6l0,0c0-1,0.6-1.5,1.4-1l8.7,5.1c0.7,0.4,1.4,1.6,1.4,2.6l0,0
			C135.4,334.3,134.8,334.7,134,334.3z"/>
		<path class="st18" d="M135.4,333.3c0-1-0.6-2.2-1.4-2.6l-7.5-4.3c0,0,0,0,0,0l0,0c0,1,0.6,2.2,1.4,2.6L135.4,333.3
			C135.4,333.3,135.4,333.3,135.4,333.3L135.4,333.3z"/>
		<polygon class="st1" points="230.9,243.7 210,231.7 211,231.1 231.9,243.2 		"/>
	</g>
</g>
<g id="Paket">
	<g id="Ebene_5">
		<polygon class="st0" points="604,326 469.4,247.9 391.9,256.9 259.8,333.1 394.4,411.3 471.9,402.3 		"/>
	</g>
	<polygon class="st1" points="603.6,191.1 603.5,191.1 469,113 337,189.2 336.9,189.1 336.9,189.2 336.9,189.2 336.9,189.2 
		337.3,307.2 471.9,402.3 604,309.1 	"/>
	<g>
		<polygon class="st16" points="603.6,191.2 469,116.3 336.9,189.2 471.5,267.4 		"/>
	</g>
	<g class="st19">
		<polygon class="st20" points="603.6,191.2 469,116.3 471.5,267.4 		"/>
	</g>
	<polygon class="st21" points="469.1,117.2 419,273.2 471.6,271.7 	"/>
	<g>
		<polygon class="st1" points="471.5,267.4 336.9,189.1 337.3,324 384.4,351.4 396,354.1 407.5,365 471.9,402.3 		"/>
	</g>
	<g class="st2">
		<polygon class="st3" points="471.7,267.5 337.1,189.3 337.5,324.2 384.6,351.5 396.6,352 407.5,365 472.1,402.4 		"/>
	</g>
	<g>
		<polygon class="st1" points="471.5,267.4 471.9,402.3 532.4,367.3 545.8,358.1 555.9,353.7 604,326 603.6,191.1 		"/>
	</g>
	<polygon class="st22" points="536.2,227.8 536.5,156.4 513.5,143 513,241.2 	"/>
	<polygon class="st23" points="425.2,238.4 425,142.7 401.9,156 401.9,224.8 	"/>
	<path class="st4" d="M469,113l-132.1,76.2l134.6,78.2l132.1-76.3L469,113z M471.4,263.1l-127.1-73.9l124.8-72L596.2,191
		L471.4,263.1z"/>
	<polygon class="st6" points="540.2,154.3 517.1,140.9 513.5,143 536.5,156.4 	"/>
	<polygon class="st6" points="411.7,228.4 388.7,215 385.1,217.1 395.6,223.9 408.1,230.5 	"/>
	<polygon class="st6" points="421.2,140.5 398.2,153.8 401.9,156 425,142.7 	"/>
	<polygon class="st6" points="534.5,231.9 555.5,218.8 555.5,218.8 551.6,216.5 528.7,230 532.4,232.2 	"/>
	<polygon class="st5" points="555.5,218.8 555.9,353.7 532.4,367.3 532.4,232.2 	"/>
	<polygon class="st5" points="408.1,230.5 407.5,365 384.4,351.4 385.1,217.1 	"/>
</g>
<g id="Konfetti">
	<g>
		<polygon id="Plane-mesh_90_" class="st1" points="558,81.8 558.6,83 556.5,84.7 		"/>
		<polygon id="Plane-mesh_89_" class="st1" points="555.9,83.4 558,81.8 556.5,84.7 		"/>
	</g>
	<g>
		<polygon id="Plane_002-mesh_92_" class="st1" points="580.6,107.7 583.1,108.5 581.7,105.4 		"/>
	</g>
	<g>
		<polygon id="Plane_002-mesh_91_" class="st1" points="550.9,26.9 553.5,27.7 552.1,24.6 		"/>
	</g>
	<g>
		<polygon id="Plane_002-mesh_90_" class="st1" points="409.9,44.2 412.5,45.1 411.1,42 		"/>
	</g>
	<g>
		<polygon id="Plane-mesh_88_" class="st1" points="482,203.9 482.6,205.1 480.5,206.7 		"/>
		<polygon id="Plane-mesh_87_" class="st1" points="480,205.5 482,203.9 480.5,206.7 		"/>
	</g>
	<g>
		<polygon id="Plane_002-mesh_89_" class="st1" points="499.9,174.3 502.4,175.2 501,172 		"/>
	</g>
	<g>
		<polygon id="Plane-mesh_86_" class="st1" points="412.5,186.1 413.4,188.1 410,190.8 		"/>
		<polygon id="Plane-mesh_85_" class="st1" points="409.1,188.8 412.5,186.1 410,190.8 		"/>
	</g>
	<g>
		<polygon id="Plane_002-mesh_88_" class="st1" points="415.5,174.3 418.1,175.2 416.7,172 		"/>
	</g>
	<g>
		<polygon id="Plane_002-mesh_87_" class="st1" points="493.2,41.1 495.8,42 494.4,38.8 		"/>
	</g>
	<g>
		<polygon id="Plane_002-mesh_86_" class="st1" points="537.3,145.4 539.9,146.3 538.5,143.2 		"/>
	</g>
	<g>
		<polygon id="Plane_001-mesh_66_" class="st1" points="525.3,176.6 525.8,172.4 523.8,175 		"/>
		<polygon id="Plane_001-mesh_65_" class="st1" points="525.8,172.4 524.3,170.8 523.8,175 		"/>
	</g>
	<g>
		<polygon id="Plane_001-mesh_64_" class="st1" points="486.9,183.8 487.3,179.9 485.5,182.3 		"/>
		<polygon id="Plane_001-mesh_63_" class="st1" points="487.3,179.9 486,178.4 485.5,182.3 		"/>
	</g>
	<g>
		<polygon id="Plane_001-mesh_33_" class="st1" points="486.5,145.3 487.9,146.7 486.7,148.8 		"/>
		<polygon id="Plane_001-mesh_28_" class="st24" points="485.3,147.5 486.5,145.3 486.7,148.8 		"/>
	</g>
	<g>
		<polygon id="Plane-mesh_84_" class="st1" points="505.6,134.9 506.2,136 504.2,137.6 		"/>
		<polygon id="Plane-mesh_83_" class="st1" points="503.7,136.4 505.6,134.9 504.2,137.6 		"/>
	</g>
	<g>
		<polygon id="Plane-mesh_82_" class="st1" points="396.9,115.8 397.5,116.9 395.6,118.4 		"/>
		<polygon id="Plane-mesh_81_" class="st1" points="395,117.3 396.9,115.8 395.6,118.4 		"/>
	</g>
	<g>
		<polygon id="Plane-mesh_35_" class="st1" points="426.7,0 427.3,1.1 425.3,2.6 		"/>
		<polygon id="Plane-mesh_34_" class="st1" points="424.8,1.5 426.7,0 425.3,2.6 		"/>
	</g>
	<g>
		<polygon id="Plane-mesh_33_" class="st1" points="438.8,193.6 440.9,195.5 440.9,191.5 		"/>
		<polygon id="Plane-mesh_32_" class="st24" points="440.9,195.5 443.1,193.4 440.9,191.5 		"/>
	</g>
	<g>
		<polygon id="Plane-mesh_31_" class="st1" points="445.7,102.1 446.4,103.8 448.2,100.8 		"/>
		<polygon id="Plane-mesh_30_" class="st24" points="446.4,103.8 448.9,102.5 448.2,100.8 		"/>
	</g>
	<g>
		<polygon id="Plane-mesh_41_" class="st1" points="423.1,16.5 423.8,18.2 425.6,15.3 		"/>
		<polygon id="Plane-mesh_40_" class="st24" points="423.8,18.2 426.3,17 425.6,15.3 		"/>
	</g>
	<g>
		<polygon id="Plane_001-mesh_27_" class="st1" points="456.5,110.4 456.9,106.5 455.1,108.9 		"/>
		<polygon id="Plane_001-mesh_26_" class="st1" points="456.9,106.5 455.6,105 455.1,108.9 		"/>
	</g>
	<g>
		<polygon id="Plane_002-mesh_85_" class="st1" points="454.2,76 459.2,77.7 456.5,71.7 		"/>
	</g>
	<g>
		<polygon id="Plane-mesh_29_" class="st1" points="398,84.5 398.7,86.2 400.5,83.2 		"/>
		<polygon id="Plane-mesh_28_" class="st24" points="398.7,86.2 401.3,84.9 400.5,83.2 		"/>
	</g>
	<g>
		<polygon id="Plane-mesh_27_" class="st1" points="411.9,113.3 412.7,115 414.4,112 		"/>
		<polygon id="Plane-mesh_26_" class="st24" points="412.7,115 415.2,113.7 414.4,112 		"/>
	</g>
	<g>
		<polygon id="Plane-mesh_39_" class="st1" points="312.8,43.3 313.5,45 315.3,42 		"/>
		<polygon id="Plane-mesh_38_" class="st24" points="313.5,45 316,43.7 315.3,42 		"/>
	</g>
	<g>
		<polygon id="Plane-mesh_45_" class="st1" points="373.5,31.5 374.2,33.2 376,30.2 		"/>
		<polygon id="Plane-mesh_44_" class="st24" points="374.2,33.2 376.8,31.9 376,30.2 		"/>
	</g>
	<g>
		<polygon id="Plane_001-mesh_25_" class="st25" points="410.7,159.7 411.2,155.6 409.2,158.1 		"/>
		<polygon id="Plane_001-mesh_24_" class="st1" points="411.2,155.6 409.7,153.9 409.2,158.1 		"/>
	</g>
	<g>
		<polygon id="Plane_001-mesh_23_" class="st1" points="464.4,183.7 464.9,179.5 462.9,182.1 		"/>
		<polygon id="Plane_001-mesh_22_" class="st1" points="464.9,179.5 463.4,177.9 462.9,182.1 		"/>
	</g>
	<g>
		<polygon id="Plane_002-mesh_84_" class="st1" points="437.5,148.2 435.2,148.3 438.3,149.4 		"/>
		<polygon id="Plane_002-mesh_37_" class="st1" points="440.7,149.3 437.5,148.2 438.3,149.4 		"/>
	</g>
	<g>
		<polygon id="Plane_002-mesh_36_" class="st1" points="458.4,49.3 456.1,49.4 459.2,50.5 		"/>
		<polygon id="Plane_002-mesh_35_" class="st1" points="461.6,50.3 458.4,49.3 459.2,50.5 		"/>
	</g>
	<g>
		<polygon id="Plane_002-mesh_34_" class="st1" points="390.7,67.3 388.4,67.5 391.5,68.5 		"/>
		<polygon id="Plane_002-mesh_33_" class="st1" points="393.8,68.4 390.7,67.3 391.5,68.5 		"/>
	</g>
	<g>
		<polygon id="Plane_001-mesh_21_" class="st1" points="415.7,140.6 413.6,140.6 416.4,139.2 		"/>
		<polygon id="Plane_001-mesh_20_" class="st25" points="413.6,140.6 414.3,139.2 416.4,139.2 		"/>
	</g>
	<g>
		<polygon id="Plane-mesh_25_" class="st1" points="515.6,95.1 516.1,92.7 514,93.8 		"/>
		<polygon id="Plane-mesh_24_" class="st1" points="516.1,92.7 514.5,91.4 514,93.8 		"/>
	</g>
	<g>
		<polygon id="Plane-mesh_43_" class="st1" points="584.7,50.7 585.2,48.3 583.1,49.5 		"/>
		<polygon id="Plane-mesh_42_" class="st1" points="585.2,48.3 583.6,47 583.1,49.5 		"/>
	</g>
	<g>
		<polygon id="Plane-mesh_23_" class="st1" points="521.9,164.2 523.8,166 523.8,162.3 		"/>
		<polygon id="Plane-mesh_22_" class="st24" points="523.8,166 525.8,164.1 523.8,162.3 		"/>
	</g>
	<g>
		<polygon id="Plane_002-mesh_32_" class="st1" points="387.7,134.9 392.3,136.5 389.8,130.9 		"/>
	</g>
	<g>
		<polygon id="Plane-mesh_21_" class="st1" points="500.6,58.2 501.4,59.9 503.1,57 		"/>
		<polygon id="Plane-mesh_20_" class="st24" points="501.4,59.9 503.9,58.6 503.1,57 		"/>
	</g>
	<g>
		<polygon id="Plane_001-mesh_19_" class="st1" points="515.5,137.4 516,133.3 514,135.8 		"/>
		<polygon id="Plane_001-mesh_18_" class="st1" points="516,133.3 514.5,131.6 514,135.8 		"/>
	</g>
	<g>
		<polygon id="Plane_001-mesh_17_" class="st1" points="492.3,158.5 490.2,158.5 493,157.2 		"/>
		<polygon id="Plane_001-mesh_16_" class="st1" points="490.2,158.5 490.9,157.2 493,157.2 		"/>
	</g>
	<g>
		<polygon id="Plane-mesh_19_" class="st1" points="504.1,210.7 505.6,215.3 499.4,211.7 		"/>
		<polygon id="Plane-mesh_18_" class="st24" points="505.6,215.3 500.9,216.3 499.4,211.7 		"/>
	</g>
	<g>
		<polygon id="Plane_002-mesh_31_" class="st24" points="557,101.4 552.3,99.2 559.5,97 		"/>
		<polygon id="Plane_002-mesh_30_" class="st1" points="552.3,99.2 554.9,94.8 559.5,97 		"/>
	</g>
	<g>
		<polygon id="Plane_002-mesh_39_" class="st24" points="391.1,54.7 386.9,57.6 388.7,50.3 		"/>
		<polygon id="Plane_002-mesh_38_" class="st1" points="386.9,57.6 384.4,53.2 388.7,50.3 		"/>
	</g>
	<g>
		<polygon id="Plane-mesh_17_" class="st25" points="477,51.1 478.1,48.9 480.4,52.1 		"/>
		<polygon id="Plane-mesh_16_" class="st24" points="478.1,48.9 481.5,49.9 480.4,52.1 		"/>
	</g>
	<g>
		<polygon id="Plane-mesh_15_" class="st25" points="381.7,150.2 382.8,148 385.1,151.2 		"/>
		<polygon id="Plane-mesh_14_" class="st24" points="382.8,148 386.2,149 385.1,151.2 		"/>
	</g>
	<g>
		<polygon id="Plane-mesh_13_" class="st25" points="359.5,56.1 360.6,54 362.9,57.2 		"/>
		<polygon id="Plane-mesh_12_" class="st24" points="360.6,54 364,55 362.9,57.2 		"/>
	</g>
	<g>
		<polygon id="Plane_001-mesh_15_" class="st1" points="490.6,112.2 488.7,113.8 493.3,117.1 		"/>
		<polygon id="Plane_001-mesh_14_" class="st24" points="495.1,115.5 490.6,112.2 493.3,117.1 		"/>
	</g>
	<g>
		<polygon id="Plane-mesh_11_" class="st1" points="452.5,208.7 453.7,212.4 456.8,207.4 		"/>
		<polygon id="Plane-mesh_10_" class="st24" points="453.7,212.4 458,211.2 456.8,207.4 		"/>
	</g>
	<g>
		<polygon id="Plane-mesh_9_" class="st24" points="541.7,116.1 544.3,119.7 538.5,124.1 		"/>
		<polygon id="Plane-mesh_8_" class="st1" points="536,120.5 541.7,116.1 538.5,124.1 		"/>
	</g>
	<g>
		<polygon id="Plane-mesh_37_" class="st24" points="545.5,70.6 542.2,73.5 537.3,68.1 		"/>
		<polygon id="Plane-mesh_36_" class="st1" points="540.7,65.3 545.5,70.6 537.3,68.1 		"/>
	</g>
	<g>
		<polygon id="Plane_002-mesh_29_" class="st24" points="425.1,131.7 422.5,127.7 429.2,129.4 		"/>
		<polygon id="Plane_002-mesh_28_" class="st1" points="422.5,127.7 426.5,125.5 429.2,129.4 		"/>
	</g>
	<polygon id="Plane-mesh_7_" class="st24" points="438.2,162.2 440.2,164.9 433.5,170 	"/>
	<polygon id="Plane_002-mesh_27_" class="st1" points="481.5,81.1 486.7,80.1 477.4,89.4 	"/>
	<polygon id="Plane_002-mesh_26_" class="st24" points="486.7,80.1 482.5,88.4 477.4,89.4 	"/>
	<polygon id="Plane_002-mesh_25_" class="st1" points="462.7,225.6 467.5,224.7 458.9,233.2 	"/>
	<polygon id="Plane_002-mesh_24_" class="st24" points="467.5,224.7 463.7,232.4 458.9,233.2 	"/>
	<polygon id="Plane-mesh_6_" class="st1" points="464.2,37.2 468,35.3 474,38.8 	"/>
	<polygon id="Plane-mesh_5_" class="st24" points="373,92.8 367,89.4 376.8,91 	"/>
	<g>
		<polygon id="Plane_001-mesh_13_" class="st1" points="533.1,134.6 529.1,134.9 528.2,143 		"/>
		<polygon id="Plane_001-mesh_12_" class="st24" points="532.3,142.8 533.1,134.6 528.2,143 		"/>
	</g>
	<g>
		<polygon id="Plane_001-mesh_11_" class="st1" points="517.7,210.5 513.7,210.8 512.8,218.8 		"/>
		<polygon id="Plane_001-mesh_10_" class="st24" points="516.9,218.6 517.7,210.5 512.8,218.8 		"/>
	</g>
	<g>
		<polygon id="Plane_001-mesh_9_" class="st1" points="430.9,63.7 428.1,63.9 427.5,69.4 		"/>
		<polygon id="Plane_001-mesh_8_" class="st24" points="430.3,69.3 430.9,63.7 427.5,69.4 		"/>
	</g>
	<polygon id="Plane_002-mesh_23_" class="st1" points="434.4,110.6 441.5,112.5 442.2,105.1 	"/>
	<g>
		<polygon id="Plane_002-mesh_22_" class="st24" points="448.2,159.5 456,159.1 454.3,152.6 		"/>
		<polygon id="Plane_002-mesh_21_" class="st25" points="446.5,153 448.2,159.5 454.3,152.6 		"/>
	</g>
	<g>
		<polygon id="Plane-mesh_4_" class="st24" points="396.1,100 395.7,102.8 400.6,100 		"/>
		<polygon id="Plane-mesh_3_" class="st25" points="395.7,102.8 400.3,102.8 400.6,100 		"/>
	</g>
	<g>
		<polygon id="Plane_002-mesh_20_" class="st1" points="489.5,145.3 484.8,144.9 488.5,148.3 		"/>
		<polygon id="Plane_002-mesh_19_" class="st24" points="493.1,148.8 489.5,145.3 488.5,148.3 		"/>
	</g>
	<polygon id="Plane_001-mesh_7_" class="st24" points="491.9,208.3 488.7,211.5 486.1,206.9 	"/>
	<polygon id="Plane_001-mesh_6_" class="st1" points="489.3,203.7 491.9,208.3 486.1,206.9 	"/>
	<g>
		<polygon id="Plane_001-mesh_5_" class="st1" points="456.1,243.5 459.9,238.5 455.5,240.5 		"/>
		<polygon id="Plane_001-mesh_4_" class="st1" points="459.9,238.5 459.3,235.4 455.5,240.5 		"/>
	</g>
	<g>
		<polygon id="Plane_001-mesh_3_" class="st1" points="418.6,197.5 422.4,192.5 418,194.5 		"/>
		<polygon id="Plane_001-mesh_2_" class="st1" points="422.4,192.5 421.8,189.5 418,194.5 		"/>
	</g>
	<polygon id="Plane_002-mesh_18_" class="st1" points="467,144.2 471.8,143.2 463.2,151.8 	"/>
	<polygon id="Plane_002-mesh_17_" class="st24" points="471.8,143.2 468,151 463.2,151.8 	"/>
	<g>
		<polygon id="Plane_002-mesh_16_" class="st24" points="508.4,190.2 515.6,189.8 513.9,183.8 		"/>
		<polygon id="Plane_002-mesh_15_" class="st1" points="506.8,184.2 508.4,190.2 513.9,183.8 		"/>
	</g>
	<g>
		<polygon id="Plane_002-mesh_14_" class="st1" points="464.2,178 461.2,176.7 464.3,180.1 		"/>
		<polygon id="Plane_002-mesh_13_" class="st1" points="467.4,181.4 464.2,178 464.3,180.1 		"/>
	</g>
	<polygon id="Plane_001-mesh_1_" class="st24" points="411,129.2 409.1,137.1 400.7,132.6 	"/>
	<polygon id="Plane_002-mesh_12_" class="st24" points="440.2,84.9 434.3,96.8 426.9,98.1 	"/>
	<polygon id="Plane_002-mesh_11_" class="st1" points="414.5,166.8 424.1,160.6 416.3,152.2 	"/>
	<g>
		<polygon id="Plane-mesh_2_" class="st24" points="528.4,204.9 528.3,196.8 522.7,205.7 		"/>
		<polygon id="Plane-mesh_1_" class="st1" points="528.3,196.8 522.5,197.5 522.7,205.7 		"/>
	</g>
	<g>
		<polygon id="Plane_002-mesh_10_" class="st24" points="500.6,121.5 510.5,126.4 512.9,117.1 		"/>
		<polygon id="Plane_002-mesh_9_" class="st1" points="503.1,112.2 500.6,121.5 512.9,117.1 		"/>
	</g>
	<g>
		<polygon id="Plane_002-mesh_8_" class="st24" points="493.1,168.9 498.4,178.6 505.7,172.4 		"/>
		<polygon id="Plane_002-mesh_7_" class="st1" points="500.5,162.7 493.1,168.9 505.7,172.4 		"/>
	</g>
	<g>
		<polygon id="Plane_002-mesh_6_" class="st24" points="465.9,203.1 477,202.4 474.5,193.2 		"/>
		<polygon id="Plane_002-mesh_5_" class="st1" points="463.5,193.7 465.9,203.1 474.5,193.2 		"/>
	</g>
	<g>
		<polygon id="Plane_002-mesh_4_" class="st24" points="423,214.6 427.8,224.6 435.4,218.7 		"/>
		<polygon id="Plane_002-mesh_3_" class="st1" points="430.7,208.8 423,214.6 435.4,218.7 		"/>
	</g>
	<g>
		<polygon id="Plane_002-mesh_2_" class="st24" points="491.5,235.6 498.7,235.2 497.1,229.1 		"/>
		<polygon id="Plane_002-mesh_1_" class="st1" points="489.8,229.4 491.5,235.6 497.1,229.1 		"/>
	</g>
</g>
</svg>
