<?xml version="1.0" encoding="utf-8"?>
<!-- Generator: Adobe Illustrator 23.0.3, SVG Export Plug-In . SVG Version: 6.00 Build 0)  -->
<svg version="1.1" id="CGift-Startseite-Keyvisual-03-GiftCard"
	 xmlns="http://www.w3.org/2000/svg" xmlns:xlink="http://www.w3.org/1999/xlink" x="0px" y="0px" viewBox="0 0 880 534"
	 style="enable-background:new 0 0 880 534;" xml:space="preserve">
<style type="text/css">
	.st0{opacity:0.6;fill:#1F2223;}
	.st1{fill:#A4ABAF;}
	.st2{fill:#1F2223;}
	.st3{opacity:0.15;fill:#1F2223;}
	.st4{fill:#FAD151;}
	.st5{fill:#FFFFFF;}
</style>
<path class="st0" d="M131.4,529.2L8.6,458.3c-11.5-6.6-11.5-23.2,0-29.8l232-134c10.6-6.1,23.8-6.1,34.4,0l122.8,70.9
	c11.5,6.6,11.5,23.2,0,29.8l-232,134C155.1,535.3,142,535.3,131.4,529.2z"/>
<path class="st1" d="M166,447.5L43.2,376.6c-11.5-6.6-11.5-23.2,0-29.8l232-134c10.6-6.1,23.8-6.1,34.4,0l122.8,70.9
	c11.5,6.6,11.5,23.2,0,29.8l-232,134C189.8,453.7,176.7,453.7,166,447.5z"/>
<path class="st2" d="M166,445.6L43.2,374.7c-11.5-6.6-11.5-23.2,0-29.8l232-134c10.6-6.1,23.8-6.1,34.4,0l122.8,70.9
	c11.5,6.6,11.5,23.2,0,29.8l-232,134C189.8,451.7,176.7,451.7,166,445.6z"/>
<path class="st3" d="M166,445.6L43.2,374.7c-11.5-6.6-11.5-23.2,0-29.8l232-134c10.6-6.1,23.8-6.1,34.4,0l122.8,70.9
	c11.5,6.6,11.5,23.2,0,29.8l-232,134C189.8,451.7,176.7,451.7,166,445.6z"/>
<g>
	<path class="st4" d="M171,341.5l-2.9,1.7l-0.9-0.5l6.9-4l0.9,0.5l-2.9,1.7l8.6,4.9l-1.1,0.6L171,341.5z"/>
	<path class="st4" d="M175,337.2l1-0.6l2.9,1.6l1.4,0.9c0-0.4,0.1-0.8,0.2-1.2s0.5-0.6,0.9-0.9c0.7-0.4,1.5-0.6,2.3-0.5
		c0.8,0.1,1.7,0.4,2.6,0.9l4.4,2.6l-1.1,0.6l-4.3-2.5c-0.7-0.4-1.3-0.6-1.8-0.7c-0.5-0.1-1,0.1-1.5,0.3c-0.3,0.2-0.6,0.4-0.7,0.7
		c-0.1,0.3-0.2,0.6-0.2,1.1l5.1,3l-1,0.6L175,337.2z"/>
	<path class="st4" d="M195.4,333.6l-4.8,2.8c0.9,0.4,1.8,0.7,2.7,0.7c0.9,0,1.7-0.2,2.4-0.6c0.6-0.4,1-0.8,1.2-1.3l1.1,0.2
		c-0.1,0.3-0.3,0.6-0.5,0.9c-0.2,0.3-0.6,0.6-1,0.8c-0.6,0.4-1.3,0.6-2.1,0.7c-0.8,0.1-1.6,0.1-2.5,0s-1.6-0.4-2.4-0.9
		c-0.7-0.4-1.2-0.9-1.5-1.4c-0.3-0.5-0.3-1-0.1-1.4s0.5-0.8,1.1-1.1c0.9-0.5,1.8-0.7,2.9-0.7c1.1,0.1,2.1,0.4,3.1,1
		C195,333.3,195.2,333.4,195.4,333.6z M193.7,333.6c-0.7-0.4-1.5-0.7-2.2-0.7c-0.7,0-1.4,0.1-1.9,0.4c-0.5,0.3-0.8,0.7-0.8,1.1
		c0,0.5,0.3,0.9,1,1.4L193.7,333.6z"/>
	<path class="st4" d="M203.3,331.8c-1.2-0.1-2.3-0.4-3.5-1.1c-0.7-0.4-1.2-0.9-1.5-1.4c-0.3-0.5-0.3-0.9-0.2-1.4
		c0.2-0.4,0.5-0.8,1.1-1.1c0.4-0.2,0.8-0.4,1.2-0.5c0.4-0.1,1-0.2,1.6-0.2l-1.3-0.7l-2.7-1.6l1-0.6l10.3,5.9l-0.9,0.5l-0.9-0.4l0,0
		c0,0.3-0.1,0.7-0.3,1c-0.2,0.3-0.5,0.6-0.9,0.8C205.5,331.7,204.5,331.9,203.3,331.8z M206.5,329.8c0.1-0.3,0.2-0.6,0.2-1l-3.8-2.2
		c-0.6,0-1.1,0.1-1.5,0.2c-0.4,0.1-0.8,0.2-1.1,0.4c-0.4,0.2-0.6,0.5-0.7,0.8s0,0.7,0.2,1c0.2,0.4,0.6,0.7,1.1,1
		c0.9,0.5,1.7,0.8,2.6,0.9c0.8,0.1,1.6-0.1,2.2-0.4C206.1,330.3,206.3,330.1,206.5,329.8z"/>
	<path class="st4" d="M203.2,322.8c-0.3,0-0.5-0.1-0.7-0.2c-0.2-0.1-0.3-0.3-0.3-0.4c0-0.2,0.1-0.3,0.3-0.4s0.4-0.2,0.7-0.2
		c0.3,0,0.5,0.1,0.7,0.2c0.2,0.1,0.3,0.3,0.3,0.4c0,0.2-0.1,0.3-0.3,0.4S203.5,322.8,203.2,322.8z M204.9,323.7l1-0.6l7,4l-1,0.6
		L204.9,323.7z"/>
	<path class="st4" d="M218.4,327.2c-0.9,0.1-1.6,0-2.2-0.3c-0.3-0.2-0.5-0.4-0.6-0.7c-0.1-0.3-0.1-0.6,0-0.9l-0.1,0
		c-0.3,0-0.6,0-0.9,0c-0.3,0-0.6-0.1-0.8-0.3c-0.3-0.2-0.4-0.3-0.5-0.6c-0.1-0.2-0.1-0.4,0-0.6l-0.1,0c-0.5,0-0.9,0-1.4-0.1
		c-0.5-0.1-0.9-0.2-1.3-0.5c-0.5-0.3-0.8-0.6-1-1c-0.1-0.4-0.1-0.7,0.1-1c0.2-0.3,0.5-0.7,1-0.9c0.3-0.2,0.7-0.3,1.1-0.5l2.4-1.4
		l0.8,0.5l-1.5,0.9c0.4,0,0.7,0,1.1,0.1s0.7,0.2,1,0.4c0.5,0.3,0.8,0.6,0.9,0.9c0.1,0.3,0.1,0.7-0.1,1c-0.2,0.3-0.5,0.6-1,0.9
		c-0.4,0.2-0.8,0.4-1.3,0.5c0,0.2,0,0.3,0,0.4c0,0.1,0.2,0.2,0.4,0.3c0.2,0.1,0.5,0.2,0.9,0.2c0.3,0,0.7-0.2,1.2-0.4l1.4-0.8
		c0.8-0.5,1.6-0.7,2.2-0.8c0.7-0.1,1.3,0.1,1.8,0.4c0.4,0.2,0.7,0.6,0.8,0.9c0.1,0.4,0,0.8-0.3,1.2c-0.3,0.4-0.8,0.8-1.5,1.2
		C220.2,326.8,219.3,327.1,218.4,327.2z M215.4,321.8c0-0.4-0.3-0.7-0.8-1c-0.5-0.3-1.1-0.5-1.7-0.5c-0.6,0-1.1,0.1-1.6,0.4
		c-0.4,0.3-0.7,0.6-0.6,0.9c0,0.4,0.3,0.7,0.8,1c0.5,0.3,1.1,0.4,1.7,0.5s1.2-0.1,1.6-0.4C215.2,322.5,215.5,322.1,215.4,321.8z
		 M221.4,324.9c0.2-0.3,0.3-0.5,0.3-0.8c0-0.2-0.2-0.4-0.5-0.6c-0.3-0.2-0.7-0.3-1.1-0.2c-0.4,0.1-0.8,0.2-1.3,0.5l-1.3,0.7
		c-0.3,0.2-0.6,0.3-1,0.5c-0.2,0.5,0,0.9,0.5,1.2c0.4,0.2,0.9,0.3,1.5,0.2c0.6-0.1,1.2-0.3,1.9-0.7
		C220.9,325.5,221.2,325.2,221.4,324.9z"/>
	<path class="st4" d="M214.2,316.4c-0.3,0-0.5-0.1-0.7-0.2c-0.2-0.1-0.3-0.3-0.3-0.4c0-0.2,0.1-0.3,0.3-0.4c0.2-0.1,0.5-0.2,0.7-0.2
		c0.3,0,0.5,0.1,0.7,0.2c0.2,0.1,0.3,0.3,0.3,0.4s-0.1,0.3-0.3,0.4C214.7,316.4,214.4,316.4,214.2,316.4z M215.9,317.4l1-0.6l7,4
		l-1,0.6L215.9,317.4z"/>
	<path class="st4" d="M226.7,318.8c-0.7-0.1-1.4-0.3-2.1-0.7l-4-2.3l-1.1,0.6l-0.8-0.5l1-0.7l-1.8-1.2l0.9-0.5l2,1.1l1.9-1.1
		l0.9,0.5l-1.9,1.1l4,2.3c0.5,0.3,0.9,0.4,1.3,0.5c0.4,0,0.8-0.1,1.2-0.3c0.2-0.1,0.4-0.3,0.6-0.6l1,0.3c-0.3,0.4-0.7,0.7-1,0.9
		C228.1,318.6,227.4,318.8,226.7,318.8z"/>
	<path class="st4" d="M231.4,316.1c-0.7,0-1.4-0.1-2-0.5c-0.8-0.4-1-1-0.7-1.6c0.3-0.6,1.1-1.4,2.5-2.4c-0.5-0.3-1.1-0.5-1.7-0.6
		c-0.6-0.1-1.1,0-1.7,0.4c-0.7,0.4-1.1,0.9-1.4,1.7l-1.1-0.2c0.3-0.9,0.9-1.6,1.8-2.1c0.8-0.5,1.7-0.7,2.5-0.6
		c0.9,0.1,1.8,0.4,2.7,0.9l4.3,2.5l-0.9,0.5l-0.9-0.4l0,0c-0.1,0.9-0.6,1.5-1.3,1.9C232.8,315.9,232.1,316.1,231.4,316.1z
		 M233.5,314.2c0.2-0.3,0.3-0.6,0.3-1l-2-1.2c-1.1,0.8-1.7,1.4-1.9,1.9c-0.2,0.5-0.1,0.8,0.4,1.1c0.4,0.2,0.8,0.3,1.2,0.3
		c0.4,0,0.8-0.1,1.2-0.4C233.1,314.8,233.4,314.5,233.5,314.2z"/>
	<path class="st4" d="M239,311.9c-0.4,0-0.9-0.2-1.4-0.5l-9-5.2l1-0.6l9.1,5.3c0.2,0.1,0.3,0.1,0.5,0.2c0.1,0,0.3,0,0.4-0.1
		c0.1,0,0.2-0.1,0.2-0.2l1,0.4c-0.1,0.1-0.3,0.3-0.5,0.4C239.8,311.8,239.4,311.9,239,311.9z"/>
	<path class="st4" d="M249,309.5c-0.9,0.1-1.6,0-2.2-0.3c-0.3-0.2-0.5-0.4-0.6-0.7c-0.1-0.3-0.1-0.6,0-0.9l-0.1,0
		c-0.3,0-0.6,0-0.9,0c-0.3,0-0.6-0.1-0.9-0.3c-0.3-0.2-0.4-0.3-0.5-0.6c-0.1-0.2-0.1-0.4,0-0.6l-0.1,0c-0.5,0-0.9,0-1.4-0.1
		c-0.5-0.1-0.9-0.2-1.3-0.5c-0.5-0.3-0.8-0.6-1-1c-0.1-0.4-0.1-0.7,0.1-1c0.2-0.3,0.5-0.7,1-0.9c0.3-0.2,0.7-0.3,1.1-0.5l2.4-1.4
		l0.8,0.5l-1.5,0.9c0.4,0,0.7,0,1.1,0.1c0.4,0.1,0.7,0.2,1,0.4c0.5,0.3,0.8,0.6,0.9,0.9c0.1,0.3,0.1,0.7-0.1,1
		c-0.2,0.3-0.5,0.6-1,0.9c-0.4,0.2-0.8,0.4-1.3,0.5c0,0.2,0,0.3,0,0.4c0,0.1,0.2,0.2,0.4,0.3c0.2,0.1,0.5,0.2,0.9,0.2
		c0.3,0,0.7-0.2,1.2-0.4l1.4-0.8c0.8-0.5,1.6-0.7,2.2-0.8c0.7-0.1,1.3,0.1,1.8,0.4c0.4,0.2,0.7,0.6,0.8,0.9c0.1,0.4,0,0.8-0.3,1.2
		c-0.3,0.4-0.8,0.8-1.5,1.2C250.7,309.1,249.8,309.4,249,309.5z M246,304.2c0-0.4-0.3-0.7-0.8-1c-0.5-0.3-1.1-0.5-1.7-0.5
		c-0.6,0-1.1,0.1-1.6,0.4c-0.4,0.3-0.7,0.6-0.6,0.9c0,0.4,0.3,0.7,0.8,1c0.5,0.3,1.1,0.4,1.7,0.5c0.6,0,1.2-0.1,1.6-0.4
		C245.8,304.8,246,304.5,246,304.2z M252,307.3c0.2-0.3,0.3-0.5,0.3-0.8c0-0.2-0.2-0.4-0.5-0.6c-0.3-0.2-0.7-0.3-1.1-0.2
		c-0.4,0.1-0.8,0.2-1.3,0.5l-1.3,0.7c-0.3,0.2-0.6,0.3-1,0.4c-0.2,0.5,0,0.9,0.5,1.2c0.4,0.2,0.9,0.3,1.5,0.2
		c0.6-0.1,1.2-0.3,1.9-0.7C251.4,307.9,251.7,307.6,252,307.3z"/>
	<path class="st4" d="M244.7,298.8c-0.3,0-0.5-0.1-0.7-0.2c-0.2-0.1-0.3-0.3-0.3-0.4s0.1-0.3,0.3-0.4s0.4-0.2,0.7-0.2
		c0.3,0,0.5,0.1,0.7,0.2c0.2,0.1,0.3,0.3,0.3,0.4c0,0.2-0.1,0.3-0.3,0.4S245,298.8,244.7,298.8z M246.4,299.8l1-0.6l7,4l-1,0.6
		L246.4,299.8z"/>
	<path class="st4" d="M250,296.3l1.2,0.7l1.5-0.9l0.9,0.5l-1.5,0.9l6.1,3.5l-1.1,0.6l-6.1-3.5l-1,0.5l-0.8-0.5l0.9-0.6l-1.2-0.7
		c-0.7-0.4-1.1-0.8-1.2-1.3c-0.1-0.4,0.2-0.8,0.9-1.2c0.4-0.2,0.8-0.4,1.4-0.5l0.6,0.6c-0.4,0.1-0.7,0.2-1,0.4
		C248.9,295.3,249.1,295.8,250,296.3z"/>
	<path class="st4" d="M262,298.4c-0.7-0.1-1.4-0.3-2.1-0.7l-4-2.3l-1.1,0.6l-0.8-0.5l1-0.7l-1.8-1.2l0.9-0.5l2,1.1l1.9-1.1l0.9,0.5
		l-1.9,1.1l4,2.3c0.5,0.3,0.9,0.4,1.3,0.5c0.4,0,0.8-0.1,1.2-0.3c0.2-0.1,0.4-0.3,0.6-0.6l1,0.3c-0.3,0.4-0.7,0.7-1,0.9
		C263.4,298.3,262.7,298.4,262,298.4z"/>
	<path class="st4" d="M270.8,293.5c-0.8,0.1-1.6,0.1-2.4-0.1c-0.8-0.2-1.6-0.4-2.4-0.9c-0.8-0.4-1.3-0.9-1.5-1.4
		c-0.3-0.5-0.3-1-0.1-1.4c0.2-0.5,0.6-0.9,1.2-1.2c0.8-0.4,1.7-0.7,2.9-0.7l0.1,0.7c-0.4,0-0.8,0.1-1.2,0.1
		c-0.3,0.1-0.6,0.2-0.9,0.3c-0.4,0.2-0.7,0.5-0.8,0.9c-0.1,0.3-0.1,0.7,0.2,1c0.2,0.4,0.6,0.7,1.2,1c0.8,0.5,1.7,0.8,2.6,0.8
		c0.9,0.1,1.7-0.1,2.4-0.5c0.6-0.3,0.9-0.8,1-1.4l1.2,0.1c0,0.3-0.2,0.7-0.4,1c-0.2,0.3-0.5,0.6-1,0.8
		C272.3,293.1,271.6,293.4,270.8,293.5z"/>
	<path class="st4" d="M276.6,290c-0.7,0-1.4-0.1-2-0.5c-0.8-0.4-1-1-0.7-1.6c0.3-0.6,1.1-1.4,2.5-2.4c-0.5-0.3-1.1-0.5-1.7-0.6
		c-0.6-0.1-1.1,0-1.7,0.4c-0.7,0.4-1.1,0.9-1.4,1.7l-1.1-0.2c0.3-0.9,0.9-1.6,1.8-2.1c0.8-0.5,1.7-0.7,2.5-0.6
		c0.9,0.1,1.8,0.4,2.7,0.9l4.3,2.5l-0.9,0.5l-0.9-0.4l0,0c-0.1,0.9-0.6,1.5-1.3,1.9C278,289.8,277.4,290,276.6,290z M278.8,288.1
		c0.2-0.3,0.3-0.6,0.3-1l-2-1.2c-1.1,0.8-1.7,1.4-1.9,1.9c-0.2,0.5-0.1,0.8,0.4,1.1c0.4,0.2,0.8,0.3,1.2,0.3c0.4,0,0.8-0.1,1.2-0.4
		C278.4,288.6,278.6,288.4,278.8,288.1z"/>
	<path class="st4" d="M277.2,282l0.9-0.5l1.4,0.7l0,0c-0.2-0.4-0.3-0.8-0.2-1.1c0.1-0.3,0.3-0.6,0.7-0.9c0.3-0.2,0.6-0.3,0.9-0.3
		l0.7,0.6c-0.3,0.1-0.6,0.2-0.8,0.3c-0.3,0.2-0.5,0.5-0.6,0.8c-0.1,0.3,0.1,0.7,0.4,1.2l4.6,2.6l-1,0.6L277.2,282z"/>
	<path class="st4" d="M288.8,282.5c-1.2-0.1-2.3-0.4-3.5-1.1c-0.7-0.4-1.2-0.9-1.5-1.4c-0.3-0.5-0.3-0.9-0.2-1.4
		c0.2-0.4,0.5-0.8,1.1-1.1c0.4-0.2,0.8-0.4,1.2-0.5c0.4-0.1,1-0.2,1.6-0.2l-1.3-0.7l-2.7-1.6l1-0.6l10.3,5.9l-0.9,0.5L293,280l0,0
		c0,0.3-0.1,0.7-0.3,1c-0.2,0.3-0.5,0.6-0.9,0.8C290.9,282.4,289.9,282.6,288.8,282.5z M291.9,280.5c0.1-0.3,0.2-0.6,0.2-1l-3.8-2.2
		c-0.6,0-1.1,0.1-1.5,0.2c-0.4,0.1-0.8,0.2-1.1,0.4c-0.4,0.2-0.6,0.5-0.7,0.8c-0.1,0.3,0,0.7,0.2,1s0.6,0.7,1.1,1
		c0.9,0.5,1.7,0.8,2.6,0.9c0.8,0.1,1.6-0.1,2.2-0.4C291.5,281,291.7,280.8,291.9,280.5z"/>
</g>
<g>
	<path class="st4" d="M62.9,333.6l32.4,18.7c8.5,4.9,21.4,5.4,28.7,1.2c7.4-4.3,6.4-11.7-2.1-16.6l-32.4-18.7L62.9,333.6z"/>
	<g>
		<path class="st2" d="M108.3,348.2c-1.8-0.1-3.7-0.6-5.2-1.4c-3-1.7-3.3-4.3-0.7-5.8c1.3-0.7,3.1-1.1,4.9-1l-0.4-3
			c-3.1-0.1-6.2,0.4-8.4,1.7c-4.5,2.6-3.9,7.1,1.2,10c2.6,1.5,5.8,2.3,9,2.4L108.3,348.2z"/>
		<path class="st2" d="M114.7,343.6c0.6,1.3,0.1,2.6-1.5,3.5c-0.3,0.2-0.6,0.3-1,0.4l0.4,3.3c1.7-0.3,3.2-0.8,4.5-1.5
			c2.7-1.6,3.6-3.9,2.6-6.1L114.7,343.6z"/>
	</g>
</g>
<polygon class="st4" points="247,334 199.5,361.5 197.3,360.2 244.8,332.8 "/>
<g>
	<path class="st5" d="M147,328.1c-1.3,0.2-2.7,0.1-4.2-0.2c-1.5-0.3-2.9-0.9-4.4-1.7c-1.4-0.8-2.4-1.7-3-2.5s-0.7-1.7-0.5-2.5
		c0.3-0.8,0.9-1.5,1.9-2c0.7-0.4,1.5-0.7,2.4-0.8c0.9-0.2,1.8-0.2,2.7-0.2l0.5,1.8c-0.7,0-1.3,0-1.8,0.1c-0.5,0.1-1,0.2-1.4,0.5
		c-0.6,0.3-0.9,0.7-1,1.2c-0.1,0.5,0.1,1,0.5,1.5c0.4,0.5,1.1,1.1,2,1.6c1.4,0.8,2.7,1.3,4.1,1.4c1.3,0.2,2.4,0,3.3-0.5
		c0.9-0.5,1.2-1.2,1-2.1l3,0.3c0.3,1.3-0.2,2.4-1.7,3.2C149.4,327.6,148.3,327.9,147,328.1z"/>
	<path class="st5" d="M157,322.3c-1.4,0.2-2.8,0.1-4.3-0.2c-1.5-0.3-3-0.9-4.4-1.7c-1.4-0.8-2.4-1.7-3-2.6c-0.6-0.9-0.7-1.7-0.4-2.5
		c0.3-0.8,0.9-1.5,2-2.1c1.4-0.8,3.1-1.2,5.3-1.1l0.5,1.8c-0.7,0-1.3,0-1.8,0.1c-0.5,0.1-1,0.3-1.5,0.5c-0.9,0.5-1.3,1.2-1.1,2
		s1,1.6,2.4,2.4c1.4,0.8,2.8,1.3,4.1,1.4c1.3,0.1,2.5-0.1,3.6-0.8c0.3-0.1,0.5-0.3,0.6-0.5s0.3-0.4,0.3-0.5l-2.5-1.4l-2,1.1
		l-2.3-1.3l4.1-2.4l6,3.5c0.1,0.5-0.1,1-0.5,1.6c-0.4,0.5-0.9,1-1.7,1.5C159.5,321.7,158.3,322.1,157,322.3z"/>
	<path class="st5" d="M154.7,310.4c-0.5,0-1-0.1-1.4-0.4s-0.7-0.5-0.7-0.8c0-0.3,0.2-0.6,0.6-0.8s0.9-0.3,1.4-0.3
		c0.5,0,1,0.1,1.4,0.4s0.7,0.5,0.7,0.8c0,0.3-0.2,0.6-0.6,0.8C155.7,310.3,155.2,310.4,154.7,310.4z M156.4,311.7l2.4-1.4l10,5.8
		l-2.4,1.4L156.4,311.7z"/>
	<path class="st5" d="M163.3,306.8l0.7,0.4l1.6-0.9l2.2,1.3l-1.6,0.9l7.8,4.5l-2.4,1.4l-7.8-4.5l-1.2,0.7l-2.1-1.2l1.1-0.7l-0.7-0.4
		c-1.1-0.7-1.8-1.3-2-2c-0.2-0.7,0.2-1.3,1.3-1.9c0.6-0.4,1.3-0.6,2-0.8l1.6,1.4c-0.5,0.1-0.8,0.2-1.1,0.4
		C162.2,305.8,162.3,306.2,163.3,306.8z"/>
	<path class="st5" d="M177.9,310c-1.1-0.1-2.3-0.5-3.5-1.2l-4.3-2.5l-1.2,0.7l-2.1-1.2l1.2-0.8l-2.4-1.7l2-1.1l2.7,1.5l2.1-1.2
		l2.2,1.3l-2.1,1.2l4.2,2.5c1.1,0.6,2,0.7,2.8,0.3c0.2-0.1,0.5-0.3,0.7-0.6l2.4,0.9c-0.4,0.5-0.9,0.9-1.5,1.3
		C180.1,309.8,179,310.1,177.9,310z"/>
	<path class="st5" d="M184.7,306.6c-0.6,0-1.2-0.2-1.7-0.5c-0.5-0.3-0.8-0.6-0.9-1c-0.1-0.4,0.1-0.7,0.5-0.9
		c0.4-0.2,0.9-0.3,1.6-0.3c0.6,0,1.2,0.2,1.7,0.5c0.5,0.3,0.8,0.6,0.9,1c0.1,0.4-0.1,0.7-0.5,0.9
		C185.8,306.6,185.3,306.7,184.7,306.6z"/>
	<path class="st5" d="M178.1,296.9c-0.5,0-1-0.1-1.4-0.4s-0.7-0.5-0.7-0.8c0-0.3,0.2-0.6,0.6-0.8s0.9-0.3,1.4-0.3s1,0.1,1.4,0.4
		s0.7,0.5,0.7,0.8s-0.2,0.6-0.6,0.8C179.1,296.8,178.6,296.9,178.1,296.9z M179.8,298.2l2.4-1.4l10,5.8l-2.4,1.4L179.8,298.2z"/>
	<path class="st5" d="M195.9,300c-1.1,0.1-2.2,0.1-3.4-0.2c-1.2-0.2-2.3-0.7-3.4-1.3c-1.1-0.6-1.8-1.3-2.2-2
		c-0.4-0.7-0.5-1.3-0.3-1.9c0.2-0.6,0.7-1.1,1.5-1.6c0.7-0.4,1.6-0.7,2.7-0.8c1.1-0.1,2.2-0.1,3.4,0.2c1.2,0.2,2.3,0.7,3.4,1.3
		c1.1,0.6,1.8,1.3,2.2,1.9s0.5,1.3,0.3,1.9c-0.2,0.6-0.7,1.1-1.4,1.6C197.8,299.6,196.9,299.9,195.9,300z M196.8,296.7
		c-0.2-0.5-0.8-1-1.7-1.5c-0.9-0.5-1.8-0.9-2.7-1c-0.8-0.1-1.5,0-2.1,0.3c-0.6,0.3-0.7,0.7-0.5,1.2c0.2,0.5,0.8,1,1.8,1.5
		c0.9,0.5,1.8,0.9,2.6,1c0.8,0.1,1.5,0,2.1-0.3C196.9,297.6,197,297.2,196.8,296.7z"/>
</g>
</svg>
