<?xml version="1.0" encoding="utf-8"?>
<!-- Generator: Adobe Illustrator 23.0.3, SVG Export Plug-In . SVG Version: 6.00 Build 0)  -->
<svg version="1.1" xmlns="http://www.w3.org/2000/svg" xmlns:xlink="http://www.w3.org/1999/xlink" x="0px" y="0px"
	 viewBox="0 0 604 407" style="enable-background:new 0 0 604 407;" xml:space="preserve">
<style type="text/css">
	.st0{fill:#FAD151;}
	.st1{opacity:0.6;fill:#0C0F10;}
	.st2{fill:#505253;}
	.st3{fill:#7D8489;}
	.st4{fill:#C7CED3;}
	.st5{fill:#464849;}
	.st6{fill:#1F2223;}
	.st7{fill:#D6DBDF;}
	.st8{fill:#383B3C;}
	.st9{fill:#0C0F10;}
	.st10{fill:#4C6089;}
	.st11{fill:#D8DDE0;}
	.st12{fill:#FFFFFF;}
	.st13{fill:#AEB3BF;}
	.st14{fill:#9BA0AA;}
</style>
<g id="Linien">
	<g>
		<g>
			<path class="st0" d="M471.1,254.3c-0.4-0.8-1-1.7-1.7-2.4c-1-1.1-2.3-2.1-3.8-2.9l-14.1-8.1l-1.2-0.7l-128.6-74.2
				c-4-2.3-9.3-3.6-15-3.6c-5.7,0-11,1.3-15,3.6l-171.4,98.8c0,0-0.1,0-0.1,0.1c-0.4,0.2-0.8,0.5-1.2,0.8c-3.1,2.1-4.9,4.8-5.1,7.6
				c0,0.2,0,0.4,0,0.6c0,0.3,0,0.6,0,0.8c0.3,3.1,2.6,6,6.4,8.2l66.1,38.2l77.7,44.9c1.5,0.8,3.1,1.6,4.9,2.1
				c3.1,1,6.5,1.5,10.1,1.5c5.7,0,11-1.3,15-3.6l120.9-69.7l1.4-0.8l49.1-28.3c4.1-2.4,6.4-5.6,6.4-9
				C472,256.7,471.7,255.5,471.1,254.3z M464.9,265.9l-48.5,28l-1.2,0.7l-121.7,70.2c-3.8,2.2-8.9,3.4-14.3,3.4
				c-5.4,0-10.5-1.2-14.3-3.4l-77.5-44.8l-2.6-1.5L121,281.6c-3.6-2.1-5.7-4.9-5.8-7.8v-0.1c0-0.5,0.1-1,0.2-1.4
				c0.5-2.2,2.2-4.3,4.9-6.1c0.2-0.1,0.5-0.3,0.7-0.4l0.6-0.3L292.4,167c3.8-2.2,8.9-3.4,14.3-3.4c5.4,0,10.5,1.2,14.3,3.4l65.7,38
				l62.2,35.9l1.3,0.7l14.6,8.5c1.5,0.8,2.7,1.8,3.6,2.8c1.4,1.5,2.2,3.3,2.2,5.1C470.7,260.9,468.6,263.7,464.9,265.9z"/>
		</g>
		<g>
			<path class="st0" d="M516.7,277.5l-16.9-9.6l-18.5-10.7l-1.2-0.7L422,223c-1.5-0.8-3.1-1.5-4.8-2.1l62.2,35.9l-0.6,0.4l1.2,0.7
				l18.9,10.9l2.6,1.5l14.6,8.2c3.7,2.1,5.7,4.9,5.7,7.9c0,3-2,5.8-5.7,7.9l-171.4,98.8c-3.8,2.2-8.9,3.4-14.3,3.4
				c-5.4,0-10.5-1.2-14.3-3.4l-50.9-29.4l-1.3-0.7l-13.5-7.8l-29-16.6c-1.5-0.8-2.7-1.8-3.6-2.8l-2.6-1.5c0.4,0.9,1,1.7,1.7,2.5
				c1,1.1,2.3,2.1,3.8,2.9l41.9,24l1.3,0.7l51.5,29.8c4,2.3,9.3,3.6,15,3.6c5.7,0,11-1.3,15-3.6l171.4-98.8c4.1-2.4,6.4-5.6,6.4-9
				C523.1,283,520.8,279.8,516.7,277.5z"/>
		</g>
		<g>
			<path class="st0" d="M416.5,293.8l-1.2,0.7v0.1c0,0.5-0.1,1-0.2,1.4l1.4-0.8c0-0.2,0-0.4,0-0.6
				C416.5,294.4,416.5,294.1,416.5,293.8z M281.4,376.4l-43.3,25c-3.8,2.2-8.9,3.4-14.3,3.4c-5.4,0-10.5-1.2-14.3-3.4L65.5,318.3
				c-3.7-2.1-5.7-4.9-5.7-7.9c0-3,2-5.8,5.7-7.9l48.5-28l1.2-0.7l9.1-5.3l1.3-0.7l-1.3-0.7l-1.3,0.7l-7.7,4.4l-1.4,0.8l-49.1,28.3
				c-4.1,2.4-6.4,5.6-6.4,9c0,3.4,2.3,6.6,6.4,9l143.9,83.1c4,2.3,9.3,3.6,15,3.6c5.7,0,11-1.3,15-3.6l43.9-25.3l1.3-0.7l-1.3-0.7
				L281.4,376.4z"/>
		</g>
		<g>
			<path class="st0" d="M450.2,223.6l-143.9-83.1c-4-2.3-9.3-3.6-15-3.6c-5.6,0-11,1.3-15,3.6L105,239.4c-4.1,2.4-6.4,5.6-6.4,9
				c0,3.4,2.3,6.6,6.4,9l14.1,8.1l1.2,0.7l2.8,1.6l1.3,0.7l1.3-0.7l-1.3-0.7l-2.8-1.6l-1.3-0.7l-14.6-8.5c-3.7-2.1-5.8-5-5.8-7.9
				c0-3,2-5.8,5.8-7.9L277,141.6c3.8-2.2,8.9-3.4,14.3-3.4c5.4,0,10.5,1.2,14.4,3.4l143.9,83.1c3.7,2.1,5.7,4.9,5.7,7.9
				c0,2.8-1.8,5.4-5.1,7.5c-0.2,0.1-0.4,0.3-0.6,0.4c0,0,0,0-0.1,0l-0.6,0.3l-0.6,0.4l1.2,0.7l0.6-0.3c0,0,0.1,0,0.1,0
				c0.2-0.1,0.4-0.2,0.6-0.4c0.2-0.1,0.4-0.3,0.6-0.4c3.3-2.3,5.1-5.1,5.1-8.2C456.6,229.2,454.3,226,450.2,223.6z"/>
		</g>
	</g>
</g>
<g id="Schatten">
	<polygon class="st1" points="109.1,298.9 80.9,315 0,268.3 28.2,252.2 	"/>
	<polygon class="st1" points="278.8,201 250.7,217.1 169.7,170.4 197.9,154.3 	"/>
	<path class="st1" d="M298.5,234.6l102.2-59.1c5.3-3.1,13.9-3.1,19.2-0.1l76.6,43.9l32.4,18.6l10.8,6.2l43.4,24.9
		c1.3,0.8,2.3,1.6,3,2.6c0.1,0.1,0.1,0.2,0.1,0.2c0,0.1,0.1,0.1,0.1,0.2c0.1,0.2,0.2,0.4,0.3,0.6c0.1,0.2,0.2,0.4,0.2,0.5
		c0,0,0,0,0,0c0.7,2.4-0.5,5-3.8,6.9L480.9,339c-2.6,1.5-6.9,1.5-9.6,0l-155.6-89.1l-11.4-6.5l-5.8-3.3
		C295.8,238.6,295.8,236.1,298.5,234.6z"/>
	<path class="st1" d="M159.4,333l47.7-27.6c3-1.7,8.3-1.5,11.7,0.5l103.9,60c3.5,2,3.8,5,0.8,6.8l-47.7,27.6
		c-3,1.7-8.3,1.5-11.7-0.5l-103.9-60C156.8,337.8,156.4,334.7,159.4,333z"/>
</g>
<g id="Ebene_1">
	<g>
		<g>
			<g>
				<g>
					<path class="st2" d="M302.8,228.3l-1.5-1.7l0,4.1h0c0,1,0.7,2,2,2.8l175.3,101.2c2.7,1.5,7,1.5,9.7,0l103.2-59.7
						c2.7-1.6,4.1-3.7,4-5.7h0l0-4.1l-1.5,0.6c-0.6-0.7-1.5-1.4-2.5-2L426,168.2c-5.4-3.1-14.1-3.1-19.4,0l-103.3,59.7
						C303.1,228.1,303,228.2,302.8,228.3z"/>
					<path class="st3" d="M303.3,223.8l103.3-59.7c5.4-3.1,14.1-3.1,19.4,0l77.7,44.9l32.9,19l11,6.3l44.1,25.4
						c1.3,0.8,2.3,1.7,3,2.6c0.1,0.1,0.1,0.2,0.1,0.2c0,0.1,0.1,0.1,0.1,0.2c0.1,0.2,0.2,0.4,0.3,0.6c0.1,0.2,0.2,0.4,0.2,0.6
						c0,0,0,0,0,0c0.8,2.5-0.5,5.1-3.8,7l-103.3,59.7c-2.7,1.5-7,1.5-9.7,0l-157.9-91.2l-11.6-6.7l-5.9-3.4
						C300.7,227.9,300.7,225.4,303.3,223.8z"/>
					<path class="st4" d="M382.3,259c-0.7-0.4-0.7-1.1,0-1.5l27.9-16.1c1.4-0.8,3.7-0.8,5.1,0l20.3,11.7l8.6,5l2.9,1.6l11.5,6.7
						c0.4,0.2,0.6,0.4,0.8,0.7c0,0,0,0,0,0.1c0,0,0,0,0,0c0,0,0.1,0.1,0.1,0.2c0,0,0,0.1,0.1,0.2c0,0,0,0,0,0c0.2,0.6-0.1,1.3-1,1.8
						l-27.9,16.1c-0.7,0.4-1.8,0.4-2.5,0l-41.2-23.8l-3-1.7L382.3,259z"/>
				</g>
				<path class="st3" d="M419,23l-2.2-0.4l3.5-2.1h0c0.9-0.5,2.1-0.4,3.4,0.3l175.3,101.2c2.7,1.6,4.9,5.3,4.9,8.4v123.2
					c0,3.2-1.1,5.3-2.9,6.3l0,0l-3.5,2.1l-0.2-1.6c-0.9-0.2-1.9-0.6-3-1.2l-165.6-95.6c-5.4-3.1-9.7-10.6-9.7-16.8V23.6
					C419,23.4,419,23.2,419,23z"/>
				<path class="st5" d="M415.4,25.7v123.2c0,6.2,4.3,13.7,9.7,16.8l77.7,44.9l32.9,19l11,6.3l44.1,25.4c1.4,0.8,2.6,1.2,3.8,1.3
					c0.1,0,0.2,0,0.3,0c0.1,0,0.1,0,0.2,0c0.2,0,0.5,0,0.7,0c0.2,0,0.4,0,0.6-0.1c0,0,0,0,0,0c2.5-0.6,4.1-3,4.1-6.8V132.5
					c0-3.1-2.2-6.9-4.9-8.4L437.7,33l-11.6-6.7l-5.9-3.4C417.6,21.3,415.4,22.6,415.4,25.7z"/>
				<polygon class="st6" points="594.4,248.3 421.5,148.5 421.5,30.3 594.4,130.1 				"/>
				<g>
					<g>
						<polygon class="st4" points="501.5,226.9 510.9,232.4 513.6,230.8 504.1,225.4 						"/>
						<polygon class="st4" points="495.1,234 501.6,237.7 508.3,233.8 501.8,230.1 						"/>
						<polygon class="st4" points="492.1,221.5 498.8,225.4 501.5,223.9 494.8,220 						"/>
						<polygon class="st4" points="482.4,215.9 489.1,219.8 491.8,218.3 485.1,214.4 						"/>
						<polygon class="st4" points="472.7,210.4 479.5,214.2 482.2,212.7 475.4,208.8 						"/>
						<polygon class="st4" points="463.1,204.8 469.8,208.7 472.5,207.1 465.8,203.2 						"/>
						<polygon class="st4" points="453.4,199.2 460.1,203.1 462.8,201.5 456.1,197.6 						"/>
						<polygon class="st4" points="443.7,193.6 450.4,197.5 453.1,195.9 446.4,192.1 						"/>
						<polygon class="st4" points="434.1,188 440.8,191.9 443.5,190.4 436.7,186.5 						"/>
						<polygon class="st4" points="424.4,182.4 431.1,186.3 433.8,184.8 427.1,180.9 						"/>
						<polygon class="st4" points="414.7,176.9 421.4,180.7 424.1,179.2 417.4,175.3 						"/>
						<polygon class="st4" points="405,171.3 411.8,175.1 414.4,173.6 407.7,169.7 						"/>
						<polygon class="st4" points="482.4,238 491.8,243.4 498.5,239.5 489.1,234.1 						"/>
						<polygon class="st4" points="467.2,240.5 482,249 488.7,245.2 473.9,236.6 						"/>
						<polygon class="st4" points="462.2,249 472.2,254.7 478.9,250.8 469,245.1 						"/>
						<polygon class="st4" points="486.1,228.8 492.6,232.5 499.3,228.6 492.8,224.9 						"/>
						<polygon class="st4" points="477.1,223.5 483.5,227.3 490.3,223.4 483.8,219.7 						"/>
						<polygon class="st4" points="468,218.3 474.5,222.1 481.2,218.2 474.7,214.5 						"/>
						<polygon class="st4" points="459,213.1 465.5,216.9 472.2,213 465.7,209.2 						"/>
						<polygon class="st4" points="450,207.9 456.4,211.7 463.2,207.8 456.7,204 						"/>
						<polygon class="st4" points="440.9,202.7 447.4,206.4 454.1,202.6 447.6,198.8 						"/>
						<polygon class="st4" points="431.9,197.5 438.4,201.2 445.1,197.3 438.6,193.6 						"/>
						<polygon class="st4" points="422.9,192.3 429.3,196 436.1,192.1 429.6,188.4 						"/>
						<polygon class="st4" points="413.8,187.1 420.3,190.8 427,186.9 420.5,183.2 						"/>
						<polygon class="st4" points="404.8,181.8 411.3,185.6 418,181.7 411.5,178 						"/>
						<polygon class="st4" points="457.4,234.9 463.9,238.6 470.6,234.7 464.1,231 						"/>
						<polygon class="st4" points="448.4,229.7 454.9,233.4 461.6,229.5 455.1,225.8 						"/>
						<polygon class="st4" points="439.4,224.4 445.9,228.2 452.6,224.3 446.1,220.6 						"/>
						<polygon class="st4" points="430.3,219.2 436.8,223 443.5,219.1 437.1,215.4 						"/>
						<polygon class="st4" points="421.3,214 427.8,217.8 434.5,213.9 428,210.1 						"/>
						<polygon class="st4" points="412.3,208.8 418.8,212.5 425.5,208.7 419,204.9 						"/>
						<polygon class="st4" points="403.3,203.6 409.7,207.3 416.4,203.5 410,199.7 						"/>
						<polygon class="st4" points="394.2,198.4 400.7,202.1 407.4,198.2 400.9,194.5 						"/>
						<polygon class="st4" points="385.2,193.2 391.7,196.9 398.4,193 391.9,189.3 						"/>
						<polygon class="st4" points="376.3,188 382.8,191.8 389.5,187.9 383,184.2 						"/>
						<polygon class="st4" points="395.8,176.6 402.3,180.4 409,176.5 402.5,172.7 						"/>
						<polygon class="st4" points="472.9,232.3 479.4,236.1 486.1,232.2 479.6,228.5 						"/>
						<polygon class="st4" points="463.9,227.1 470.4,230.9 477.1,227 470.6,223.2 						"/>
						<polygon class="st4" points="454.9,221.9 461.3,225.7 468.1,221.8 461.6,218 						"/>
						<polygon class="st4" points="445.8,216.7 452.3,220.4 459,216.6 452.5,212.8 						"/>
						<polygon class="st4" points="436.8,211.5 443.3,215.2 450,211.3 443.5,207.6 						"/>
						<polygon class="st4" points="427.8,206.3 434.2,210 441,206.1 434.5,202.4 						"/>
						<polygon class="st4" points="418.7,201 425.2,204.8 431.9,200.9 425.4,197.2 						"/>
						<polygon class="st4" points="409.7,195.8 416.2,199.6 422.9,195.7 416.4,192 						"/>
						<polygon class="st4" points="400.7,190.6 407.2,194.4 413.9,190.5 407.4,186.7 						"/>
						<polygon class="st4" points="386.1,182.2 398.1,189.1 404.8,185.3 392.8,178.3 						"/>
						<polygon class="st4" points="453.3,243.7 459.8,247.4 466.5,243.5 460,239.8 						"/>
						<polygon class="st4" points="457.5,238.3 450.8,242.2 390.1,207.2 396.8,203.3 						"/>
						<polygon class="st4" points="381,201.9 387.5,205.7 394.3,201.8 387.8,198.1 						"/>
						<polygon class="st4" points="366.5,193.5 378.5,200.5 385.2,196.6 373.2,189.7 						"/>
					</g>
					<g>
						<polygon class="st4" points="574.5,269.2 581.2,273 583.9,271.5 577.2,267.6 						"/>
						<polygon class="st4" points="565,263.7 571.7,267.6 574.4,266 567.7,262.1 						"/>
						<polygon class="st4" points="555.6,258.2 562.3,262.1 565,260.6 558.3,256.7 						"/>
						<polygon class="st4" points="546.1,252.8 552.8,256.7 555.5,255.1 548.8,251.2 						"/>
						<polygon class="st4" points="562.2,276.2 569,280.1 575.7,276.2 568.9,272.3 						"/>
						<polygon class="st4" points="552.7,270.7 559.5,274.6 566.2,270.8 559.5,266.9 						"/>
						<polygon class="st4" points="543.3,265.3 550.1,269.2 556.8,265.3 550,261.4 						"/>
						<polygon class="st4" points="533.9,259.8 540.7,263.8 547.4,259.9 540.6,256 						"/>
						<polygon class="st4" points="553.6,281.1 560.4,285.1 567.1,281.2 560.3,277.3 						"/>
						<polygon class="st4" points="544.2,275.7 550.9,279.6 557.6,275.7 550.9,271.8 						"/>
						<polygon class="st4" points="534.7,270.2 541.5,274.2 548.2,270.3 541.4,266.4 						"/>
						<polygon class="st4" points="525.3,264.8 532.1,268.7 538.8,264.8 532,260.9 						"/>
						<polygon class="st4" points="545,286.1 551.8,290 558.5,286.1 551.7,282.2 						"/>
						<polygon class="st4" points="535.6,280.7 542.3,284.6 549.1,280.7 542.3,276.8 						"/>
						<polygon class="st4" points="526.1,275.2 532.9,279.1 539.6,275.2 532.8,271.3 						"/>
						<polygon class="st4" points="526.7,285.8 542.9,295.1 549.6,291.3 533.4,281.9 						"/>
						<polygon class="st4" points="517.3,280.3 524,284.2 530.7,280.4 524,276.5 						"/>
						<polygon class="st4" points="507.8,274.9 514.6,278.8 530.2,269.8 523.4,265.9 						"/>
					</g>
					<g>
						<polygon class="st4" points="534.5,246.4 541.2,250.3 543.9,248.7 537.2,244.9 						"/>
						<polygon class="st4" points="524.9,240.8 531.6,244.7 534.3,243.2 527.5,239.3 						"/>
						<polygon class="st4" points="515.4,235.4 522.1,239.3 524.8,237.7 518.1,233.8 						"/>
						<polygon class="st4" points="525.1,251.7 532,255.7 538.7,251.8 531.9,247.8 						"/>
						<polygon class="st4" points="515.6,246.2 522.5,250.2 529.2,246.3 522.4,242.3 						"/>
						<polygon class="st4" points="506.1,240.7 513,244.7 519.7,240.8 512.9,236.8 						"/>
						<polygon class="st4" points="516.3,256.8 523.1,260.8 529.8,256.9 523,252.9 						"/>
						<polygon class="st4" points="506.8,251.3 513.6,255.3 520.3,251.4 513.5,247.5 						"/>
						<polygon class="st4" points="497.3,245.8 504.1,249.8 510.8,245.9 504,242 						"/>
						<polygon class="st4" points="495.8,257.7 502.6,261.6 509.3,257.8 502.5,253.8 						"/>
						<polygon class="st4" points="496.4,268.3 503.2,272.3 509.9,268.4 503.1,264.4 						"/>
						<polygon class="st4" points="486.9,262.8 493.7,266.8 500.4,262.9 493.6,258.9 						"/>
						<polygon class="st4" points="477.4,257.3 484.2,261.3 490.9,257.4 484.1,253.5 						"/>
					</g>
				</g>
			</g>
		</g>
	</g>
	<g>
		<g>
			<polygon class="st7" points="190,237.2 109.1,283.9 28.2,237.2 34.7,233.4 41.9,229.3 43.4,228.4 54.9,221.8 58.2,219.9 
				68.6,213.8 70.2,213 81.6,206.3 81.6,206.3 84.9,204.4 95.4,198.4 96.9,197.5 108.3,190.9 109.1,190.5 109.9,190.9 136.6,206.3 
				136.6,206.3 163.3,221.8 183.5,233.4 			"/>
			<polygon class="st8" points="109.1,280.1 109.1,266.3 183.5,223.4 183.5,237.2 			"/>
			<polygon class="st9" points="109.1,266.3 109.1,280.1 34.7,237.2 34.7,223.4 43.4,228.4 			"/>
			<polygon class="st4" points="190,237.2 190,252.2 109.1,298.9 109.1,283.9 			"/>
			<polygon class="st7" points="190,206.3 163.3,221.8 109.1,253.1 54.9,221.8 28.2,206.3 34.7,202.6 41.9,198.4 43.4,197.5 
				54.9,190.9 54.9,190.9 58.2,189 68.6,183 70.2,182.1 81.6,175.5 83.5,174.4 109.1,159.6 134.7,174.4 136.6,175.5 163.3,190.9 
				163.3,190.9 183.5,202.5 			"/>
			<polygon class="st8" points="109.1,249.3 109.1,235.4 183.5,192.5 183.5,206.3 			"/>
			<polygon class="st9" points="109.1,235.4 109.1,249.3 58.2,219.9 34.7,206.3 34.7,192.5 43.4,197.5 70.2,213 			"/>
			<polygon class="st4" points="190,206.3 190,221.3 109.1,268.1 109.1,253.1 			"/>
			<polygon class="st7" points="190,175.5 163.3,190.9 136.6,206.3 109.1,222.2 81.6,206.3 54.9,190.9 28.2,175.5 34.7,171.7 
				41.9,167.6 43.4,166.7 54.9,160.1 56.8,159 74.5,148.8 109.1,128.8 125,137.9 161.5,159 163.3,160.1 183.5,171.7 183.5,171.7 			
				"/>
			<polygon class="st8" points="109.1,218.4 109.1,204.6 183.5,161.7 183.5,175.5 			"/>
			<polygon class="st9" points="109.1,204.6 109.1,218.4 84.9,204.4 58.2,189 34.7,175.5 34.7,161.7 43.4,166.7 70.2,182.1 
				96.9,197.5 			"/>
			<polygon class="st4" points="190,175.5 190,190.5 109.1,237.2 109.1,222.2 			"/>
			<polygon class="st4" points="190,144.6 190,159.6 109.1,206.4 109.1,191.4 			"/>
			<polygon class="st3" points="28.2,237.2 28.2,252.2 109.1,298.9 109.1,283.9 			"/>
			<polygon class="st3" points="109.1,253.1 109.1,268.1 41.9,229.3 34.7,225.1 28.2,221.3 28.2,206.3 54.9,221.8 			"/>
			<polygon class="st3" points="109.1,222.2 109.1,237.2 68.6,213.8 41.9,198.4 34.7,194.3 28.2,190.5 28.2,175.5 54.9,190.9 
				81.6,206.3 			"/>
			<polygon class="st3" points="109.1,191.4 109.1,206.3 95.4,198.4 68.6,183 41.9,167.6 34.7,163.4 28.2,159.6 28.2,144.6 
				54.9,160.1 81.6,175.5 108.3,190.9 			"/>
			<polygon class="st7" points="190,144.6 109.1,191.4 28.2,144.6 109.1,97.9 			"/>
			<polygon class="st10" points="186.9,144.3 109.1,189.2 31.3,144.3 109.1,99.4 			"/>
			<polygon class="st6" points="186.9,144.3 109.1,189.2 31.3,144.3 109.1,99.4 			"/>
			<polygon class="st0" points="112.4,269.2 120.3,264.7 120.3,266.1 112.4,270.7 			"/>
			<polygon class="st0" points="121.7,263.9 125.7,261.5 125.7,263 121.7,265.3 			"/>
			<polygon class="st0" points="127.1,260.7 136.4,255.3 136.4,256.8 127.1,262.2 			"/>
			<polygon class="st0" points="137.8,254.5 149.3,247.9 149.3,249.4 137.8,256 			"/>
			<polygon class="st0" points="150.7,247.1 153.6,245.4 153.6,246.9 150.7,248.6 			"/>
			<polygon class="st0" points="155,244.6 165.1,238.8 165.1,240.2 155,246.1 			"/>
			<polygon class="st0" points="166.5,238 173.4,234 173.4,235.5 166.5,239.4 			"/>
			<polygon class="st0" points="180.2,230.1 180.2,231.5 174.7,234.7 174.7,233.2 			"/>
			<polygon class="st0" points="112.4,273.4 116.3,271.2 116.3,272.6 112.4,274.9 			"/>
			<polygon class="st0" points="122.8,267.4 122.8,268.9 117.7,271.8 117.7,270.4 			"/>
			<polygon class="st0" points="133.7,261.1 133.7,262.6 124.2,268.1 124.2,266.6 			"/>
			<polygon class="st0" points="140.2,257.4 140.2,258.8 135.1,261.8 135.1,260.3 			"/>
			<polygon class="st0" points="144.3,255 144.3,256.5 141.6,258 141.6,256.5 			"/>
			<polygon class="st0" points="152.2,250.5 145.7,254.2 145.7,255.7 152.2,251.9 			"/>
			<polygon class="st0" points="153.7,249.6 153.7,251 159.4,247.8 159.4,246.3 			"/>
			<polygon class="st0" points="168.7,240.9 168.7,242.4 160.8,246.9 160.8,245.5 			"/>
			<polygon class="st0" points="173.5,238.2 170.1,240.1 170.1,241.6 173.5,239.6 			"/>
			<polygon class="st0" points="175,237.3 175,238.8 180.2,235.8 180.2,234.3 			"/>
			<polygon class="st0" points="105.5,269 97.6,264.5 97.6,265.9 105.5,270.5 			"/>
			<polygon class="st0" points="96.2,263.7 92.2,261.3 92.2,262.8 96.2,265.1 			"/>
			<polygon class="st0" points="90.8,260.5 81.5,255.1 81.5,256.6 90.8,262 			"/>
			<polygon class="st0" points="69,247.9 69,249.4 80.1,255.8 80.1,254.3 			"/>
			<polygon class="st0" points="105.5,273.2 101.6,271 101.6,272.4 105.5,274.7 			"/>
			<polygon class="st0" points="95.1,267.2 95.1,268.7 100.2,271.6 100.2,270.2 			"/>
			<polygon class="st0" points="84.2,260.9 84.2,262.4 93.7,267.9 93.7,266.4 			"/>
			<polygon class="st0" points="77.7,257.2 77.7,258.6 82.8,261.6 82.8,260.1 			"/>
			<polygon class="st0" points="73.6,254.8 73.6,256.3 76.3,257.8 76.3,256.3 			"/>
			<polygon class="st0" points="69,252.1 69,253.6 72.2,255.5 72.2,254 			"/>
			<polygon class="st0" points="112.4,238.4 120.3,233.8 120.3,235.3 112.4,239.9 			"/>
			<polygon class="st0" points="121.7,233 125.7,230.7 125.7,232.1 121.7,234.5 			"/>
			<polygon class="st0" points="127.1,229.9 136.4,224.5 136.4,226 127.1,231.3 			"/>
			<polygon class="st0" points="140.7,222 137.8,223.7 137.8,225.2 140.7,223.5 			"/>
			<polygon class="st0" points="141.9,221.3 141.9,222.8 149.3,218.5 149.3,217 			"/>
			<polygon class="st0" points="150.7,216.2 153.6,214.6 153.6,216 150.7,217.7 			"/>
			<polygon class="st0" points="159.9,210.9 155,213.8 155,215.2 159.9,212.4 			"/>
			<polygon class="st0" points="161.2,211.7 165.1,209.4 165.1,207.9 161.2,210.2 			"/>
			<polygon class="st0" points="166.5,207.1 173.4,203.2 173.4,204.6 166.5,208.6 			"/>
			<polygon class="st0" points="180.2,199.2 180.2,200.7 174.7,203.8 174.7,202.4 			"/>
			<polygon class="st0" points="112.4,242.6 116.3,240.3 116.3,241.8 112.4,244.1 			"/>
			<polygon class="st0" points="122.8,236.6 122.8,238 117.7,241 117.7,239.5 			"/>
			<polygon class="st0" points="133.7,230.3 133.7,231.7 124.2,237.2 124.2,235.8 			"/>
			<polygon class="st0" points="140.2,226.5 140.2,228 135.1,230.9 135.1,229.4 			"/>
			<polygon class="st0" points="144.3,224.1 144.3,225.6 141.6,227.2 141.6,225.7 			"/>
			<polygon class="st0" points="156.4,217.2 156.4,218.6 159.4,216.9 159.4,215.4 			"/>
			<polygon class="st0" points="155.2,217.9 145.7,223.3 145.7,224.8 155.2,219.3 			"/>
			<polygon class="st0" points="168.7,210.1 168.7,211.5 160.8,216.1 160.8,214.6 			"/>
			<polygon class="st0" points="180.2,203.4 180.2,204.9 170.1,210.7 170.1,209.3 			"/>
			<polygon class="st0" points="105.5,238.2 97.6,233.6 97.6,235.1 105.5,239.7 			"/>
			<polygon class="st0" points="96.2,232.8 92.2,230.5 92.2,231.9 96.2,234.3 			"/>
			<polygon class="st0" points="90.8,229.7 81.5,224.3 81.5,225.8 90.8,231.1 			"/>
			<polygon class="st0" points="69,217.1 69,218.5 80.1,225 80.1,223.5 			"/>
			<polygon class="st0" points="105.5,242.4 101.6,240.1 101.6,241.6 105.5,243.9 			"/>
			<polygon class="st0" points="95.1,236.4 95.1,237.8 100.2,240.8 100.2,239.3 			"/>
			<polygon class="st0" points="84.2,230.1 84.2,231.5 93.7,237 93.7,235.6 			"/>
			<polygon class="st0" points="77.7,226.3 77.7,227.8 82.8,230.7 82.8,229.3 			"/>
			<polygon class="st0" points="73.6,223.9 73.6,225.4 76.3,227 76.3,225.5 			"/>
			<polygon class="st0" points="69,221.3 69,222.8 72.2,224.6 72.2,223.1 			"/>
			<polygon class="st0" points="112.4,207.5 120.3,203 120.3,204.4 112.4,209 			"/>
			<polygon class="st0" points="121.7,202.2 125.7,199.8 125.7,201.3 121.7,203.6 			"/>
			<polygon class="st0" points="127.1,199 136.4,193.6 136.4,195.1 127.1,200.5 			"/>
			<polygon class="st0" points="137.8,192.8 149.3,186.2 149.3,187.7 137.8,194.3 			"/>
			<polygon class="st0" points="150.7,185.4 153.6,183.7 153.6,185.2 150.7,186.9 			"/>
			<polygon class="st0" points="155,182.9 165.1,177.1 165.1,178.5 155,184.4 			"/>
			<polygon class="st0" points="166.5,176.3 173.4,172.3 173.4,173.8 166.5,177.7 			"/>
			<polygon class="st0" points="180.2,168.4 180.2,169.8 174.7,173 174.7,171.5 			"/>
			<polygon class="st0" points="112.4,211.7 116.3,209.5 116.3,210.9 112.4,213.2 			"/>
			<polygon class="st0" points="122.8,205.7 122.8,207.2 117.7,210.1 117.7,208.7 			"/>
			<polygon class="st0" points="133.7,199.4 133.7,200.9 124.2,206.4 124.2,204.9 			"/>
			<polygon class="st0" points="140.2,195.6 140.2,197.1 135.1,200.1 135.1,198.6 			"/>
			<polygon class="st0" points="144.3,193.3 144.3,194.8 141.6,196.3 141.6,194.8 			"/>
			<polygon class="st0" points="159.4,184.6 159.4,186 145.7,194 145.7,192.5 			"/>
			<polygon class="st0" points="168.7,179.2 168.7,180.7 160.8,185.2 160.8,183.8 			"/>
			<polygon class="st0" points="180.2,172.6 180.2,174 170.1,179.9 170.1,178.4 			"/>
			<polygon class="st0" points="105.5,207.3 97.6,202.8 97.6,204.2 105.5,208.8 			"/>
			<polygon class="st0" points="96.2,202 92.2,199.6 92.2,201.1 96.2,203.4 			"/>
			<polygon class="st0" points="90.8,198.8 81.5,193.4 81.5,194.9 90.8,200.3 			"/>
			<polygon class="st0" points="69,186.2 69,187.7 80.1,194.1 80.1,192.6 			"/>
			<polygon class="st0" points="105.5,211.5 101.6,209.3 101.6,210.7 105.5,213 			"/>
			<polygon class="st0" points="95.1,205.5 95.1,207 100.2,209.9 100.2,208.5 			"/>
			<polygon class="st0" points="84.2,199.2 84.2,200.7 93.7,206.2 93.7,204.7 			"/>
			<polygon class="st0" points="77.7,195.4 77.7,196.9 82.8,199.9 82.8,198.4 			"/>
			<polygon class="st0" points="73.6,193.1 73.6,194.6 76.3,196.1 76.3,194.6 			"/>
			<polygon class="st0" points="69,190.4 69,191.9 72.2,193.8 72.2,192.3 			"/>
			<polygon class="st0" points="67.4,247.1 59.5,242.5 59.5,244 67.4,248.5 			"/>
			<polygon class="st0" points="58.1,241.7 54.1,239.3 54.1,240.8 58.1,243.2 			"/>
			<polygon class="st0" points="52.7,238.5 43.4,233.2 43.4,234.7 52.7,240 			"/>
			<polygon class="st0" points="38.7,230.5 38.7,231.9 42,233.9 42,232.4 			"/>
			<polygon class="st0" points="67.4,251.3 63.5,249 63.5,250.5 67.4,252.8 			"/>
			<polygon class="st0" points="57,245.2 57,246.7 62.1,249.7 62.1,248.2 			"/>
			<polygon class="st0" points="46.1,238.9 46.1,240.4 55.6,245.9 55.6,244.4 			"/>
			<polygon class="st0" points="39.6,235.2 39.6,236.7 44.7,239.6 44.7,238.1 			"/>
			<polygon class="st0" points="67.4,216.2 59.5,211.6 59.5,213.1 67.4,217.7 			"/>
			<polygon class="st0" points="58.1,210.8 54.1,208.5 54.1,210 58.1,212.3 			"/>
			<polygon class="st0" points="52.7,207.7 43.4,202.3 43.4,203.8 52.7,209.2 			"/>
			<polygon class="st0" points="38.7,199.6 38.7,201.1 42,203 42,201.5 			"/>
			<polygon class="st0" points="67.4,220.4 63.5,218.2 63.5,219.6 67.4,221.9 			"/>
			<polygon class="st0" points="57,214.4 57,215.9 62.1,218.8 62.1,217.3 			"/>
			<polygon class="st0" points="46.1,208.1 46.1,209.6 55.6,215.1 55.6,213.6 			"/>
			<polygon class="st0" points="39.6,204.3 39.6,205.8 44.7,208.8 44.7,207.3 			"/>
			<polygon class="st0" points="67.4,185.4 59.5,180.8 59.5,182.3 67.4,186.8 			"/>
			<polygon class="st0" points="58.1,180 54.1,177.6 54.1,179.1 58.1,181.5 			"/>
			<polygon class="st0" points="52.7,176.8 43.4,171.5 43.4,173 52.7,178.3 			"/>
			<polygon class="st0" points="38.7,168.8 38.7,170.2 42,172.1 42,170.7 			"/>
			<polygon class="st0" points="67.4,189.6 63.5,187.3 63.5,188.8 67.4,191 			"/>
			<polygon class="st0" points="57,183.5 57,185 62.1,188 62.1,186.5 			"/>
			<polygon class="st0" points="46.1,177.2 46.1,178.7 55.6,184.2 55.6,182.7 			"/>
			<polygon class="st0" points="39.6,173.5 39.6,175 44.7,177.9 44.7,176.4 			"/>
		</g>
	</g>
	<g>
		<g>
			<polygon class="st7" points="359.8,139.3 278.8,186 197.9,139.3 204.5,135.5 211.6,131.4 213.2,130.5 224.6,123.9 227.9,122 
				238.4,115.9 239.9,115 251.3,108.4 251.3,108.4 254.6,106.5 265.1,100.5 266.6,99.6 278.1,93 278.8,92.6 279.6,93 306.3,108.4 
				306.3,108.4 333.1,123.9 353.2,135.5 			"/>
			<polygon class="st8" points="278.8,182.2 278.8,168.4 353.2,125.5 353.2,139.3 			"/>
			<polygon class="st9" points="278.8,168.4 278.8,182.2 204.5,139.3 204.5,125.5 213.2,130.5 			"/>
			<polygon class="st4" points="359.8,139.3 359.8,154.3 278.8,201 278.8,186 			"/>
			<polygon class="st7" points="359.8,108.4 333.1,123.9 278.8,155.2 224.6,123.9 197.9,108.4 204.5,104.6 211.6,100.5 213.2,99.6 
				224.6,93 224.6,93 227.9,91.1 238.4,85.1 239.9,84.2 251.4,77.6 253.2,76.5 278.8,61.7 304.5,76.5 306.3,77.6 333.1,93 333.1,93 
				353.2,104.6 			"/>
			<polygon class="st8" points="278.8,151.4 278.8,137.5 353.2,94.6 353.2,108.4 			"/>
			<polygon class="st9" points="278.8,137.5 278.8,151.4 227.9,122 204.5,108.4 204.5,94.6 213.2,99.6 239.9,115 			"/>
			<polygon class="st4" points="359.8,108.4 359.8,123.4 278.8,170.2 278.8,155.2 			"/>
			<polygon class="st7" points="359.8,77.6 333.1,93 306.3,108.4 278.8,124.3 251.3,108.4 224.6,93 197.9,77.6 204.5,73.8 
				211.6,69.6 213.2,68.8 224.6,62.2 226.5,61.1 244.2,50.9 278.8,30.9 294.7,40 331.2,61.1 333.1,62.2 353.2,73.8 353.2,73.8 			
				"/>
			<polygon class="st8" points="278.8,120.5 278.8,106.7 353.2,63.8 353.2,77.6 			"/>
			<polygon class="st9" points="278.8,106.7 278.8,120.5 254.6,106.5 227.9,91.1 204.5,77.6 204.5,63.7 213.2,68.8 239.9,84.2 
				266.6,99.6 			"/>
			<polygon class="st4" points="359.8,77.6 359.8,92.6 278.8,139.3 278.8,124.3 			"/>
			<polygon class="st4" points="359.8,46.7 359.8,61.7 278.8,108.4 278.8,93.5 			"/>
			<polygon class="st3" points="197.9,139.3 197.9,154.3 278.8,201 278.8,186 			"/>
			<polygon class="st3" points="278.8,155.2 278.8,170.2 211.6,131.4 204.5,127.2 197.9,123.4 197.9,108.4 224.6,123.9 			"/>
			<polygon class="st3" points="278.8,124.3 278.8,139.3 238.4,115.9 211.6,100.5 204.5,96.4 197.9,92.6 197.9,77.6 224.6,93 
				251.3,108.4 			"/>
			<polygon class="st3" points="278.8,93.5 278.8,108.4 265.1,100.5 238.4,85.1 211.6,69.6 204.5,65.5 197.9,61.7 197.9,46.7 
				224.6,62.2 251.4,77.6 278.1,93 			"/>
			<polygon class="st7" points="359.8,46.7 278.8,93.5 197.9,46.7 278.8,0 			"/>
			<polygon class="st10" points="356.6,46.4 278.8,91.3 201,46.4 278.8,1.4 			"/>
			<polygon class="st6" points="356.6,46.4 278.8,91.3 201,46.4 278.8,1.4 			"/>
			<polygon class="st0" points="282.1,171.3 290,166.8 290,168.2 282.1,172.8 			"/>
			<polygon class="st0" points="291.4,166 295.5,163.6 295.5,165.1 291.4,167.4 			"/>
			<polygon class="st0" points="296.9,162.8 306.1,157.4 306.1,158.9 296.9,164.3 			"/>
			<polygon class="st0" points="307.5,156.6 319,150 319,151.5 307.5,158.1 			"/>
			<polygon class="st0" points="320.4,149.2 323.3,147.5 323.3,149 320.4,150.7 			"/>
			<polygon class="st0" points="324.7,146.7 334.9,140.9 334.9,142.3 324.7,148.2 			"/>
			<polygon class="st0" points="336.3,140.1 343.1,136.1 343.1,137.6 336.3,141.5 			"/>
			<polygon class="st0" points="349.9,132.2 349.9,133.6 344.5,136.8 344.5,135.3 			"/>
			<polygon class="st0" points="282.1,175.5 286,173.3 286,174.7 282.1,177 			"/>
			<polygon class="st0" points="292.6,169.5 292.6,171 287.4,173.9 287.4,172.5 			"/>
			<polygon class="st0" points="303.5,163.2 303.5,164.7 294,170.2 294,168.7 			"/>
			<polygon class="st0" points="310,159.4 310,160.9 304.9,163.9 304.9,162.4 			"/>
			<polygon class="st0" points="314,157.1 314,158.6 311.4,160.1 311.4,158.6 			"/>
			<polygon class="st0" points="321.9,152.5 315.4,156.3 315.4,157.8 321.9,154 			"/>
			<polygon class="st0" points="323.4,151.7 323.4,153.1 329.2,149.8 329.2,148.4 			"/>
			<polygon class="st0" points="338.4,143 338.4,144.5 330.5,149 330.5,147.6 			"/>
			<polygon class="st0" points="343.2,140.3 339.8,142.2 339.8,143.7 343.2,141.7 			"/>
			<polygon class="st0" points="344.7,139.4 344.7,140.9 349.9,137.8 349.9,136.4 			"/>
			<polygon class="st0" points="275.3,171.1 267.4,166.6 267.4,168 275.3,172.6 			"/>
			<polygon class="st0" points="266,165.8 261.9,163.4 261.9,164.9 266,167.2 			"/>
			<polygon class="st0" points="260.5,162.6 251.2,157.2 251.2,158.7 260.5,164.1 			"/>
			<polygon class="st0" points="238.7,150 238.7,151.5 249.8,157.9 249.8,156.4 			"/>
			<polygon class="st0" points="275.3,175.3 271.3,173.1 271.3,174.5 275.3,176.8 			"/>
			<polygon class="st0" points="264.8,169.3 264.8,170.8 269.9,173.7 269.9,172.3 			"/>
			<polygon class="st0" points="253.9,163 253.9,164.5 263.4,170 263.4,168.5 			"/>
			<polygon class="st0" points="247.4,159.2 247.4,160.7 252.5,163.7 252.5,162.2 			"/>
			<polygon class="st0" points="243.3,156.9 243.3,158.4 246,159.9 246,158.4 			"/>
			<polygon class="st0" points="238.7,154.2 238.7,155.7 241.9,157.6 241.9,156.1 			"/>
			<polygon class="st0" points="282.1,140.5 290,135.9 290,137.4 282.1,141.9 			"/>
			<polygon class="st0" points="291.4,135.1 295.5,132.8 295.5,134.2 291.4,136.6 			"/>
			<polygon class="st0" points="296.9,131.9 306.1,126.6 306.1,128.1 296.9,133.4 			"/>
			<polygon class="st0" points="310.4,124.1 307.5,125.8 307.5,127.3 310.4,125.6 			"/>
			<polygon class="st0" points="311.6,123.4 311.6,124.9 319,120.6 319,119.1 			"/>
			<polygon class="st0" points="320.4,118.3 323.3,116.7 323.3,118.1 320.4,119.8 			"/>
			<polygon class="st0" points="329.6,113 324.7,115.9 324.7,117.3 329.6,114.5 			"/>
			<polygon class="st0" points="330.9,113.8 334.9,111.5 334.9,110 330.9,112.3 			"/>
			<polygon class="st0" points="336.3,109.2 343.1,105.3 343.1,106.7 336.3,110.7 			"/>
			<polygon class="st0" points="349.9,101.3 349.9,102.8 344.5,105.9 344.5,104.5 			"/>
			<polygon class="st0" points="282.1,144.7 286,142.4 286,143.9 282.1,146.2 			"/>
			<polygon class="st0" points="292.6,138.7 292.6,140.1 287.4,143.1 287.4,141.6 			"/>
			<polygon class="st0" points="303.5,132.3 303.5,133.8 294,139.3 294,137.8 			"/>
			<polygon class="st0" points="310,128.6 310,130.1 304.9,133 304.9,131.5 			"/>
			<polygon class="st0" points="314,126.2 314,127.7 311.4,129.3 311.4,127.8 			"/>
			<polygon class="st0" points="326.1,119.3 326.1,120.7 329.2,119 329.2,117.5 			"/>
			<polygon class="st0" points="324.9,120 315.4,125.4 315.4,126.9 324.9,121.4 			"/>
			<polygon class="st0" points="338.4,112.2 338.4,113.6 330.5,118.2 330.5,116.7 			"/>
			<polygon class="st0" points="349.9,105.5 349.9,107 339.8,112.8 339.8,111.4 			"/>
			<polygon class="st0" points="275.3,140.3 267.4,135.7 267.4,137.2 275.3,141.7 			"/>
			<polygon class="st0" points="266,134.9 261.9,132.5 261.9,134 266,136.4 			"/>
			<polygon class="st0" points="260.5,131.7 251.2,126.4 251.2,127.9 260.5,133.2 			"/>
			<polygon class="st0" points="238.7,119.2 238.7,120.6 249.8,127.1 249.8,125.6 			"/>
			<polygon class="st0" points="275.3,144.5 271.3,142.2 271.3,143.7 275.3,146 			"/>
			<polygon class="st0" points="264.8,138.5 264.8,139.9 269.9,142.9 269.9,141.4 			"/>
			<polygon class="st0" points="253.9,132.1 253.9,133.6 263.4,139.1 263.4,137.6 			"/>
			<polygon class="st0" points="247.4,128.4 247.4,129.9 252.5,132.8 252.5,131.3 			"/>
			<polygon class="st0" points="243.3,126 243.3,127.5 246,129.1 246,127.6 			"/>
			<polygon class="st0" points="238.7,123.4 238.7,124.9 241.9,126.7 241.9,125.2 			"/>
			<polygon class="st0" points="282.1,109.6 290,105 290,106.5 282.1,111.1 			"/>
			<polygon class="st0" points="291.4,104.2 295.5,101.9 295.5,103.4 291.4,105.7 			"/>
			<polygon class="st0" points="296.9,101.1 306.1,95.7 306.1,97.2 296.9,102.6 			"/>
			<polygon class="st0" points="307.5,94.9 319,88.3 319,89.8 307.5,96.4 			"/>
			<polygon class="st0" points="320.4,87.5 323.3,85.8 323.3,87.3 320.4,89 			"/>
			<polygon class="st0" points="324.7,85 334.9,79.2 334.9,80.6 324.7,86.5 			"/>
			<polygon class="st0" points="336.3,78.3 343.1,74.4 343.1,75.9 336.3,79.8 			"/>
			<polygon class="st0" points="349.9,70.4 349.9,71.9 344.5,75.1 344.5,73.6 			"/>
			<polygon class="st0" points="282.1,113.8 286,111.6 286,113 282.1,115.3 			"/>
			<polygon class="st0" points="292.6,107.8 292.6,109.3 287.4,112.2 287.4,110.7 			"/>
			<polygon class="st0" points="303.5,101.5 303.5,103 294,108.5 294,107 			"/>
			<polygon class="st0" points="310,97.7 310,99.2 304.9,102.2 304.9,100.7 			"/>
			<polygon class="st0" points="314,95.4 314,96.9 311.4,98.4 311.4,96.9 			"/>
			<polygon class="st0" points="329.2,86.7 329.2,88.1 315.4,96.1 315.4,94.6 			"/>
			<polygon class="st0" points="338.4,81.3 338.4,82.8 330.5,87.3 330.5,85.9 			"/>
			<polygon class="st0" points="349.9,74.7 349.9,76.1 339.8,82 339.8,80.5 			"/>
			<polygon class="st0" points="275.3,109.4 267.4,104.8 267.4,106.3 275.3,110.9 			"/>
			<polygon class="st0" points="266,104 261.9,101.7 261.9,103.2 266,105.5 			"/>
			<polygon class="st0" points="260.5,100.9 251.2,95.5 251.2,97 260.5,102.4 			"/>
			<polygon class="st0" points="238.7,88.3 238.7,89.8 249.8,96.2 249.8,94.7 			"/>
			<polygon class="st0" points="275.3,113.6 271.3,111.4 271.3,112.8 275.3,115.1 			"/>
			<polygon class="st0" points="264.8,107.6 264.8,109.1 269.9,112 269.9,110.5 			"/>
			<polygon class="st0" points="253.9,101.3 253.9,102.8 263.4,108.3 263.4,106.8 			"/>
			<polygon class="st0" points="247.4,97.5 247.4,99 252.5,102 252.5,100.5 			"/>
			<polygon class="st0" points="243.3,95.2 243.3,96.7 246,98.2 246,96.7 			"/>
			<polygon class="st0" points="238.7,92.5 238.7,94 241.9,95.9 241.9,94.4 			"/>
			<polygon class="st0" points="237.1,149.2 229.2,144.6 229.2,146.1 237.2,150.6 			"/>
			<polygon class="st0" points="227.9,143.8 223.8,141.4 223.8,142.9 227.9,145.3 			"/>
			<polygon class="st0" points="222.4,140.6 213.1,135.3 213.1,136.8 222.4,142.1 			"/>
			<polygon class="st0" points="208.4,132.6 208.4,134 211.7,135.9 211.7,134.5 			"/>
			<polygon class="st0" points="237.2,153.4 233.2,151.1 233.2,152.6 237.2,154.8 			"/>
			<polygon class="st0" points="226.7,147.3 226.7,148.8 231.8,151.8 231.8,150.3 			"/>
			<polygon class="st0" points="215.8,141 215.8,142.5 225.3,148 225.3,146.5 			"/>
			<polygon class="st0" points="209.3,137.3 209.3,138.8 214.4,141.7 214.4,140.2 			"/>
			<polygon class="st0" points="237.1,118.3 229.2,113.7 229.2,115.2 237.2,119.8 			"/>
			<polygon class="st0" points="227.9,112.9 223.8,110.6 223.8,112.1 227.9,114.4 			"/>
			<polygon class="st0" points="222.4,109.8 213.1,104.4 213.1,105.9 222.4,111.3 			"/>
			<polygon class="st0" points="208.4,101.7 208.4,103.2 211.7,105.1 211.7,103.6 			"/>
			<polygon class="st0" points="237.2,122.5 233.2,120.2 233.2,121.7 237.2,124 			"/>
			<polygon class="st0" points="226.7,116.5 226.7,118 231.8,120.9 231.8,119.4 			"/>
			<polygon class="st0" points="215.8,110.2 215.8,111.7 225.3,117.2 225.3,115.7 			"/>
			<polygon class="st0" points="209.3,106.4 209.3,107.9 214.4,110.9 214.4,109.4 			"/>
			<polygon class="st0" points="237.1,87.4 229.2,82.9 229.2,84.4 237.2,88.9 			"/>
			<polygon class="st0" points="227.9,82.1 223.8,79.7 223.8,81.2 227.9,83.6 			"/>
			<polygon class="st0" points="222.4,78.9 213.1,73.6 213.1,75 222.4,80.4 			"/>
			<polygon class="st0" points="208.4,70.9 208.4,72.3 211.7,74.2 211.7,72.8 			"/>
			<polygon class="st0" points="237.2,91.7 233.2,89.4 233.2,90.9 237.2,93.1 			"/>
			<polygon class="st0" points="226.7,85.6 226.7,87.1 231.8,90.1 231.8,88.6 			"/>
			<polygon class="st0" points="215.8,79.3 215.8,80.8 225.3,86.3 225.3,84.8 			"/>
			<polygon class="st0" points="209.3,75.6 209.3,77 214.4,80 214.4,78.5 			"/>
		</g>
	</g>
	<g>
		<path class="st4" d="M282.1,396.6l49.3-28.5c3.1-1.8,4.8-9.3-0.9-12.6l-107.4-56.4c-3.6-2.1-9-2.3-12.1-0.5l-49.3,22.9
			c-4.4,2.3-2.7,10.5,0.9,12.6l107.4,62C273.5,398.2,279,398.4,282.1,396.6z"/>
		<path class="st11" d="M282.1,393.8l49.3-28.5c3.1-1.8,3.6-7.5-0.9-9.8l-107.4-59.2c-3.6-2.1-9-2.3-12.1-0.5l-49.3,25.7
			c-3.8,2-2.7,7.7,0.9,9.8l107.4,62C273.5,395.4,279,395.6,282.1,393.8z"/>
		<g>
			<path class="st6" d="M226.8,299.2l93.9,54.2l-54.5,31.5l-93.9-54.2L226.8,299.2z"/>
		</g>
		<g>
			<path class="st6" d="M226.8,299.2l93.9,54.2l-54.5,31.5l-93.9-54.2L226.8,299.2z"/>
		</g>
		<path class="st12" d="M161.7,321.5L211,293c3.1-1.8,8.5-1.6,12.1,0.5l107.4,62c3.6,2.1,4,5.2,0.9,7L282.1,391
			c-3.1,1.8-8.5,1.6-12.1-0.5l-107.4-62C159,326.5,158.6,323.3,161.7,321.5z M266.2,384.9l54.5-31.5l-93.9-54.2l-54.5,31.5
			L266.2,384.9z"/>
		<ellipse transform="matrix(1 -5.423482e-03 5.423482e-03 1 -2.0184 1.6331)" class="st4" cx="300.1" cy="373" rx="6" ry="3.5"/>
		<path class="st4" d="M187.9,315c0.3,0,0.6-0.1,0.8-0.2l10.6-6.1c0.2-0.1,0.4-0.3,0.4-0.5c0-0.3-0.2-0.5-0.5-0.7
			c-0.3-0.2-0.7-0.3-1-0.3c-0.3,0-0.6,0.1-0.8,0.2l-10.6,6.1c-0.2,0.1-0.4,0.3-0.4,0.5c0,0.3,0.2,0.5,0.5,0.7
			C187.1,314.9,187.5,315,187.9,315z"/>
		<path class="st13" d="M304.3,382.2l4.8-2.8c0.4-0.2,0.8-0.9,0.8-1.4l0,0c0-0.6-0.3-0.8-0.8-0.6l-4.8,2.8c-0.4,0.2-0.8,0.9-0.8,1.4
			l0,0C303.6,382.2,303.9,382.5,304.3,382.2z"/>
		<path class="st14" d="M303.6,381.7c0-0.6,0.3-1.2,0.8-1.4l4.1-2.4c0,0,0,0,0,0l0,0c0,0.6-0.3,1.2-0.8,1.4L303.6,381.7
			C303.6,381.7,303.6,381.7,303.6,381.7L303.6,381.7z"/>
	</g>
	<g>
		<path class="st0" d="M181.6,325.3l16.2,9.3c4.2,2.4,10.7,2.7,14.3,0.6c3.7-2.1,3.2-5.8-1-8.3l-16.2-9.3L181.6,325.3z"/>
		<g>
			<path class="st6" d="M204.2,332.5c-0.9,0-1.8-0.3-2.6-0.7c-1.5-0.9-1.6-2.2-0.4-2.9c0.6-0.4,1.5-0.5,2.4-0.5l-0.2-1.5
				c-1.6-0.1-3.1,0.2-4.2,0.9c-2.2,1.3-1.9,3.5,0.6,5c1.3,0.7,2.9,1.2,4.5,1.2L204.2,332.5z"/>
			<path class="st6" d="M207.4,330.3c0.3,0.6,0,1.3-0.8,1.8c-0.1,0.1-0.3,0.2-0.5,0.2l0.2,1.7c0.8-0.1,1.6-0.4,2.2-0.7
				c1.4-0.8,1.8-1.9,1.3-3.1L207.4,330.3z"/>
		</g>
	</g>
	<g>
		<path class="st0" d="M436.7,38.9v20.7c0,5.4,4.4,12.4,9.8,15.5c5.4,3.1,9.8,1.3,9.8-4.1V50.2L436.7,38.9z"/>
		<g>
			<path class="st6" d="M444.1,65.7c-0.6-1-1-2.1-1-3c0-1.9,1.5-2.5,3.4-1.5c0.9,0.5,1.8,1.4,2.4,2.4l1.8-0.7
				c-1.1-1.7-2.6-3.2-4.2-4.2c-3.3-1.9-5.9-0.8-5.9,2.5c0,1.6,0.7,3.5,1.7,5.2L444.1,65.7z"/>
			<path class="st6" d="M449.3,68.2c-0.6,0.5-1.7,0.5-2.8-0.2c-0.2-0.1-0.4-0.3-0.6-0.4l-2,0.8c0.8,0.8,1.7,1.6,2.6,2.1
				c2,1.2,3.8,1.2,4.9,0.3L449.3,68.2z"/>
		</g>
	</g>
</g>
<g id="Ebene_5">
</g>
</svg>
