<?xml version="1.0" encoding="utf-8"?>
<!-- Generator: Adobe Illustrator 23.0.3, SVG Export Plug-In . SVG Version: 6.00 Build 0)  -->
<svg version="1.1" xmlns="http://www.w3.org/2000/svg" xmlns:xlink="http://www.w3.org/1999/xlink" x="0px" y="0px"
	 viewBox="0 0 480 302.7" style="enable-background:new 0 0 480 302.7;" xml:space="preserve">
<style type="text/css">
	.st0{fill:#FAD151;}
	.st1{fill:#1F2223;}
	.st2{fill:#5C656B;}
	.st3{fill:#7D8489;}
	.st4{fill:#131617;}
	.st5{fill:#FFFFFF;}
	.st6{fill:none;stroke:#FAD151;stroke-width:3.4016;stroke-miterlimit:10;}
	.st7{fill-rule:evenodd;clip-rule:evenodd;fill:none;stroke:#FFFFFF;stroke-width:3.4016;stroke-miterlimit:10;}
	.st8{fill:none;stroke:#FFFFFF;stroke-width:3.4016;stroke-miterlimit:10;}
	.st9{fill:#2E3133;}
	.st10{opacity:0.6;fill:#FFFFFF;}
</style>
<g id="Karten">
</g>
<g id="Ebene_3">
	<g>
		<path class="st3" d="M462.2,0h-33.8l-18,16l-18-16H17.8C8,0,0,8,0,17.8v267c0,9.8,8,17.8,17.8,17.8h444.3c9.8,0,17.8-8,17.8-17.8
			v-267C480,8,472,0,462.2,0z"/>
		<g>
			<path class="st5" d="M139.7,181.5h5.6V168h-5v-4.4c1.5-0.3,2.7-0.6,3.8-1c1-0.4,2.1-0.9,3.1-1.5h5.2v20.5h4.7v5.7h-17.4V181.5z"
				/>
			<path class="st5" d="M162.6,186.4c-0.8-0.8-1.2-1.8-1.2-3.1s0.4-2.2,1.2-3.1s1.8-1.2,3-1.2c1.2,0,2.2,0.4,3,1.2s1.2,1.8,1.2,3.1
				s-0.4,2.2-1.2,3.1c-0.8,0.8-1.8,1.2-3,1.2C164.4,187.7,163.4,187.3,162.6,186.4z"/>
			<path class="st5" d="M179.3,160.4h17.5v5.9h-10.4v5.1h8.9v5.9h-8.9v9.8h-7.1V160.4z"/>
			<path class="st5" d="M205.6,186.1c-1.9-1-3.5-2.6-4.6-4.6c-1.2-2.1-1.7-4.6-1.7-7.5c0-2.9,0.6-5.4,1.8-7.5
				c1.2-2.1,2.8-3.8,4.7-4.9c2-1.1,4.1-1.7,6.4-1.7c1.7,0,3.2,0.3,4.6,1c1.4,0.7,2.7,1.5,3.7,2.6l-3.7,4.5c-0.7-0.7-1.5-1.2-2.1-1.5
				c-0.7-0.3-1.5-0.5-2.3-0.5c-1,0-2,0.3-2.9,0.9c-0.9,0.6-1.6,1.5-2.1,2.7c-0.5,1.2-0.8,2.5-0.8,4.1c0,2.5,0.5,4.4,1.6,5.8
				c1,1.4,2.4,2.1,4.2,2.1c1.8,0,3.4-0.8,4.9-2.3l3.7,4.5c-1.1,1.3-2.4,2.3-3.9,3c-1.5,0.7-3.1,1-4.9,1
				C209.7,187.7,207.5,187.2,205.6,186.1z"/>
			<path class="st5" d="M228.7,160.4h7.1v10h8v-10h7.1v26.8h-7.1v-10.6h-8v10.6h-7.1V160.4z"/>
			<path class="st5" d="M269.7,181.5h-7.5l-1.3,5.7h-7.3l8.2-26.8h8.6l8.2,26.8H271L269.7,181.5z M268.4,176l-0.5-1.9
				c-0.4-1.4-0.7-2.9-1.1-4.6l-0.9-3.9h-0.2l-0.2,1.2c-0.6,3-1.2,5.5-1.7,7.3l-0.5,1.9H268.4z"/>
			<path class="st5" d="M281.3,160.4h7.6l4,11c0.2,0.6,0.5,1.4,0.8,2.6l0.6,2.1h0.2l0.6-2.1c0.3-1.2,0.6-2,0.8-2.6l3.9-11h7.6v26.8
				H301v-7.9c0-1,0.1-2.3,0.2-3.9c0.2-1.6,0.3-3.1,0.5-4.5l0.1-1.2h-0.2l-2.2,6.4l-3.3,8.9h-3.8l-3.3-8.9l-2.1-6.4h-0.2l0.1,1.2
				c0.2,1.4,0.4,2.9,0.5,4.5s0.2,2.9,0.2,3.9v7.9h-6.4V160.4z"/>
			<path class="st5" d="M313,160.4h9.7c3.1,0,5.6,0.5,7.4,1.5c1.8,1,2.7,2.7,2.7,5.2c0,1.2-0.3,2.4-0.9,3.5
				c-0.6,1.1-1.4,1.9-2.4,2.3v0.2c1.4,0.4,2.5,1.1,3.3,2.2c0.9,1,1.3,2.4,1.3,4.1c0,2.6-1,4.6-3,5.9s-4.5,2-7.6,2H313V160.4z
				 M322.5,170.8c1.1,0,2-0.2,2.5-0.7c0.6-0.5,0.8-1.1,0.8-2c0-0.8-0.3-1.4-0.8-1.8c-0.6-0.4-1.4-0.5-2.6-0.5h-2.4v5H322.5z
				 M323,181.7c2.8,0,4.1-1,4.1-3c0-1-0.3-1.7-1-2.1c-0.7-0.4-1.7-0.6-3.1-0.6h-2.9v5.7H323z"/>
			<path class="st5" d="M340.5,184.4c-1.8-2.2-2.7-5.6-2.7-10.2v-13.9h7.1v14.7c0,2.4,0.3,4,1,5c0.6,1,1.7,1.5,3.1,1.5
				c1.4,0,2.5-0.5,3.1-1.5c0.7-1,1-2.7,1-5v-14.7h6.9v13.9c0,4.6-0.9,8-2.7,10.2c-1.8,2.2-4.6,3.3-8.3,3.3
				C345.1,187.7,342.3,186.6,340.5,184.4z"/>
			<path class="st5" d="M379.7,187.2l-4.6-9h-2.7v9h-7.1v-26.8h10.2c3.2,0,5.8,0.7,7.8,2c2,1.3,3,3.6,3,6.7c0,1.8-0.4,3.4-1.2,4.7
				c-0.8,1.3-1.8,2.3-3.2,3.1l5.8,10.4H379.7z M372.4,172.6h2.6c1.4,0,2.5-0.3,3.2-0.9c0.7-0.6,1.1-1.5,1.1-2.6
				c0-1.1-0.4-1.9-1.1-2.4c-0.7-0.5-1.8-0.7-3.2-0.7h-2.6V172.6z"/>
			<path class="st5" d="M396.1,186.1c-2.1-1-3.7-2.6-4.9-4.6s-1.8-4.6-1.8-7.5c0-2.9,0.6-5.4,1.8-7.5c1.2-2.1,2.8-3.8,4.9-4.9
				c2-1.1,4.3-1.7,6.7-1.7c1.8,0,3.5,0.3,5,1c1.5,0.7,2.7,1.5,3.8,2.6l-3.7,4.5c-0.7-0.7-1.5-1.2-2.2-1.5c-0.7-0.3-1.6-0.5-2.6-0.5
				c-1.9,0-3.4,0.7-4.6,2.1c-1.2,1.4-1.8,3.3-1.8,5.7c0,2.6,0.6,4.5,1.7,5.8c1.2,1.3,2.9,2,5.3,2c0.9,0,1.6-0.2,2.1-0.5v-3.7h-4
				v-5.8h10.2v12.8c-1,1-2.3,1.8-3.9,2.4s-3.3,0.9-5.2,0.9C400.5,187.7,398.2,187.2,396.1,186.1z"/>
		</g>
		<g>
			<path class="st0" d="M141.6,205.5H153v2.5h-8.4v5.9h7.1v2.5h-7.1v8.3h-3V205.5z"/>
			<path class="st0" d="M160,223.8c-1.3-0.8-2.2-2-2.9-3.5c-0.7-1.5-1.1-3.3-1.1-5.3c0-2,0.4-3.8,1.1-5.3c0.7-1.5,1.7-2.6,2.9-3.4
				c1.3-0.8,2.7-1.2,4.3-1.2c1.6,0,3.1,0.4,4.3,1.2c1.3,0.8,2.2,1.9,2.9,3.4c0.7,1.5,1.1,3.2,1.1,5.3c0,2-0.4,3.8-1.1,5.3
				c-0.7,1.5-1.7,2.7-2.9,3.5c-1.3,0.8-2.7,1.2-4.3,1.2C162.7,225,161.2,224.6,160,223.8z M167.1,221.5c0.8-0.6,1.4-1.5,1.8-2.6
				c0.4-1.1,0.6-2.4,0.6-3.9c0-2.2-0.5-4-1.4-5.3c-1-1.3-2.2-1.9-3.8-1.9s-2.9,0.6-3.8,1.9c-1,1.3-1.4,3.1-1.4,5.3
				c0,1.5,0.2,2.8,0.6,3.9c0.4,1.1,1,2,1.8,2.6c0.8,0.6,1.7,0.9,2.8,0.9C165.4,222.4,166.3,222.1,167.1,221.5z"/>
			<path class="st0" d="M180.6,223.8c-1.3-0.8-2.2-2-2.9-3.5c-0.7-1.5-1.1-3.3-1.1-5.3c0-2,0.4-3.8,1.1-5.3c0.7-1.5,1.7-2.6,2.9-3.4
				c1.3-0.8,2.7-1.2,4.3-1.2c1.6,0,3.1,0.4,4.3,1.2c1.3,0.8,2.2,1.9,2.9,3.4c0.7,1.5,1.1,3.2,1.1,5.3c0,2-0.4,3.8-1.1,5.3
				c-0.7,1.5-1.7,2.7-2.9,3.5c-1.3,0.8-2.7,1.2-4.3,1.2C183.3,225,181.9,224.6,180.6,223.8z M187.7,221.5c0.8-0.6,1.4-1.5,1.8-2.6
				c0.4-1.1,0.6-2.4,0.6-3.9c0-2.2-0.5-4-1.4-5.3c-1-1.3-2.2-1.9-3.8-1.9s-2.9,0.6-3.8,1.9c-1,1.3-1.4,3.1-1.4,5.3
				c0,1.5,0.2,2.8,0.6,3.9c0.4,1.1,1,2,1.8,2.6c0.8,0.6,1.7,0.9,2.8,0.9C186,222.4,186.9,222.1,187.7,221.5z"/>
			<path class="st0" d="M201.7,208H196v-2.5h14.3v2.5h-5.7v16.7h-3V208z"/>
			<path class="st0" d="M214.4,205.5h5.9c2.1,0,3.7,0.4,4.9,1.1c1.2,0.8,1.8,1.9,1.8,3.6c0,1-0.2,1.8-0.7,2.6
				c-0.5,0.8-1.2,1.3-2,1.6v0.1c1.2,0.3,2.1,0.8,2.8,1.5c0.7,0.8,1,1.8,1,3c0,1.8-0.7,3.2-2,4.2c-1.3,1-3.1,1.4-5.3,1.4h-6.4V205.5z
				 M220,213.5c2.8,0,4.2-1,4.2-2.9c0-1-0.3-1.7-1-2.1c-0.7-0.4-1.7-0.6-3.1-0.6h-2.7v5.7H220z M220.5,222.3c1.5,0,2.7-0.3,3.5-0.8
				c0.8-0.6,1.2-1.4,1.2-2.6c0-2.1-1.6-3.1-4.7-3.1h-3.1v6.6H220.5z"/>
			<path class="st0" d="M241.9,219.2h-6.7l-1.6,5.5h-3l6.4-19.2h3.5l6.4,19.2h-3.2L241.9,219.2z M241.2,216.8l-0.8-2.6
				c-0.3-0.9-0.6-2-0.9-3.2c-0.3-1.2-0.6-2.1-0.7-2.6c0-0.2-0.1-0.3-0.1-0.6h-0.1c-0.6,2.4-1.2,4.5-1.8,6.4l-0.8,2.6H241.2z"/>
			<path class="st0" d="M250.5,205.5h3v16.7h8.1v2.5h-11.1V205.5z"/>
			<path class="st0" d="M265.7,205.5h3v16.7h8.1v2.5h-11.1V205.5z"/>
			<path class="st0" d="M291.5,223.9c-1.3-0.8-2.3-1.9-3-3.4c-0.7-1.5-1.1-3.3-1.1-5.3c0-2,0.4-3.8,1.1-5.3c0.8-1.5,1.8-2.7,3.1-3.5
				c1.3-0.8,2.8-1.2,4.4-1.2c1.1,0,2.1,0.2,3.1,0.7c0.9,0.4,1.7,1,2.4,1.7l-1.6,1.9c-1.1-1.2-2.4-1.7-3.7-1.7
				c-1.1,0-2.1,0.3-2.9,0.9c-0.8,0.6-1.5,1.4-2,2.5s-0.7,2.4-0.7,3.9c0,2.3,0.5,4.1,1.5,5.4c1,1.3,2.4,2,4.1,2c1.6,0,3-0.7,4.2-2
				l1.6,1.9c-1.6,1.9-3.6,2.8-6,2.8C294.3,225,292.8,224.6,291.5,223.9z"/>
			<path class="st0" d="M306,205.5h3v16.7h8.1v2.5H306V205.5z"/>
			<path class="st0" d="M322.6,223c-1.2-1.4-1.9-3.5-1.9-6.5v-11h3v11.2c0,2.1,0.4,3.5,1.1,4.4c0.7,0.9,1.7,1.3,3,1.3
				c2.8,0,4.2-1.9,4.2-5.8v-11.2h2.9v11c0,3-0.6,5.2-1.9,6.5c-1.2,1.4-3,2-5.2,2C325.6,225,323.9,224.4,322.6,223z"/>
			<path class="st0" d="M340.7,205.5h5.9c2.1,0,3.7,0.4,4.9,1.1c1.2,0.8,1.8,1.9,1.8,3.6c0,1-0.2,1.8-0.7,2.6
				c-0.5,0.8-1.2,1.3-2,1.6v0.1c1.2,0.3,2.1,0.8,2.8,1.5c0.7,0.8,1,1.8,1,3c0,1.8-0.7,3.2-2,4.2c-1.3,1-3.1,1.4-5.3,1.4h-6.4V205.5z
				 M346.3,213.5c2.8,0,4.2-1,4.2-2.9c0-1-0.3-1.7-1-2.1c-0.7-0.4-1.7-0.6-3.1-0.6h-2.7v5.7H346.3z M346.7,222.3
				c1.5,0,2.7-0.3,3.5-0.8c0.8-0.6,1.2-1.4,1.2-2.6c0-2.1-1.6-3.1-4.7-3.1h-3.1v6.6H346.7z"/>
		</g>
		<g>
			<path class="st9" d="M54.6,41.8L50,32.6h1.8l2,4.4l0.4,0.9c0.6,1.3,1,2.2,1.1,2.4h0.1l0.4-0.8c0.7-1.4,1-2.2,1.2-2.5l2-4.4h1.8
				l-4.6,9.3v6h-1.7V41.8z"/>
			<path class="st9" d="M63.9,47.4c-0.8-0.5-1.4-1.2-1.9-2c-0.5-0.9-0.7-1.9-0.7-3.2c0-1.2,0.2-2.3,0.7-3.2c0.5-0.9,1.1-1.6,1.9-2.1
				c0.8-0.5,1.7-0.7,2.6-0.7c0.9,0,1.8,0.2,2.6,0.7c0.8,0.5,1.4,1.2,1.9,2.1c0.5,0.9,0.7,2,0.7,3.2c0,1.2-0.2,2.3-0.7,3.2
				c-0.5,0.9-1.1,1.6-1.9,2c-0.8,0.5-1.7,0.7-2.6,0.7C65.6,48.1,64.7,47.9,63.9,47.4z M68.3,46.1c0.5-0.4,0.9-0.9,1.2-1.6
				c0.3-0.7,0.4-1.5,0.4-2.3c0-0.9-0.1-1.7-0.4-2.3c-0.3-0.7-0.7-1.2-1.2-1.6s-1.1-0.6-1.8-0.6c-0.7,0-1.3,0.2-1.8,0.6
				s-0.9,0.9-1.2,1.6s-0.4,1.5-0.4,2.3c0,1.3,0.3,2.4,1,3.3s1.5,1.2,2.5,1.2C67.2,46.7,67.8,46.5,68.3,46.1z"/>
			<path class="st9" d="M75.8,47c-0.6-0.7-0.8-1.8-0.8-3.3v-7.2h1.7v7c0,1.1,0.2,1.9,0.5,2.4s0.9,0.8,1.7,0.8c0.6,0,1.1-0.2,1.6-0.5
				c0.5-0.3,1-0.8,1.6-1.5v-8.1h1.7v11.3h-1.4L82.2,46h-0.1c-0.6,0.7-1.2,1.2-1.8,1.5s-1.3,0.5-2,0.5C77.2,48.1,76.3,47.7,75.8,47z"
				/>
			<path class="st9" d="M87.8,36.6h1.4l0.1,2.1h0.1c0.4-0.7,0.9-1.3,1.4-1.7c0.6-0.4,1.2-0.6,1.8-0.6c0.4,0,0.8,0.1,1.2,0.2L93.5,38
				c-0.4-0.1-0.8-0.2-1.1-0.2c-0.5,0-1.1,0.2-1.6,0.7s-1,1.1-1.3,2v7.3h-1.7V36.6z"/>
			<path class="st9" d="M102,46.6c-0.8-1-1.2-2.5-1.2-4.3c0-1.2,0.2-2.2,0.7-3.1c0.4-0.9,1-1.6,1.8-2.1c0.8-0.5,1.6-0.7,2.4-0.7
				c0.6,0,1.1,0.1,1.6,0.3c0.5,0.2,1,0.6,1.6,1l-0.1-2v-4.4h1.7v16.6h-1.4l-0.1-1.4h-0.1c-0.5,0.5-1,0.9-1.6,1.2s-1.2,0.5-1.9,0.5
				C103.9,48.1,102.8,47.6,102,46.6z M107.3,46.3c0.5-0.3,1-0.7,1.5-1.2V39c-0.5-0.4-1-0.7-1.4-0.9s-0.9-0.3-1.4-0.3
				c-0.6,0-1.2,0.2-1.7,0.6c-0.5,0.4-0.9,0.9-1.2,1.6c-0.3,0.7-0.5,1.4-0.5,2.3c0,1.4,0.3,2.5,0.8,3.3c0.6,0.8,1.4,1.2,2.4,1.2
				C106.3,46.7,106.8,46.5,107.3,46.3z"/>
			<path class="st9" d="M114.6,33.8c-0.2-0.2-0.3-0.5-0.3-0.9c0-0.3,0.1-0.6,0.3-0.8c0.2-0.2,0.5-0.3,0.8-0.3s0.6,0.1,0.8,0.3
				c0.2,0.2,0.3,0.5,0.3,0.8c0,0.4-0.1,0.6-0.3,0.9c-0.2,0.2-0.5,0.3-0.8,0.3S114.8,34,114.6,33.8z M114.6,36.6h1.7v11.3h-1.7V36.6z
				"/>
			<path class="st9" d="M120.7,52.3c-0.8-0.5-1.3-1.3-1.3-2.2c0-0.5,0.1-0.9,0.4-1.4c0.3-0.4,0.7-0.9,1.2-1.2v-0.1
				c-0.3-0.2-0.5-0.4-0.7-0.7c-0.2-0.3-0.3-0.7-0.3-1.1c0-0.4,0.1-0.8,0.4-1.2c0.2-0.4,0.5-0.7,0.9-0.9v-0.1c-0.4-0.3-0.7-0.8-1-1.3
				c-0.3-0.5-0.4-1.1-0.4-1.7c0-0.8,0.2-1.5,0.6-2.1s0.9-1.1,1.5-1.4c0.6-0.3,1.3-0.5,2.1-0.5c0.5,0,1,0.1,1.6,0.3h3.9v1.3h-2.4
				c0.3,0.3,0.5,0.6,0.7,1.1c0.2,0.4,0.3,0.9,0.3,1.4c0,0.8-0.2,1.5-0.5,2.1s-0.8,1.1-1.5,1.4c-0.6,0.3-1.3,0.5-2.1,0.5
				c-0.6,0-1.2-0.1-1.7-0.4c-0.2,0.2-0.4,0.4-0.6,0.6c-0.1,0.2-0.2,0.5-0.2,0.8c0,0.4,0.2,0.7,0.5,0.9c0.3,0.2,0.8,0.3,1.5,0.3h2.3
				c1.3,0,2.3,0.2,2.9,0.7s1,1.1,1,2c0,0.7-0.2,1.3-0.7,1.9c-0.5,0.6-1.1,1.1-2,1.4c-0.9,0.4-1.8,0.5-2.9,0.5
				C122.7,53.1,121.6,52.8,120.7,52.3z M126.3,51.5c0.6-0.2,1-0.5,1.3-0.9c0.3-0.4,0.5-0.8,0.5-1.2c0-0.5-0.2-0.9-0.6-1.1
				s-1-0.3-1.8-0.3h-2.1c-0.5,0-1-0.1-1.4-0.2c-0.8,0.6-1.2,1.2-1.2,2c0,0.6,0.3,1.1,0.9,1.5s1.4,0.6,2.5,0.6
				C125.1,51.9,125.7,51.8,126.3,51.5z M125.9,42.3c0.5-0.5,0.7-1.2,0.7-2c0-0.8-0.2-1.5-0.7-2c-0.5-0.5-1.1-0.8-1.8-0.8
				c-0.7,0-1.3,0.3-1.8,0.8c-0.5,0.5-0.7,1.2-0.7,2c0,0.8,0.2,1.5,0.7,2c0.5,0.5,1.1,0.8,1.8,0.8C124.8,43.1,125.4,42.8,125.9,42.3z
				"/>
			<path class="st9" d="M132.4,33.8c-0.2-0.2-0.3-0.5-0.3-0.9c0-0.3,0.1-0.6,0.3-0.8c0.2-0.2,0.5-0.3,0.8-0.3s0.6,0.1,0.8,0.3
				c0.2,0.2,0.3,0.5,0.3,0.8c0,0.4-0.1,0.6-0.3,0.9c-0.2,0.2-0.5,0.3-0.8,0.3S132.6,34,132.4,33.8z M132.4,36.6h1.7v11.3h-1.7V36.6z
				"/>
			<path class="st9" d="M139.3,47.2c-0.5-0.6-0.7-1.5-0.7-2.7V38h-1.7v-1.3l1.8-0.1l0.2-3.2h1.4v3.2h3.1V38h-3.1v6.5
				c0,0.7,0.1,1.3,0.4,1.7s0.7,0.6,1.4,0.6c0.3,0,0.8-0.1,1.3-0.3l0.3,1.3c-0.8,0.3-1.5,0.4-2,0.4C140.6,48.1,139.8,47.8,139.3,47.2
				z"/>
			<path class="st9" d="M146.8,47.3c-0.6-0.6-0.9-1.3-0.9-2.3c0-1.2,0.6-2.2,1.7-2.8c1.1-0.7,2.9-1.1,5.3-1.4c0-0.9-0.2-1.6-0.5-2.2
				c-0.4-0.6-1-0.8-1.9-0.8c-1.1,0-2.2,0.4-3.4,1.2l-0.7-1.2c1.5-1,2.9-1.5,4.4-1.5c1.3,0,2.3,0.4,2.9,1.2c0.6,0.8,0.9,1.9,0.9,3.4
				v7h-1.4l-0.1-1.4h-0.1c-1.3,1.1-2.6,1.7-3.8,1.7C148.2,48.1,147.4,47.8,146.8,47.3z M151.2,46.4c0.5-0.3,1.1-0.7,1.7-1.2v-3.3
				c-1.9,0.2-3.3,0.6-4.1,1.1c-0.8,0.5-1.2,1.1-1.2,1.9c0,0.6,0.2,1.1,0.6,1.4c0.4,0.3,0.9,0.5,1.5,0.5
				C150.1,46.7,150.7,46.6,151.2,46.4z"/>
			<path class="st9" d="M158.9,47.5c-0.3-0.4-0.4-1-0.4-1.8V31.2h1.7v14.7c0,0.3,0.1,0.5,0.2,0.6s0.2,0.2,0.4,0.2c0.1,0,0.3,0,0.4,0
				l0.2,1.3c-0.3,0.1-0.6,0.2-1,0.2C159.7,48.1,159.2,47.9,158.9,47.5z"/>
			<path class="st9" d="M170.5,52.3c-0.8-0.5-1.3-1.3-1.3-2.2c0-0.5,0.1-0.9,0.4-1.4c0.3-0.4,0.7-0.9,1.2-1.2v-0.1
				c-0.3-0.2-0.5-0.4-0.7-0.7c-0.2-0.3-0.3-0.7-0.3-1.1c0-0.4,0.1-0.8,0.4-1.2c0.2-0.4,0.5-0.7,0.9-0.9v-0.1c-0.4-0.3-0.7-0.8-1-1.3
				c-0.3-0.5-0.4-1.1-0.4-1.7c0-0.8,0.2-1.5,0.6-2.1s0.9-1.1,1.5-1.4c0.6-0.3,1.3-0.5,2.1-0.5c0.5,0,1,0.1,1.6,0.3h3.9v1.3h-2.4
				c0.3,0.3,0.5,0.6,0.7,1.1c0.2,0.4,0.3,0.9,0.3,1.4c0,0.8-0.2,1.5-0.5,2.1s-0.8,1.1-1.5,1.4c-0.6,0.3-1.3,0.5-2.1,0.5
				c-0.6,0-1.2-0.1-1.7-0.4c-0.2,0.2-0.4,0.4-0.6,0.6c-0.1,0.2-0.2,0.5-0.2,0.8c0,0.4,0.2,0.7,0.5,0.9c0.3,0.2,0.8,0.3,1.5,0.3h2.3
				c1.3,0,2.3,0.2,2.9,0.7s1,1.1,1,2c0,0.7-0.2,1.3-0.7,1.9c-0.5,0.6-1.1,1.1-2,1.4c-0.9,0.4-1.8,0.5-2.9,0.5
				C172.5,53.1,171.3,52.8,170.5,52.3z M176,51.5c0.6-0.2,1-0.5,1.3-0.9c0.3-0.4,0.5-0.8,0.5-1.2c0-0.5-0.2-0.9-0.6-1.1
				s-1-0.3-1.8-0.3h-2.1c-0.5,0-1-0.1-1.4-0.2c-0.8,0.6-1.2,1.2-1.2,2c0,0.6,0.3,1.1,0.9,1.5s1.4,0.6,2.5,0.6
				C174.8,51.9,175.5,51.8,176,51.5z M175.6,42.3c0.5-0.5,0.7-1.2,0.7-2c0-0.8-0.2-1.5-0.7-2c-0.5-0.5-1.1-0.8-1.8-0.8
				c-0.7,0-1.3,0.3-1.8,0.8c-0.5,0.5-0.7,1.2-0.7,2c0,0.8,0.2,1.5,0.7,2c0.5,0.5,1.1,0.8,1.8,0.8C174.5,43.1,175.1,42.8,175.6,42.3z
				"/>
			<path class="st9" d="M182.1,33.8c-0.2-0.2-0.3-0.5-0.3-0.9c0-0.3,0.1-0.6,0.3-0.8c0.2-0.2,0.5-0.3,0.8-0.3s0.6,0.1,0.8,0.3
				c0.2,0.2,0.3,0.5,0.3,0.8c0,0.4-0.1,0.6-0.3,0.9c-0.2,0.2-0.5,0.3-0.8,0.3S182.4,34,182.1,33.8z M182.1,36.6h1.7v11.3h-1.7V36.6z
				"/>
			<path class="st9" d="M189.9,34.6v1.9h2.4V38h-2.4v9.9h-1.7V38h-1.5v-1.3l1.5-0.1v-2c0-1.2,0.3-2.1,0.8-2.7c0.5-0.6,1.3-1,2.4-1
				c0.6,0,1.2,0.1,1.8,0.4l-0.4,1.3c-0.4-0.2-0.9-0.3-1.3-0.3C190.5,32.3,189.9,33.1,189.9,34.6z"/>
			<path class="st9" d="M196.8,47.2c-0.5-0.6-0.7-1.5-0.7-2.7V38h-1.7v-1.3l1.8-0.1l0.2-3.2h1.4v3.2h3.1V38h-3.1v6.5
				c0,0.7,0.1,1.3,0.4,1.7s0.7,0.6,1.4,0.6c0.3,0,0.8-0.1,1.3-0.3l0.3,1.3c-0.8,0.3-1.5,0.4-2,0.4C198.1,48.1,197.3,47.8,196.8,47.2
				z"/>
			<path class="st9" d="M211,47.4c-0.8-0.5-1.4-1.2-1.9-2c-0.5-0.9-0.7-1.9-0.7-3.2c0-1.2,0.2-2.3,0.7-3.2c0.5-0.9,1.1-1.6,2-2.1
				c0.8-0.5,1.7-0.7,2.7-0.7c1.2,0,2.3,0.4,3.3,1.3l-0.9,1.1c-0.4-0.3-0.7-0.6-1.1-0.8s-0.8-0.3-1.2-0.3c-0.7,0-1.3,0.2-1.9,0.6
				c-0.6,0.4-1,0.9-1.3,1.6c-0.3,0.7-0.5,1.5-0.5,2.3c0,1.3,0.3,2.4,1,3.3c0.7,0.8,1.5,1.2,2.6,1.2c1,0,1.9-0.4,2.7-1.2l0.7,1.1
				c-0.5,0.4-1.1,0.8-1.7,1.1c-0.6,0.3-1.3,0.4-1.9,0.4C212.7,48.1,211.8,47.9,211,47.4z"/>
			<path class="st9" d="M220.6,47.3c-0.6-0.6-0.9-1.3-0.9-2.3c0-1.2,0.6-2.2,1.7-2.8c1.1-0.7,2.9-1.1,5.3-1.4c0-0.9-0.2-1.6-0.5-2.2
				c-0.4-0.6-1-0.8-1.9-0.8c-1.1,0-2.2,0.4-3.4,1.2l-0.7-1.2c1.5-1,2.9-1.5,4.4-1.5c1.3,0,2.3,0.4,2.9,1.2c0.6,0.8,0.9,1.9,0.9,3.4
				v7H227l-0.1-1.4h-0.1c-1.3,1.1-2.6,1.7-3.8,1.7C222,48.1,221.2,47.8,220.6,47.3z M225,46.4c0.5-0.3,1.1-0.7,1.7-1.2v-3.3
				c-1.9,0.2-3.3,0.6-4.1,1.1c-0.8,0.5-1.2,1.1-1.2,1.9c0,0.6,0.2,1.1,0.6,1.4c0.4,0.3,0.9,0.5,1.5,0.5
				C224,46.7,224.5,46.6,225,46.4z"/>
			<path class="st9" d="M232.3,36.6h1.4l0.1,2.1h0.1c0.4-0.7,0.9-1.3,1.4-1.7c0.6-0.4,1.2-0.6,1.8-0.6c0.4,0,0.8,0.1,1.2,0.2L238,38
				c-0.4-0.1-0.8-0.2-1.1-0.2c-0.5,0-1.1,0.2-1.6,0.7s-1,1.1-1.3,2v7.3h-1.7V36.6z"/>
			<path class="st9" d="M241,46.6c-0.8-1-1.2-2.5-1.2-4.3c0-1.2,0.2-2.2,0.7-3.1c0.4-0.9,1-1.6,1.8-2.1c0.8-0.5,1.6-0.7,2.4-0.7
				c0.6,0,1.1,0.1,1.6,0.3c0.5,0.2,1,0.6,1.6,1l-0.1-2v-4.4h1.7v16.6H248l-0.1-1.4h-0.1c-0.5,0.5-1,0.9-1.6,1.2s-1.2,0.5-1.9,0.5
				C242.9,48.1,241.8,47.6,241,46.6z M246.3,46.3c0.5-0.3,1-0.7,1.5-1.2V39c-0.5-0.4-1-0.7-1.4-0.9s-0.9-0.3-1.4-0.3
				c-0.6,0-1.2,0.2-1.7,0.6c-0.5,0.4-0.9,0.9-1.2,1.6c-0.3,0.7-0.5,1.4-0.5,2.3c0,1.4,0.3,2.5,0.8,3.3c0.6,0.8,1.4,1.2,2.4,1.2
				C245.3,46.7,245.8,46.5,246.3,46.3z"/>
		</g>
		<g>
			<path class="st9" d="M392.2,0v38c0,10,8.1,18,18,18c10,0,18-8.1,18-18V0H392.2z"/>
			<g>
				<path class="st3" d="M405.8,41.4c-1.1-1.1-1.9-2.7-1.9-4.5c0-3.5,2.8-6.3,6.3-6.3c1.7,0,3.3,0.7,4.5,1.9l3.3-3.3
					c-2-2-4.7-3.2-7.7-3.2c-6,0-10.9,4.9-10.9,10.9c0,3,1.2,5.7,3.2,7.7L405.8,41.4z"/>
				<path class="st3" d="M415.5,40.5c-1.1,1.6-3,2.7-5.2,2.7c-0.4,0-0.8,0-1.2-0.1l-3.6,3.6c1.4,0.7,3.1,1.1,4.8,1.1
					c3.7,0,7-1.8,9-4.7L415.5,40.5z"/>
			</g>
		</g>
		<g>
			<path class="st5" d="M97.7,196.7c-4.7,0-10.6-0.8-18-3v41.9c5.4,0,29.7-11.4,29.7-34.8v-6.6c-2.5,1.4-6.1,2.5-11.3,2.5
				C98,196.7,97.8,196.7,97.7,196.7z"/>
			<path class="st5" d="M79.7,153.2v32.9c0.2,0.1,0.5,0.1,0.7,0.2c7.5,2.2,13.1,3,17.3,3c9-0.1,11.1-3.3,11.6-4V157
				C109.3,157,91.3,153.2,79.7,153.2z"/>
			<path class="st10" d="M61.6,190.5c-8.9,0.1-11.1,3.3-11.6,4v6.3c0,23.4,24.2,34.8,29.7,34.8v-41.9c-0.2-0.1-0.5-0.1-0.7-0.2
				C71.4,191.2,65.8,190.5,61.6,190.5z"/>
			<path class="st10" d="M50,157v28.6c2.6-1.4,6.3-2.6,11.6-2.5c4.7,0,10.6,0.8,18,3v-32.9C68.1,153.2,50,157,50,157z"/>
		</g>
	</g>
</g>
</svg>
