<?xml version="1.0" encoding="utf-8"?>
<!-- Generator: Adobe Illustrator 23.0.3, SVG Export Plug-In . SVG Version: 6.00 Build 0)  -->
<svg version="1.1" xmlns="http://www.w3.org/2000/svg" xmlns:xlink="http://www.w3.org/1999/xlink" x="0px" y="0px"
	 viewBox="0 0 480 302.7" style="enable-background:new 0 0 480 302.7;" xml:space="preserve">
<style type="text/css">
	.st0{fill:#FAD151;}
	.st1{fill:#1F2223;}
	.st2{fill:#5C656B;}
	.st3{fill:#7D8489;}
	.st4{fill:#131617;}
	.st5{fill:#FFFFFF;}
	.st6{fill:none;stroke:#FAD151;stroke-width:3.4016;stroke-miterlimit:10;}
	.st7{fill-rule:evenodd;clip-rule:evenodd;fill:none;stroke:#FFFFFF;stroke-width:3.4016;stroke-miterlimit:10;}
	.st8{fill:none;stroke:#FFFFFF;stroke-width:3.4016;stroke-miterlimit:10;}
	.st9{fill:#2E3133;}
	.st10{opacity:0.6;fill:#FFFFFF;}
</style>
<g id="Karten">
</g>
<g id="Ebene_3">
	<g>
		<path class="st4" d="M462.2,0h-33.8l-18,16l-18-16H17.8C8,0,0,8,0,17.8v267c0,9.8,8,17.8,17.8,17.8h444.3c9.8,0,17.8-8,17.8-17.8
			v-267C480,8,472,0,462.2,0z"/>
		<g>
			<path class="st5" d="M65,180.9h-7l-1.2,5.3H50l7.6-25h8l7.6,25h-7L65,180.9z M63.8,175.7l-0.4-1.7c-0.3-1.3-0.7-2.7-1-4.3
				l-0.8-3.6h-0.2l-0.2,1.1c-0.6,2.8-1.1,5.1-1.5,6.9l-0.4,1.7H63.8z"/>
			<path class="st5" d="M78.1,183.6c-1.7-2.1-2.6-5.2-2.6-9.5v-12.9h6.6v13.7c0,2.2,0.3,3.8,0.9,4.7s1.6,1.4,2.9,1.4
				c1.3,0,2.3-0.5,2.9-1.4c0.6-0.9,0.9-2.5,0.9-4.7v-13.7h6.4v12.9c0,4.3-0.8,7.5-2.5,9.5c-1.7,2-4.2,3.1-7.7,3.1
				C82.4,186.6,79.8,185.6,78.1,183.6z"/>
			<path class="st5" d="M106.7,166.7h-6.6v-5.5H120v5.5h-6.6v19.5h-6.6V166.7z"/>
			<path class="st5" d="M128.4,185.1c-1.8-1-3.1-2.5-4.1-4.5c-1-2-1.4-4.3-1.4-7s0.5-5,1.4-7c1-1.9,2.3-3.4,4.1-4.4
				c1.8-1,3.8-1.5,6.1-1.5c2.3,0,4.3,0.5,6.1,1.5c1.8,1,3.1,2.5,4.1,4.4c1,1.9,1.4,4.2,1.4,6.9s-0.5,5-1.4,7c-1,2-2.3,3.5-4.1,4.5
				s-3.8,1.6-6.1,1.6C132.2,186.6,130.2,186.1,128.4,185.1z M138,179c0.9-1.3,1.3-3.1,1.3-5.4c0-2.3-0.4-4-1.3-5.3
				c-0.9-1.3-2-1.9-3.6-1.9s-2.7,0.6-3.6,1.9c-0.9,1.3-1.3,3-1.3,5.3c0,2.3,0.4,4.1,1.3,5.4c0.9,1.3,2.1,2,3.5,2
				S137.2,180.3,138,179z"/>
			<path class="st5" d="M151.1,161.1h7.1l3.8,10.2c0.2,0.5,0.4,1.3,0.7,2.4l0.6,2h0.2l0.6-2c0.3-1.1,0.6-1.9,0.7-2.4l3.6-10.2h7.1
				v25h-6v-7.4c0-0.9,0.1-2.2,0.2-3.7c0.2-1.5,0.3-2.9,0.5-4.2l0.1-1.1h-0.2l-2.1,6l-3.1,8.3h-3.5l-3.1-8.3l-2-6h-0.2l0.1,1.1
				c0.2,1.3,0.3,2.7,0.5,4.2c0.2,1.5,0.2,2.7,0.2,3.7v7.4h-5.9V161.1z"/>
			<path class="st5" d="M185.9,185.1c-1.8-1-3.1-2.5-4.1-4.5c-1-2-1.4-4.3-1.4-7s0.5-5,1.4-7c1-1.9,2.3-3.4,4.1-4.4
				c1.8-1,3.8-1.5,6.1-1.5c2.3,0,4.3,0.5,6.1,1.5c1.8,1,3.1,2.5,4.1,4.4c1,1.9,1.4,4.2,1.4,6.9s-0.5,5-1.4,7c-1,2-2.3,3.5-4.1,4.5
				s-3.8,1.6-6.1,1.6C189.7,186.6,187.6,186.1,185.9,185.1z M195.5,179c0.9-1.3,1.3-3.1,1.3-5.4c0-2.3-0.4-4-1.3-5.3
				c-0.9-1.3-2-1.9-3.6-1.9s-2.7,0.6-3.6,1.9c-0.9,1.3-1.3,3-1.3,5.3c0,2.3,0.4,4.1,1.3,5.4c0.9,1.3,2.1,2,3.5,2
				S194.7,180.3,195.5,179z"/>
			<path class="st5" d="M213.1,166.7h-6.6v-5.5h19.9v5.5h-6.6v19.5h-6.6V166.7z"/>
			<path class="st5" d="M230.4,161.1h6.6v25h-6.6V161.1z"/>
			<path class="st5" d="M240.4,161.1h7l2.6,10.9c0.3,1.3,0.6,2.7,0.9,4c0.1,0.5,0.3,1.1,0.4,1.7c0.1,0.6,0.3,1.4,0.5,2.2h0.2
				c0.2-0.9,0.4-1.7,0.6-2.4c0.2-0.7,0.3-1.4,0.4-1.9c0.2-1.2,0.5-2.4,0.8-3.6l2.5-10.9h6.8l-7.4,25h-8L240.4,161.1z"/>
			<path class="st5" d="M266.5,161.1h16.2v5.5h-9.6v3.9h8.2v5.5h-8.2v4.5h9.9v5.5h-16.6V161.1z"/>
			<path class="st0" d="M293.2,166.7h-6.6v-5.5h19.9v5.5h-6.6v19.5h-6.6V166.7z"/>
			<path class="st0" d="M323.9,186.2l-4.3-8.4H317v8.4h-6.6v-25h9.5c3,0,5.4,0.6,7.3,1.9c1.8,1.2,2.8,3.3,2.8,6.2
				c0,1.7-0.4,3.2-1.1,4.4c-0.7,1.2-1.7,2.2-3,2.9l5.4,9.7H323.9z M317,172.5h2.4c1.3,0,2.3-0.3,3-0.8c0.7-0.6,1-1.4,1-2.5
				c0-1.1-0.3-1.8-1-2.2c-0.7-0.4-1.7-0.6-3-0.6H317V172.5z"/>
			<path class="st0" d="M348.6,180.9h-7l-1.2,5.3h-6.8l7.6-25h8l7.6,25h-7L348.6,180.9z M347.4,175.7L347,174
				c-0.3-1.3-0.7-2.7-1-4.3l-0.8-3.6H345l-0.2,1.1c-0.6,2.8-1.1,5.1-1.5,6.9l-0.4,1.7H347.4z"/>
			<path class="st0" d="M360.2,161.1h7.4c4,0,7.2,1,9.4,3c2.3,2,3.4,5.1,3.4,9.4c0,4.3-1.1,7.4-3.4,9.5c-2.2,2.1-5.3,3.1-9.1,3.1
				h-7.8V161.1z M367.2,180.9c2,0,3.6-0.5,4.8-1.6c1.1-1.1,1.7-3,1.7-5.7c0-2.7-0.6-4.6-1.7-5.6c-1.1-1-2.7-1.5-4.8-1.5h-0.4v14.4
				H367.2z"/>
			<path class="st0" d="M385.4,161.1h16.2v5.5H392v3.9h8.2v5.5H392v4.5h9.9v5.5h-16.6V161.1z"/>
		</g>
		<g>
			<path class="st0" d="M56.3,223.7c-1.4-0.9-2.5-2.3-3.3-4c-0.8-1.7-1.2-3.7-1.2-6c0-2.3,0.4-4.3,1.2-6c0.8-1.7,1.9-3,3.3-4
				c1.4-0.9,3.1-1.4,4.9-1.4c1.2,0,2.3,0.3,3.3,0.8c1,0.5,1.8,1.1,2.5,1.9l-1,1.2c-1.3-1.5-2.9-2.2-4.7-2.2c-1.5,0-2.9,0.4-4,1.2
				c-1.1,0.8-2,1.9-2.7,3.4s-0.9,3.2-0.9,5.2s0.3,3.7,0.9,5.2c0.6,1.5,1.5,2.6,2.6,3.4c1.1,0.8,2.5,1.2,4,1.2c1.1,0,2.1-0.2,3-0.7
				c0.9-0.4,1.7-1.1,2.5-2l1,1.1c-0.9,1-1.9,1.8-2.9,2.3c-1.1,0.5-2.3,0.8-3.7,0.8C59.3,225.1,57.7,224.6,56.3,223.7z"/>
			<path class="st0" d="M83.2,217.3h-8.6l-2.5,7.4h-1.8l7.7-22h1.8l7.7,22h-1.9L83.2,217.3z M82.7,215.8l-1.3-4
				c-1-3-1.8-5.5-2.4-7.6h-0.1c-0.6,2-1.3,4.5-2.4,7.6l-1.3,4H82.7z"/>
			<path class="st0" d="M103.7,224.7l-5.8-10h-4.5v10h-1.8v-22h6.4c2.3,0,4.1,0.5,5.4,1.4c1.3,0.9,1.9,2.4,1.9,4.5
				c0,1.7-0.5,3.1-1.5,4.1c-1,1-2.3,1.7-4.1,1.9l6,10.1H103.7z M97.5,213.3c1.9,0,3.4-0.4,4.4-1.2c1-0.8,1.5-2,1.5-3.5
				c0-1.6-0.5-2.7-1.5-3.4c-1-0.7-2.5-1-4.5-1h-4.2v9.1H97.5z"/>
			<path class="st0" d="M117.9,202.7h5.1c3.3,0,5.9,1,7.6,2.9c1.7,1.9,2.5,4.6,2.5,8.1s-0.8,6.2-2.5,8.1c-1.7,2-4.2,2.9-7.5,2.9
				h-5.2V202.7z M122.9,223.2c2.8,0,4.9-0.9,6.3-2.6c1.4-1.7,2.1-4,2.1-7c0-3-0.7-5.3-2.1-7c-1.4-1.7-3.5-2.5-6.3-2.5h-3.2v19H122.9
				z"/>
			<path class="st0" d="M138.3,202.7h12.2v1.5h-10.4v8.1h8.7v1.5h-8.7v9.4h10.7v1.5h-12.5V202.7z"/>
			<path class="st0" d="M166.9,217.3h-8.6l-2.5,7.4H154l7.7-22h1.8l7.7,22h-1.9L166.9,217.3z M166.4,215.8l-1.3-4
				c-1-3-1.8-5.5-2.4-7.6h-0.1c-0.6,2-1.3,4.5-2.4,7.6l-1.3,4H166.4z"/>
			<path class="st0" d="M175.2,202.7h1.8v20.5h10v1.5h-11.8V202.7z"/>
			<path class="st0" d="M191.3,202.7h12.2v1.5H193v8.1h8.7v1.5H193v9.4h10.7v1.5h-12.5V202.7z"/>
			<path class="st0" d="M220.5,224.7l-5.8-10h-4.5v10h-1.8v-22h6.4c2.3,0,4.1,0.5,5.4,1.4c1.3,0.9,1.9,2.4,1.9,4.5
				c0,1.7-0.5,3.1-1.5,4.1c-1,1-2.3,1.7-4.1,1.9l6,10.1H220.5z M214.4,213.3c1.9,0,3.4-0.4,4.4-1.2c1-0.8,1.5-2,1.5-3.5
				c0-1.6-0.5-2.7-1.5-3.4c-1-0.7-2.5-1-4.5-1h-4.2v9.1H214.4z"/>
		</g>
		<g>
			<g>
				<path class="st3" d="M54.6,41.8L50,32.6h1.8l2,4.4l0.4,0.9c0.6,1.3,1,2.2,1.1,2.4h0.1l0.4-0.8c0.7-1.4,1-2.2,1.2-2.5l2-4.4h1.8
					l-4.6,9.3v6h-1.7V41.8z"/>
				<path class="st3" d="M63.9,47.4c-0.8-0.5-1.4-1.2-1.9-2c-0.5-0.9-0.7-1.9-0.7-3.2c0-1.2,0.2-2.3,0.7-3.2
					c0.5-0.9,1.1-1.6,1.9-2.1c0.8-0.5,1.7-0.7,2.6-0.7c0.9,0,1.8,0.2,2.6,0.7c0.8,0.5,1.4,1.2,1.9,2.1c0.5,0.9,0.7,2,0.7,3.2
					c0,1.2-0.2,2.3-0.7,3.2c-0.5,0.9-1.1,1.6-1.9,2c-0.8,0.5-1.7,0.7-2.6,0.7C65.6,48.1,64.7,47.9,63.9,47.4z M68.3,46.1
					c0.5-0.4,0.9-0.9,1.2-1.6c0.3-0.7,0.4-1.5,0.4-2.3c0-0.9-0.1-1.7-0.4-2.3c-0.3-0.7-0.7-1.2-1.2-1.6s-1.1-0.6-1.8-0.6
					c-0.7,0-1.3,0.2-1.8,0.6s-0.9,0.9-1.2,1.6s-0.4,1.5-0.4,2.3c0,1.3,0.3,2.4,1,3.3s1.5,1.2,2.5,1.2C67.2,46.7,67.8,46.5,68.3,46.1
					z"/>
				<path class="st3" d="M75.8,47c-0.6-0.7-0.8-1.8-0.8-3.3v-7.2h1.7v7c0,1.1,0.2,1.9,0.5,2.4s0.9,0.8,1.7,0.8
					c0.6,0,1.1-0.2,1.6-0.5c0.5-0.3,1-0.8,1.6-1.5v-8.1h1.7v11.3h-1.4L82.2,46h-0.1c-0.6,0.7-1.2,1.2-1.8,1.5s-1.3,0.5-2,0.5
					C77.2,48.1,76.3,47.7,75.8,47z"/>
				<path class="st3" d="M87.8,36.6h1.4l0.1,2.1h0.1c0.4-0.7,0.9-1.3,1.4-1.7c0.6-0.4,1.2-0.6,1.8-0.6c0.4,0,0.8,0.1,1.2,0.2
					L93.5,38c-0.4-0.1-0.8-0.2-1.1-0.2c-0.5,0-1.1,0.2-1.6,0.7s-1,1.1-1.3,2v7.3h-1.7V36.6z"/>
				<path class="st3" d="M102,46.6c-0.8-1-1.2-2.5-1.2-4.3c0-1.2,0.2-2.2,0.7-3.1c0.4-0.9,1-1.6,1.8-2.1c0.8-0.5,1.6-0.7,2.4-0.7
					c0.6,0,1.1,0.1,1.6,0.3c0.5,0.2,1,0.6,1.6,1l-0.1-2v-4.4h1.7v16.6h-1.4l-0.1-1.4h-0.1c-0.5,0.5-1,0.9-1.6,1.2s-1.2,0.5-1.9,0.5
					C103.9,48.1,102.8,47.6,102,46.6z M107.3,46.3c0.5-0.3,1-0.7,1.5-1.2V39c-0.5-0.4-1-0.7-1.4-0.9s-0.9-0.3-1.4-0.3
					c-0.6,0-1.2,0.2-1.7,0.6c-0.5,0.4-0.9,0.9-1.2,1.6c-0.3,0.7-0.5,1.4-0.5,2.3c0,1.4,0.3,2.5,0.8,3.3c0.6,0.8,1.4,1.2,2.4,1.2
					C106.3,46.7,106.8,46.5,107.3,46.3z"/>
				<path class="st3" d="M114.6,33.8c-0.2-0.2-0.3-0.5-0.3-0.9c0-0.3,0.1-0.6,0.3-0.8c0.2-0.2,0.5-0.3,0.8-0.3s0.6,0.1,0.8,0.3
					c0.2,0.2,0.3,0.5,0.3,0.8c0,0.4-0.1,0.6-0.3,0.9c-0.2,0.2-0.5,0.3-0.8,0.3S114.8,34,114.6,33.8z M114.6,36.6h1.7v11.3h-1.7V36.6
					z"/>
				<path class="st3" d="M120.7,52.3c-0.8-0.5-1.3-1.3-1.3-2.2c0-0.5,0.1-0.9,0.4-1.4c0.3-0.4,0.7-0.9,1.2-1.2v-0.1
					c-0.3-0.2-0.5-0.4-0.7-0.7c-0.2-0.3-0.3-0.7-0.3-1.1c0-0.4,0.1-0.8,0.4-1.2c0.2-0.4,0.5-0.7,0.9-0.9v-0.1
					c-0.4-0.3-0.7-0.8-1-1.3c-0.3-0.5-0.4-1.1-0.4-1.7c0-0.8,0.2-1.5,0.6-2.1s0.9-1.1,1.5-1.4c0.6-0.3,1.3-0.5,2.1-0.5
					c0.5,0,1,0.1,1.6,0.3h3.9v1.3h-2.4c0.3,0.3,0.5,0.6,0.7,1.1c0.2,0.4,0.3,0.9,0.3,1.4c0,0.8-0.2,1.5-0.5,2.1s-0.8,1.1-1.5,1.4
					c-0.6,0.3-1.3,0.5-2.1,0.5c-0.6,0-1.2-0.1-1.7-0.4c-0.2,0.2-0.4,0.4-0.6,0.6c-0.1,0.2-0.2,0.5-0.2,0.8c0,0.4,0.2,0.7,0.5,0.9
					c0.3,0.2,0.8,0.3,1.5,0.3h2.3c1.3,0,2.3,0.2,2.9,0.7s1,1.1,1,2c0,0.7-0.2,1.3-0.7,1.9c-0.5,0.6-1.1,1.1-2,1.4
					c-0.9,0.4-1.8,0.5-2.9,0.5C122.7,53.1,121.6,52.8,120.7,52.3z M126.3,51.5c0.6-0.2,1-0.5,1.3-0.9c0.3-0.4,0.5-0.8,0.5-1.2
					c0-0.5-0.2-0.9-0.6-1.1s-1-0.3-1.8-0.3h-2.1c-0.5,0-1-0.1-1.4-0.2c-0.8,0.6-1.2,1.2-1.2,2c0,0.6,0.3,1.1,0.9,1.5
					s1.4,0.6,2.5,0.6C125.1,51.9,125.7,51.8,126.3,51.5z M125.9,42.3c0.5-0.5,0.7-1.2,0.7-2c0-0.8-0.2-1.5-0.7-2
					c-0.5-0.5-1.1-0.8-1.8-0.8c-0.7,0-1.3,0.3-1.8,0.8c-0.5,0.5-0.7,1.2-0.7,2c0,0.8,0.2,1.5,0.7,2c0.5,0.5,1.1,0.8,1.8,0.8
					C124.8,43.1,125.4,42.8,125.9,42.3z"/>
				<path class="st3" d="M132.4,33.8c-0.2-0.2-0.3-0.5-0.3-0.9c0-0.3,0.1-0.6,0.3-0.8c0.2-0.2,0.5-0.3,0.8-0.3s0.6,0.1,0.8,0.3
					c0.2,0.2,0.3,0.5,0.3,0.8c0,0.4-0.1,0.6-0.3,0.9c-0.2,0.2-0.5,0.3-0.8,0.3S132.6,34,132.4,33.8z M132.4,36.6h1.7v11.3h-1.7V36.6
					z"/>
				<path class="st3" d="M139.3,47.2c-0.5-0.6-0.7-1.5-0.7-2.7V38h-1.7v-1.3l1.8-0.1l0.2-3.2h1.4v3.2h3.1V38h-3.1v6.5
					c0,0.7,0.1,1.3,0.4,1.7s0.7,0.6,1.4,0.6c0.3,0,0.8-0.1,1.3-0.3l0.3,1.3c-0.8,0.3-1.5,0.4-2,0.4
					C140.6,48.1,139.8,47.8,139.3,47.2z"/>
				<path class="st3" d="M146.8,47.3c-0.6-0.6-0.9-1.3-0.9-2.3c0-1.2,0.6-2.2,1.7-2.8c1.1-0.7,2.9-1.1,5.3-1.4
					c0-0.9-0.2-1.6-0.5-2.2c-0.4-0.6-1-0.8-1.9-0.8c-1.1,0-2.2,0.4-3.4,1.2l-0.7-1.2c1.5-1,2.9-1.5,4.4-1.5c1.3,0,2.3,0.4,2.9,1.2
					c0.6,0.8,0.9,1.9,0.9,3.4v7h-1.4l-0.1-1.4h-0.1c-1.3,1.1-2.6,1.7-3.8,1.7C148.2,48.1,147.4,47.8,146.8,47.3z M151.2,46.4
					c0.5-0.3,1.1-0.7,1.7-1.2v-3.3c-1.9,0.2-3.3,0.6-4.1,1.1c-0.8,0.5-1.2,1.1-1.2,1.9c0,0.6,0.2,1.1,0.6,1.4
					c0.4,0.3,0.9,0.5,1.5,0.5C150.1,46.7,150.7,46.6,151.2,46.4z"/>
				<path class="st3" d="M158.9,47.5c-0.3-0.4-0.4-1-0.4-1.8V31.2h1.7v14.7c0,0.3,0.1,0.5,0.2,0.6s0.2,0.2,0.4,0.2
					c0.1,0,0.3,0,0.4,0l0.2,1.3c-0.3,0.1-0.6,0.2-1,0.2C159.7,48.1,159.2,47.9,158.9,47.5z"/>
				<path class="st3" d="M170.5,52.3c-0.8-0.5-1.3-1.3-1.3-2.2c0-0.5,0.1-0.9,0.4-1.4c0.3-0.4,0.7-0.9,1.2-1.2v-0.1
					c-0.3-0.2-0.5-0.4-0.7-0.7c-0.2-0.3-0.3-0.7-0.3-1.1c0-0.4,0.1-0.8,0.4-1.2c0.2-0.4,0.5-0.7,0.9-0.9v-0.1
					c-0.4-0.3-0.7-0.8-1-1.3c-0.3-0.5-0.4-1.1-0.4-1.7c0-0.8,0.2-1.5,0.6-2.1s0.9-1.1,1.5-1.4c0.6-0.3,1.3-0.5,2.1-0.5
					c0.5,0,1,0.1,1.6,0.3h3.9v1.3h-2.4c0.3,0.3,0.5,0.6,0.7,1.1c0.2,0.4,0.3,0.9,0.3,1.4c0,0.8-0.2,1.5-0.5,2.1s-0.8,1.1-1.5,1.4
					c-0.6,0.3-1.3,0.5-2.1,0.5c-0.6,0-1.2-0.1-1.7-0.4c-0.2,0.2-0.4,0.4-0.6,0.6c-0.1,0.2-0.2,0.5-0.2,0.8c0,0.4,0.2,0.7,0.5,0.9
					c0.3,0.2,0.8,0.3,1.5,0.3h2.3c1.3,0,2.3,0.2,2.9,0.7s1,1.1,1,2c0,0.7-0.2,1.3-0.7,1.9c-0.5,0.6-1.1,1.1-2,1.4
					c-0.9,0.4-1.8,0.5-2.9,0.5C172.5,53.1,171.3,52.8,170.5,52.3z M176,51.5c0.6-0.2,1-0.5,1.3-0.9c0.3-0.4,0.5-0.8,0.5-1.2
					c0-0.5-0.2-0.9-0.6-1.1s-1-0.3-1.8-0.3h-2.1c-0.5,0-1-0.1-1.4-0.2c-0.8,0.6-1.2,1.2-1.2,2c0,0.6,0.3,1.1,0.9,1.5
					s1.4,0.6,2.5,0.6C174.8,51.9,175.5,51.8,176,51.5z M175.6,42.3c0.5-0.5,0.7-1.2,0.7-2c0-0.8-0.2-1.5-0.7-2
					c-0.5-0.5-1.1-0.8-1.8-0.8c-0.7,0-1.3,0.3-1.8,0.8c-0.5,0.5-0.7,1.2-0.7,2c0,0.8,0.2,1.5,0.7,2c0.5,0.5,1.1,0.8,1.8,0.8
					C174.5,43.1,175.1,42.8,175.6,42.3z"/>
				<path class="st3" d="M182.1,33.8c-0.2-0.2-0.3-0.5-0.3-0.9c0-0.3,0.1-0.6,0.3-0.8c0.2-0.2,0.5-0.3,0.8-0.3s0.6,0.1,0.8,0.3
					c0.2,0.2,0.3,0.5,0.3,0.8c0,0.4-0.1,0.6-0.3,0.9c-0.2,0.2-0.5,0.3-0.8,0.3S182.4,34,182.1,33.8z M182.1,36.6h1.7v11.3h-1.7V36.6
					z"/>
				<path class="st3" d="M189.9,34.6v1.9h2.4V38h-2.4v9.9h-1.7V38h-1.5v-1.3l1.5-0.1v-2c0-1.2,0.3-2.1,0.8-2.7c0.5-0.6,1.3-1,2.4-1
					c0.6,0,1.2,0.1,1.8,0.4l-0.4,1.3c-0.4-0.2-0.9-0.3-1.3-0.3C190.5,32.3,189.9,33.1,189.9,34.6z"/>
				<path class="st3" d="M196.8,47.2c-0.5-0.6-0.7-1.5-0.7-2.7V38h-1.7v-1.3l1.8-0.1l0.2-3.2h1.4v3.2h3.1V38h-3.1v6.5
					c0,0.7,0.1,1.3,0.4,1.7s0.7,0.6,1.4,0.6c0.3,0,0.8-0.1,1.3-0.3l0.3,1.3c-0.8,0.3-1.5,0.4-2,0.4
					C198.1,48.1,197.3,47.8,196.8,47.2z"/>
				<path class="st3" d="M211,47.4c-0.8-0.5-1.4-1.2-1.9-2c-0.5-0.9-0.7-1.9-0.7-3.2c0-1.2,0.2-2.3,0.7-3.2c0.5-0.9,1.1-1.6,2-2.1
					c0.8-0.5,1.7-0.7,2.7-0.7c1.2,0,2.3,0.4,3.3,1.3l-0.9,1.1c-0.4-0.3-0.7-0.6-1.1-0.8s-0.8-0.3-1.2-0.3c-0.7,0-1.3,0.2-1.9,0.6
					c-0.6,0.4-1,0.9-1.3,1.6c-0.3,0.7-0.5,1.5-0.5,2.3c0,1.3,0.3,2.4,1,3.3c0.7,0.8,1.5,1.2,2.6,1.2c1,0,1.9-0.4,2.7-1.2l0.7,1.1
					c-0.5,0.4-1.1,0.8-1.7,1.1c-0.6,0.3-1.3,0.4-1.9,0.4C212.7,48.1,211.8,47.9,211,47.4z"/>
				<path class="st3" d="M220.6,47.3c-0.6-0.6-0.9-1.3-0.9-2.3c0-1.2,0.6-2.2,1.7-2.8c1.1-0.7,2.9-1.1,5.3-1.4
					c0-0.9-0.2-1.6-0.5-2.2c-0.4-0.6-1-0.8-1.9-0.8c-1.1,0-2.2,0.4-3.4,1.2l-0.7-1.2c1.5-1,2.9-1.5,4.4-1.5c1.3,0,2.3,0.4,2.9,1.2
					c0.6,0.8,0.9,1.9,0.9,3.4v7H227l-0.1-1.4h-0.1c-1.3,1.1-2.6,1.7-3.8,1.7C222,48.1,221.2,47.8,220.6,47.3z M225,46.4
					c0.5-0.3,1.1-0.7,1.7-1.2v-3.3c-1.9,0.2-3.3,0.6-4.1,1.1c-0.8,0.5-1.2,1.1-1.2,1.9c0,0.6,0.2,1.1,0.6,1.4
					c0.4,0.3,0.9,0.5,1.5,0.5C224,46.7,224.5,46.6,225,46.4z"/>
				<path class="st3" d="M232.3,36.6h1.4l0.1,2.1h0.1c0.4-0.7,0.9-1.3,1.4-1.7c0.6-0.4,1.2-0.6,1.8-0.6c0.4,0,0.8,0.1,1.2,0.2
					L238,38c-0.4-0.1-0.8-0.2-1.1-0.2c-0.5,0-1.1,0.2-1.6,0.7s-1,1.1-1.3,2v7.3h-1.7V36.6z"/>
				<path class="st3" d="M241,46.6c-0.8-1-1.2-2.5-1.2-4.3c0-1.2,0.2-2.2,0.7-3.1c0.4-0.9,1-1.6,1.8-2.1c0.8-0.5,1.6-0.7,2.4-0.7
					c0.6,0,1.1,0.1,1.6,0.3c0.5,0.2,1,0.6,1.6,1l-0.1-2v-4.4h1.7v16.6H248l-0.1-1.4h-0.1c-0.5,0.5-1,0.9-1.6,1.2s-1.2,0.5-1.9,0.5
					C242.9,48.1,241.8,47.6,241,46.6z M246.3,46.3c0.5-0.3,1-0.7,1.5-1.2V39c-0.5-0.4-1-0.7-1.4-0.9s-0.9-0.3-1.4-0.3
					c-0.6,0-1.2,0.2-1.7,0.6c-0.5,0.4-0.9,0.9-1.2,1.6c-0.3,0.7-0.5,1.4-0.5,2.3c0,1.4,0.3,2.5,0.8,3.3c0.6,0.8,1.4,1.2,2.4,1.2
					C245.3,46.7,245.8,46.5,246.3,46.3z"/>
			</g>
		</g>
		<g>
			<path class="st3" d="M392.2,0v38c0,10,8.1,18,18,18c10,0,18-8.1,18-18V0H392.2z"/>
			<g>
				<path d="M405.8,41.4c-1.1-1.1-1.9-2.7-1.9-4.5c0-3.5,2.8-6.3,6.3-6.3c1.7,0,3.3,0.7,4.5,1.9l3.3-3.3c-2-2-4.7-3.2-7.7-3.2
					c-6,0-10.9,4.9-10.9,10.9c0,3,1.2,5.7,3.2,7.7L405.8,41.4z"/>
				<path d="M415.5,40.5c-1.1,1.6-3,2.7-5.2,2.7c-0.4,0-0.8,0-1.2-0.1l-3.6,3.6c1.4,0.7,3.1,1.1,4.8,1.1c3.7,0,7-1.8,9-4.7
					L415.5,40.5z"/>
			</g>
		</g>
		<g>
			<g>
				<path class="st0" d="M50,104.8c0,0,0.6,9.8,11.5,9.8h37.3c0.9-3.6,2.5-7,4.8-9.8H50z"/>
				<path class="st0" d="M98.2,118.2H67.9c0,0,0.4,6.3,7.5,6.3h23c-0.2-1.3-0.3-2.6-0.3-3.9C98.1,119.8,98.1,119,98.2,118.2z"/>
				<path class="st0" d="M80,128.1c0,0,0.3,5.1,6,5.1h15.5c-0.9-1.6-1.7-3.3-2.3-5.1H80z"/>
			</g>
			<g>
				<path class="st0" d="M203.1,104.8c0,0-0.6,9.8-11.5,9.8h-37.3c-0.9-3.6-2.5-7-4.8-9.8H203.1z"/>
				<path class="st0" d="M154.9,118.2h30.2c0,0-0.4,6.3-7.5,6.3h-23c0.2-1.3,0.3-2.6,0.3-3.9C155.1,119.8,155,119,154.9,118.2z"/>
				<path class="st0" d="M173.2,128.1c0,0-0.3,5.1-6,5.1h-15.5c0.9-1.6,1.7-3.3,2.3-5.1H173.2z"/>
			</g>
			<g>
				<path class="st5" d="M126.6,98.7c-12.1,0-21.9,9.8-21.9,21.9s9.8,21.9,21.9,21.9s21.9-9.8,21.9-21.9S138.6,98.7,126.6,98.7z
					 M126.6,102.8c9.3,0,16.9,7.2,17.7,16.2l-11.1-1.3c-1.1-2.6-3.7-4.4-6.7-4.4c-3,0-5.5,1.8-6.7,4.4l-11,1.3
					C109.6,110,117.3,102.8,126.6,102.8z M126.6,117.7c1.6,0,2.8,1.3,2.8,2.8c0,1.6-1.3,2.8-2.8,2.8c-1.6,0-2.8-1.3-2.8-2.8
					C123.7,119,125,117.7,126.6,117.7z M109.1,124l11-0.2c0.7,1.3,1.8,2.4,3.1,3.1l0.8,11.2C116.5,137.1,110.6,131.4,109.1,124z
					 M129.2,138.2l0.8-11.2c1.3-0.7,2.4-1.8,3.1-3.1l11,0.2C142.6,131.4,136.6,137.1,129.2,138.2z"/>
			</g>
		</g>
	</g>
</g>
</svg>
