<?xml version="1.0" encoding="utf-8"?>
<!-- Generator: Adobe Illustrator 23.0.3, SVG Export Plug-In . SVG Version: 6.00 Build 0)  -->
<svg version="1.1" id="CGift-Startseite-Keyvisual-04-Konfetti"
	 xmlns="http://www.w3.org/2000/svg" xmlns:xlink="http://www.w3.org/1999/xlink" x="0px" y="0px" viewBox="0 0 880 534"
	 style="enable-background:new 0 0 880 534;" xml:space="preserve">
<style type="text/css">
	.st0{fill:#FAD151;}
	.st1{fill:#FDEDBC;}
	.st2{fill:#FEF7E0;}
</style>
<g>
	<polygon id="Plane-mesh_807_" class="st0" points="462.1,212.4 463.8,217.7 456.7,213.6 	"/>
	<polygon id="Plane-mesh_806_" class="st1" points="463.8,217.7 458.4,218.9 456.7,213.6 	"/>
</g>
<g>
	<polygon id="Plane_002-mesh_693_" class="st1" points="519.1,67.3 513.7,64.8 522,62.3 	"/>
	<polygon id="Plane_002-mesh_692_" class="st0" points="513.7,64.8 516.6,59.8 522,62.3 	"/>
</g>
<g>
	<polygon id="Plane-mesh_763_" class="st2" points="434.6,35.2 435.9,32.8 438.5,36.4 	"/>
	<polygon id="Plane-mesh_762_" class="st1" points="435.9,32.8 439.7,33.9 438.5,36.4 	"/>
</g>
<g>
	<polygon id="Plane_001-mesh_667_" class="st0" points="459,247.5 456.7,249.4 462.3,253.6 	"/>
	<polygon id="Plane_001-mesh_666_" class="st1" points="464.5,251.6 459,247.5 462.3,253.6 	"/>
</g>
<g>
	<polygon id="Plane-mesh_8_" class="st0" points="390.3,344.8 391.9,349.4 395.6,343.2 	"/>
	<polygon id="Plane-mesh_7_" class="st1" points="391.9,349.4 397.2,347.8 395.6,343.2 	"/>
</g>
<polygon id="Plane-mesh_691_" class="st1" points="481.4,105.1 483.8,108.5 475.6,114.8 "/>
<polygon id="Plane-mesh_690_" class="st0" points="473.2,111.3 481.4,105.1 475.6,114.8 "/>
<g>
	<polygon id="Plane_002-mesh_10_" class="st1" points="376.6,253.3 373.3,248.4 381.6,250.5 	"/>
	<polygon id="Plane_002-mesh_9_" class="st0" points="373.3,248.4 378.3,245.6 381.6,250.5 	"/>
</g>
<polygon id="Plane-mesh_4_" class="st1" points="392.7,291 395.2,294.5 386.9,300.7 "/>
<polygon id="Plane_002-mesh_649_" class="st0" points="439.7,83 445.7,81.9 435,92.4 "/>
<polygon id="Plane_002-mesh_648_" class="st1" points="445.7,81.9 440.9,91.4 435,92.4 "/>
<polygon id="Plane_002-mesh_12_" class="st0" points="423.1,369.5 429,368.3 418.4,378.9 "/>
<polygon id="Plane_002-mesh_11_" class="st1" points="429,368.3 424.3,377.9 418.4,378.9 "/>
<polygon id="Plane-mesh_689_" class="st0" points="446.1,2.1 450.4,0 457.3,4 "/>
<polygon id="Plane-mesh_688_" class="st1" points="453,6.1 446.1,2.1 457.3,4 "/>
<g>
	<polygon id="Plane_001-mesh_613_" class="st0" points="514.4,146.8 509.8,147.2 508.8,156.3 	"/>
	<polygon id="Plane_001-mesh_612_" class="st1" points="513.4,156.1 514.4,146.8 508.8,156.3 	"/>
</g>
<g>
	<polygon id="Plane_001-mesh_6_" class="st0" points="373.6,12.1 370.3,12.3 369.7,18.6 	"/>
	<polygon id="Plane_001-mesh_5_" class="st1" points="372.9,18.5 373.6,12.1 369.7,18.6 	"/>
</g>
<polygon id="Plane_002-mesh_590_" class="st0" points="388,227.2 396.9,229.6 397.7,220.5 "/>
<g>
	<polygon id="Plane_002-mesh_552_" class="st1" points="401.8,172.5 410.7,172.1 408.7,164.6 	"/>
	<polygon id="Plane_002-mesh_551_" class="st2" points="399.8,165.1 401.8,172.5 408.7,164.6 	"/>
</g>
<g>
	<polygon id="Plane-mesh_549_" class="st1" points="302.3,103.5 301.8,106.7 307.4,103.5 	"/>
	<polygon id="Plane-mesh_548_" class="st2" points="301.8,106.7 307,106.7 307.4,103.5 	"/>
</g>
<g>
	<polygon id="Plane_002-mesh_535_" class="st0" points="429.6,117.8 424.3,117.3 428.5,121.2 	"/>
	<polygon id="Plane_002-mesh_534_" class="st1" points="433.8,121.8 429.6,117.8 428.5,121.2 	"/>
</g>
<polygon id="Plane_001-mesh_4_" class="st1" points="459.2,348.1 455.2,352 451.9,346.4 "/>
<polygon id="Plane_001-mesh_3_" class="st0" points="456,342.4 459.2,348.1 451.9,346.4 "/>
<g>
	<polygon id="Plane_001-mesh_2_" class="st0" points="414.9,391.6 419.6,385.4 414.1,387.9 	"/>
	<polygon id="Plane_001-mesh_1_" class="st0" points="419.6,385.4 418.9,381.7 414.1,387.9 	"/>
</g>
<polygon id="Plane_002-mesh_8_" class="st0" points="428.4,268.8 434.4,267.6 423.7,278.2 "/>
<polygon id="Plane_002-mesh_7_" class="st1" points="434.4,267.6 429.6,277.2 423.7,278.2 "/>
<g>
	<polygon id="Plane_002-mesh_6_" class="st1" points="479.6,325.7 488.4,325.3 486.4,317.8 	"/>
	<polygon id="Plane_002-mesh_5_" class="st0" points="477.6,318.3 479.6,325.7 486.4,317.8 	"/>
</g>
<g>
	<polygon id="Plane_002-mesh_4_" class="st0" points="424.9,310.7 421.2,309 425.1,313.2 	"/>
	<polygon id="Plane_002-mesh_3_" class="st0" points="428.8,314.8 424.9,310.7 425.1,313.2 	"/>
</g>
</svg>
