<?xml version="1.0" encoding="utf-8"?>
<!-- Generator: Adobe Illustrator 23.0.3, SVG Export Plug-In . SVG Version: 6.00 Build 0)  -->
<svg version="1.1" xmlns="http://www.w3.org/2000/svg" xmlns:xlink="http://www.w3.org/1999/xlink" x="0px" y="0px"
	 viewBox="0 0 480 302.7" style="enable-background:new 0 0 480 302.7;" xml:space="preserve">
<style type="text/css">
	.st0{fill:#FAD151;}
	.st1{fill:#1F2223;}
	.st2{fill:#5C656B;}
	.st3{fill:#7D8489;}
	.st4{fill:#131617;}
	.st5{fill:#FFFFFF;}
	.st6{fill:none;stroke:#FAD151;stroke-width:3.4016;stroke-miterlimit:10;}
	.st7{fill-rule:evenodd;clip-rule:evenodd;fill:none;stroke:#FFFFFF;stroke-width:3.4016;stroke-miterlimit:10;}
	.st8{fill:none;stroke:#FFFFFF;stroke-width:3.4016;stroke-miterlimit:10;}
	.st9{fill:#2E3133;}
	.st10{opacity:0.6;fill:#FFFFFF;}
</style>
<g id="Karten">
</g>
<g id="Ebene_3">
	<g>
		<path d="M462.2,0h-33.8l-18,16l-18-16H17.8C8,0,0,8,0,17.8v267c0,9.8,8,17.8,17.8,17.8h444.3c9.8,0,17.8-8,17.8-17.8v-267
			C480,8,472,0,462.2,0z"/>
		<g>
			<path class="st5" d="M152,154.7h10.2c7.4,0,11,2.5,11,7.5c0,1.4-0.4,2.8-1.1,4c-0.7,1.2-1.7,2.1-3,2.6v0.2
				c1.7,0.4,3.1,1.2,4.1,2.4c1,1.2,1.5,2.8,1.5,4.7c0,2.9-1.1,5.2-3.2,6.7c-2.2,1.5-5,2.2-8.5,2.2h-11V154.7z M161.8,166.9
				c1.8,0,3.1-0.3,3.9-1c0.9-0.7,1.3-1.6,1.3-2.8c0-1.2-0.4-2.1-1.3-2.7s-2.1-0.8-3.9-0.8h-3.5v7.3H161.8z M162.4,180
				c4.1,0,6.1-1.5,6.1-4.4c0-1.4-0.5-2.4-1.5-3c-1-0.6-2.5-1-4.6-1h-4.1v8.4H162.4z"/>
			<path class="st5" d="M181.5,183.6c-0.9-1.3-1.4-3.1-1.4-5.4v-25.9h6.3v26.2c0,0.6,0.1,1.1,0.4,1.4c0.2,0.3,0.5,0.4,0.8,0.4
				c0.3,0,0.6,0,0.8-0.1l0.8,4.7c-0.9,0.3-2,0.5-3.2,0.5C183.9,185.5,182.4,184.9,181.5,183.6z"/>
			<path class="st5" d="M195,183.1c-1.2-1.6-1.7-3.9-1.7-6.8V162h6.3v13.5c0,1.7,0.2,2.9,0.7,3.5c0.5,0.7,1.3,1,2.4,1
				c0.9,0,1.7-0.2,2.3-0.6s1.3-1.1,2.1-2.1V162h6.3v23h-5.1l-0.5-3.2h-0.2c-1.1,1.2-2.1,2.2-3.3,2.8s-2.5,1-3.9,1
				C197.9,185.5,196.2,184.7,195,183.1z"/>
			<path class="st5" d="M238.8,175.3h-14.2c0.3,1.8,1.1,3.2,2.2,4c1.2,0.9,2.6,1.3,4.2,1.3c1.6,0,3.3-0.5,5.1-1.5l2.1,3.9
				c-1.1,0.8-2.4,1.4-3.8,1.9c-1.4,0.4-2.8,0.7-4.2,0.7c-2.2,0-4.1-0.5-5.9-1.4c-1.7-1-3.1-2.4-4.1-4.2c-1-1.8-1.5-4-1.5-6.4
				c0-2.4,0.5-4.5,1.5-6.4c1-1.8,2.3-3.2,4-4.2c1.6-1,3.4-1.5,5.2-1.5c3.1,0,5.5,1,7.2,3c1.7,2,2.5,4.7,2.5,8
				C239.1,173.6,239,174.6,238.8,175.3z M233.6,171.1c0-1.5-0.3-2.7-1-3.5c-0.7-0.9-1.7-1.3-3.1-1.3c-1.1,0-2.2,0.4-3,1.2
				c-0.9,0.8-1.5,2-1.8,3.6H233.6z"/>
			<path class="st5" d="M250.5,183.7c-2.1-1.2-3.8-3-5-5.3c-1.2-2.3-1.9-5.1-1.9-8.4c0-3.2,0.6-6.1,1.9-8.5c1.3-2.4,3-4.2,5.1-5.5
				c2.2-1.3,4.5-1.9,7.1-1.9c1.8,0,3.5,0.4,5,1.1c1.5,0.7,2.9,1.7,4,2.8l-3.4,4.1c-0.8-0.8-1.7-1.4-2.6-1.8
				c-0.9-0.4-1.8-0.6-2.9-0.6c-1.5,0-2.8,0.4-4,1.2c-1.2,0.8-2.1,2-2.8,3.5c-0.7,1.5-1,3.3-1,5.4c0,3.2,0.7,5.7,2.1,7.5
				c1.4,1.8,3.2,2.7,5.6,2.7c2.3,0,4.3-1,6.1-2.9l3.4,4c-2.5,3-5.8,4.5-9.7,4.5C255,185.5,252.7,184.9,250.5,183.7z"/>
			<path class="st5" d="M271.8,162h5.1l0.5,4h0.2c0.8-1.5,1.8-2.6,2.9-3.4c1.2-0.8,2.3-1.2,3.5-1.2c1.1,0,2,0.2,2.7,0.5l-1.1,5.5
				c-0.1,0-0.4-0.1-0.8-0.2c-0.5-0.1-1-0.2-1.6-0.2c-1,0-1.9,0.4-2.9,1.1c-0.9,0.7-1.7,1.8-2.3,3.3V185h-6.3V162z"/>
			<path class="st5" d="M292.2,183.1c-1.2-1.6-1.7-3.9-1.7-6.8V162h6.3v13.5c0,1.7,0.2,2.9,0.7,3.5c0.5,0.7,1.3,1,2.4,1
				c0.9,0,1.7-0.2,2.3-0.6s1.3-1.1,2.1-2.1V162h6.3v23h-5.1l-0.5-3.2h-0.2c-1.1,1.2-2.1,2.2-3.3,2.8s-2.5,1-3.9,1
				C295.2,185.5,293.4,184.7,292.2,183.1z"/>
			<path class="st5" d="M317.8,157.5c-0.7-0.6-1-1.4-1-2.4c0-1,0.3-1.8,1-2.4c0.7-0.6,1.5-1,2.6-1s1.9,0.3,2.6,1
				c0.7,0.6,1,1.4,1,2.4c0,1-0.3,1.8-1,2.4c-0.7,0.6-1.5,1-2.6,1S318.4,158.1,317.8,157.5z M317.2,162h6.3v23h-6.3V162z"/>
			<path class="st5" d="M332.1,184.6c-1.6-0.6-3-1.4-4.2-2.3l2.9-4c1.1,0.8,2.1,1.5,3.1,1.9c1,0.4,2,0.6,3,0.6
				c1.1,0,1.8-0.2,2.4-0.6c0.5-0.4,0.8-0.9,0.8-1.6c0-0.5-0.2-0.9-0.6-1.3c-0.4-0.4-1-0.7-1.8-1c-0.8-0.3-1.5-0.6-2.3-1
				c-1.8-0.7-3.3-1.6-4.5-2.6c-1.2-1-1.7-2.4-1.7-4.1c0-2.1,0.8-3.8,2.4-5.1c1.6-1.3,3.7-2,6.3-2c2.8,0,5.5,1,7.9,2.9l-2.8,3.8
				c-1.8-1.3-3.5-1.9-4.9-1.9c-1,0-1.7,0.2-2.2,0.6c-0.5,0.4-0.7,0.9-0.7,1.5c0,0.6,0.3,1.1,0.9,1.5c0.6,0.4,1.3,0.7,2.1,1
				c0.8,0.3,1.3,0.5,1.6,0.6c1.9,0.7,3.5,1.6,4.6,2.6c1.1,1,1.7,2.5,1.7,4.3c0,1.4-0.4,2.6-1.1,3.7c-0.7,1.1-1.8,2-3.2,2.6
				c-1.4,0.6-3.1,1-5,1C335.3,185.5,333.7,185.2,332.1,184.6z"/>
			<path class="st5" d="M369.8,175.3h-14.2c0.3,1.8,1.1,3.2,2.2,4c1.2,0.9,2.6,1.3,4.2,1.3c1.6,0,3.3-0.5,5.1-1.5l2.1,3.9
				c-1.1,0.8-2.4,1.4-3.8,1.9c-1.4,0.4-2.8,0.7-4.2,0.7c-2.2,0-4.1-0.5-5.9-1.4c-1.7-1-3.1-2.4-4.1-4.2c-1-1.8-1.5-4-1.5-6.4
				c0-2.4,0.5-4.5,1.5-6.4c1-1.8,2.3-3.2,4-4.2c1.6-1,3.4-1.5,5.2-1.5c3.1,0,5.5,1,7.2,3c1.7,2,2.5,4.7,2.5,8
				C370.1,173.6,370,174.6,369.8,175.3z M364.6,171.1c0-1.5-0.3-2.7-1-3.5c-0.7-0.9-1.7-1.3-3.1-1.3c-1.1,0-2.2,0.4-3,1.2
				c-0.9,0.8-1.5,2-1.8,3.6H364.6z"/>
			<path class="st5" d="M377.4,184.6c-1.6-0.6-3-1.4-4.2-2.3l2.9-4c1.1,0.8,2.1,1.5,3.1,1.9c1,0.4,2,0.6,3,0.6
				c1.1,0,1.8-0.2,2.4-0.6c0.5-0.4,0.8-0.9,0.8-1.6c0-0.5-0.2-0.9-0.6-1.3c-0.4-0.4-1-0.7-1.8-1c-0.8-0.3-1.5-0.6-2.3-1
				c-1.8-0.7-3.3-1.6-4.5-2.6c-1.2-1-1.7-2.4-1.7-4.1c0-2.1,0.8-3.8,2.4-5.1c1.6-1.3,3.7-2,6.3-2c2.8,0,5.5,1,7.9,2.9l-2.8,3.8
				c-1.8-1.3-3.5-1.9-4.9-1.9c-1,0-1.7,0.2-2.2,0.6c-0.5,0.4-0.7,0.9-0.7,1.5c0,0.6,0.3,1.1,0.9,1.5c0.6,0.4,1.3,0.7,2.1,1
				c0.8,0.3,1.3,0.5,1.6,0.6c1.9,0.7,3.5,1.6,4.6,2.6c1.1,1,1.7,2.5,1.7,4.3c0,1.4-0.4,2.6-1.1,3.7c-0.7,1.1-1.8,2-3.2,2.6
				c-1.4,0.6-3.1,1-5,1C380.5,185.5,379,185.2,377.4,184.6z"/>
		</g>
		<g>
			<path class="st0" d="M152,224.3c-1-0.4-1.9-1.1-2.6-1.8l1.1-1.3c0.6,0.7,1.3,1.2,2.1,1.6s1.7,0.6,2.5,0.6c1.1,0,2-0.3,2.7-0.8
				c0.7-0.5,1-1.2,1-2.1c0-0.6-0.1-1-0.4-1.4c-0.2-0.4-0.5-0.7-0.9-0.9s-0.9-0.5-1.6-0.8l-2.4-1.1c-1-0.4-1.8-1-2.4-1.6
				s-1-1.5-1-2.6c0-0.8,0.2-1.6,0.7-2.2c0.4-0.7,1.1-1.2,1.8-1.6c0.8-0.4,1.7-0.6,2.6-0.6c1,0,1.9,0.2,2.7,0.6
				c0.8,0.4,1.6,0.9,2.1,1.5l-1,1.2c-1.1-1.1-2.4-1.6-3.8-1.6c-1,0-1.8,0.2-2.4,0.7c-0.6,0.5-0.9,1.1-0.9,1.9c0,0.5,0.1,1,0.4,1.3
				c0.3,0.4,0.6,0.6,0.9,0.8c0.4,0.2,0.8,0.4,1.4,0.7l2.4,1.1c1.1,0.5,2,1,2.6,1.7c0.6,0.7,0.9,1.6,0.9,2.7c0,0.9-0.2,1.7-0.7,2.4
				c-0.5,0.7-1.1,1.3-2,1.7s-1.8,0.6-2.9,0.6C154,225,153,224.8,152,224.3z"/>
			<path class="st0" d="M164.9,208h1.9v7.1h8.1V208h1.9v16.7h-1.9v-8h-8.1v8h-1.9V208z"/>
			<path class="st0" d="M182,208h1.9v16.7H182V208z"/>
			<path class="st0" d="M189.1,208h4.6c2,0,3.5,0.4,4.6,1.1c1.1,0.8,1.6,2,1.6,3.7c0,1.7-0.5,2.9-1.6,3.8c-1.1,0.9-2.6,1.3-4.5,1.3
				H191v6.8h-1.9V208z M193.6,216.4c1.5,0,2.7-0.3,3.4-0.9c0.7-0.6,1.1-1.5,1.1-2.7c0-1.2-0.4-2.1-1.1-2.6c-0.7-0.5-1.9-0.8-3.5-0.8
				H191v6.9H193.6z"/>
			<path class="st0" d="M203.9,208h4.6c2,0,3.5,0.4,4.6,1.1c1.1,0.8,1.6,2,1.6,3.7c0,1.7-0.5,2.9-1.6,3.8c-1.1,0.9-2.6,1.3-4.5,1.3
				h-2.8v6.8h-1.9V208z M208.4,216.4c1.5,0,2.7-0.3,3.4-0.9c0.7-0.6,1.1-1.5,1.1-2.7c0-1.2-0.4-2.1-1.1-2.6
				c-0.7-0.5-1.9-0.8-3.5-0.8h-2.5v6.9H208.4z"/>
			<path class="st0" d="M218.7,208h1.9v16.7h-1.9V208z"/>
			<path class="st0" d="M225.8,208h1.9l6.3,10.8l1.8,3.4h0.1l-0.1-1.1c0-0.3-0.1-0.8-0.1-1.7c-0.1-0.9-0.1-1.7-0.1-2.4V208h1.8v16.7
				h-1.9l-6.3-10.8l-1.8-3.4h-0.1l0.1,1.2c0.1,1.5,0.2,2.8,0.2,3.9v9.2h-1.8V208z"/>
			<path class="st0" d="M245.5,223.9c-1.1-0.7-2-1.7-2.6-3s-0.9-2.8-0.9-4.6s0.3-3.3,1-4.6c0.6-1.3,1.5-2.3,2.7-3
				c1.2-0.7,2.5-1.1,3.9-1.1c1.8,0,3.4,0.7,4.8,2l-1,1.2c-1-1.1-2.2-1.6-3.7-1.6c-1.2,0-2.2,0.3-3,0.9c-0.9,0.6-1.5,1.4-2,2.4
				c-0.5,1-0.7,2.3-0.7,3.7c0,2.2,0.5,3.9,1.5,5.1c1,1.3,2.4,1.9,4.2,1.9c0.6,0,1.2-0.1,1.8-0.3s1-0.5,1.4-0.8v-4.6h-3.7v-1.6h5.4
				v6.9c-0.6,0.6-1.3,1.1-2.2,1.4c-0.9,0.3-1.9,0.5-2.9,0.5C248,225,246.7,224.6,245.5,223.9z"/>
			<path class="st0" d="M268.2,223.9c-1.1-0.7-1.9-1.7-2.6-3c-0.6-1.3-0.9-2.8-0.9-4.6c0-1.7,0.3-3.3,0.9-4.6c0.6-1.3,1.5-2.3,2.6-3
				c1.1-0.7,2.4-1.1,3.8-1.1c0.9,0,1.8,0.2,2.6,0.6c0.8,0.4,1.4,0.9,2,1.4l-1,1.2c-1-1.1-2.1-1.6-3.5-1.6c-1.1,0-2,0.3-2.8,0.9
				c-0.8,0.6-1.4,1.4-1.9,2.4c-0.4,1-0.7,2.3-0.7,3.7c0,1.4,0.2,2.7,0.6,3.7c0.4,1.1,1.1,1.9,1.9,2.5c0.8,0.6,1.8,0.9,2.8,0.9
				c0.8,0,1.5-0.2,2.1-0.5c0.6-0.3,1.2-0.8,1.8-1.4l1,1.2c-0.7,0.8-1.4,1.4-2.3,1.8s-1.8,0.6-2.8,0.6
				C270.5,225,269.3,224.6,268.2,223.9z"/>
			<path class="st0" d="M282.9,223.9c-1.1-0.7-1.9-1.7-2.5-3.1c-0.6-1.3-0.9-2.9-0.9-4.6c0-1.7,0.3-3.3,0.9-4.6
				c0.6-1.3,1.4-2.3,2.5-3c1.1-0.7,2.3-1,3.7-1c1.4,0,2.6,0.3,3.7,1c1.1,0.7,1.9,1.7,2.5,3c0.6,1.3,0.9,2.8,0.9,4.6
				c0,1.7-0.3,3.3-0.9,4.6c-0.6,1.3-1.4,2.3-2.5,3.1c-1.1,0.7-2.3,1.1-3.7,1.1C285.2,225,284,224.6,282.9,223.9z M289.3,222.5
				c0.8-0.6,1.4-1.4,1.8-2.5c0.4-1.1,0.6-2.3,0.6-3.7c0-1.4-0.2-2.6-0.6-3.7c-0.4-1-1-1.8-1.8-2.4c-0.8-0.6-1.7-0.9-2.7-0.9
				c-1,0-1.9,0.3-2.7,0.9c-0.8,0.6-1.4,1.4-1.8,2.4c-0.4,1-0.6,2.3-0.6,3.7c0,1.4,0.2,2.7,0.6,3.7c0.4,1.1,1,1.9,1.8,2.5
				c0.8,0.6,1.7,0.9,2.7,0.9C287.6,223.3,288.5,223,289.3,222.5z"/>
			<path class="st0" d="M298.1,208h2.3l3.3,9.2l1.2,3.5h0.1c0.1-0.3,0.3-0.8,0.5-1.4c0.3-0.8,0.5-1.5,0.7-2.1l3.2-9.2h2.3v16.7H310
				V215c0-1,0.1-2.6,0.2-4.8h-0.1l-1.3,3.8l-3.3,9h-1.3l-3.3-9l-1.3-3.8h-0.1l0.1,0.6c0.1,1.8,0.2,3.2,0.2,4.2v9.7h-1.7V208z"/>
			<path class="st0" d="M317,208h4.6c2,0,3.5,0.4,4.6,1.1c1.1,0.8,1.6,2,1.6,3.7c0,1.7-0.5,2.9-1.6,3.8c-1.1,0.9-2.6,1.3-4.5,1.3
				h-2.8v6.8H317V208z M321.5,216.4c1.5,0,2.7-0.3,3.4-0.9c0.7-0.6,1.1-1.5,1.1-2.7c0-1.2-0.4-2.1-1.1-2.6c-0.7-0.5-1.9-0.8-3.5-0.8
				h-2.5v6.9H321.5z"/>
			<path class="st0" d="M338.8,219.4h-6.2l-1.7,5.3h-1.9l5.7-16.7h2.1l5.7,16.7h-2L338.8,219.4z M338.3,217.9l-0.9-2.7
				c-0.7-2.1-1.3-4-1.7-5.7h-0.1c-0.6,2.1-1.1,3.9-1.7,5.7l-0.9,2.7H338.3z"/>
			<path class="st0" d="M345.9,208h1.9l6.3,10.8l1.8,3.4h0.1l-0.1-1.1c0-0.3-0.1-0.8-0.1-1.7c-0.1-0.9-0.1-1.7-0.1-2.4V208h1.8v16.7
				h-1.9l-6.3-10.8l-1.8-3.4h-0.1l0.1,1.2c0.1,1.5,0.2,2.8,0.2,3.9v9.2h-1.8V208z"/>
			<path class="st0" d="M366,218.1l-5-10.1h2l2.2,4.9l0.4,0.9c0.7,1.5,1.1,2.4,1.2,2.7h0.1l0.4-0.9c0.7-1.5,1.1-2.4,1.3-2.7l2.2-4.9
				h2l-5,10.1v6.6H366V218.1z"/>
		</g>
		<g>
			<g>
				<path class="st3" d="M54.6,41.8L50,32.6h1.8l2,4.4l0.4,0.9c0.6,1.3,1,2.2,1.1,2.4h0.1l0.4-0.8c0.7-1.4,1-2.2,1.2-2.5l2-4.4h1.8
					l-4.6,9.3v6h-1.7V41.8z"/>
				<path class="st3" d="M63.9,47.4c-0.8-0.5-1.4-1.2-1.9-2c-0.5-0.9-0.7-1.9-0.7-3.2c0-1.2,0.2-2.3,0.7-3.2
					c0.5-0.9,1.1-1.6,1.9-2.1c0.8-0.5,1.7-0.7,2.6-0.7c0.9,0,1.8,0.2,2.6,0.7c0.8,0.5,1.4,1.2,1.9,2.1c0.5,0.9,0.7,2,0.7,3.2
					c0,1.2-0.2,2.3-0.7,3.2c-0.5,0.9-1.1,1.6-1.9,2c-0.8,0.5-1.7,0.7-2.6,0.7C65.6,48.1,64.7,47.9,63.9,47.4z M68.3,46.1
					c0.5-0.4,0.9-0.9,1.2-1.6c0.3-0.7,0.4-1.5,0.4-2.3c0-0.9-0.1-1.7-0.4-2.3c-0.3-0.7-0.7-1.2-1.2-1.6s-1.1-0.6-1.8-0.6
					c-0.7,0-1.3,0.2-1.8,0.6s-0.9,0.9-1.2,1.6s-0.4,1.5-0.4,2.3c0,1.3,0.3,2.4,1,3.3s1.5,1.2,2.5,1.2C67.2,46.7,67.8,46.5,68.3,46.1
					z"/>
				<path class="st3" d="M75.8,47c-0.6-0.7-0.8-1.8-0.8-3.3v-7.2h1.7v7c0,1.1,0.2,1.9,0.5,2.4s0.9,0.8,1.7,0.8
					c0.6,0,1.1-0.2,1.6-0.5c0.5-0.3,1-0.8,1.6-1.5v-8.1h1.7v11.3h-1.4L82.2,46h-0.1c-0.6,0.7-1.2,1.2-1.8,1.5s-1.3,0.5-2,0.5
					C77.2,48.1,76.3,47.7,75.8,47z"/>
				<path class="st3" d="M87.8,36.6h1.4l0.1,2.1h0.1c0.4-0.7,0.9-1.3,1.4-1.7c0.6-0.4,1.2-0.6,1.8-0.6c0.4,0,0.8,0.1,1.2,0.2
					L93.5,38c-0.4-0.1-0.8-0.2-1.1-0.2c-0.5,0-1.1,0.2-1.6,0.7s-1,1.1-1.3,2v7.3h-1.7V36.6z"/>
				<path class="st3" d="M102,46.6c-0.8-1-1.2-2.5-1.2-4.3c0-1.2,0.2-2.2,0.7-3.1c0.4-0.9,1-1.6,1.8-2.1c0.8-0.5,1.6-0.7,2.4-0.7
					c0.6,0,1.1,0.1,1.6,0.3c0.5,0.2,1,0.6,1.6,1l-0.1-2v-4.4h1.7v16.6h-1.4l-0.1-1.4h-0.1c-0.5,0.5-1,0.9-1.6,1.2s-1.2,0.5-1.9,0.5
					C103.9,48.1,102.8,47.6,102,46.6z M107.3,46.3c0.5-0.3,1-0.7,1.5-1.2V39c-0.5-0.4-1-0.7-1.4-0.9s-0.9-0.3-1.4-0.3
					c-0.6,0-1.2,0.2-1.7,0.6c-0.5,0.4-0.9,0.9-1.2,1.6c-0.3,0.7-0.5,1.4-0.5,2.3c0,1.4,0.3,2.5,0.8,3.3c0.6,0.8,1.4,1.2,2.4,1.2
					C106.3,46.7,106.8,46.5,107.3,46.3z"/>
				<path class="st3" d="M114.6,33.8c-0.2-0.2-0.3-0.5-0.3-0.9c0-0.3,0.1-0.6,0.3-0.8c0.2-0.2,0.5-0.3,0.8-0.3s0.6,0.1,0.8,0.3
					c0.2,0.2,0.3,0.5,0.3,0.8c0,0.4-0.1,0.6-0.3,0.9c-0.2,0.2-0.5,0.3-0.8,0.3S114.8,34,114.6,33.8z M114.6,36.6h1.7v11.3h-1.7V36.6
					z"/>
				<path class="st3" d="M120.7,52.3c-0.8-0.5-1.3-1.3-1.3-2.2c0-0.5,0.1-0.9,0.4-1.4c0.3-0.4,0.7-0.9,1.2-1.2v-0.1
					c-0.3-0.2-0.5-0.4-0.7-0.7c-0.2-0.3-0.3-0.7-0.3-1.1c0-0.4,0.1-0.8,0.4-1.2c0.2-0.4,0.5-0.7,0.9-0.9v-0.1
					c-0.4-0.3-0.7-0.8-1-1.3c-0.3-0.5-0.4-1.1-0.4-1.7c0-0.8,0.2-1.5,0.6-2.1s0.9-1.1,1.5-1.4c0.6-0.3,1.3-0.5,2.1-0.5
					c0.5,0,1,0.1,1.6,0.3h3.9v1.3h-2.4c0.3,0.3,0.5,0.6,0.7,1.1c0.2,0.4,0.3,0.9,0.3,1.4c0,0.8-0.2,1.5-0.5,2.1s-0.8,1.1-1.5,1.4
					c-0.6,0.3-1.3,0.5-2.1,0.5c-0.6,0-1.2-0.1-1.7-0.4c-0.2,0.2-0.4,0.4-0.6,0.6c-0.1,0.2-0.2,0.5-0.2,0.8c0,0.4,0.2,0.7,0.5,0.9
					c0.3,0.2,0.8,0.3,1.5,0.3h2.3c1.3,0,2.3,0.2,2.9,0.7s1,1.1,1,2c0,0.7-0.2,1.3-0.7,1.9c-0.5,0.6-1.1,1.1-2,1.4
					c-0.9,0.4-1.8,0.5-2.9,0.5C122.7,53.1,121.6,52.8,120.7,52.3z M126.3,51.5c0.6-0.2,1-0.5,1.3-0.9c0.3-0.4,0.5-0.8,0.5-1.2
					c0-0.5-0.2-0.9-0.6-1.1s-1-0.3-1.8-0.3h-2.1c-0.5,0-1-0.1-1.4-0.2c-0.8,0.6-1.2,1.2-1.2,2c0,0.6,0.3,1.1,0.9,1.5
					s1.4,0.6,2.5,0.6C125.1,51.9,125.7,51.8,126.3,51.5z M125.9,42.3c0.5-0.5,0.7-1.2,0.7-2c0-0.8-0.2-1.5-0.7-2
					c-0.5-0.5-1.1-0.8-1.8-0.8c-0.7,0-1.3,0.3-1.8,0.8c-0.5,0.5-0.7,1.2-0.7,2c0,0.8,0.2,1.5,0.7,2c0.5,0.5,1.1,0.8,1.8,0.8
					C124.8,43.1,125.4,42.8,125.9,42.3z"/>
				<path class="st3" d="M132.4,33.8c-0.2-0.2-0.3-0.5-0.3-0.9c0-0.3,0.1-0.6,0.3-0.8c0.2-0.2,0.5-0.3,0.8-0.3s0.6,0.1,0.8,0.3
					c0.2,0.2,0.3,0.5,0.3,0.8c0,0.4-0.1,0.6-0.3,0.9c-0.2,0.2-0.5,0.3-0.8,0.3S132.6,34,132.4,33.8z M132.4,36.6h1.7v11.3h-1.7V36.6
					z"/>
				<path class="st3" d="M139.3,47.2c-0.5-0.6-0.7-1.5-0.7-2.7V38h-1.7v-1.3l1.8-0.1l0.2-3.2h1.4v3.2h3.1V38h-3.1v6.5
					c0,0.7,0.1,1.3,0.4,1.7s0.7,0.6,1.4,0.6c0.3,0,0.8-0.1,1.3-0.3l0.3,1.3c-0.8,0.3-1.5,0.4-2,0.4
					C140.6,48.1,139.8,47.8,139.3,47.2z"/>
				<path class="st3" d="M146.8,47.3c-0.6-0.6-0.9-1.3-0.9-2.3c0-1.2,0.6-2.2,1.7-2.8c1.1-0.7,2.9-1.1,5.3-1.4
					c0-0.9-0.2-1.6-0.5-2.2c-0.4-0.6-1-0.8-1.9-0.8c-1.1,0-2.2,0.4-3.4,1.2l-0.7-1.2c1.5-1,2.9-1.5,4.4-1.5c1.3,0,2.3,0.4,2.9,1.2
					c0.6,0.8,0.9,1.9,0.9,3.4v7h-1.4l-0.1-1.4h-0.1c-1.3,1.1-2.6,1.7-3.8,1.7C148.2,48.1,147.4,47.8,146.8,47.3z M151.2,46.4
					c0.5-0.3,1.1-0.7,1.7-1.2v-3.3c-1.9,0.2-3.3,0.6-4.1,1.1c-0.8,0.5-1.2,1.1-1.2,1.9c0,0.6,0.2,1.1,0.6,1.4
					c0.4,0.3,0.9,0.5,1.5,0.5C150.1,46.7,150.7,46.6,151.2,46.4z"/>
				<path class="st3" d="M158.9,47.5c-0.3-0.4-0.4-1-0.4-1.8V31.2h1.7v14.7c0,0.3,0.1,0.5,0.2,0.6s0.2,0.2,0.4,0.2
					c0.1,0,0.3,0,0.4,0l0.2,1.3c-0.3,0.1-0.6,0.2-1,0.2C159.7,48.1,159.2,47.9,158.9,47.5z"/>
				<path class="st3" d="M170.5,52.3c-0.8-0.5-1.3-1.3-1.3-2.2c0-0.5,0.1-0.9,0.4-1.4c0.3-0.4,0.7-0.9,1.2-1.2v-0.1
					c-0.3-0.2-0.5-0.4-0.7-0.7c-0.2-0.3-0.3-0.7-0.3-1.1c0-0.4,0.1-0.8,0.4-1.2c0.2-0.4,0.5-0.7,0.9-0.9v-0.1
					c-0.4-0.3-0.7-0.8-1-1.3c-0.3-0.5-0.4-1.1-0.4-1.7c0-0.8,0.2-1.5,0.6-2.1s0.9-1.1,1.5-1.4c0.6-0.3,1.3-0.5,2.1-0.5
					c0.5,0,1,0.1,1.6,0.3h3.9v1.3h-2.4c0.3,0.3,0.5,0.6,0.7,1.1c0.2,0.4,0.3,0.9,0.3,1.4c0,0.8-0.2,1.5-0.5,2.1s-0.8,1.1-1.5,1.4
					c-0.6,0.3-1.3,0.5-2.1,0.5c-0.6,0-1.2-0.1-1.7-0.4c-0.2,0.2-0.4,0.4-0.6,0.6c-0.1,0.2-0.2,0.5-0.2,0.8c0,0.4,0.2,0.7,0.5,0.9
					c0.3,0.2,0.8,0.3,1.5,0.3h2.3c1.3,0,2.3,0.2,2.9,0.7s1,1.1,1,2c0,0.7-0.2,1.3-0.7,1.9c-0.5,0.6-1.1,1.1-2,1.4
					c-0.9,0.4-1.8,0.5-2.9,0.5C172.5,53.1,171.3,52.8,170.5,52.3z M176,51.5c0.6-0.2,1-0.5,1.3-0.9c0.3-0.4,0.5-0.8,0.5-1.2
					c0-0.5-0.2-0.9-0.6-1.1s-1-0.3-1.8-0.3h-2.1c-0.5,0-1-0.1-1.4-0.2c-0.8,0.6-1.2,1.2-1.2,2c0,0.6,0.3,1.1,0.9,1.5
					s1.4,0.6,2.5,0.6C174.8,51.9,175.5,51.8,176,51.5z M175.6,42.3c0.5-0.5,0.7-1.2,0.7-2c0-0.8-0.2-1.5-0.7-2
					c-0.5-0.5-1.1-0.8-1.8-0.8c-0.7,0-1.3,0.3-1.8,0.8c-0.5,0.5-0.7,1.2-0.7,2c0,0.8,0.2,1.5,0.7,2c0.5,0.5,1.1,0.8,1.8,0.8
					C174.5,43.1,175.1,42.8,175.6,42.3z"/>
				<path class="st3" d="M182.1,33.8c-0.2-0.2-0.3-0.5-0.3-0.9c0-0.3,0.1-0.6,0.3-0.8c0.2-0.2,0.5-0.3,0.8-0.3s0.6,0.1,0.8,0.3
					c0.2,0.2,0.3,0.5,0.3,0.8c0,0.4-0.1,0.6-0.3,0.9c-0.2,0.2-0.5,0.3-0.8,0.3S182.4,34,182.1,33.8z M182.1,36.6h1.7v11.3h-1.7V36.6
					z"/>
				<path class="st3" d="M189.9,34.6v1.9h2.4V38h-2.4v9.9h-1.7V38h-1.5v-1.3l1.5-0.1v-2c0-1.2,0.3-2.1,0.8-2.7c0.5-0.6,1.3-1,2.4-1
					c0.6,0,1.2,0.1,1.8,0.4l-0.4,1.3c-0.4-0.2-0.9-0.3-1.3-0.3C190.5,32.3,189.9,33.1,189.9,34.6z"/>
				<path class="st3" d="M196.8,47.2c-0.5-0.6-0.7-1.5-0.7-2.7V38h-1.7v-1.3l1.8-0.1l0.2-3.2h1.4v3.2h3.1V38h-3.1v6.5
					c0,0.7,0.1,1.3,0.4,1.7s0.7,0.6,1.4,0.6c0.3,0,0.8-0.1,1.3-0.3l0.3,1.3c-0.8,0.3-1.5,0.4-2,0.4
					C198.1,48.1,197.3,47.8,196.8,47.2z"/>
				<path class="st3" d="M211,47.4c-0.8-0.5-1.4-1.2-1.9-2c-0.5-0.9-0.7-1.9-0.7-3.2c0-1.2,0.2-2.3,0.7-3.2c0.5-0.9,1.1-1.6,2-2.1
					c0.8-0.5,1.7-0.7,2.7-0.7c1.2,0,2.3,0.4,3.3,1.3l-0.9,1.1c-0.4-0.3-0.7-0.6-1.1-0.8s-0.8-0.3-1.2-0.3c-0.7,0-1.3,0.2-1.9,0.6
					c-0.6,0.4-1,0.9-1.3,1.6c-0.3,0.7-0.5,1.5-0.5,2.3c0,1.3,0.3,2.4,1,3.3c0.7,0.8,1.5,1.2,2.6,1.2c1,0,1.9-0.4,2.7-1.2l0.7,1.1
					c-0.5,0.4-1.1,0.8-1.7,1.1c-0.6,0.3-1.3,0.4-1.9,0.4C212.7,48.1,211.8,47.9,211,47.4z"/>
				<path class="st3" d="M220.6,47.3c-0.6-0.6-0.9-1.3-0.9-2.3c0-1.2,0.6-2.2,1.7-2.8c1.1-0.7,2.9-1.1,5.3-1.4
					c0-0.9-0.2-1.6-0.5-2.2c-0.4-0.6-1-0.8-1.9-0.8c-1.1,0-2.2,0.4-3.4,1.2l-0.7-1.2c1.5-1,2.9-1.5,4.4-1.5c1.3,0,2.3,0.4,2.9,1.2
					c0.6,0.8,0.9,1.9,0.9,3.4v7H227l-0.1-1.4h-0.1c-1.3,1.1-2.6,1.7-3.8,1.7C222,48.1,221.2,47.8,220.6,47.3z M225,46.4
					c0.5-0.3,1.1-0.7,1.7-1.2v-3.3c-1.9,0.2-3.3,0.6-4.1,1.1c-0.8,0.5-1.2,1.1-1.2,1.9c0,0.6,0.2,1.1,0.6,1.4
					c0.4,0.3,0.9,0.5,1.5,0.5C224,46.7,224.5,46.6,225,46.4z"/>
				<path class="st3" d="M232.3,36.6h1.4l0.1,2.1h0.1c0.4-0.7,0.9-1.3,1.4-1.7c0.6-0.4,1.2-0.6,1.8-0.6c0.4,0,0.8,0.1,1.2,0.2
					L238,38c-0.4-0.1-0.8-0.2-1.1-0.2c-0.5,0-1.1,0.2-1.6,0.7s-1,1.1-1.3,2v7.3h-1.7V36.6z"/>
				<path class="st3" d="M241,46.6c-0.8-1-1.2-2.5-1.2-4.3c0-1.2,0.2-2.2,0.7-3.1c0.4-0.9,1-1.6,1.8-2.1c0.8-0.5,1.6-0.7,2.4-0.7
					c0.6,0,1.1,0.1,1.6,0.3c0.5,0.2,1,0.6,1.6,1l-0.1-2v-4.4h1.7v16.6H248l-0.1-1.4h-0.1c-0.5,0.5-1,0.9-1.6,1.2s-1.2,0.5-1.9,0.5
					C242.9,48.1,241.8,47.6,241,46.6z M246.3,46.3c0.5-0.3,1-0.7,1.5-1.2V39c-0.5-0.4-1-0.7-1.4-0.9s-0.9-0.3-1.4-0.3
					c-0.6,0-1.2,0.2-1.7,0.6c-0.5,0.4-0.9,0.9-1.2,1.6c-0.3,0.7-0.5,1.4-0.5,2.3c0,1.4,0.3,2.5,0.8,3.3c0.6,0.8,1.4,1.2,2.4,1.2
					C245.3,46.7,245.8,46.5,246.3,46.3z"/>
			</g>
		</g>
		<g>
			<path class="st3" d="M392.2,0v38c0,10,8.1,18,18,18c10,0,18-8.1,18-18V0H392.2z"/>
			<g>
				<path d="M405.8,41.4c-1.1-1.1-1.9-2.7-1.9-4.5c0-3.5,2.8-6.3,6.3-6.3c1.7,0,3.3,0.7,4.5,1.9l3.3-3.3c-2-2-4.7-3.2-7.7-3.2
					c-6,0-10.9,4.9-10.9,10.9c0,3,1.2,5.7,3.2,7.7L405.8,41.4z"/>
				<path d="M415.5,40.5c-1.1,1.6-3,2.7-5.2,2.7c-0.4,0-0.8,0-1.2-0.1l-3.6,3.6c1.4,0.7,3.1,1.1,4.8,1.1c3.7,0,7-1.8,9-4.7
					L415.5,40.5z"/>
			</g>
		</g>
		<g>
			<g>
				<line class="st6" x1="105.8" y1="180.3" x2="121.9" y2="180.3"/>
				<line class="st6" x1="53.8" y1="180.3" x2="70.2" y2="180.3"/>
				<ellipse class="st6" cx="87.9" cy="188.9" rx="36.1" ry="36.3"/>
			</g>
			<ellipse class="st7" cx="87.9" cy="169.8" rx="4" ry="4"/>
			<line class="st8" x1="76.2" y1="180.3" x2="99.8" y2="180.3"/>
			<line class="st7" x1="87.9" y1="173.7" x2="87.9" y2="210"/>
			<path class="st8" d="M78.2,192.9H66.4c1.9,10.2,10.8,17.9,21.5,17.9c10.7,0,19.6-7.7,21.5-17.9H97.1"/>
		</g>
	</g>
</g>
</svg>
