<?xml version="1.0" encoding="utf-8"?>
<!-- Generator: Adobe Illustrator 23.0.3, SVG Export Plug-In . SVG Version: 6.00 Build 0)  -->
<svg version="1.1" xmlns="http://www.w3.org/2000/svg" xmlns:xlink="http://www.w3.org/1999/xlink" x="0px" y="0px"
	 viewBox="0 0 480 302.7" style="enable-background:new 0 0 480 302.7;" xml:space="preserve">
<style type="text/css">
	.st0{fill:#FAD151;}
	.st1{fill:#1F2223;}
	.st2{fill:#5C656B;}
	.st3{fill:#7D8489;}
	.st4{fill:#131617;}
	.st5{fill:#FFFFFF;}
	.st6{fill:none;stroke:#FAD151;stroke-width:3.4016;stroke-miterlimit:10;}
	.st7{fill-rule:evenodd;clip-rule:evenodd;fill:none;stroke:#FFFFFF;stroke-width:3.4016;stroke-miterlimit:10;}
	.st8{fill:none;stroke:#FFFFFF;stroke-width:3.4016;stroke-miterlimit:10;}
	.st9{fill:#2E3133;}
	.st10{opacity:0.6;fill:#FFFFFF;}
</style>
<g id="Karten">
</g>
<g id="Ebene_3">
	<g>
		<path class="st0" d="M462.2,0h-33.8l-18,16l-18-16H17.8C8,0,0,8,0,17.8v267c0,9.8,8,17.8,17.8,17.8h444.3c9.8,0,17.8-8,17.8-17.8
			v-267C480,8,472,0,462.2,0z"/>
		<g>
			<path d="M133,184.9c-2-0.7-3.7-1.8-5.3-3.2l4.4-5.4c1.1,0.8,2.2,1.5,3.5,2.1c1.2,0.5,2.4,0.8,3.5,0.8c2.2,0,3.4-0.7,3.4-2.1
				c0-0.5-0.2-0.8-0.5-1.1c-0.3-0.3-0.8-0.6-1.4-0.9s-1.3-0.6-2.1-0.9l-3.7-1.5c-1.8-0.7-3.2-1.7-4.3-3.1c-1.1-1.4-1.7-3.1-1.7-5.1
				c0-1.7,0.5-3.2,1.4-4.6c0.9-1.4,2.2-2.5,3.9-3.3c1.7-0.8,3.6-1.2,5.7-1.2c1.8,0,3.5,0.3,5.2,1c1.7,0.7,3.3,1.6,4.6,3l-3.9,4.9
				c-1-0.7-2-1.3-2.9-1.6c-0.9-0.3-1.9-0.5-3-0.5c-1,0-1.7,0.2-2.3,0.5c-0.5,0.3-0.8,0.8-0.8,1.5c0,0.5,0.2,0.8,0.5,1.1
				c0.3,0.3,0.8,0.6,1.5,0.9c0.7,0.3,1.5,0.6,2.3,0.9l3.6,1.4c3.8,1.5,5.8,4.2,5.8,8.1c0,1.7-0.5,3.3-1.4,4.7
				c-0.9,1.4-2.3,2.6-4,3.5c-1.7,0.9-3.8,1.3-6.2,1.3C137,185.9,135,185.6,133,184.9z"/>
			<path d="M157.8,183.5c-1.4-1.6-2-3.9-2-6.8v-7.9h-3V163l3.5-0.3l0.9-5.9h6.4v5.9h5.2v6.1h-5.2v7.8c0,1.2,0.2,2,0.7,2.5
				c0.5,0.5,1.2,0.8,2,0.8c0.6,0,1.3-0.1,2-0.4l1.2,5.6c-1.8,0.5-3.5,0.8-5.4,0.8C161.2,185.9,159.1,185.1,157.8,183.5z"/>
			<path d="M175.5,185c-1-0.6-1.8-1.5-2.4-2.5c-0.5-1.1-0.8-2.2-0.8-3.5c0-2.4,1-4.3,2.9-5.6c2-1.3,5.1-2.2,9.4-2.7
				c-0.1-0.8-0.4-1.4-0.9-1.8c-0.5-0.4-1.3-0.6-2.3-0.6c-0.8,0-1.6,0.2-2.5,0.5c-0.9,0.3-2,0.8-3.2,1.5l-2.7-5.1c3.3-2,6.7-3,10-3
				c6.3,0,9.4,3.5,9.4,10.6v12.6h-6.4l-0.5-2.2h-0.2c-2,1.8-4.1,2.7-6.3,2.7C177.8,185.9,176.6,185.6,175.5,185z M183.4,179.6
				c0.4-0.3,0.9-0.6,1.3-1.2v-3.1c-3.3,0.5-4.9,1.5-4.9,3c0,0.5,0.2,0.9,0.5,1.2c0.4,0.3,0.9,0.4,1.5,0.4
				C182.5,179.9,182.9,179.8,183.4,179.6z"/>
			<path d="M198.2,162.7h6.4l0.5,3.9h0.2c0.8-1.5,1.8-2.6,2.9-3.3c1.2-0.7,2.3-1.1,3.5-1.1c1.2,0,2.1,0.2,2.8,0.5l-1.3,6.7
				c-1.1-0.2-1.9-0.4-2.5-0.4c-0.9,0-1.8,0.3-2.7,0.9c-0.9,0.6-1.6,1.6-2.1,2.9v12.6h-7.8V162.7z"/>
			<path d="M224.2,184.2c-2.1-1.1-3.8-2.8-5.1-5.1c-1.3-2.3-1.9-5-1.9-8.3c0-3.2,0.7-5.9,2-8.3c1.3-2.3,3.1-4.1,5.2-5.4
				c2.2-1.2,4.5-1.9,7.1-1.9c1.8,0,3.5,0.4,5.1,1.1c1.6,0.7,2.9,1.7,4.1,2.8l-4.1,5c-0.8-0.7-1.6-1.3-2.4-1.6s-1.6-0.5-2.5-0.5
				c-1.2,0-2.2,0.3-3.2,1c-1,0.7-1.8,1.7-2.4,3c-0.6,1.3-0.9,2.8-0.9,4.5c0,2.7,0.6,4.8,1.7,6.4c1.2,1.5,2.7,2.3,4.6,2.3
				c2,0,3.8-0.8,5.4-2.5l4.1,4.9c-1.2,1.5-2.7,2.5-4.3,3.3c-1.7,0.7-3.4,1.1-5.4,1.1C228.7,185.9,226.4,185.4,224.2,184.2z"/>
			<path d="M249.2,184.5c-1.7-1-3.1-2.3-4.2-4.1c-1-1.8-1.6-3.9-1.6-6.3c0-2.4,0.5-4.5,1.6-6.3c1-1.8,2.4-3.2,4.2-4.1
				s3.6-1.4,5.5-1.4c2,0,3.8,0.5,5.5,1.4c1.7,1,3.1,2.3,4.2,4.1c1,1.8,1.6,3.9,1.6,6.3c0,2.4-0.5,4.5-1.6,6.3
				c-1,1.8-2.4,3.2-4.2,4.1c-1.7,1-3.6,1.4-5.5,1.4C252.7,185.9,250.9,185.5,249.2,184.5z M258,174c0-3.8-1.1-5.6-3.3-5.6
				c-2.2,0-3.3,1.9-3.3,5.6c0,3.8,1.1,5.6,3.3,5.6C256.9,179.7,258,177.8,258,174z"/>
			<path d="M270.6,162.7h6.4l0.5,2.7h0.2c1.1-1,2.2-1.8,3.3-2.4c1.1-0.6,2.4-0.9,3.9-0.9c2.4,0,4.2,0.8,5.4,2.4
				c1.1,1.6,1.7,3.9,1.7,6.8v14h-7.8v-13c0-1.4-0.2-2.3-0.5-2.9c-0.3-0.5-0.9-0.8-1.7-0.8c-0.7,0-1.2,0.1-1.7,0.4
				c-0.5,0.3-1.1,0.7-1.7,1.3v14.9h-7.8V162.7z"/>
			<path d="M302,184.5c-1.7-1-3.1-2.3-4.1-4.1c-1-1.8-1.5-3.9-1.5-6.4c0-2.4,0.6-4.5,1.7-6.3c1.1-1.8,2.6-3.2,4.4-4.1
				s3.9-1.4,6.1-1.4c2.5,0,4.8,0.8,6.6,2.4l-3.6,5c-0.9-0.7-1.7-1.1-2.5-1.1c-1.5,0-2.6,0.5-3.4,1.5c-0.8,1-1.2,2.4-1.2,4.1
				c0,1.7,0.4,3.1,1.2,4.1c0.8,1,1.9,1.5,3.1,1.5c1.1,0,2.3-0.5,3.6-1.5l3,5.1c-1.1,0.9-2.2,1.6-3.6,2c-1.3,0.4-2.6,0.6-4,0.6
				C305.6,185.9,303.7,185.5,302,184.5z"/>
			<path d="M338,176.4h-13.1c0.4,1.3,1,2.3,2,2.8s2.1,0.8,3.4,0.8c1.5,0,3-0.5,4.6-1.4l2.5,4.6c-1.2,0.8-2.5,1.5-4,2
				s-2.9,0.7-4.2,0.7c-2.2,0-4.2-0.5-6-1.4c-1.8-0.9-3.2-2.3-4.2-4.1c-1-1.8-1.5-3.9-1.5-6.4c0-2.4,0.5-4.4,1.5-6.2
				c1-1.8,2.4-3.2,4-4.2c1.7-1,3.4-1.5,5.3-1.5c3.2,0,5.7,1,7.4,3.1c1.7,2.1,2.5,4.7,2.5,7.9C338.3,174.5,338.2,175.6,338,176.4z
				 M331.7,171.3c0-1-0.2-1.8-0.7-2.4c-0.5-0.6-1.3-0.9-2.4-0.9c-0.8,0-1.6,0.3-2.2,0.8c-0.7,0.5-1.1,1.4-1.4,2.5H331.7z"/>
			<path d="M343.2,162.7h6.4l0.5,3.9h0.2c0.8-1.5,1.8-2.6,2.9-3.3c1.2-0.7,2.3-1.1,3.5-1.1c1.2,0,2.1,0.2,2.8,0.5l-1.3,6.7
				c-1.1-0.2-1.9-0.4-2.5-0.4c-0.9,0-1.8,0.3-2.7,0.9c-0.9,0.6-1.6,1.6-2.1,2.9v12.6h-7.8V162.7z"/>
			<path d="M366.9,183.5c-1.4-1.6-2-3.9-2-6.8v-7.9h-3V163l3.5-0.3l0.9-5.9h6.4v5.9h5.2v6.1h-5.2v7.8c0,1.2,0.2,2,0.7,2.5
				c0.5,0.5,1.2,0.8,2,0.8c0.6,0,1.3-0.1,2-0.4l1.2,5.6c-1.8,0.5-3.5,0.8-5.4,0.8C370.4,185.9,368.3,185.1,366.9,183.5z"/>
			<path d="M385.4,185.1c-1.6-0.6-3-1.4-4.2-2.3l3.5-4.8c2.1,1.5,3.9,2.3,5.5,2.3c0.8,0,1.4-0.1,1.7-0.3c0.3-0.2,0.5-0.6,0.5-1
				s-0.2-0.8-0.7-1.1s-1.3-0.6-2.5-1.1c-0.2-0.1-0.3-0.1-0.5-0.2c-0.2-0.1-0.4-0.2-0.6-0.2c-3.8-1.5-5.7-3.8-5.7-6.7
				c0-2.2,0.8-4,2.5-5.3c1.6-1.3,3.8-2,6.5-2c1.7,0,3.2,0.3,4.5,0.8c1.3,0.5,2.6,1.3,3.8,2.2l-3.5,4.6c-1.8-1.3-3.3-1.9-4.6-1.9
				s-2,0.4-2,1.3c0,0.5,0.2,0.8,0.7,1.1c0.5,0.3,1.3,0.6,2.5,1c0.2,0.1,0.6,0.2,1.1,0.4c1.7,0.6,3.1,1.5,4.2,2.5
				c1.1,1,1.6,2.5,1.6,4.3c0,2.2-0.8,4-2.5,5.4c-1.7,1.4-4.1,2.1-7.2,2.1C388.6,185.9,387,185.6,385.4,185.1z"/>
		</g>
		<g>
			<path class="st4" d="M132.8,208.6h9.9v2.2h-7.3v4.7h6.2v2.2h-6.2v5.4h7.5v2.2h-10.1V208.6z"/>
			<path class="st4" d="M145.2,208.6h2.8l2.5,8.7c0.1,0.5,0.3,0.9,0.4,1.3c0.1,0.4,0.2,0.8,0.3,1.1c0.3,1.3,0.6,2.3,0.8,3h0.1
				c0.4-1.4,0.8-2.6,1-3.6c0,0.1,0.1-0.5,0.5-1.8l2.5-8.7h2.7l-5.2,16.7h-3.1L145.2,208.6z"/>
			<path class="st4" d="M161.5,208.6h9.9v2.2h-7.3v4.7h6.2v2.2h-6.2v5.4h7.5v2.2h-10.1V208.6z"/>
			<path class="st4" d="M175.1,208.6h2.7l5.6,9.9l1.8,3.5h0.1c0-0.5-0.1-0.9-0.1-1.1c0-0.2-0.1-0.8-0.1-1.7c-0.1-1-0.1-1.8-0.1-2.7
				v-7.9h2.5v16.7h-2.7l-5.6-9.9l-1.8-3.5h-0.1l0.1,1.3c0,0.2,0.1,0.8,0.1,1.7c0.1,0.9,0.1,1.7,0.1,2.5v7.9h-2.5V208.6z"/>
			<path class="st4" d="M195.4,210.8h-4.9v-2.2h12.5v2.2H198v14.5h-2.6V210.8z"/>
			<path class="st4" d="M207.6,225c-1-0.4-1.9-1-2.7-1.8l1.5-1.8c0.6,0.6,1.3,1.1,2.1,1.5c0.8,0.4,1.6,0.5,2.4,0.5
				c1,0,1.8-0.2,2.3-0.7c0.6-0.4,0.8-1,0.8-1.8c0-0.5-0.1-0.9-0.3-1.2c-0.2-0.3-0.5-0.6-0.8-0.8c-0.3-0.2-0.9-0.4-1.5-0.7l-2.3-1
				c-2.3-0.9-3.4-2.4-3.4-4.4c0-0.9,0.2-1.7,0.7-2.4c0.5-0.7,1.1-1.2,2-1.6c0.8-0.4,1.8-0.6,2.8-0.6c1,0,1.9,0.2,2.8,0.6
				s1.6,0.9,2.3,1.5l-1.4,1.7c-1.1-1-2.4-1.5-3.7-1.5c-0.9,0-1.6,0.2-2.1,0.6c-0.5,0.4-0.8,0.9-0.8,1.6c0,0.4,0.1,0.8,0.4,1.1
				s0.5,0.6,0.9,0.7c0.3,0.2,0.8,0.4,1.4,0.7l2.3,1c1.1,0.4,1.9,1,2.5,1.7c0.6,0.7,0.9,1.6,0.9,2.8c0,0.9-0.2,1.7-0.7,2.5
				c-0.5,0.7-1.2,1.3-2,1.8c-0.9,0.4-1.9,0.7-3.1,0.7C209.8,225.6,208.7,225.4,207.6,225z"/>
			<path class="st4" d="M238.8,225.6c-1.2-0.3-2.6-0.9-4-1.9c-1.4,1.2-3.1,1.9-5,1.9c-1,0-2-0.2-2.7-0.6s-1.4-1-1.8-1.7
				c-0.4-0.7-0.7-1.5-0.7-2.4c0-1,0.3-1.9,0.9-2.7s1.4-1.5,2.4-2.1c-0.7-1.4-1.1-2.7-1.1-3.8c0-0.7,0.2-1.4,0.5-2.1
				c0.3-0.6,0.8-1.1,1.4-1.5c0.6-0.4,1.3-0.5,2.1-0.5c1.1,0,2,0.3,2.6,0.9c0.6,0.6,0.9,1.5,0.9,2.5c0,1-0.3,1.8-1,2.6
				c-0.6,0.7-1.6,1.5-2.7,2.4c1.1,1.6,2.5,3,4,4.2c1-1.3,1.7-2.9,2.2-4.6h2.4c-0.7,2.3-1.6,4.3-2.9,5.9c1.2,0.7,2.2,1.2,3.1,1.5
				L238.8,225.6z M228,222.8c0.6,0.5,1.3,0.8,2.2,0.8c1,0,1.9-0.4,2.9-1.1c-1.7-1.4-3.1-2.9-4.2-4.5c-0.6,0.5-1,0.9-1.3,1.4
				c-0.3,0.5-0.5,1-0.5,1.5C227.1,221.6,227.4,222.3,228,222.8z M229.7,214.9c0.9-0.5,1.5-1.1,2-1.5s0.7-1,0.7-1.7
				c0-0.5-0.1-0.9-0.4-1.2c-0.2-0.3-0.6-0.5-1.1-0.5c-0.6,0-1,0.2-1.4,0.6c-0.3,0.4-0.5,1-0.5,1.6C229,213.1,229.2,214,229.7,214.9z
				"/>
			<path class="st4" d="M248.2,208.6h5.1c4.3,0,6.4,1.7,6.4,5.1c0,1.8-0.6,3.1-1.7,4c-1.1,0.9-2.7,1.3-4.6,1.3h-2.6v6.4h-2.6V208.6z
				 M253.1,216.8c1.3,0,2.3-0.3,3-0.8c0.6-0.5,1-1.3,1-2.4c0-1.1-0.3-1.8-1-2.3c-0.7-0.5-1.7-0.7-3.1-0.7h-2.2v6.2H253.1z"/>
			<path class="st4" d="M272.1,225.3l-3.8-6.8h-2.8v6.8h-2.6v-16.7h5.5c1.9,0,3.3,0.4,4.4,1.1c1.1,0.8,1.6,2,1.6,3.7
				c0,1.2-0.3,2.3-0.9,3.1c-0.6,0.8-1.5,1.4-2.6,1.7l4.1,7.1H272.1z M265.5,216.4h2.6c1.2,0,2.2-0.3,2.8-0.8c0.6-0.5,1-1.3,1-2.3
				c0-1-0.3-1.7-0.9-2.1c-0.6-0.4-1.6-0.6-2.8-0.6h-2.6V216.4z"/>
			<path class="st4" d="M280.7,224.5c-1.1-0.7-2-1.7-2.6-3c-0.6-1.3-0.9-2.9-0.9-4.6c0-1.8,0.3-3.3,0.9-4.6c0.6-1.3,1.5-2.3,2.6-3
				c1.1-0.7,2.4-1,3.8-1s2.7,0.3,3.8,1c1.1,0.7,2,1.7,2.6,3c0.6,1.3,0.9,2.8,0.9,4.6c0,1.8-0.3,3.3-0.9,4.6c-0.6,1.3-1.5,2.3-2.6,3
				c-1.1,0.7-2.4,1.1-3.8,1.1S281.8,225.2,280.7,224.5z M286.9,222.5c0.7-0.5,1.2-1.3,1.6-2.3c0.4-1,0.6-2.1,0.6-3.4
				c0-2-0.4-3.5-1.3-4.6s-2-1.7-3.3-1.7s-2.5,0.6-3.3,1.7c-0.8,1.1-1.3,2.7-1.3,4.6c0,1.3,0.2,2.4,0.6,3.4c0.4,1,0.9,1.7,1.6,2.3
				c0.7,0.5,1.5,0.8,2.4,0.8S286.2,223.1,286.9,222.5z"/>
			<path class="st4" d="M295.6,208.6h3l3.1,8.5l0.6,1.9l0.5,1.5h0.1c0.3-0.8,0.4-1.3,0.5-1.6l0.6-1.8l3-8.5h3v16.7h-2.4V217
				c0-0.9,0.1-2.4,0.3-4.6l0.1-0.6h-0.1l-1.3,3.9l-2.9,8H302l-2.9-8l-1.3-3.9h-0.1l0.1,0.6c0.2,2.1,0.3,3.7,0.3,4.6v8.3h-2.4V208.6z
				"/>
			<path class="st4" d="M317.3,224.5c-1.1-0.7-2-1.7-2.6-3c-0.6-1.3-0.9-2.9-0.9-4.6c0-1.8,0.3-3.3,0.9-4.6c0.6-1.3,1.5-2.3,2.6-3
				c1.1-0.7,2.4-1,3.8-1s2.7,0.3,3.8,1c1.1,0.7,2,1.7,2.6,3c0.6,1.3,0.9,2.8,0.9,4.6c0,1.8-0.3,3.3-0.9,4.6c-0.6,1.3-1.5,2.3-2.6,3
				c-1.1,0.7-2.4,1.1-3.8,1.1S318.4,225.2,317.3,224.5z M323.5,222.5c0.7-0.5,1.2-1.3,1.6-2.3c0.4-1,0.6-2.1,0.6-3.4
				c0-2-0.4-3.5-1.3-4.6s-2-1.7-3.3-1.7s-2.5,0.6-3.3,1.7c-0.8,1.1-1.3,2.7-1.3,4.6c0,1.3,0.2,2.4,0.6,3.4c0.4,1,0.9,1.7,1.6,2.3
				c0.7,0.5,1.5,0.8,2.4,0.8S322.8,223.1,323.5,222.5z"/>
			<path class="st4" d="M335.2,210.8h-4.9v-2.2h12.5v2.2h-4.9v14.5h-2.6V210.8z"/>
			<path class="st4" d="M345.8,208.6h2.6v16.7h-2.6V208.6z"/>
			<path class="st4" d="M355.7,224.5c-1.1-0.7-2-1.7-2.6-3c-0.6-1.3-0.9-2.9-0.9-4.6c0-1.8,0.3-3.3,0.9-4.6c0.6-1.3,1.5-2.3,2.6-3
				c1.1-0.7,2.4-1,3.8-1s2.7,0.3,3.8,1c1.1,0.7,2,1.7,2.6,3c0.6,1.3,0.9,2.8,0.9,4.6c0,1.8-0.3,3.3-0.9,4.6c-0.6,1.3-1.5,2.3-2.6,3
				c-1.1,0.7-2.4,1.1-3.8,1.1S356.8,225.2,355.7,224.5z M362,222.5c0.7-0.5,1.2-1.3,1.6-2.3c0.4-1,0.6-2.1,0.6-3.4
				c0-2-0.4-3.5-1.3-4.6s-2-1.7-3.3-1.7s-2.5,0.6-3.3,1.7c-0.8,1.1-1.3,2.7-1.3,4.6c0,1.3,0.2,2.4,0.6,3.4c0.4,1,0.9,1.7,1.6,2.3
				c0.7,0.5,1.5,0.8,2.4,0.8S361.3,223.1,362,222.5z"/>
			<path class="st4" d="M370.6,208.6h2.7l5.6,9.9l1.8,3.5h0.1c0-0.5-0.1-0.9-0.1-1.1c0-0.2-0.1-0.8-0.1-1.7c-0.1-1-0.1-1.8-0.1-2.7
				v-7.9h2.5v16.7h-2.7l-5.6-9.9l-1.8-3.5h-0.1l0.1,1.3c0,0.2,0.1,0.8,0.1,1.7c0.1,0.9,0.1,1.7,0.1,2.5v7.9h-2.5V208.6z"/>
		</g>
		<g>
			<g>
				<path d="M54.6,41.8L50,32.6h1.8l2,4.4l0.4,0.9c0.6,1.3,1,2.2,1.1,2.4h0.1l0.4-0.8c0.7-1.4,1-2.2,1.2-2.5l2-4.4h1.8l-4.6,9.3v6
					h-1.7V41.8z"/>
				<path d="M63.9,47.4c-0.8-0.5-1.4-1.2-1.9-2c-0.5-0.9-0.7-1.9-0.7-3.2c0-1.2,0.2-2.3,0.7-3.2c0.5-0.9,1.1-1.6,1.9-2.1
					c0.8-0.5,1.7-0.7,2.6-0.7c0.9,0,1.8,0.2,2.6,0.7c0.8,0.5,1.4,1.2,1.9,2.1c0.5,0.9,0.7,2,0.7,3.2c0,1.2-0.2,2.3-0.7,3.2
					c-0.5,0.9-1.1,1.6-1.9,2c-0.8,0.5-1.7,0.7-2.6,0.7C65.6,48.1,64.7,47.9,63.9,47.4z M68.3,46.1c0.5-0.4,0.9-0.9,1.2-1.6
					c0.3-0.7,0.4-1.5,0.4-2.3c0-0.9-0.1-1.7-0.4-2.3c-0.3-0.7-0.7-1.2-1.2-1.6s-1.1-0.6-1.8-0.6c-0.7,0-1.3,0.2-1.8,0.6
					s-0.9,0.9-1.2,1.6s-0.4,1.5-0.4,2.3c0,1.3,0.3,2.4,1,3.3s1.5,1.2,2.5,1.2C67.2,46.7,67.8,46.5,68.3,46.1z"/>
				<path d="M75.8,47c-0.6-0.7-0.8-1.8-0.8-3.3v-7.2h1.7v7c0,1.1,0.2,1.9,0.5,2.4s0.9,0.8,1.7,0.8c0.6,0,1.1-0.2,1.6-0.5
					c0.5-0.3,1-0.8,1.6-1.5v-8.1h1.7v11.3h-1.4L82.2,46h-0.1c-0.6,0.7-1.2,1.2-1.8,1.5s-1.3,0.5-2,0.5C77.2,48.1,76.3,47.7,75.8,47z
					"/>
				<path d="M87.8,36.6h1.4l0.1,2.1h0.1c0.4-0.7,0.9-1.3,1.4-1.7c0.6-0.4,1.2-0.6,1.8-0.6c0.4,0,0.8,0.1,1.2,0.2L93.5,38
					c-0.4-0.1-0.8-0.2-1.1-0.2c-0.5,0-1.1,0.2-1.6,0.7s-1,1.1-1.3,2v7.3h-1.7V36.6z"/>
				<path d="M102,46.6c-0.8-1-1.2-2.5-1.2-4.3c0-1.2,0.2-2.2,0.7-3.1c0.4-0.9,1-1.6,1.8-2.1c0.8-0.5,1.6-0.7,2.4-0.7
					c0.6,0,1.1,0.1,1.6,0.3c0.5,0.2,1,0.6,1.6,1l-0.1-2v-4.4h1.7v16.6h-1.4l-0.1-1.4h-0.1c-0.5,0.5-1,0.9-1.6,1.2s-1.2,0.5-1.9,0.5
					C103.9,48.1,102.8,47.6,102,46.6z M107.3,46.3c0.5-0.3,1-0.7,1.5-1.2V39c-0.5-0.4-1-0.7-1.4-0.9s-0.9-0.3-1.4-0.3
					c-0.6,0-1.2,0.2-1.7,0.6c-0.5,0.4-0.9,0.9-1.2,1.6c-0.3,0.7-0.5,1.4-0.5,2.3c0,1.4,0.3,2.5,0.8,3.3c0.6,0.8,1.4,1.2,2.4,1.2
					C106.3,46.7,106.8,46.5,107.3,46.3z"/>
				<path d="M114.6,33.8c-0.2-0.2-0.3-0.5-0.3-0.9c0-0.3,0.1-0.6,0.3-0.8c0.2-0.2,0.5-0.3,0.8-0.3s0.6,0.1,0.8,0.3
					c0.2,0.2,0.3,0.5,0.3,0.8c0,0.4-0.1,0.6-0.3,0.9c-0.2,0.2-0.5,0.3-0.8,0.3S114.8,34,114.6,33.8z M114.6,36.6h1.7v11.3h-1.7V36.6
					z"/>
				<path d="M120.7,52.3c-0.8-0.5-1.3-1.3-1.3-2.2c0-0.5,0.1-0.9,0.4-1.4c0.3-0.4,0.7-0.9,1.2-1.2v-0.1c-0.3-0.2-0.5-0.4-0.7-0.7
					c-0.2-0.3-0.3-0.7-0.3-1.1c0-0.4,0.1-0.8,0.4-1.2c0.2-0.4,0.5-0.7,0.9-0.9v-0.1c-0.4-0.3-0.7-0.8-1-1.3
					c-0.3-0.5-0.4-1.1-0.4-1.7c0-0.8,0.2-1.5,0.6-2.1s0.9-1.1,1.5-1.4c0.6-0.3,1.3-0.5,2.1-0.5c0.5,0,1,0.1,1.6,0.3h3.9v1.3h-2.4
					c0.3,0.3,0.5,0.6,0.7,1.1c0.2,0.4,0.3,0.9,0.3,1.4c0,0.8-0.2,1.5-0.5,2.1s-0.8,1.1-1.5,1.4c-0.6,0.3-1.3,0.5-2.1,0.5
					c-0.6,0-1.2-0.1-1.7-0.4c-0.2,0.2-0.4,0.4-0.6,0.6c-0.1,0.2-0.2,0.5-0.2,0.8c0,0.4,0.2,0.7,0.5,0.9c0.3,0.2,0.8,0.3,1.5,0.3h2.3
					c1.3,0,2.3,0.2,2.9,0.7s1,1.1,1,2c0,0.7-0.2,1.3-0.7,1.9c-0.5,0.6-1.1,1.1-2,1.4c-0.9,0.4-1.8,0.5-2.9,0.5
					C122.7,53.1,121.6,52.8,120.7,52.3z M126.3,51.5c0.6-0.2,1-0.5,1.3-0.9c0.3-0.4,0.5-0.8,0.5-1.2c0-0.5-0.2-0.9-0.6-1.1
					s-1-0.3-1.8-0.3h-2.1c-0.5,0-1-0.1-1.4-0.2c-0.8,0.6-1.2,1.2-1.2,2c0,0.6,0.3,1.1,0.9,1.5s1.4,0.6,2.5,0.6
					C125.1,51.9,125.7,51.8,126.3,51.5z M125.9,42.3c0.5-0.5,0.7-1.2,0.7-2c0-0.8-0.2-1.5-0.7-2c-0.5-0.5-1.1-0.8-1.8-0.8
					c-0.7,0-1.3,0.3-1.8,0.8c-0.5,0.5-0.7,1.2-0.7,2c0,0.8,0.2,1.5,0.7,2c0.5,0.5,1.1,0.8,1.8,0.8C124.8,43.1,125.4,42.8,125.9,42.3
					z"/>
				<path d="M132.4,33.8c-0.2-0.2-0.3-0.5-0.3-0.9c0-0.3,0.1-0.6,0.3-0.8c0.2-0.2,0.5-0.3,0.8-0.3s0.6,0.1,0.8,0.3
					c0.2,0.2,0.3,0.5,0.3,0.8c0,0.4-0.1,0.6-0.3,0.9c-0.2,0.2-0.5,0.3-0.8,0.3S132.6,34,132.4,33.8z M132.4,36.6h1.7v11.3h-1.7V36.6
					z"/>
				<path d="M139.3,47.2c-0.5-0.6-0.7-1.5-0.7-2.7V38h-1.7v-1.3l1.8-0.1l0.2-3.2h1.4v3.2h3.1V38h-3.1v6.5c0,0.7,0.1,1.3,0.4,1.7
					s0.7,0.6,1.4,0.6c0.3,0,0.8-0.1,1.3-0.3l0.3,1.3c-0.8,0.3-1.5,0.4-2,0.4C140.6,48.1,139.8,47.8,139.3,47.2z"/>
				<path d="M146.8,47.3c-0.6-0.6-0.9-1.3-0.9-2.3c0-1.2,0.6-2.2,1.7-2.8c1.1-0.7,2.9-1.1,5.3-1.4c0-0.9-0.2-1.6-0.5-2.2
					c-0.4-0.6-1-0.8-1.9-0.8c-1.1,0-2.2,0.4-3.4,1.2l-0.7-1.2c1.5-1,2.9-1.5,4.4-1.5c1.3,0,2.3,0.4,2.9,1.2c0.6,0.8,0.9,1.9,0.9,3.4
					v7h-1.4l-0.1-1.4h-0.1c-1.3,1.1-2.6,1.7-3.8,1.7C148.2,48.1,147.4,47.8,146.8,47.3z M151.2,46.4c0.5-0.3,1.1-0.7,1.7-1.2v-3.3
					c-1.9,0.2-3.3,0.6-4.1,1.1c-0.8,0.5-1.2,1.1-1.2,1.9c0,0.6,0.2,1.1,0.6,1.4c0.4,0.3,0.9,0.5,1.5,0.5
					C150.1,46.7,150.7,46.6,151.2,46.4z"/>
				<path d="M158.9,47.5c-0.3-0.4-0.4-1-0.4-1.8V31.2h1.7v14.7c0,0.3,0.1,0.5,0.2,0.6s0.2,0.2,0.4,0.2c0.1,0,0.3,0,0.4,0l0.2,1.3
					c-0.3,0.1-0.6,0.2-1,0.2C159.7,48.1,159.2,47.9,158.9,47.5z"/>
				<path d="M170.5,52.3c-0.8-0.5-1.3-1.3-1.3-2.2c0-0.5,0.1-0.9,0.4-1.4c0.3-0.4,0.7-0.9,1.2-1.2v-0.1c-0.3-0.2-0.5-0.4-0.7-0.7
					c-0.2-0.3-0.3-0.7-0.3-1.1c0-0.4,0.1-0.8,0.4-1.2c0.2-0.4,0.5-0.7,0.9-0.9v-0.1c-0.4-0.3-0.7-0.8-1-1.3
					c-0.3-0.5-0.4-1.1-0.4-1.7c0-0.8,0.2-1.5,0.6-2.1s0.9-1.1,1.5-1.4c0.6-0.3,1.3-0.5,2.1-0.5c0.5,0,1,0.1,1.6,0.3h3.9v1.3h-2.4
					c0.3,0.3,0.5,0.6,0.7,1.1c0.2,0.4,0.3,0.9,0.3,1.4c0,0.8-0.2,1.5-0.5,2.1s-0.8,1.1-1.5,1.4c-0.6,0.3-1.3,0.5-2.1,0.5
					c-0.6,0-1.2-0.1-1.7-0.4c-0.2,0.2-0.4,0.4-0.6,0.6c-0.1,0.2-0.2,0.5-0.2,0.8c0,0.4,0.2,0.7,0.5,0.9c0.3,0.2,0.8,0.3,1.5,0.3h2.3
					c1.3,0,2.3,0.2,2.9,0.7s1,1.1,1,2c0,0.7-0.2,1.3-0.7,1.9c-0.5,0.6-1.1,1.1-2,1.4c-0.9,0.4-1.8,0.5-2.9,0.5
					C172.5,53.1,171.3,52.8,170.5,52.3z M176,51.5c0.6-0.2,1-0.5,1.3-0.9c0.3-0.4,0.5-0.8,0.5-1.2c0-0.5-0.2-0.9-0.6-1.1
					s-1-0.3-1.8-0.3h-2.1c-0.5,0-1-0.1-1.4-0.2c-0.8,0.6-1.2,1.2-1.2,2c0,0.6,0.3,1.1,0.9,1.5s1.4,0.6,2.5,0.6
					C174.8,51.9,175.5,51.8,176,51.5z M175.6,42.3c0.5-0.5,0.7-1.2,0.7-2c0-0.8-0.2-1.5-0.7-2c-0.5-0.5-1.1-0.8-1.8-0.8
					c-0.7,0-1.3,0.3-1.8,0.8c-0.5,0.5-0.7,1.2-0.7,2c0,0.8,0.2,1.5,0.7,2c0.5,0.5,1.1,0.8,1.8,0.8C174.5,43.1,175.1,42.8,175.6,42.3
					z"/>
				<path d="M182.1,33.8c-0.2-0.2-0.3-0.5-0.3-0.9c0-0.3,0.1-0.6,0.3-0.8c0.2-0.2,0.5-0.3,0.8-0.3s0.6,0.1,0.8,0.3
					c0.2,0.2,0.3,0.5,0.3,0.8c0,0.4-0.1,0.6-0.3,0.9c-0.2,0.2-0.5,0.3-0.8,0.3S182.4,34,182.1,33.8z M182.1,36.6h1.7v11.3h-1.7V36.6
					z"/>
				<path d="M189.9,34.6v1.9h2.4V38h-2.4v9.9h-1.7V38h-1.5v-1.3l1.5-0.1v-2c0-1.2,0.3-2.1,0.8-2.7c0.5-0.6,1.3-1,2.4-1
					c0.6,0,1.2,0.1,1.8,0.4l-0.4,1.3c-0.4-0.2-0.9-0.3-1.3-0.3C190.5,32.3,189.9,33.1,189.9,34.6z"/>
				<path d="M196.8,47.2c-0.5-0.6-0.7-1.5-0.7-2.7V38h-1.7v-1.3l1.8-0.1l0.2-3.2h1.4v3.2h3.1V38h-3.1v6.5c0,0.7,0.1,1.3,0.4,1.7
					s0.7,0.6,1.4,0.6c0.3,0,0.8-0.1,1.3-0.3l0.3,1.3c-0.8,0.3-1.5,0.4-2,0.4C198.1,48.1,197.3,47.8,196.8,47.2z"/>
				<path d="M211,47.4c-0.8-0.5-1.4-1.2-1.9-2c-0.5-0.9-0.7-1.9-0.7-3.2c0-1.2,0.2-2.3,0.7-3.2c0.5-0.9,1.1-1.6,2-2.1
					c0.8-0.5,1.7-0.7,2.7-0.7c1.2,0,2.3,0.4,3.3,1.3l-0.9,1.1c-0.4-0.3-0.7-0.6-1.1-0.8s-0.8-0.3-1.2-0.3c-0.7,0-1.3,0.2-1.9,0.6
					c-0.6,0.4-1,0.9-1.3,1.6c-0.3,0.7-0.5,1.5-0.5,2.3c0,1.3,0.3,2.4,1,3.3c0.7,0.8,1.5,1.2,2.6,1.2c1,0,1.9-0.4,2.7-1.2l0.7,1.1
					c-0.5,0.4-1.1,0.8-1.7,1.1c-0.6,0.3-1.3,0.4-1.9,0.4C212.7,48.1,211.8,47.9,211,47.4z"/>
				<path d="M220.6,47.3c-0.6-0.6-0.9-1.3-0.9-2.3c0-1.2,0.6-2.2,1.7-2.8c1.1-0.7,2.9-1.1,5.3-1.4c0-0.9-0.2-1.6-0.5-2.2
					c-0.4-0.6-1-0.8-1.9-0.8c-1.1,0-2.2,0.4-3.4,1.2l-0.7-1.2c1.5-1,2.9-1.5,4.4-1.5c1.3,0,2.3,0.4,2.9,1.2c0.6,0.8,0.9,1.9,0.9,3.4
					v7H227l-0.1-1.4h-0.1c-1.3,1.1-2.6,1.7-3.8,1.7C222,48.1,221.2,47.8,220.6,47.3z M225,46.4c0.5-0.3,1.1-0.7,1.7-1.2v-3.3
					c-1.9,0.2-3.3,0.6-4.1,1.1c-0.8,0.5-1.2,1.1-1.2,1.9c0,0.6,0.2,1.1,0.6,1.4c0.4,0.3,0.9,0.5,1.5,0.5
					C224,46.7,224.5,46.6,225,46.4z"/>
				<path d="M232.3,36.6h1.4l0.1,2.1h0.1c0.4-0.7,0.9-1.3,1.4-1.7c0.6-0.4,1.2-0.6,1.8-0.6c0.4,0,0.8,0.1,1.2,0.2L238,38
					c-0.4-0.1-0.8-0.2-1.1-0.2c-0.5,0-1.1,0.2-1.6,0.7s-1,1.1-1.3,2v7.3h-1.7V36.6z"/>
				<path d="M241,46.6c-0.8-1-1.2-2.5-1.2-4.3c0-1.2,0.2-2.2,0.7-3.1c0.4-0.9,1-1.6,1.8-2.1c0.8-0.5,1.6-0.7,2.4-0.7
					c0.6,0,1.1,0.1,1.6,0.3c0.5,0.2,1,0.6,1.6,1l-0.1-2v-4.4h1.7v16.6H248l-0.1-1.4h-0.1c-0.5,0.5-1,0.9-1.6,1.2s-1.2,0.5-1.9,0.5
					C242.9,48.1,241.8,47.6,241,46.6z M246.3,46.3c0.5-0.3,1-0.7,1.5-1.2V39c-0.5-0.4-1-0.7-1.4-0.9s-0.9-0.3-1.4-0.3
					c-0.6,0-1.2,0.2-1.7,0.6c-0.5,0.4-0.9,0.9-1.2,1.6c-0.3,0.7-0.5,1.4-0.5,2.3c0,1.4,0.3,2.5,0.8,3.3c0.6,0.8,1.4,1.2,2.4,1.2
					C245.3,46.7,245.8,46.5,246.3,46.3z"/>
			</g>
		</g>
		<g>
			<path d="M392.2,0v38c0,10,8.1,18,18,18c10,0,18-8.1,18-18V0H392.2z"/>
			<g>
				<path class="st0" d="M405.8,41.4c-1.1-1.1-1.9-2.7-1.9-4.5c0-3.5,2.8-6.3,6.3-6.3c1.7,0,3.3,0.7,4.5,1.9l3.3-3.3
					c-2-2-4.7-3.2-7.7-3.2c-6,0-10.9,4.9-10.9,10.9c0,3,1.2,5.7,3.2,7.7L405.8,41.4z"/>
				<path class="st0" d="M415.5,40.5c-1.1,1.6-3,2.7-5.2,2.7c-0.4,0-0.8,0-1.2-0.1l-3.6,3.6c1.4,0.7,3.1,1.1,4.8,1.1
					c3.7,0,7-1.8,9-4.7L415.5,40.5z"/>
			</g>
		</g>
		<g>
			<circle class="st4" cx="81.1" cy="170.7" r="31.1"/>
			<g>
				<path class="st5" d="M77.3,157.4H65.5c-0.8,0-1.3,0.9-0.9,1.6l3,4.7c0.2,0.3,0.5,0.5,0.9,0.5h7.2c0.4,0,0.8-0.3,1-0.7l1.5-4.7
					C78.4,158.1,78,157.4,77.3,157.4z"/>
				<path class="st5" d="M85.7,164.1h5.7c0.7,0,1.2-0.7,1-1.3l-3.6-11.2c-0.2-0.8-1.2-1-1.8-0.3l-3.5,4.3c-0.2,0.3-0.3,0.6-0.2,1
					L85.7,164.1L85.7,164.1z"/>
				<path class="st5" d="M72,171.7l-3-2.1c-0.6-0.4-1.4-0.1-1.6,0.5l-3.6,11.2c-0.2,0.8,0.4,1.5,1.2,1.3l5.4-1.4
					c0.3-0.1,0.6-0.3,0.7-0.7l2.2-6.9c0.1-0.4,0-0.9-0.4-1.1L72,171.7z"/>
				<path class="st5" d="M91.9,178.8l9.5-6.9c0.7-0.5,0.5-1.5-0.2-1.8l-5.2-2c-0.3-0.1-0.7-0.1-1,0.1l-5.8,4.2
					c-0.4,0.3-0.5,0.7-0.4,1.1l1.5,4.7C90.6,179,91.4,179.2,91.9,178.8z"/>
				<path class="st5" d="M76.5,183.3l9.5,6.9c0.7,0.5,1.6,0,1.6-0.8l0.3-5.5c0-0.3-0.1-0.7-0.4-0.9l-5.8-4.2c-0.4-0.3-0.8-0.3-1.2,0
					l-4,2.9C76,182.1,76,182.9,76.5,183.3z"/>
			</g>
		</g>
	</g>
</g>
</svg>
