<?xml version="1.0" encoding="utf-8"?>
<!-- Generator: Adobe Illustrator 23.0.3, SVG Export Plug-In . SVG Version: 6.00 Build 0)  -->
<svg version="1.1" id="CGift-Startseite-Keyvisual-01-Smartphone"
	 xmlns="http://www.w3.org/2000/svg" xmlns:xlink="http://www.w3.org/1999/xlink" x="0px" y="0px" viewBox="0 0 880 534"
	 style="enable-background:new 0 0 880 534;" xml:space="preserve">
<style type="text/css">
	.st0{opacity:0.6;fill:#1F2223;}
	.st1{fill:#A4ABAF;}
	.st2{fill:#B4BABD;}
	.st3{fill:#1F2223;}
	.st4{opacity:0.15;}
	.st5{fill:url(#SVGID_1_);}
	.st6{fill:#FAD151;}
	.st7{fill:#FFFFFF;}
	.st8{fill:#AFB5C2;}
	.st9{fill:#9CA2AD;}
</style>
<path class="st0" d="M815.1,280.7l-171.6-99.1c-10.7-6.2-29.7-5.4-42.1,1.7L227.8,399.1c-12.4,7.2-13.8,18.1-3,24.3l171.6,99.1
	c10.7,6.2,29.7,5.4,42.1-1.7L812.1,305C824.5,297.9,825.8,286.9,815.1,280.7z"/>
<path class="st1" d="M419.5,508.2L234.8,401.6c-11.6-6.7-18.1-34.9,3.3-47.1l402.2-211.2c13.4-7.7,33.8-8.6,45.3-1.9L870.2,227
	c16.3,8.6,10.1,39.4-3.3,47.1L464.8,506.3C451.5,514,431.1,514.9,419.5,508.2z"/>
<path class="st2" d="M419.5,497.7L234.8,391.1c-11.6-6.7-13.6-27.9,3.3-36.6l402.2-221.7c13.4-7.7,33.8-8.6,45.3-1.9L870.2,227
	c14.1,7.6,10.1,28.9-3.3,36.6L464.8,495.8C451.5,503.6,431.1,504.4,419.5,497.7z"/>
<g>
	<path class="st3" d="M626.2,143.4l-351.6,203l204.1,117.8l351.6-203L626.2,143.4z"/>
</g>
<g class="st4">
	<linearGradient id="SVGID_1_" gradientUnits="userSpaceOnUse" x1="814.6932" y1="350.0384" x2="290.3221" y2="257.5776">
		<stop  offset="0" style="stop-color:#7D8489"/>
		<stop  offset="0.3772" style="stop-color:#1F2223"/>
	</linearGradient>
	<path class="st5" d="M626.2,143.4l-351.6,203l204.1,117.8l351.6-203L626.2,143.4z"/>
</g>
<polygon class="st6" points="318.8,314.4 266.6,348 476.2,468.8 580.6,413.7 "/>
<g>
	<path class="st6" d="M645.2,154.1l-32.4,18.7c-8.5,4.9-9.4,12.3-2.1,16.6c7.4,4.3,20.2,3.7,28.7-1.2l32.4-18.7L645.2,154.1z"/>
	<g>
		<path class="st3" d="M619.9,180.3c0.1-1.1,1-2.1,2.4-3c3-1.7,7.5-1.9,10.1-0.4c1.3,0.7,1.9,1.8,1.7,2.8l5.2-0.2
			c0.2-1.8-0.7-3.6-3-4.9c-4.5-2.6-12.2-2.3-17.4,0.7c-2.6,1.5-4,3.4-4.2,5.2L619.9,180.3z"/>
		<path class="st3" d="M627.8,184c-2.2,0.3-4.6,0-6.1-0.9c-0.3-0.2-0.5-0.4-0.8-0.6l-5.7,0.2c0.5,1,1.3,1.8,2.6,2.6
			c2.7,1.6,6.7,2.1,10.6,1.5L627.8,184z"/>
	</g>
</g>
<g>
	<path class="st7" d="M648.1,204.3c-0.3-0.8-0.1-1.7,0.4-2.6c0.6-0.9,1.6-1.8,3.1-2.7c1.5-0.9,3-1.5,4.6-1.8
		c1.6-0.3,3.1-0.4,4.6-0.3c1.4,0.2,2.7,0.5,3.7,1.1c0.7,0.4,1.2,0.9,1.5,1.4c0.3,0.5,0.4,1.1,0.3,1.7l-3.2,0.3c0-0.4,0-0.8-0.2-1.1
		c-0.2-0.3-0.4-0.6-0.9-0.8c-0.6-0.3-1.3-0.5-2.2-0.6s-1.8,0-2.7,0.3c-1,0.3-1.9,0.7-2.9,1.2c-1.5,0.8-2.3,1.7-2.6,2.5
		c-0.3,0.8,0,1.5,1,2c0.9,0.5,2.2,0.7,3.8,0.6l-0.5,1.8c-2.4,0.2-4.3-0.1-5.9-1C649,205.8,648.4,205.1,648.1,204.3z"/>
	<path class="st7" d="M658.6,210.4c-0.3-0.8-0.2-1.7,0.4-2.6s1.6-1.8,3.1-2.7c1.5-0.9,3-1.5,4.7-1.8c1.6-0.3,3.2-0.4,4.6-0.2
		c1.5,0.2,2.7,0.6,3.8,1.2c1.5,0.8,2.1,1.9,2,3.2l-3.2,0.3c0-0.4,0-0.8-0.2-1.1c-0.2-0.3-0.5-0.6-1-0.9c-1-0.6-2.2-0.8-3.6-0.7
		c-1.4,0.1-2.9,0.6-4.3,1.4c-1.5,0.9-2.4,1.7-2.6,2.5c-0.2,0.8,0.2,1.5,1.4,2.2c0.3,0.2,0.6,0.3,0.9,0.4c0.3,0.1,0.7,0.2,1,0.2
		l2.6-1.5l-2.1-1.2l2.4-1.4l4.3,2.5l-6.3,3.6c-0.9,0-1.9-0.1-2.9-0.3c-1-0.2-1.9-0.6-2.7-1C659.7,211.9,658.9,211.2,658.6,210.4z"/>
	<path class="st7" d="M678,210l2.5,1.4l-10.5,6.1l-2.5-1.4L678,210z M680.3,209c0-0.3,0.3-0.6,0.7-0.9c0.5-0.3,1-0.4,1.5-0.4
		c0.6,0,1,0.1,1.5,0.3c0.4,0.2,0.6,0.5,0.6,0.8c0,0.3-0.3,0.6-0.7,0.9c-0.5,0.3-1,0.4-1.5,0.4c-0.6,0-1-0.1-1.5-0.3
		C680.5,209.6,680.3,209.3,680.3,209z"/>
	<path class="st7" d="M686.8,214.2l-0.8,0.5l1.7,1l-2.3,1.3l-1.7-1l-8.2,4.8l-2.5-1.5l8.2-4.8l-1.2-0.7l2.2-1.3l1.3,0.6l0.7-0.4
		c1.2-0.7,2.4-1.1,3.7-1.2c1.2-0.1,2.4,0.1,3.5,0.8c0.6,0.4,1.1,0.8,1.4,1.2l-2.6,1c-0.2-0.3-0.4-0.5-0.7-0.7
		C688.8,213.5,687.9,213.6,686.8,214.2z"/>
	<path class="st7" d="M681.1,223.1c0.2-0.7,0.9-1.4,2.2-2.1l4.5-2.6l-1.3-0.7l2.2-1.3l1.5,0.7l3.1-1.5l2.1,1.2l-2.8,1.6l2.2,1.3
		l-2.3,1.3l-2.2-1.3l-4.5,2.6c-1.2,0.7-1.3,1.2-0.5,1.7c0.3,0.1,0.6,0.3,1.1,0.4l-1.7,1.5c-0.9-0.2-1.7-0.5-2.4-0.9
		C681.3,224.4,680.9,223.8,681.1,223.1z"/>
	<path class="st7" d="M687.2,227.2c0.1-0.4,0.4-0.7,0.9-1c0.5-0.3,1.1-0.5,1.8-0.5c0.7,0,1.2,0.1,1.6,0.3c0.4,0.3,0.6,0.6,0.6,0.9
		c-0.1,0.4-0.4,0.7-0.9,1c-0.5,0.3-1.1,0.5-1.8,0.5c-0.6,0-1.2-0.1-1.6-0.3S687.1,227.6,687.2,227.2z"/>
	<path class="st7" d="M702.6,224.3l2.5,1.4l-10.5,6.1l-2.5-1.4L702.6,224.3z M704.9,223.2c0-0.3,0.3-0.6,0.7-0.9
		c0.5-0.3,1-0.4,1.5-0.4c0.6,0,1,0.1,1.5,0.3c0.4,0.2,0.6,0.5,0.6,0.8s-0.3,0.6-0.7,0.9c-0.5,0.3-1,0.4-1.5,0.4
		c-0.6,0-1-0.1-1.5-0.3C705.1,223.8,704.9,223.5,704.9,223.2z"/>
	<path class="st7" d="M699.2,234c-0.2-0.6-0.1-1.3,0.3-2c0.4-0.7,1.2-1.4,2.3-2c1.1-0.7,2.3-1.1,3.6-1.4s2.4-0.3,3.5-0.2
		c1.1,0.1,2.1,0.4,2.8,0.9c0.8,0.4,1.3,1,1.5,1.6c0.2,0.6,0.1,1.3-0.3,2.1c-0.4,0.7-1.2,1.4-2.3,2.1c-1.1,0.6-2.3,1.1-3.5,1.3
		c-1.2,0.2-2.4,0.3-3.5,0.2s-2.1-0.4-2.8-0.9C700,235.2,699.5,234.7,699.2,234z M705.3,234.6c0.9-0.1,1.8-0.5,2.8-1.1
		s1.6-1.1,1.8-1.6c0.2-0.5,0.1-0.9-0.5-1.3c-0.6-0.3-1.3-0.4-2.2-0.3c-0.9,0.1-1.8,0.5-2.8,1.1s-1.6,1.1-1.8,1.6
		c-0.2,0.5-0.1,0.9,0.5,1.3C703.7,234.6,704.4,234.7,705.3,234.6z"/>
</g>
<g>
	<path class="st6" d="M566.1,204.4l-3.7-2.1l1.2-0.7l8.8,5.1l-1.2,0.7l-3.7-2.1l-10.9,6.3l-1.4-0.8L566.1,204.4z"/>
	<path class="st6" d="M575.6,207.4l1.3,0.8l-3.6,2.1l-1.9,1.1c1,0,1.8,0.1,2.6,0.2s1.4,0.3,1.9,0.7c0.9,0.5,1.3,1.1,1.2,1.7
		c-0.1,0.6-0.8,1.2-1.9,1.9l-5.7,3.3l-1.3-0.8l5.5-3.2c0.9-0.5,1.3-0.9,1.5-1.3c0.1-0.4-0.1-0.8-0.8-1.1c-0.4-0.3-1-0.4-1.6-0.5
		s-1.4-0.1-2.4-0.1l-6.5,3.8l-1.3-0.8L575.6,207.4z"/>
	<path class="st6" d="M583.5,222.3l-6.2-3.6c-1,0.6-1.5,1.3-1.5,2c0,0.7,0.4,1.2,1.3,1.7c0.8,0.5,1.8,0.7,3,0.9l-0.4,0.8
		c-0.7-0.1-1.4-0.2-2-0.4c-0.6-0.2-1.2-0.4-1.8-0.8c-0.8-0.5-1.3-1-1.6-1.6c-0.3-0.6-0.2-1.2,0.1-1.8s1-1.2,1.9-1.8
		c0.9-0.5,1.9-0.9,3-1.1c1.1-0.2,2.1-0.2,3.1-0.1c1,0.1,1.8,0.4,2.5,0.8c1.1,0.6,1.6,1.3,1.5,2.1c-0.1,0.8-0.8,1.6-2.1,2.3
		C584.1,222.1,583.8,222.2,583.5,222.3z M583.4,221.1c0.9-0.5,1.5-1.1,1.6-1.6c0.1-0.5-0.2-1-0.9-1.4c-0.7-0.4-1.5-0.6-2.5-0.6
		c-1,0-2,0.2-3.1,0.7L583.4,221.1z"/>
	<path class="st6" d="M587.4,228.2c0.2-0.9,1-1.7,2.5-2.6c0.9-0.5,1.9-0.9,3-1.1c1.1-0.2,2.1-0.2,3.1-0.1c1,0.1,1.8,0.4,2.5,0.8
		c0.5,0.3,0.8,0.6,1,0.9c0.2,0.3,0.4,0.7,0.5,1.2l1.5-0.9l3.5-2l1.3,0.8l-13.1,7.6L592,232l1-0.7l-0.1,0c-0.8,0-1.5-0.1-2.2-0.2
		c-0.7-0.1-1.3-0.4-1.8-0.6C587.7,229.8,587.3,229,587.4,228.2z M591.8,230.5c0.6,0.1,1.3,0.1,2.1,0.1l4.8-2.8
		c0-0.4-0.2-0.8-0.4-1.1c-0.2-0.3-0.5-0.6-0.9-0.8c-0.5-0.3-1.1-0.5-1.8-0.5c-0.7-0.1-1.5,0-2.2,0.2c-0.8,0.2-1.5,0.5-2.2,0.8
		c-1.1,0.6-1.7,1.3-1.9,1.9c-0.2,0.6,0.1,1.2,1,1.6C590.7,230.2,591.2,230.4,591.8,230.5z"/>
	<path class="st6" d="M605.2,229.3l1.3,0.8l-8.9,5.1l-1.3-0.8L605.2,229.3z M607.4,228.1c0-0.2,0.1-0.4,0.4-0.5
		c0.3-0.2,0.6-0.2,0.9-0.2c0.3,0,0.6,0.1,0.9,0.2c0.3,0.2,0.4,0.3,0.4,0.5s-0.1,0.4-0.4,0.5c-0.3,0.2-0.6,0.2-0.9,0.2
		c-0.3,0-0.6-0.1-0.9-0.2C607.5,228.5,607.4,228.3,607.4,228.1z"/>
	<path class="st6" d="M597.6,239.3c-0.2-0.6,0-1.2,0.8-1.6c0.4-0.2,0.9-0.4,1.4-0.4c0.6-0.1,1.2-0.1,1.9,0l0.1,0
		c-0.1-0.2-0.1-0.4,0-0.7c0.1-0.2,0.3-0.4,0.6-0.6c0.3-0.2,0.8-0.3,1.2-0.4c0.5-0.1,0.9-0.1,1.4,0l0.1,0c-0.1-0.3,0-0.7,0.2-1.1
		c0.2-0.4,0.5-0.7,1-1c0.6-0.4,1.3-0.6,2.1-0.7c0.8-0.1,1.5-0.1,2.3,0c0.8,0.1,1.4,0.4,2,0.7c0.4,0.2,0.7,0.5,1,0.8l3.1,1.8l-1,0.6
		l-1.9-1.1c0,0.3-0.1,0.5-0.3,0.8s-0.5,0.5-0.9,0.8c-0.6,0.4-1.3,0.6-2,0.7c-0.8,0.1-1.5,0.1-2.3,0s-1.4-0.4-2-0.7
		c-0.5-0.3-0.8-0.6-1-1c-0.4,0-0.7,0-0.9,0c-0.3,0-0.5,0.1-0.8,0.3c-0.3,0.2-0.4,0.4-0.4,0.6c0.1,0.2,0.4,0.5,1,0.9l1.8,1
		c1,0.6,1.6,1.1,1.8,1.6c0.2,0.5-0.1,0.9-0.8,1.4c-0.5,0.3-1.2,0.5-2.1,0.6c-0.8,0.1-1.7,0-2.7-0.2c-1-0.2-1.9-0.6-2.7-1.1
		C598.5,240.5,597.8,239.9,597.6,239.3z M602.5,241.5c0.6,0.2,1.2,0.2,1.8,0.2c0.5,0,1-0.1,1.3-0.3c0.4-0.2,0.6-0.5,0.4-0.8
		c-0.1-0.3-0.5-0.6-1.1-1l-1.6-0.9c-0.4-0.2-0.7-0.5-1-0.7c-1.1-0.1-2,0-2.6,0.4c-0.5,0.3-0.7,0.7-0.5,1.1s0.7,0.9,1.5,1.4
		C601.3,241.1,601.9,241.3,602.5,241.5z M609.5,237.1c0.8,0,1.5-0.2,2.2-0.6c0.7-0.4,1-0.8,1-1.2c0-0.4-0.3-0.8-0.8-1.2
		c-0.6-0.3-1.2-0.5-2-0.5c-0.8,0-1.5,0.2-2.2,0.6c-0.6,0.4-1,0.8-1,1.3c0,0.5,0.2,0.9,0.8,1.2C608,236.9,608.7,237.1,609.5,237.1z"
		/>
	<path class="st6" d="M619.1,237.4l1.3,0.8l-8.9,5.1l-1.3-0.8L619.1,237.4z M621.3,236.1c0-0.2,0.1-0.4,0.4-0.5
		c0.3-0.2,0.6-0.2,0.9-0.2c0.3,0,0.6,0.1,0.9,0.2c0.3,0.2,0.4,0.3,0.4,0.5c0,0.2-0.1,0.4-0.4,0.5c-0.3,0.2-0.6,0.2-0.9,0.2
		s-0.6-0.1-0.9-0.2C621.4,236.5,621.3,236.3,621.3,236.1z"/>
	<path class="st6" d="M616.1,245.3c0.1-0.5,0.6-1,1.6-1.6l5.1-3l-1.3-0.8l1-0.6l1.5,0.8l2.7-1.4l1.1,0.6l-2.5,1.5l2.4,1.4l-1.1,0.6
		l-2.4-1.4l-5.2,3c-0.6,0.3-0.9,0.7-1,0.9c-0.1,0.3,0.1,0.6,0.7,0.9c0.3,0.1,0.7,0.3,1.3,0.5l-0.7,0.7c-0.9-0.3-1.5-0.5-1.9-0.7
		C616.4,246.3,616,245.8,616.1,245.3z"/>
	<path class="st6" d="M621.9,248.7c0-0.5,0.3-1,1.1-1.5c1-0.6,2.2-0.7,3.6-0.5c1.4,0.2,3.2,0.8,5.3,1.8c0.7-0.4,1.1-0.8,1.3-1.2
		c0.2-0.4-0.1-0.8-0.8-1.2c-0.8-0.5-2.1-0.8-3.7-1l0.4-0.8c2,0.2,3.5,0.7,4.6,1.3c1,0.6,1.5,1.2,1.3,1.9c-0.2,0.7-0.8,1.3-1.9,2
		l-5.5,3.2l-1.1-0.6l1-0.7l-0.1,0c-1.9-0.1-3.4-0.4-4.3-1C622.3,249.8,621.9,249.3,621.9,248.7z M626.1,250.3
		c0.6,0.1,1.4,0.2,2.3,0.2l2.6-1.5c-1.7-0.8-3.1-1.2-4.1-1.4c-1-0.2-1.8,0-2.5,0.3c-0.5,0.3-0.7,0.6-0.7,0.9
		c0.1,0.3,0.3,0.6,0.8,0.9C624.9,250,625.5,250.2,626.1,250.3z"/>
	<path class="st6" d="M631.2,254.3c0.1-0.3,0.4-0.6,1-1l11.5-6.6l1.3,0.8l-11.6,6.7c-0.2,0.1-0.3,0.2-0.3,0.3c0,0.1,0,0.2,0.1,0.3
		c0.1,0.1,0.2,0.1,0.4,0.2l-0.8,0.7c-0.3-0.1-0.6-0.2-0.9-0.4C631.3,255,631.1,254.7,631.2,254.3z"/>
	<path class="st6" d="M530.1,222.5c-0.2-0.6,0-1.2,0.8-1.6c0.4-0.2,0.9-0.4,1.4-0.4c0.6-0.1,1.2-0.1,1.9,0l0.1,0
		c-0.1-0.2-0.1-0.4,0-0.7c0.1-0.2,0.3-0.4,0.6-0.6c0.3-0.2,0.8-0.3,1.2-0.4c0.5-0.1,0.9-0.1,1.4,0l0.1,0c-0.1-0.3,0-0.7,0.2-1.1
		c0.2-0.4,0.5-0.7,1-1c0.6-0.4,1.3-0.6,2.1-0.7c0.8-0.1,1.5-0.1,2.3,0c0.8,0.1,1.4,0.4,2,0.7c0.4,0.2,0.7,0.5,1,0.8l3.1,1.8l-1,0.6
		l-1.9-1.1c0,0.3-0.1,0.5-0.3,0.8c-0.2,0.3-0.5,0.5-0.9,0.8c-0.6,0.4-1.3,0.6-2,0.7c-0.8,0.1-1.5,0.1-2.3,0c-0.7-0.1-1.4-0.4-2-0.7
		c-0.5-0.3-0.8-0.6-1-1c-0.4,0-0.7,0-0.9,0c-0.3,0-0.5,0.1-0.8,0.3c-0.3,0.2-0.4,0.4-0.4,0.6c0.1,0.2,0.4,0.5,1,0.9l1.8,1
		c1,0.6,1.6,1.1,1.8,1.6c0.2,0.5-0.1,0.9-0.8,1.4c-0.5,0.3-1.2,0.5-2.1,0.6c-0.8,0.1-1.7,0-2.7-0.2c-1-0.2-1.9-0.6-2.7-1.1
		C531,223.8,530.3,223.1,530.1,222.5z M535,224.7c0.6,0.2,1.2,0.2,1.8,0.2c0.5,0,1-0.1,1.3-0.3c0.4-0.2,0.6-0.5,0.4-0.8
		c-0.1-0.3-0.5-0.6-1.1-1l-1.6-0.9c-0.4-0.2-0.7-0.5-1-0.7c-1.1-0.1-2,0-2.6,0.4c-0.5,0.3-0.7,0.7-0.5,1.1c0.2,0.4,0.7,0.9,1.5,1.4
		C533.8,224.3,534.4,224.5,535,224.7z M542,220.3c0.8,0,1.5-0.2,2.2-0.6c0.7-0.4,1-0.8,1-1.2c0-0.4-0.3-0.8-0.8-1.2
		c-0.6-0.3-1.2-0.5-2-0.5c-0.8,0-1.5,0.2-2.2,0.6c-0.6,0.4-1,0.8-1,1.3s0.2,0.9,0.8,1.2C540.5,220.1,541.2,220.3,542,220.3z"/>
	<path class="st6" d="M551.6,220.6l1.3,0.8l-8.9,5.1l-1.3-0.8L551.6,220.6z M553.8,219.3c0-0.2,0.1-0.4,0.4-0.5
		c0.3-0.2,0.6-0.2,0.9-0.2c0.3,0,0.6,0.1,0.9,0.2c0.3,0.2,0.4,0.3,0.4,0.5c0,0.2-0.1,0.4-0.4,0.5c-0.3,0.2-0.6,0.2-0.9,0.2
		c-0.3,0-0.6-0.1-0.9-0.2S553.8,219.5,553.8,219.3z"/>
	<path class="st6" d="M559.2,223.2l-1.5,0.9l1.9,1.1l-1.1,0.6l-1.9-1.1l-7.8,4.5l-1.3-0.8l7.8-4.5l-1.2-0.7l1-0.6l1.3,0.6l1.5-0.9
		c0.9-0.5,1.8-0.8,2.8-0.9c0.9,0,1.8,0.2,2.6,0.7c0.5,0.3,0.9,0.6,1.1,1l-1.3,0.4c-0.2-0.3-0.5-0.5-0.8-0.7
		C561.4,222.4,560.4,222.5,559.2,223.2z"/>
	<path class="st6" d="M554.7,232c0.1-0.5,0.6-1,1.6-1.6l5.1-3l-1.3-0.8l1-0.6l1.5,0.8l2.7-1.4l1.1,0.6l-2.5,1.5l2.4,1.4l-1.1,0.6
		l-2.4-1.4l-5.2,3c-0.6,0.3-0.9,0.7-1,0.9c-0.1,0.3,0.1,0.6,0.7,0.9c0.3,0.1,0.7,0.3,1.3,0.5l-0.7,0.7c-0.9-0.3-1.5-0.5-1.9-0.7
		C554.9,233,554.5,232.5,554.7,232z"/>
	<path class="st6" d="M565.5,238.5c-0.3-0.6-0.2-1.2,0.1-1.8c0.3-0.6,1-1.2,2-1.8c1-0.6,2-0.9,3.1-1.1c1.1-0.2,2.2-0.2,3.2,0
		c1,0.2,1.9,0.5,2.7,0.9c1,0.6,1.5,1.3,1.5,2.1l-1.6,0.1c0-0.3-0.1-0.6-0.3-0.9c-0.2-0.3-0.4-0.5-0.7-0.7c-0.6-0.3-1.2-0.5-1.9-0.6
		c-0.7-0.1-1.5,0-2.3,0.1c-0.8,0.2-1.5,0.5-2.2,0.9c-1.1,0.6-1.7,1.3-1.8,1.9c-0.1,0.7,0.2,1.3,1.1,1.8c0.8,0.4,1.8,0.7,3.1,0.7
		L571,241c-0.8,0-1.5-0.1-2.2-0.3c-0.7-0.2-1.3-0.4-1.8-0.7C566.3,239.6,565.7,239.1,565.5,238.5z"/>
	<path class="st6" d="M573.1,242.8c0-0.5,0.3-1,1.1-1.5c1-0.6,2.2-0.7,3.6-0.5c1.4,0.2,3.2,0.8,5.3,1.8c0.7-0.4,1.1-0.8,1.3-1.2
		c0.2-0.4-0.1-0.8-0.8-1.2c-0.8-0.5-2.1-0.8-3.7-1l0.4-0.8c2,0.2,3.5,0.7,4.6,1.3c1,0.6,1.5,1.2,1.3,1.9c-0.2,0.7-0.8,1.3-1.9,2
		l-5.5,3.2l-1.1-0.6l1-0.7l-0.1,0c-1.9-0.1-3.4-0.4-4.3-1C573.6,243.8,573.2,243.3,573.1,242.8z M577.3,244.4
		c0.6,0.1,1.4,0.2,2.3,0.2l2.6-1.5c-1.7-0.8-3.1-1.2-4.1-1.4c-1-0.2-1.8,0-2.5,0.3c-0.5,0.3-0.7,0.6-0.7,0.9
		c0.1,0.3,0.3,0.6,0.8,0.9C576.2,244.1,576.7,244.3,577.3,244.4z"/>
	<path class="st6" d="M590.8,243.2l1.1,0.6l-1.5,1l0.1,0c0.9-0.2,1.7-0.2,2.5-0.1c0.8,0.1,1.4,0.2,1.9,0.5c0.4,0.2,0.6,0.4,0.7,0.6
		l-1.4,0.5c-0.2-0.2-0.5-0.4-0.7-0.6c-0.4-0.2-1-0.4-1.8-0.4c-0.8,0-1.6,0.1-2.7,0.3l-5.8,3.4l-1.3-0.8L590.8,243.2z"/>
	<path class="st6" d="M589.6,251.7c0.2-0.9,1-1.7,2.5-2.6c0.9-0.5,1.9-0.9,3-1.1c1.1-0.2,2.1-0.2,3.1-0.1c1,0.1,1.8,0.4,2.5,0.8
		c0.5,0.3,0.8,0.6,1,0.9c0.2,0.3,0.4,0.7,0.5,1.2l1.5-0.9l3.5-2l1.3,0.8l-13.1,7.6l-1.1-0.6l1-0.7l-0.1,0c-0.8,0-1.5-0.1-2.2-0.2
		c-0.7-0.1-1.3-0.4-1.8-0.6C589.9,253.3,589.5,252.5,589.6,251.7z M594,254c0.6,0.1,1.3,0.1,2.1,0.1l4.8-2.8c0-0.4-0.2-0.8-0.4-1.1
		c-0.2-0.3-0.5-0.6-0.9-0.8c-0.5-0.3-1.1-0.5-1.8-0.5c-0.7-0.1-1.5,0-2.2,0.2c-0.8,0.2-1.5,0.5-2.2,0.8c-1.1,0.6-1.7,1.3-1.9,1.9
		c-0.2,0.6,0.1,1.2,1,1.6C592.9,253.7,593.4,253.9,594,254z"/>
</g>
<path class="st7" d="M870.2,227L685.5,120.4c-11.6-6.7-32-5.8-45.3,1.9L238,354.4c-13.4,7.7-14.8,19.5-3.3,26.2l184.7,106.6
	c11.6,6.7,32,5.8,45.3-1.9L867,253.2C880.3,245.5,881.8,233.7,870.2,227z M478.8,464.2L274.7,346.4l351.6-203l204.1,117.8
	L478.8,464.2z"/>
<ellipse transform="matrix(5.423482e-03 -1 1 5.423482e-03 -69.5885 769.2594)" class="st2" cx="351.9" cy="419.6" rx="12.9" ry="22.4"/>
<path class="st2" d="M772.2,202.5c-1.2,0-2.2-0.2-3-0.7L729.7,179c-0.9-0.5-1.3-1.2-1.3-2c0-0.9,0.7-1.9,1.8-2.5
	c1.1-0.6,2.5-1,3.8-1c1.2,0,2.2,0.2,3,0.7l39.5,22.8c0.9,0.5,1.3,1.2,1.3,2c0,0.9-0.7,1.9-1.8,2.5
	C775,202.2,773.6,202.5,772.2,202.5z"/>
<path class="st8" d="M336.2,454.3l-18.1-10.5c-1.5-0.9-2.8-3.3-2.8-5.4l0,0c0-2.1,1.3-3,2.8-2.1l18.1,10.5c1.5,0.9,2.8,3.3,2.8,5.4
	l0,0C339,454.3,337.7,455.2,336.2,454.3z"/>
<path class="st9" d="M339,452.2c0-2.1-1.3-4.5-2.8-5.4l-15.5-9c0,0,0,0.1,0,0.1l0,0c0,2.1,1.3,4.5,2.8,5.4L339,452.2
	C339,452.3,339,452.3,339,452.2L339,452.2z"/>
<polygon class="st6" points="537.1,266.6 493.9,241.6 495.9,240.4 539.1,265.4 "/>
</svg>
