<?xml version="1.0" encoding="utf-8"?>
<!-- Generator: Adobe Illustrator 23.0.3, SVG Export Plug-In . SVG Version: 6.00 Build 0)  -->
<svg version="1.1" id="Ebene_3" xmlns="http://www.w3.org/2000/svg" xmlns:xlink="http://www.w3.org/1999/xlink" x="0px" y="0px"
	 viewBox="0 0 488 224" style="enable-background:new 0 0 488 224;" xml:space="preserve">
<style type="text/css">
	.st0{opacity:0.6;fill:#1F2223;}
	.st1{fill:#E2E4E5;}
	.st2{fill:#B4BABD;}
	.st3{opacity:0.67;fill:#7D8489;}
	.st4{fill:#2E3132;}
	.st5{opacity:0.8;fill:#131617;}
	.st6{fill:#FAD151;}
	.st7{opacity:0.81;fill:#F5A543;}
	.st8{opacity:0.5;fill:#B4BABD;}
	.st9{fill:#525455;}
</style>
<g>
	<path class="st0" d="M428.3,92.6L324.4,32.6c-3.8-2.2-9.6-2.4-12.9-0.5L281,49.7l-9.8-5.7c-3.8-2.2-9.6-2.4-12.9-0.5l-30.5,17.6
		l-9.8-5.7c-3.8-2.2-9.6-2.4-12.9-0.5l-30.5,17.6l-9.8-5.7c-3.8-2.2-9.6-2.4-12.9-0.5L2.2,152.7c-1.4,0.8-2.1,1.9-2.2,3
		c0,0.4,0,2.1,0,2.6c0.1,1.4,1.2,2.8,3.1,3.9L107,222.2c3.8,2.2,9.6,2.4,12.9,0.5l30.5-17.6l9.8,5.7c3.8,2.2,9.6,2.4,12.9,0.5
		l30.5-17.6l9.8,5.7c3.8,2.2,9.6,2.4,12.9,0.5l10.1-5.9v0l20.3-11.7l9.8,5.7c3.8,2.2,9.6,2.4,12.9,0.5l149.6-86.4
		c1.9-1.1,2.6-2.7,2-4.3C431.9,96.1,430.9,94.1,428.3,92.6z"/>
	<g>
		<g>
			<path class="st1" d="M309.1,107.7L195,41.9c-4.2-2.4-10.6-2.7-14.2-0.6L16.4,136.2c-3.6,2.1-3.2,5.8,1,8.2l114.1,65.9
				c4.2,2.4,10.6,2.7,14.2,0.6l164.4-94.9C313.8,113.9,313.3,110.2,309.1,107.7z"/>
			<path class="st2" d="M309.1,105.5L195,39.6c-4.2-2.4-10.6-2.7-14.2-0.6L16.4,133.9c-3.6,2.1-3.2,5.8,1,8.2L131.5,208
				c4.2,2.4,10.6,2.7,14.2,0.6l164.4-94.9C313.8,111.6,313.3,107.9,309.1,105.5z"/>
		</g>
		<path class="st3" d="M310.1,113.7c3.6-2.1,3.2-5.8-1-8.2l-91.6-52.9L64.2,141.1c-3.6,2.1-3.2,5.8,1,8.2l91.6,52.9L310.1,113.7z"/>
	</g>
	<g>
		<g>
			<path class="st1" d="M367.6,95.2L253.5,29.3c-4.2-2.4-10.6-2.7-14.2-0.6L74.8,123.7c-3.6,2.1-3.2,5.8,1,8.2L190,197.8
				c4.2,2.4,10.6,2.7,14.2,0.6l164.4-94.9C372.2,101.3,371.8,97.6,367.6,95.2z"/>
			<path class="st4" d="M367.6,93L253.5,27.1c-4.2-2.4-10.6-2.7-14.2-0.6L74.8,121.4c-3.6,2.1-3.2,5.8,1,8.2L190,195.5
				c4.2,2.4,10.6,2.7,14.2,0.6l164.4-94.9C372.2,99.1,371.8,95.4,367.6,93z"/>
		</g>
		<path class="st5" d="M368.6,101.2c3.6-2.1,3.2-5.8-1-8.2L276,40.1l-153.3,88.5c-3.6,2.1-3.2,5.8,1,8.2l91.6,52.9L368.6,101.2z"/>
	</g>
	<g>
		<path class="st1" d="M426.1,82.7L312,16.8c-4.2-2.4-10.6-2.7-14.2-0.6l-164.4,94.9c-3.6,2.1-3.2,5.8,1,8.2l114.1,65.9
			c4.2,2.4,10.6,2.7,14.2,0.6l164.4-94.9C430.7,88.8,430.2,85.1,426.1,82.7z"/>
		<path class="st6" d="M426.1,80.4L312,14.5c-4.2-2.4-10.6-2.7-14.2-0.6l-164.4,94.9c-3.6,2.1-3.2,5.8,1,8.2L248.4,183
			c4.2,2.4,10.6,2.7,14.2,0.6l164.4-94.9C430.7,86.5,430.2,82.8,426.1,80.4z"/>
		<path class="st7" d="M427.1,88.6c3.6-2.1,3.2-5.8-1-8.2l-91.6-52.9L181.2,116c-3.6,2.1-3.2,5.8,1,8.2l91.6,52.9L427.1,88.6z"/>
	</g>
	<polygon class="st8" points="273.8,179.4 302.8,162.6 300.6,161.7 273.8,177.1 	"/>
	<g>
		<path class="st1" d="M484.5,70.1L370.4,4.3c-4.2-2.4-10.6-2.7-14.2-0.6L191.8,98.6c-3.6,2.1-3.2,5.8,1,8.2l114.1,65.9
			c4.2,2.4,10.6,2.7,14.2,0.6l164.4-94.9C489.2,76.3,488.7,72.6,484.5,70.1z"/>
		<path class="st9" d="M484.5,67.9L370.4,2c-4.2-2.4-10.6-2.7-14.2-0.6L191.8,96.4c-3.6,2.1-3.2,5.8,1,8.2l114.1,65.9
			c4.2,2.4,10.6,2.7,14.2,0.6l164.4-94.9C489.2,74,488.7,70.3,484.5,67.9z"/>
	</g>
</g>
</svg>
