<?xml version="1.0" encoding="utf-8"?>
<!-- Generator: Adobe Illustrator 23.0.3, SVG Export Plug-In . SVG Version: 6.00 Build 0)  -->
<svg version="1.1" xmlns="http://www.w3.org/2000/svg" xmlns:xlink="http://www.w3.org/1999/xlink" x="0px" y="0px"
	 viewBox="0 0 393 328.1" style="enable-background:new 0 0 393 328.1;" xml:space="preserve">
<style type="text/css">
	.st0{fill:#7D8489;}
	.st1{fill:#C6CBCD;}
	.st2{fill:#A8AEB2;}
	.st3{fill:#FAD151;}
	.st4{fill:#FBDB76;}
	.st5{opacity:0.54;}
	.st6{fill:#F5A543;}
	.st7{fill:#2E3132;}
	.st8{opacity:0.3;}
	.st9{fill:#FFFFFF;}
	.st10{fill:#525455;}
	.st11{opacity:0.4;fill:#2E3132;}
</style>
<g id="Ebene_2">
	<g>
		<polygon class="st0" points="174.9,167.7 174.9,167.7 162.1,160.3 149.6,167.5 149.6,167.5 149.6,167.5 149.6,167.5 149.6,167.5 
			149.7,328.1 162.4,328.1 174.9,328.1 		"/>
		<g>
			<polygon class="st1" points="174.9,167.7 162.1,160.3 149.6,167.5 162.4,174.9 			"/>
		</g>
		<g>
			<polygon class="st2" points="162.4,174.9 149.6,167.5 149.7,328.1 162.4,328.1 			"/>
		</g>
	</g>
	<g>
		<polygon class="st0" points="346.5,7.4 346.5,7.4 333.7,0 321.2,7.2 321.2,7.2 321.2,7.2 321.2,7.2 321.2,7.2 321.3,328.1 
			334,328.1 346.5,328.1 		"/>
		<g>
			<polygon class="st1" points="346.5,7.4 333.7,0 321.2,7.2 334,14.6 			"/>
		</g>
		<g>
			<polygon class="st2" points="334,14.6 321.2,7.2 321.3,328.1 334,328.1 			"/>
		</g>
	</g>
	<g>
		<polygon class="st0" points="308.5,44.5 308.5,44.5 295.7,37.1 283.2,44.3 283.2,44.3 283.2,44.3 283.2,44.3 283.2,44.3 
			283.3,328.1 296,328.1 308.5,328.1 		"/>
		<g>
			<polygon class="st1" points="308.5,44.5 295.7,37.1 283.2,44.3 296,51.8 			"/>
		</g>
		<g>
			<polygon class="st2" points="296,51.7 283.2,44.3 283.3,328.1 296,328.1 			"/>
		</g>
	</g>
	<g>
		<polygon class="st0" points="272,98.1 272,98.1 259.2,90.7 246.7,97.9 246.7,97.9 246.7,97.9 246.7,97.9 246.7,97.9 246.7,328.1 
			259.5,328.1 272,328.1 		"/>
		<g>
			<polygon class="st1" points="272,98.1 259.2,90.7 246.7,97.9 259.4,105.3 			"/>
		</g>
		<g>
			<polygon class="st2" points="259.4,105.3 246.7,97.9 246.7,328.1 259.5,328.1 			"/>
		</g>
	</g>
	<g>
		<polygon class="st3" points="207.3,96.4 207.3,96.4 220,89 232.5,96.2 232.5,96.2 232.5,96.2 232.5,96.2 232.5,96.2 232.5,328.1 
			219.8,328.1 207.2,328.1 		"/>
		<g>
			<polygon class="st4" points="207.3,96.4 220,89 232.5,96.2 219.8,103.6 			"/>
		</g>
		<g class="st5">
			<polygon class="st6" points="219.8,103.6 232.5,96.2 232.5,328.1 219.8,328.1 			"/>
		</g>
	</g>
	<g>
		<polygon class="st0" points="194.5,118.3 194.5,118.3 181.8,110.9 169.3,118.1 169.3,118.1 169.3,118.1 169.3,118.1 169.3,118.1 
			169.3,328.1 182,328.1 194.5,328.1 		"/>
		<g>
			<polygon class="st1" points="194.5,118.3 181.8,110.9 169.3,118.1 182,125.5 			"/>
		</g>
		<g>
			<polygon class="st2" points="182,125.5 169.3,118.1 169.3,328.1 182,328.1 			"/>
		</g>
	</g>
	<g>
		<polygon class="st0" points="156.5,153.1 156.5,153.1 143.8,145.7 131.3,152.9 131.3,152.9 131.3,152.9 131.3,152.9 131.3,152.9 
			131.3,328.1 144,328.1 156.5,328.1 		"/>
		<g>
			<polygon class="st1" points="156.5,153.1 143.8,145.7 131.3,152.9 144,160.3 			"/>
		</g>
		<g>
			<polygon class="st2" points="144,160.3 131.3,152.9 131.3,328.1 144,328.1 			"/>
		</g>
	</g>
	<g>
		<polygon class="st0" points="118.5,183 118.5,183 105.8,175.6 93.3,182.8 93.3,182.8 93.3,182.8 93.3,182.8 93.3,182.8 
			93.3,328.1 106,328.1 118.6,328.1 		"/>
		<g>
			<polygon class="st1" points="118.5,183 105.8,175.6 93.3,182.8 106,190.2 			"/>
		</g>
		<g>
			<polygon class="st2" points="106,190.2 93.3,182.8 93.3,328.1 106,328.1 			"/>
		</g>
	</g>
	<g>
		<polygon class="st0" points="80.5,192.4 80.5,192.4 67.8,185 55.3,192.2 55.3,192.2 55.3,192.2 55.3,192.2 55.3,192.2 55.3,328.1 
			68,328.1 80.6,328.1 		"/>
		<g>
			<polygon class="st1" points="80.5,192.4 67.8,185 55.3,192.2 68,199.6 			"/>
		</g>
		<g>
			<polygon class="st2" points="68,199.6 55.3,192.2 55.3,328.1 68,328.1 			"/>
		</g>
	</g>
	<g>
		<polygon class="st0" points="47.3,207.8 47.3,207.8 34.5,200.4 22,207.6 22,207.6 22,207.6 22,207.6 22,207.6 22.1,328.1 
			34.8,328.1 47.3,328.1 		"/>
		<g>
			<polygon class="st1" points="47.3,207.8 34.5,200.4 22,207.6 34.8,215 			"/>
		</g>
		<g>
			<polygon class="st2" points="34.8,215 22,207.6 22.1,328.1 34.8,328.1 			"/>
		</g>
	</g>
	<g>
		<polygon class="st0" points="368.5,41.8 368.5,41.8 355.8,34.4 343.3,41.6 343.3,41.6 343.3,41.6 343.3,41.6 343.3,41.6 
			343.3,328.1 356,328.1 368.6,328.1 		"/>
		<g>
			<polygon class="st1" points="368.5,41.8 355.8,34.4 343.3,41.6 356,49 			"/>
		</g>
		<g>
			<polygon class="st2" points="356,49 343.3,41.6 343.3,328.1 356,328.1 			"/>
		</g>
	</g>
	<g>
		<polygon class="st0" points="327.6,79.8 327.6,79.8 314.8,72.4 302.3,79.6 302.3,79.6 302.3,79.6 302.3,79.6 302.3,79.6 
			302.4,328.1 315.1,328.1 327.6,328.1 		"/>
		<g>
			<polygon class="st1" points="327.6,79.8 314.8,72.4 302.3,79.6 315.1,87 			"/>
		</g>
		<g>
			<polygon class="st2" points="315.1,87 302.3,79.6 302.4,328.1 315.1,328.1 			"/>
		</g>
	</g>
	<g>
		<polygon class="st0" points="292.5,130.7 292.5,130.7 279.8,123.3 267.3,130.6 267.3,130.5 267.3,130.6 267.3,130.6 267.3,130.6 
			267.3,328.1 280.1,328.1 292.6,328.1 		"/>
		<g>
			<polygon class="st1" points="292.5,130.7 279.8,123.3 267.3,130.6 280,138 			"/>
		</g>
		<g>
			<polygon class="st2" points="280,138 267.3,130.5 267.3,328.1 280.1,328.1 			"/>
		</g>
	</g>
	<g>
		<polygon class="st0" points="254.5,144.9 254.5,144.9 241.8,137.5 229.3,144.7 229.3,144.7 229.3,144.7 229.3,144.7 229.3,144.7 
			229.3,328.1 242.1,328.1 254.6,328.1 		"/>
		<g>
			<polygon class="st1" points="254.5,144.9 241.8,137.5 229.3,144.7 242,152.1 			"/>
		</g>
		<g>
			<polygon class="st2" points="242,152.1 229.3,144.7 229.3,328.1 242.1,328.1 			"/>
		</g>
	</g>
	<g>
		<polygon class="st0" points="213.4,166.1 213.4,166.1 200.7,158.7 188.2,166 188.1,166 188.1,166 188.1,166 188.1,166 
			188.2,328.1 200.9,328.1 213.4,328.1 		"/>
		<g>
			<polygon class="st1" points="213.4,166.1 200.7,158.7 188.1,166 200.9,173.4 			"/>
		</g>
		<g>
			<polygon class="st2" points="200.9,173.4 188.1,166 188.2,328.1 200.9,328.1 			"/>
		</g>
	</g>
	<g>
		<polygon class="st0" points="178.5,199.4 178.5,199.4 165.8,192 153.3,199.2 153.3,199.2 153.3,199.2 153.3,199.2 153.3,199.2 
			153.3,328.1 166.1,328.1 178.6,328.1 		"/>
		<g>
			<polygon class="st1" points="178.5,199.4 165.8,192 153.3,199.2 166,206.6 			"/>
		</g>
		<g>
			<polygon class="st2" points="166,206.6 153.3,199.2 153.3,328.1 166.1,328.1 			"/>
		</g>
	</g>
	<g>
		<polygon class="st0" points="140.5,196.1 140.5,196.1 127.8,188.7 115.3,195.9 115.3,195.9 115.3,195.9 115.3,195.9 115.3,195.9 
			115.3,328.1 128.1,328.1 140.6,328.1 		"/>
		<g>
			<polygon class="st1" points="140.5,196.1 127.8,188.7 115.3,195.9 128,203.3 			"/>
		</g>
		<g>
			<polygon class="st2" points="128,203.3 115.3,195.9 115.3,328.1 128.1,328.1 			"/>
		</g>
	</g>
	<g>
		<polygon class="st0" points="310.7,196.1 310.7,196.1 297.9,188.7 285.4,195.9 285.4,195.9 285.4,195.9 285.4,195.9 285.4,195.9 
			285.5,328.1 298.2,328.1 310.7,328.1 		"/>
		<g>
			<polygon class="st1" points="310.7,196.1 297.9,188.7 285.4,195.9 298.2,203.3 			"/>
		</g>
		<g>
			<polygon class="st2" points="298.2,203.3 285.4,195.9 285.5,328.1 298.2,328.1 			"/>
		</g>
	</g>
	<g>
		<polygon class="st0" points="102.5,220.8 102.5,220.8 89.8,213.4 77.3,220.6 77.3,220.6 77.3,220.6 77.3,220.6 77.3,220.6 
			77.3,328.1 90.1,328.1 102.6,328.1 		"/>
		<g>
			<polygon class="st1" points="102.5,220.8 89.8,213.4 77.3,220.6 90,228 			"/>
		</g>
		<g>
			<polygon class="st2" points="90,228 77.3,220.6 77.3,328.1 90.1,328.1 			"/>
		</g>
	</g>
	<g>
		<polygon class="st0" points="25.3,226.8 25.2,226.8 12.5,219.4 0,226.6 0,226.6 0,226.6 0,226.6 0,226.6 0,328.1 12.8,328.1 
			25.3,328.1 		"/>
		<g>
			<polygon class="st1" points="25.3,226.8 12.5,219.4 0,226.6 12.7,234 			"/>
		</g>
		<g>
			<polygon class="st2" points="12.7,234 0,226.6 0,328.1 12.8,328.1 			"/>
		</g>
	</g>
	<g>
		<polygon class="st0" points="205.4,205.3 205.4,205.3 192.7,197.9 180.2,205.1 180.2,205.1 180.2,205.1 180.2,205.1 180.2,205.1 
			180.2,328.1 192.9,328.1 205.5,328.1 		"/>
		<g>
			<polygon class="st1" points="205.4,205.3 192.7,197.9 180.2,205.1 192.9,212.5 			"/>
		</g>
		<g>
			<polygon class="st2" points="192.9,212.5 180.2,205.1 180.2,328.1 192.9,328.1 			"/>
		</g>
	</g>
	<g>
		<polygon class="st0" points="248.3,178.7 248.3,178.7 235.5,171.3 223,178.5 223,178.5 223,178.5 223,178.5 223,178.5 
			223.1,328.1 235.8,328.1 248.3,328.1 		"/>
		<g>
			<polygon class="st1" points="248.3,178.7 235.5,171.3 223,178.5 235.8,185.9 			"/>
		</g>
		<g>
			<polygon class="st2" points="235.8,185.9 223,178.5 223.1,328.1 235.8,328.1 			"/>
		</g>
	</g>
	<g>
		<polygon class="st0" points="230.8,210.4 230.8,210.4 218.1,203 205.6,210.2 205.6,210.2 205.6,210.2 205.6,210.2 205.6,210.2 
			205.6,328.1 218.4,328.1 230.9,328.1 		"/>
		<g>
			<polygon class="st1" points="230.8,210.4 218.1,203 205.6,210.2 218.3,217.6 			"/>
		</g>
		<g>
			<polygon class="st2" points="218.3,217.6 205.6,210.2 205.6,328.1 218.4,328.1 			"/>
		</g>
	</g>
	<g>
		<polygon class="st0" points="348.9,125.7 348.9,125.7 336.1,118.3 323.6,125.5 323.6,125.5 323.6,125.5 323.6,125.5 323.6,125.5 
			323.7,328.1 336.4,328.1 348.9,328.1 		"/>
		<g>
			<polygon class="st1" points="348.9,125.7 336.1,118.3 323.6,125.5 336.4,132.9 			"/>
		</g>
		<g>
			<polygon class="st2" points="336.4,132.9 323.6,125.5 323.7,328.1 336.4,328.1 			"/>
		</g>
	</g>
</g>
<g id="Lupe_Kopie">
	<path class="st7" d="M296.6,94c0,0.2,0,0.4,0,0.5c0,0.2,0,0.4,0,0.6c0,0,0,0,0,0.1c0.1-0.7,0.1-1.5,0.1-2.2
		c-0.1-12.2-8.7-23.3-22.6-31.3c-13.9-8-33-13-54.2-13c-42.2,0-76.4,19.8-76.2,44.3c0,0.7,0,1.4,0.1,2.1c-0.1-0.7-0.1-1.4-0.1-2.1
		l0,15.8c0.1,12.2,8.7,23.3,22.6,31.3c0.4,0.2,0.9,0.5,1.3,0.7c0.2,0.1,0.3,0.2,0.5,0.2c0.3,0.2,0.6,0.3,0.9,0.5
		c0.2,0.1,0.4,0.2,0.6,0.3c0.3,0.1,0.5,0.3,0.8,0.4c0.2,0.1,0.4,0.2,0.6,0.3c0.3,0.1,0.5,0.3,0.8,0.4c0.2,0.1,0.4,0.2,0.6,0.3
		c0.3,0.1,0.5,0.2,0.8,0.4c0.2,0.1,0.4,0.2,0.6,0.3c0.3,0.1,0.5,0.2,0.8,0.4c0.2,0.1,0.5,0.2,0.7,0.3c0.3,0.1,0.5,0.2,0.8,0.3
		c0.2,0.1,0.5,0.2,0.7,0.3c0.2,0.1,0.5,0.2,0.7,0.3c0,0,0.1,0,0.1,0c0.6,0.3,1.3,0.5,2,0.7c0.2,0.1,0.3,0.1,0.5,0.2
		c0.5,0.2,1.1,0.4,1.7,0.6c0.2,0.1,0.3,0.1,0.5,0.2c0.7,0.2,1.4,0.5,2.1,0.7c0.1,0,0.3,0.1,0.4,0.1c0.6,0.2,1.2,0.4,1.8,0.5
		c0.1,0,0.2,0.1,0.3,0.1c0.1,0,0.2,0,0.3,0.1c0.4,0.1,0.8,0.2,1.2,0.3c0.2,0.1,0.4,0.1,0.6,0.2c0.5,0.1,1.1,0.3,1.6,0.4
		c0.1,0,0.2,0,0.2,0.1c0.6,0.2,1.3,0.3,1.9,0.4c0.2,0,0.4,0.1,0.6,0.1c0.4,0.1,0.9,0.2,1.3,0.3c0.1,0,0.2,0,0.2,0.1
		c0.2,0,0.4,0.1,0.6,0.1c0.3,0.1,0.6,0.1,1,0.2c0.3,0.1,0.6,0.1,0.9,0.2c0.3,0.1,0.7,0.1,1,0.2c0.3,0.1,0.6,0.1,0.9,0.1
		c0.3,0.1,0.7,0.1,1,0.2c0.3,0,0.6,0.1,0.9,0.1c0.3,0.1,0.7,0.1,1,0.1c0.1,0,0.3,0,0.4,0.1c0.1,0,0.2,0,0.2,0
		c1.1,0.1,2.1,0.3,3.2,0.4c0.2,0,0.3,0,0.5,0.1c1.1,0.1,2.2,0.2,3.3,0.3c0.1,0,0.1,0,0.2,0c0.1,0,0.2,0,0.3,0
		c1.1,0.1,2.2,0.2,3.3,0.2c0.2,0,0.3,0,0.5,0c1.1,0.1,2.2,0.1,3.3,0.1c0.1,0,0.1,0,0.2,0c0.1,0,0.2,0,0.3,0c1,0,2,0,3,0
		c0.7,0,1.4,0,2.2,0c0.2,0,0.5,0,0.7,0c0.5,0,1,0,1.5,0c0.1,0,0.2,0,0.3,0c0.2,0,0.4,0,0.6,0c0.4,0,0.8,0,1.2-0.1c0.3,0,0.6,0,0.9,0
		c0.4,0,0.8,0,1.2-0.1c0.3,0,0.6,0,0.9-0.1c0.4,0,0.8-0.1,1.2-0.1c0.3,0,0.6,0,0.8-0.1c0.4,0,0.8-0.1,1.2-0.1c0.2,0,0.4,0,0.6-0.1
		c0.1,0,0.1,0,0.2,0c0.7-0.1,1.5-0.2,2.2-0.2c0.1,0,0.2,0,0.3,0c0.7-0.1,1.3-0.2,2-0.3c0.2,0,0.5-0.1,0.7-0.1
		c0.5-0.1,1.1-0.2,1.6-0.2c0.2,0,0.4-0.1,0.6-0.1c0.7-0.1,1.4-0.2,2.2-0.4c0,0,0,0,0,0c0.2,0,0.3-0.1,0.5-0.1
		c0.4-0.1,0.9-0.2,1.3-0.2c0.2,0,0.5-0.1,0.7-0.1c0.4-0.1,0.8-0.2,1.1-0.2c0.3-0.1,0.5-0.1,0.7-0.2c0.3-0.1,0.7-0.2,1-0.2
		c0.3-0.1,0.5-0.1,0.8-0.2c0.3-0.1,0.7-0.2,1-0.2c0.3-0.1,0.5-0.1,0.8-0.2c0.3-0.1,0.6-0.2,1-0.3c0.3-0.1,0.5-0.1,0.8-0.2
		c0.3-0.1,0.6-0.2,0.9-0.3c0.3-0.1,0.5-0.1,0.8-0.2c0.3-0.1,0.6-0.2,0.9-0.3c0.3-0.1,0.5-0.2,0.8-0.2c0.3-0.1,0.6-0.2,0.9-0.3
		c0.1,0,0.2-0.1,0.4-0.1c0.1,0,0.2-0.1,0.3-0.1c0.7-0.2,1.4-0.5,2.2-0.7c0,0,0,0,0,0c0.7-0.2,1.4-0.5,2.1-0.8
		c0.2-0.1,0.3-0.1,0.5-0.2c0.7-0.3,1.4-0.5,2-0.8c0.1,0,0.1-0.1,0.2-0.1c0.6-0.3,1.2-0.5,1.8-0.8c0.2-0.1,0.3-0.1,0.5-0.2
		c0.6-0.3,1.3-0.6,1.9-0.9c0.1,0,0.2-0.1,0.3-0.1c0.6-0.3,1.1-0.6,1.7-0.8c0.1-0.1,0.3-0.1,0.4-0.2c0.6-0.3,1.2-0.6,1.8-1
		c0.1-0.1,0.2-0.1,0.3-0.2c0.5-0.3,1-0.6,1.5-0.9c0.1,0,0.2-0.1,0.2-0.1c0.1,0,0.1-0.1,0.2-0.1c0.3-0.2,0.5-0.3,0.8-0.5
		c0.2-0.1,0.4-0.2,0.5-0.3c0.3-0.2,0.5-0.3,0.8-0.5c0.2-0.1,0.3-0.2,0.5-0.3c0.3-0.2,0.6-0.4,0.9-0.6c0.1-0.1,0.2-0.1,0.3-0.2
		c0.4-0.3,0.8-0.6,1.2-0.9c0.1-0.1,0.2-0.1,0.3-0.2c0.3-0.2,0.6-0.4,0.9-0.7c0.1-0.1,0.3-0.2,0.4-0.3c0.2-0.2,0.5-0.4,0.7-0.6
		c0.2-0.1,0.3-0.2,0.4-0.4c0.2-0.2,0.4-0.4,0.6-0.5c0.2-0.1,0.3-0.3,0.4-0.4c0.2-0.2,0.4-0.4,0.6-0.5c0.1,0,0.1-0.1,0.2-0.1
		c0.1-0.1,0.1-0.1,0.2-0.2c0.3-0.3,0.6-0.6,0.9-0.8c0.1-0.1,0.2-0.2,0.3-0.3c0.4-0.4,0.7-0.7,1.1-1.1c0,0,0.1-0.1,0.1-0.1
		c0.3-0.3,0.6-0.7,0.9-1c0.1-0.1,0.2-0.2,0.3-0.3c0.3-0.3,0.5-0.6,0.7-0.9c0.1-0.1,0.1-0.1,0.2-0.2c0,0,0.1-0.1,0.1-0.1
		c0.2-0.2,0.4-0.5,0.6-0.7c0.1-0.1,0.2-0.2,0.2-0.3c0.3-0.4,0.5-0.7,0.8-1.1c0,0,0.1-0.1,0.1-0.1c0.2-0.3,0.4-0.6,0.6-1
		c0.1-0.1,0.2-0.2,0.2-0.4c0.1-0.2,0.3-0.5,0.4-0.7c0,0,0.1-0.1,0.1-0.1c0.1-0.1,0.1-0.2,0.2-0.3c0.1-0.2,0.2-0.4,0.3-0.5
		c0.1-0.2,0.2-0.3,0.3-0.5c0.1-0.2,0.2-0.4,0.3-0.6c0.1-0.2,0.2-0.3,0.2-0.5c0.1-0.2,0.2-0.4,0.2-0.6c0.1-0.2,0.1-0.3,0.2-0.5
		c0.1-0.2,0.2-0.4,0.2-0.6c0-0.1,0.1-0.1,0.1-0.2c0-0.1,0.1-0.2,0.1-0.3c0.1-0.2,0.1-0.3,0.2-0.5c0.1-0.2,0.1-0.4,0.2-0.6
		c0.1-0.2,0.1-0.3,0.2-0.5c0.1-0.2,0.1-0.4,0.2-0.6c0-0.2,0.1-0.4,0.1-0.5c0-0.2,0.1-0.4,0.1-0.6c0-0.2,0.1-0.4,0.1-0.5
		c0-0.1,0-0.1,0-0.2c0-0.1,0-0.3,0.1-0.4c0-0.2,0.1-0.4,0.1-0.5c0-0.2,0.1-0.4,0.1-0.6c0-0.2,0.1-0.4,0.1-0.5c0-0.2,0-0.4,0.1-0.6
		c0-0.2,0-0.4,0-0.5c0-0.2,0-0.4,0-0.6c0-0.2,0-0.4,0-0.5c0,0,0-0.1,0-0.1c0-0.3,0-0.6,0-0.9l0-15.8C296.6,93.4,296.6,93.7,296.6,94
		z M170.3,122c-9.9-5.7-16.8-13.1-19.6-21.3c0.1-0.1,0.1-0.3,0.2-0.4c0.1-0.2,0.1-0.3,0.2-0.5c0.1-0.2,0.1-0.3,0.2-0.5
		c0.1-0.2,0.1-0.3,0.2-0.5c0.1-0.2,0.2-0.3,0.2-0.5c0.1-0.2,0.1-0.3,0.2-0.5c0.1-0.2,0.2-0.3,0.3-0.5c0.1-0.2,0.2-0.3,0.2-0.5
		c0.1-0.2,0.2-0.3,0.3-0.5c0.1-0.2,0.2-0.3,0.3-0.5c0.1-0.2,0.3-0.4,0.4-0.7c0.1-0.1,0.1-0.2,0.2-0.3c0.2-0.3,0.4-0.6,0.6-0.9
		c0,0,0.1-0.1,0.1-0.1c0.2-0.3,0.5-0.7,0.7-1c0.1-0.1,0.1-0.2,0.2-0.3c0.2-0.2,0.3-0.5,0.5-0.7c0.1-0.1,0.2-0.2,0.2-0.3
		c0.2-0.3,0.4-0.6,0.7-0.8c0.1-0.1,0.2-0.2,0.3-0.3c0.3-0.3,0.6-0.6,0.9-1c0,0,0.1-0.1,0.1-0.1c0.3-0.4,0.7-0.7,1-1
		c0.1-0.1,0.2-0.2,0.3-0.3c0.3-0.3,0.5-0.5,0.8-0.8c0.1-0.1,0.2-0.2,0.3-0.3c0.2-0.2,0.4-0.3,0.5-0.5c0.1-0.1,0.3-0.2,0.4-0.4
		c0.2-0.2,0.4-0.3,0.6-0.5c0.1-0.1,0.3-0.2,0.4-0.3c0.2-0.2,0.4-0.4,0.7-0.5c0.1-0.1,0.3-0.2,0.4-0.3c0.3-0.2,0.5-0.4,0.8-0.6
		c0.1-0.1,0.2-0.1,0.3-0.2c0.4-0.3,0.7-0.5,1.1-0.8c0.1-0.1,0.2-0.1,0.3-0.2c0.3-0.2,0.6-0.4,0.8-0.6c0.1-0.1,0.3-0.2,0.4-0.3
		c0.2-0.2,0.5-0.3,0.7-0.5c0.2-0.1,0.3-0.2,0.5-0.3c0.2-0.1,0.5-0.3,0.7-0.4c0.1-0.1,0.2-0.1,0.4-0.2c0.5-0.3,0.9-0.5,1.4-0.8
		c0.1-0.1,0.2-0.1,0.3-0.2c0.5-0.3,1.1-0.6,1.7-0.9c0.1-0.1,0.3-0.1,0.4-0.2c0.5-0.3,1-0.5,1.5-0.8c0.1,0,0.2-0.1,0.3-0.1
		c0.6-0.3,1.2-0.6,1.8-0.8c0.1-0.1,0.3-0.1,0.4-0.2c0.6-0.2,1.1-0.5,1.7-0.7c0.1,0,0.1-0.1,0.2-0.1c0.6-0.3,1.3-0.5,1.9-0.8
		c0.2-0.1,0.3-0.1,0.5-0.2c0.6-0.2,1.3-0.5,1.9-0.7c0,0,0,0,0,0c0.7-0.2,1.3-0.5,2-0.7c0.1,0,0.3-0.1,0.4-0.1
		c0.9-0.3,1.9-0.6,2.8-0.9c0.1,0,0.2-0.1,0.3-0.1c1-0.3,2-0.5,2.9-0.8c0.1,0,0.2-0.1,0.3-0.1c1-0.3,2.1-0.5,3.1-0.7
		c0.1,0,0.1,0,0.2,0c1.1-0.2,2.2-0.5,3.3-0.7c0,0,0.1,0,0.1,0c0.7-0.1,1.3-0.2,2-0.3c0.2,0,0.4-0.1,0.6-0.1c0.5-0.1,1-0.2,1.5-0.2
		c0.2,0,0.4-0.1,0.6-0.1c0.6-0.1,1.2-0.2,1.8-0.2c0.1,0,0.2,0,0.2,0c0.7-0.1,1.4-0.2,2.1-0.2c0.2,0,0.5,0,0.7-0.1
		c0.4,0,0.7-0.1,1.1-0.1c0.3,0,0.5,0,0.8-0.1c0.4,0,0.7-0.1,1.1-0.1c0.3,0,0.5,0,0.8-0.1c0.4,0,0.7,0,1.1-0.1c0.3,0,0.5,0,0.8,0
		c0.4,0,0.7,0,1.1,0c0.3,0,0.5,0,0.8,0c0.4,0,0.9,0,1.3,0c0.2,0,0.4,0,0.6,0c0.7,0,1.3,0,2,0c0.9,0,1.9,0,2.8,0c0.1,0,0.3,0,0.4,0
		c1,0,2.1,0.1,3.1,0.1c0.1,0,0.3,0,0.4,0c1,0.1,2,0.1,3,0.2c0.1,0,0.3,0,0.4,0c1,0.1,2,0.2,3,0.3c0.1,0,0.3,0,0.4,0
		c1,0.1,2,0.2,3,0.4c0.1,0,0.3,0,0.4,0.1c1,0.1,2.1,0.3,3.1,0.5c0.1,0,0.3,0,0.4,0.1c1,0.2,2.1,0.4,3.1,0.6c0.1,0,0.3,0.1,0.4,0.1
		c0.4,0.1,0.8,0.2,1.2,0.3c0.2,0,0.4,0.1,0.5,0.1c0.6,0.1,1.2,0.3,1.7,0.4c0.1,0,0.1,0,0.2,0.1c0.5,0.1,1,0.3,1.5,0.4
		c0.2,0.1,0.4,0.1,0.6,0.2c0.4,0.1,0.8,0.2,1.1,0.3c0.2,0.1,0.4,0.1,0.6,0.2c0.5,0.2,1.1,0.3,1.6,0.5c0.1,0,0.3,0.1,0.4,0.1
		c0.6,0.2,1.3,0.4,1.9,0.6c0.1,0,0.3,0.1,0.4,0.1c0.5,0.2,1,0.4,1.5,0.5c0.2,0.1,0.3,0.1,0.5,0.2c0.6,0.2,1.2,0.5,1.8,0.7
		c0.1,0,0.1,0.1,0.2,0.1c0.9,0.3,1.7,0.7,2.5,1c0.1,0,0.1,0,0.2,0.1c0.8,0.4,1.7,0.7,2.5,1.1c0,0,0.1,0,0.1,0.1
		c0.8,0.4,1.6,0.8,2.4,1.2c0,0,0,0,0.1,0c0.8,0.4,1.6,0.9,2.4,1.3c9.9,5.7,16.8,13.1,19.6,21.3c-6.4,18.7-34.9,32.9-69.2,32.9
		C200.8,134,183.1,129.4,170.3,122z M145.3,102.1c0.2,0.5,0.4,1,0.6,1.5c-0.1-0.2-0.2-0.4-0.2-0.5
		C145.5,102.7,145.4,102.4,145.3,102.1z M143.8,95.4c0.1,0.7,0.2,1.3,0.3,2C143.9,96.7,143.8,96.1,143.8,95.4z M144.1,97.7
		c0.1,0.6,0.3,1.3,0.4,1.9C144.4,99,144.2,98.4,144.1,97.7z M144.6,100c0.2,0.7,0.4,1.3,0.6,1.9C145,101.3,144.8,100.6,144.6,100z
		 M293.9,105c-0.1,0.2-0.2,0.4-0.3,0.5c0,0.1-0.1,0.1-0.1,0.2c0,0,0,0,0,0c0.2-0.5,0.5-1,0.7-1.5c0,0.1-0.1,0.1-0.1,0.2
		C294,104.6,294,104.8,293.9,105z M294.8,102.8c-0.1,0.2-0.1,0.4-0.2,0.6c-0.1,0.2-0.1,0.3-0.2,0.5c0,0,0,0.1,0,0.1
		c0.3-0.6,0.5-1.3,0.7-1.9c0,0.1,0,0.1-0.1,0.2C294.9,102.5,294.9,102.6,294.8,102.8z M295.5,100.7c-0.1,0.2-0.1,0.3-0.2,0.5
		c-0.1,0.2-0.1,0.4-0.2,0.6c0,0,0,0.1,0,0.1c0.2-0.6,0.4-1.3,0.6-1.9c0,0.1,0,0.1-0.1,0.2C295.6,100.3,295.6,100.5,295.5,100.7z
		 M296.1,98.5c0,0.2-0.1,0.4-0.1,0.5c0,0.2-0.1,0.4-0.1,0.6c0,0,0,0.1,0,0.1c0.2-0.7,0.3-1.3,0.4-2c0,0.1,0,0.2,0,0.2
		C296.1,98.1,296.1,98.3,296.1,98.5z M296.5,95.7c0,0.2,0,0.4-0.1,0.6c0,0.2,0,0.4-0.1,0.5c0,0.2-0.1,0.4-0.1,0.6c0,0,0,0,0,0.1
		c0.1-0.7,0.2-1.4,0.3-2C296.5,95.5,296.5,95.6,296.5,95.7z"/>
</g>
<g id="Lupe">
	<g>
		<g>
			<path class="st7" d="M270,64c-0.8-0.4-1.6-0.9-2.4-1.3c0,0,0,0-0.1,0c-0.8-0.4-1.6-0.8-2.4-1.2c0,0-0.1,0-0.1-0.1
				c-0.8-0.4-1.6-0.8-2.5-1.1c-0.1,0-0.1,0-0.2-0.1c-0.8-0.4-1.7-0.7-2.5-1c0,0-0.1,0-0.1-0.1c0,0-0.1,0-0.1,0
				c-0.6-0.2-1.2-0.5-1.8-0.7c-0.2-0.1-0.3-0.1-0.5-0.2c-0.5-0.2-1-0.4-1.5-0.5c-0.1,0-0.3-0.1-0.4-0.1c-0.6-0.2-1.3-0.4-1.9-0.6
				c-0.1,0-0.3-0.1-0.4-0.1c-0.5-0.2-1.1-0.3-1.6-0.5c-0.1,0-0.2-0.1-0.3-0.1c-0.1,0-0.2,0-0.2-0.1c-0.4-0.1-0.7-0.2-1.1-0.3
				c-0.2-0.1-0.4-0.1-0.6-0.2c-0.5-0.1-1-0.3-1.5-0.4c-0.1,0-0.1,0-0.2-0.1c-0.6-0.1-1.2-0.3-1.7-0.4c-0.2,0-0.4-0.1-0.5-0.1
				c-0.4-0.1-0.8-0.2-1.2-0.3c-0.1,0-0.1,0-0.2,0c-0.1,0-0.1,0-0.2,0c-1-0.2-2-0.4-3.1-0.6c-0.1,0-0.3,0-0.4-0.1
				c-1-0.2-2.1-0.3-3.1-0.5c-0.1,0-0.1,0-0.2,0c-0.1,0-0.1,0-0.2,0c-1-0.1-2-0.3-3-0.4c-0.1,0-0.3,0-0.4,0c-1-0.1-2-0.2-3-0.3
				c-0.1,0-0.1,0-0.2,0c-0.1,0-0.2,0-0.2,0c-1-0.1-2-0.1-3-0.2c-0.1,0-0.3,0-0.4,0c-1-0.1-2.1-0.1-3.1-0.1c-0.1,0-0.1,0-0.2,0
				c-0.1,0-0.2,0-0.3,0c-0.9,0-1.9,0-2.8,0c-0.7,0-1.3,0-2,0c-0.2,0-0.4,0-0.6,0c-0.4,0-0.9,0-1.3,0c-0.1,0-0.2,0-0.3,0
				c-0.2,0-0.3,0-0.5,0c-0.4,0-0.7,0-1.1,0c-0.3,0-0.5,0-0.8,0c-0.4,0-0.7,0-1.1,0.1c-0.3,0-0.5,0-0.8,0.1c-0.4,0-0.7,0.1-1.1,0.1
				c-0.3,0-0.5,0-0.8,0.1c-0.4,0-0.7,0.1-1.1,0.1c-0.2,0-0.4,0-0.5,0c-0.1,0-0.1,0-0.2,0c-0.7,0.1-1.4,0.1-2.1,0.2
				c-0.1,0-0.2,0-0.2,0c-0.6,0.1-1.2,0.2-1.8,0.2c-0.2,0-0.4,0.1-0.6,0.1c-0.5,0.1-1,0.1-1.5,0.2c-0.2,0-0.4,0.1-0.6,0.1
				c-0.7,0.1-1.3,0.2-2,0.3c0,0,0,0,0,0c0,0,0,0,0,0c-1.1,0.2-2.2,0.4-3.3,0.7c-0.1,0-0.1,0-0.2,0c-1.1,0.2-2.1,0.5-3.1,0.7
				c-0.1,0-0.2,0.1-0.3,0.1c-1,0.3-2,0.5-3,0.8c-0.1,0-0.2,0.1-0.3,0.1c-1,0.3-1.9,0.6-2.8,0.9c-0.1,0-0.1,0-0.2,0.1
				c-0.1,0-0.2,0.1-0.2,0.1c-0.7,0.2-1.3,0.4-2,0.7c0,0,0,0,0,0c-0.6,0.2-1.3,0.5-1.9,0.7c-0.2,0.1-0.3,0.1-0.5,0.2
				c-0.6,0.2-1.3,0.5-1.9,0.8c-0.1,0-0.1,0.1-0.2,0.1c-0.6,0.2-1.1,0.5-1.7,0.7c-0.1,0.1-0.3,0.1-0.4,0.2c-0.6,0.3-1.2,0.5-1.8,0.8
				c-0.1,0-0.2,0.1-0.3,0.1c-0.5,0.3-1,0.5-1.5,0.8c-0.1,0.1-0.3,0.1-0.4,0.2c-0.6,0.3-1.1,0.6-1.7,0.9c-0.1,0.1-0.2,0.1-0.3,0.2
				c-0.5,0.3-0.9,0.5-1.4,0.8c-0.1,0-0.1,0.1-0.2,0.1c-0.1,0-0.1,0.1-0.2,0.1c-0.2,0.1-0.5,0.3-0.7,0.4c-0.2,0.1-0.3,0.2-0.5,0.3
				c-0.2,0.2-0.5,0.3-0.7,0.5c-0.1,0.1-0.3,0.2-0.4,0.3c-0.3,0.2-0.6,0.4-0.8,0.6c-0.1,0.1-0.2,0.1-0.3,0.2
				c-0.4,0.3-0.7,0.5-1.1,0.8c-0.1,0.1-0.2,0.1-0.3,0.2c-0.3,0.2-0.5,0.4-0.8,0.6c-0.1,0.1-0.3,0.2-0.4,0.3
				c-0.2,0.2-0.4,0.3-0.6,0.5c-0.1,0.1-0.3,0.2-0.4,0.3c-0.2,0.2-0.4,0.3-0.6,0.5c-0.1,0.1-0.3,0.2-0.4,0.4
				c-0.2,0.2-0.4,0.3-0.5,0.5c0,0-0.1,0.1-0.2,0.1c-0.1,0.1-0.1,0.1-0.2,0.2c-0.3,0.3-0.5,0.5-0.8,0.8c-0.1,0.1-0.2,0.2-0.3,0.3
				c-0.3,0.3-0.7,0.7-1,1c0,0-0.1,0.1-0.1,0.1c-0.3,0.3-0.6,0.6-0.9,1c-0.1,0.1-0.2,0.2-0.3,0.3c-0.2,0.3-0.5,0.5-0.7,0.8
				c-0.1,0.1-0.1,0.1-0.2,0.2c0,0-0.1,0.1-0.1,0.1c-0.2,0.2-0.3,0.5-0.5,0.7c-0.1,0.1-0.2,0.2-0.2,0.3c-0.2,0.3-0.5,0.7-0.7,1
				c0,0-0.1,0.1-0.1,0.1c-0.2,0.3-0.4,0.6-0.6,0.9c-0.1,0.1-0.1,0.2-0.2,0.4c-0.1,0.2-0.3,0.4-0.4,0.7c0,0-0.1,0.1-0.1,0.1
				c-0.1,0.1-0.1,0.2-0.2,0.3c-0.1,0.2-0.2,0.3-0.3,0.5c-0.1,0.2-0.2,0.3-0.2,0.5c-0.1,0.2-0.2,0.3-0.3,0.5
				c-0.1,0.2-0.1,0.3-0.2,0.5c-0.1,0.2-0.2,0.3-0.2,0.5c-0.1,0.2-0.1,0.3-0.2,0.5c-0.1,0.2-0.1,0.3-0.2,0.5c0,0.1-0.1,0.1-0.1,0.2
				c0,0.1-0.1,0.2-0.1,0.3c-0.1,0.2-0.1,0.3-0.2,0.5c-0.1,0.2-0.1,0.3-0.2,0.5c-0.1,0.2-0.1,0.3-0.1,0.5c-0.1,0.2-0.1,0.3-0.1,0.5
				c0,0.2-0.1,0.3-0.1,0.5c0,0.2-0.1,0.3-0.1,0.5c0,0.2-0.1,0.3-0.1,0.5c0,0.1,0,0.1,0,0.2c0,0.1,0,0.2-0.1,0.4
				c0,0.2-0.1,0.3-0.1,0.5c0,0.2-0.1,0.4-0.1,0.5c0,0.2,0,0.3-0.1,0.5c0,0.2,0,0.4-0.1,0.5c0,0.2,0,0.3,0,0.5c0,0.2,0,0.4,0,0.5
				c0,0.2,0,0.3,0,0.5c0,0,0,0.1,0,0.1c0,0.3,0,0.6,0,0.8l0,15.8c0-0.3,0-0.6,0-0.9c0-0.2,0-0.3,0-0.5c0-0.2,0-0.4,0-0.5
				c0-0.2,0-0.3,0-0.5c0-0.2,0-0.4,0.1-0.5c0-0.2,0-0.3,0.1-0.5c0-0.2,0-0.4,0.1-0.5c0-0.2,0.1-0.3,0.1-0.5c0-0.2,0.1-0.4,0.1-0.5
				c0-0.2,0.1-0.3,0.1-0.5c0-0.2,0.1-0.3,0.1-0.5c0-0.2,0.1-0.3,0.1-0.5c0-0.2,0.1-0.3,0.1-0.5c0-0.2,0.1-0.3,0.1-0.5
				c0.1-0.2,0.1-0.3,0.2-0.5c0.1-0.2,0.1-0.3,0.2-0.5c0.1-0.2,0.1-0.3,0.2-0.5c0.1-0.2,0.1-0.3,0.2-0.5c0.1-0.2,0.1-0.3,0.2-0.5
				c0.1-0.2,0.2-0.3,0.2-0.5c0.1-0.2,0.1-0.3,0.2-0.5c0.1-0.2,0.2-0.3,0.3-0.5c0.1-0.2,0.2-0.3,0.2-0.5c0.1-0.2,0.2-0.3,0.3-0.5
				c0.1-0.2,0.2-0.3,0.3-0.5c0.1-0.2,0.3-0.4,0.4-0.7c0.1-0.1,0.1-0.2,0.2-0.3c0.2-0.3,0.4-0.6,0.6-0.9c0,0,0.1-0.1,0.1-0.1
				c0.2-0.3,0.5-0.7,0.7-1c0.1-0.1,0.1-0.2,0.2-0.3c0.2-0.2,0.3-0.5,0.5-0.7c0.1-0.1,0.2-0.2,0.2-0.3c0.2-0.3,0.4-0.6,0.7-0.8
				c0.1-0.1,0.2-0.2,0.3-0.3c0.3-0.3,0.6-0.6,0.9-1c0,0,0.1-0.1,0.1-0.1c0.3-0.4,0.7-0.7,1-1c0.1-0.1,0.2-0.2,0.3-0.3
				c0.3-0.3,0.5-0.5,0.8-0.8c0.1-0.1,0.2-0.2,0.3-0.3c0.2-0.2,0.4-0.3,0.5-0.5c0.1-0.1,0.3-0.2,0.4-0.4c0.2-0.2,0.4-0.3,0.6-0.5
				c0.1-0.1,0.3-0.2,0.4-0.3c0.2-0.2,0.4-0.4,0.7-0.5c0.1-0.1,0.3-0.2,0.4-0.3c0.3-0.2,0.5-0.4,0.8-0.6c0.1-0.1,0.2-0.1,0.3-0.2
				c0.4-0.3,0.7-0.5,1.1-0.8c0.1-0.1,0.2-0.1,0.3-0.2c0.3-0.2,0.6-0.4,0.8-0.6c0.1-0.1,0.3-0.2,0.4-0.3c0.2-0.2,0.5-0.3,0.7-0.5
				c0.2-0.1,0.3-0.2,0.5-0.3c0.2-0.1,0.5-0.3,0.7-0.4c0.1-0.1,0.2-0.1,0.4-0.2c0.5-0.3,0.9-0.5,1.4-0.8c0.1-0.1,0.2-0.1,0.3-0.2
				c0.5-0.3,1.1-0.6,1.7-0.9c0.1-0.1,0.3-0.1,0.4-0.2c0.5-0.3,1-0.5,1.5-0.8c0.1,0,0.2-0.1,0.3-0.1c0.6-0.3,1.2-0.6,1.8-0.8
				c0.1-0.1,0.3-0.1,0.4-0.2c0.6-0.2,1.1-0.5,1.7-0.7c0.1,0,0.1-0.1,0.2-0.1c0.6-0.3,1.3-0.5,1.9-0.8c0.2-0.1,0.3-0.1,0.5-0.2
				c0.6-0.2,1.3-0.5,1.9-0.7c0,0,0,0,0,0c0.7-0.2,1.3-0.5,2-0.7c0.1,0,0.3-0.1,0.4-0.1c0.9-0.3,1.9-0.6,2.8-0.9
				c0.1,0,0.2-0.1,0.3-0.1c1-0.3,2-0.5,2.9-0.8c0.1,0,0.2-0.1,0.3-0.1c1-0.3,2.1-0.5,3.1-0.7c0.1,0,0.1,0,0.2,0
				c1.1-0.2,2.2-0.5,3.3-0.7c0,0,0.1,0,0.1,0c0.7-0.1,1.3-0.2,2-0.3c0.2,0,0.4-0.1,0.6-0.1c0.5-0.1,1-0.2,1.5-0.2
				c0.2,0,0.4-0.1,0.6-0.1c0.6-0.1,1.2-0.2,1.8-0.2c0.1,0,0.2,0,0.2,0c0.7-0.1,1.4-0.2,2.1-0.2c0.2,0,0.5,0,0.7-0.1
				c0.4,0,0.7-0.1,1.1-0.1c0.3,0,0.5,0,0.8-0.1c0.4,0,0.7-0.1,1.1-0.1c0.3,0,0.5,0,0.8-0.1c0.4,0,0.7,0,1.1-0.1c0.3,0,0.5,0,0.8,0
				c0.4,0,0.7,0,1.1,0c0.3,0,0.5,0,0.8,0c0.4,0,0.9,0,1.3,0c0.2,0,0.4,0,0.6,0c0.7,0,1.3,0,2,0c0.9,0,1.9,0,2.8,0c0.1,0,0.3,0,0.4,0
				c1,0,2.1,0.1,3.1,0.1c0.1,0,0.3,0,0.4,0c1,0.1,2,0.1,3,0.2c0.1,0,0.3,0,0.4,0c1,0.1,2,0.2,3,0.3c0.1,0,0.3,0,0.4,0
				c1,0.1,2,0.2,3,0.4c0.1,0,0.3,0,0.4,0.1c1,0.1,2.1,0.3,3.1,0.5c0.1,0,0.3,0,0.4,0.1c1,0.2,2.1,0.4,3.1,0.6c0.1,0,0.3,0.1,0.4,0.1
				c0.4,0.1,0.8,0.2,1.2,0.3c0.2,0,0.4,0.1,0.5,0.1c0.6,0.1,1.2,0.3,1.7,0.4c0.1,0,0.1,0,0.2,0.1c0.5,0.1,1,0.3,1.5,0.4
				c0.2,0.1,0.4,0.1,0.6,0.2c0.4,0.1,0.8,0.2,1.1,0.3c0.2,0.1,0.4,0.1,0.6,0.2c0.5,0.2,1.1,0.3,1.6,0.5c0.1,0,0.3,0.1,0.4,0.1
				c0.6,0.2,1.3,0.4,1.9,0.6c0.1,0,0.3,0.1,0.4,0.1c0.5,0.2,1,0.4,1.5,0.5c0.2,0.1,0.3,0.1,0.5,0.2c0.6,0.2,1.2,0.5,1.8,0.7
				c0.1,0,0.1,0.1,0.2,0.1c0.9,0.3,1.7,0.7,2.5,1c0.1,0,0.1,0,0.2,0.1c0.8,0.4,1.7,0.7,2.5,1.1c0,0,0.1,0,0.1,0.1
				c0.8,0.4,1.6,0.8,2.4,1.2c0,0,0,0,0.1,0c0.8,0.4,1.6,0.9,2.4,1.3c12.8,7.4,20.8,17.7,20.9,29l0-15.8
				C290.8,81.7,282.8,71.5,270,64z"/>
			<g class="st8">
				<path class="st9" d="M270,67.5c12.8,7.4,20.8,17.7,20.9,29c0.1,22.6-31.4,41-70.5,41c-19.5,0-37.3-4.6-50.1-12
					c-12.8-7.4-20.8-17.7-20.9-29c-0.1-22.6,31.4-41,70.5-41C239.4,55.5,257.1,60.1,270,67.5z"/>
			</g>
			<path class="st10" d="M274,61.7c-13.9-8-33-13-54.2-13c-42.2,0-76.4,19.8-76.2,44.3c0.1,12.2,8.7,23.3,22.6,31.3s33,13,54.2,13
				c42.2,0,76.4-19.8,76.2-44.3C296.6,80.8,287.9,69.7,274,61.7z M219.9,52c19.5,0,37.3,4.6,50.1,12c12.8,7.4,20.8,17.7,20.9,29
				c0.1,22.6-31.4,41-70.5,41c-19.5,0-37.3-4.6-50.1-12c-12.8-7.4-20.8-17.7-20.9-29C149.2,70.4,180.8,52,219.9,52z M193.5,131.5
				c-4-0.9-7.8-2.1-11.4-3.4C185.7,129.4,189.5,130.5,193.5,131.5z M178.5,126.7c-0.7-0.3-1.3-0.6-1.9-0.8
				C177.2,126.1,177.8,126.4,178.5,126.7z M179.2,58.9c0.3-0.1,0.7-0.3,1-0.4C179.9,58.6,179.6,58.8,179.2,58.9z M184.3,57
				C184.3,57,184.3,57,184.3,57C184.3,57,184.3,57,184.3,57z M188.2,55.8c0.5-0.1,0.9-0.3,1.4-0.4C189.1,55.6,188.7,55.7,188.2,55.8
				z M192.8,54.6c1.1-0.3,2.3-0.5,3.5-0.8C195.1,54.1,193.9,54.4,192.8,54.6z M197.6,53.6c0.7-0.1,1.4-0.3,2.1-0.4
				C199,53.3,198.3,53.5,197.6,53.6z"/>
			<path class="st7" d="M296.6,94c0,0.2,0,0.4,0,0.5c0,0.2,0,0.4,0,0.6c0,0.2,0,0.4,0,0.5c0,0.2,0,0.4-0.1,0.6c0,0.2,0,0.4-0.1,0.5
				c0,0.2-0.1,0.4-0.1,0.6c0,0.2-0.1,0.4-0.1,0.5c0,0.2-0.1,0.4-0.1,0.6c0,0.2-0.1,0.4-0.1,0.5c0,0.2-0.1,0.4-0.1,0.6
				c0,0.2-0.1,0.3-0.1,0.5c-0.1,0.2-0.1,0.4-0.2,0.6c-0.1,0.2-0.1,0.3-0.2,0.5c-0.1,0.2-0.1,0.4-0.2,0.6c-0.1,0.2-0.1,0.3-0.2,0.5
				c-0.1,0.2-0.1,0.4-0.2,0.5c-0.1,0.2-0.1,0.4-0.2,0.6c-0.1,0.2-0.1,0.3-0.2,0.5c-0.1,0.2-0.2,0.4-0.2,0.6
				c-0.1,0.2-0.2,0.3-0.2,0.5c-0.1,0.2-0.2,0.4-0.3,0.5c-0.1,0.2-0.2,0.3-0.3,0.5c-0.1,0.2-0.2,0.4-0.3,0.5
				c-0.1,0.2-0.2,0.3-0.3,0.5c-0.1,0.2-0.3,0.5-0.4,0.7c-0.1,0.1-0.2,0.3-0.2,0.4c-0.2,0.3-0.4,0.6-0.6,0.9c0,0-0.1,0.1-0.1,0.1
				c-0.2,0.4-0.5,0.7-0.8,1.1c-0.1,0.1-0.2,0.2-0.2,0.3c-0.2,0.2-0.4,0.5-0.6,0.7c-0.1,0.1-0.2,0.2-0.3,0.3
				c-0.2,0.3-0.5,0.6-0.7,0.9c-0.1,0.1-0.2,0.2-0.3,0.3c-0.3,0.4-0.6,0.7-0.9,1c0,0-0.1,0.1-0.1,0.1c-0.4,0.4-0.7,0.8-1.1,1.1
				c-0.1,0.1-0.2,0.2-0.3,0.3c-0.3,0.3-0.6,0.6-0.9,0.8c-0.1,0.1-0.2,0.2-0.4,0.3c-0.2,0.2-0.4,0.4-0.6,0.5
				c-0.2,0.1-0.3,0.3-0.5,0.4c-0.2,0.2-0.4,0.4-0.6,0.5c-0.1,0.1-0.3,0.3-0.4,0.4c-0.2,0.2-0.5,0.4-0.7,0.6
				c-0.1,0.1-0.3,0.2-0.4,0.3c-0.3,0.2-0.6,0.4-0.9,0.7c-0.1,0.1-0.2,0.1-0.3,0.2c-0.4,0.3-0.8,0.6-1.2,0.9
				c-0.1,0.1-0.2,0.1-0.3,0.2c-0.3,0.2-0.6,0.4-0.9,0.6c-0.2,0.1-0.3,0.2-0.5,0.3c-0.3,0.2-0.5,0.3-0.8,0.5
				c-0.2,0.1-0.4,0.2-0.5,0.3c-0.3,0.2-0.5,0.3-0.8,0.5c-0.1,0.1-0.3,0.2-0.4,0.2c-0.5,0.3-1,0.6-1.5,0.9c-0.1,0.1-0.2,0.1-0.3,0.2
				c-0.6,0.3-1.2,0.6-1.8,1c-0.1,0.1-0.3,0.1-0.4,0.2c-0.5,0.3-1.1,0.6-1.7,0.8c-0.1,0-0.2,0.1-0.3,0.1c-0.6,0.3-1.3,0.6-1.9,0.9
				c-0.2,0.1-0.3,0.1-0.5,0.2c-0.6,0.3-1.2,0.5-1.8,0.8c-0.1,0-0.1,0.1-0.2,0.1c-0.7,0.3-1.4,0.5-2,0.8c-0.2,0.1-0.3,0.1-0.5,0.2
				c-0.7,0.3-1.4,0.5-2.1,0.8c0,0,0,0-0.1,0c-0.7,0.3-1.4,0.5-2.2,0.7c-0.2,0.1-0.4,0.1-0.6,0.2c-0.3,0.1-0.6,0.2-0.9,0.3
				c-0.3,0.1-0.5,0.2-0.8,0.2c-0.3,0.1-0.6,0.2-0.9,0.3c-0.3,0.1-0.5,0.2-0.8,0.2c-0.3,0.1-0.6,0.2-0.9,0.3
				c-0.3,0.1-0.5,0.1-0.8,0.2c-0.3,0.1-0.6,0.2-1,0.3c-0.3,0.1-0.5,0.1-0.8,0.2c-0.3,0.1-0.7,0.2-1,0.2c-0.3,0.1-0.5,0.1-0.8,0.2
				c-0.3,0.1-0.7,0.2-1,0.2c-0.2,0.1-0.5,0.1-0.7,0.2c-0.4,0.1-0.7,0.2-1.1,0.2c-0.2,0-0.5,0.1-0.7,0.1c-0.4,0.1-0.9,0.2-1.3,0.2
				c-0.2,0-0.4,0.1-0.5,0.1c-0.7,0.1-1.4,0.3-2.2,0.4c-0.2,0-0.4,0.1-0.6,0.1c-0.5,0.1-1.1,0.2-1.6,0.2c-0.2,0-0.5,0.1-0.7,0.1
				c-0.7,0.1-1.3,0.2-2,0.3c-0.1,0-0.2,0-0.3,0c-0.7,0.1-1.5,0.2-2.2,0.2c-0.3,0-0.5,0.1-0.8,0.1c-0.4,0-0.8,0.1-1.2,0.1
				c-0.3,0-0.6,0-0.9,0.1c-0.4,0-0.8,0.1-1.2,0.1c-0.3,0-0.6,0-0.9,0.1c-0.4,0-0.8,0-1.2,0.1c-0.3,0-0.6,0-0.9,0
				c-0.4,0-0.8,0-1.2,0.1c-0.3,0-0.6,0-0.9,0c-0.5,0-1,0-1.5,0c-0.2,0-0.5,0-0.7,0c-0.7,0-1.4,0-2.2,0c-1,0-2,0-3,0
				c-0.2,0-0.3,0-0.5,0c-1.1,0-2.2-0.1-3.3-0.1c-0.2,0-0.3,0-0.5,0c-1.1-0.1-2.2-0.1-3.3-0.2c-0.2,0-0.3,0-0.5,0
				c-1.1-0.1-2.2-0.2-3.3-0.3c-0.2,0-0.3,0-0.5-0.1c-1.1-0.1-2.1-0.3-3.2-0.4c-0.2,0-0.4-0.1-0.7-0.1c-0.3,0-0.7-0.1-1-0.1
				c-0.3,0-0.6-0.1-0.9-0.1c-0.3-0.1-0.7-0.1-1-0.2c-0.3,0-0.6-0.1-0.9-0.1c-0.3-0.1-0.7-0.1-1-0.2c-0.3-0.1-0.6-0.1-0.9-0.2
				c-0.3-0.1-0.6-0.1-1-0.2c-0.3-0.1-0.5-0.1-0.8-0.2c-0.4-0.1-0.9-0.2-1.3-0.3c-0.2,0-0.4-0.1-0.6-0.1c-0.6-0.1-1.3-0.3-1.9-0.4
				c-0.1,0-0.2,0-0.2-0.1c-0.5-0.1-1.1-0.3-1.6-0.4c-0.2-0.1-0.4-0.1-0.6-0.2c-0.4-0.1-0.8-0.2-1.2-0.3c-0.2-0.1-0.4-0.1-0.6-0.2
				c-0.6-0.2-1.2-0.3-1.8-0.5c-0.1,0-0.3-0.1-0.4-0.1c-0.7-0.2-1.4-0.4-2.1-0.7c-0.2-0.1-0.3-0.1-0.5-0.2c-0.6-0.2-1.1-0.4-1.7-0.6
				c-0.2-0.1-0.3-0.1-0.5-0.2c-0.7-0.2-1.3-0.5-2-0.7c-0.3-0.1-0.5-0.2-0.8-0.3c-0.2-0.1-0.5-0.2-0.7-0.3c-0.3-0.1-0.5-0.2-0.8-0.3
				c-0.2-0.1-0.4-0.2-0.7-0.3c-0.3-0.1-0.5-0.2-0.8-0.4c-0.2-0.1-0.4-0.2-0.6-0.3c-0.3-0.1-0.5-0.2-0.8-0.4
				c-0.2-0.1-0.4-0.2-0.6-0.3c-0.3-0.1-0.5-0.3-0.8-0.4c-0.2-0.1-0.4-0.2-0.6-0.3c-0.3-0.1-0.5-0.3-0.8-0.4
				c-0.2-0.1-0.4-0.2-0.6-0.3c-0.3-0.2-0.6-0.3-0.9-0.5c-0.2-0.1-0.3-0.2-0.5-0.2c-0.4-0.2-0.9-0.5-1.3-0.7
				c-7.4-4.3-13.3-9.4-17.2-15.1c-0.5-0.7-0.9-1.3-1.3-2c-0.8-1.4-1.5-2.8-2.1-4.2c-1.3-3.2-2-6.6-2-10l0,15.8
				c0.1,12.2,8.7,23.3,22.6,31.3c0.4,0.2,0.9,0.5,1.3,0.7c0.2,0.1,0.3,0.2,0.5,0.2c0.3,0.2,0.6,0.3,0.9,0.5c0.2,0.1,0.4,0.2,0.6,0.3
				c0.3,0.1,0.5,0.3,0.8,0.4c0.2,0.1,0.4,0.2,0.6,0.3c0.3,0.1,0.5,0.3,0.8,0.4c0.2,0.1,0.4,0.2,0.6,0.3c0.3,0.1,0.5,0.2,0.8,0.4
				c0.2,0.1,0.4,0.2,0.6,0.3c0.3,0.1,0.5,0.2,0.8,0.4c0.2,0.1,0.5,0.2,0.7,0.3c0.3,0.1,0.5,0.2,0.8,0.3c0.2,0.1,0.5,0.2,0.7,0.3
				c0.2,0.1,0.5,0.2,0.7,0.3c0,0,0.1,0,0.1,0c0.6,0.3,1.3,0.5,2,0.7c0.2,0.1,0.3,0.1,0.5,0.2c0.5,0.2,1.1,0.4,1.7,0.6
				c0.2,0.1,0.3,0.1,0.5,0.2c0.7,0.2,1.4,0.5,2.1,0.7c0.1,0,0.3,0.1,0.4,0.1c0.6,0.2,1.2,0.4,1.8,0.5c0.1,0,0.2,0.1,0.3,0.1
				c0.1,0,0.2,0,0.3,0.1c0.4,0.1,0.8,0.2,1.2,0.3c0.2,0.1,0.4,0.1,0.6,0.2c0.5,0.1,1.1,0.3,1.6,0.4c0.1,0,0.2,0,0.2,0.1
				c0.6,0.2,1.3,0.3,1.9,0.4c0.2,0,0.4,0.1,0.6,0.1c0.4,0.1,0.9,0.2,1.3,0.3c0.1,0,0.2,0,0.2,0.1c0.2,0,0.4,0.1,0.6,0.1
				c0.3,0.1,0.6,0.1,1,0.2c0.3,0.1,0.6,0.1,0.9,0.2c0.3,0.1,0.7,0.1,1,0.2c0.3,0.1,0.6,0.1,0.9,0.1c0.3,0.1,0.7,0.1,1,0.2
				c0.3,0,0.6,0.1,0.9,0.1c0.3,0.1,0.7,0.1,1,0.1c0.1,0,0.3,0,0.4,0.1c0.1,0,0.2,0,0.2,0c1.1,0.1,2.1,0.3,3.2,0.4
				c0.2,0,0.3,0,0.5,0.1c1.1,0.1,2.2,0.2,3.3,0.3c0.1,0,0.1,0,0.2,0c0.1,0,0.2,0,0.3,0c1.1,0.1,2.2,0.2,3.3,0.2c0.2,0,0.3,0,0.5,0
				c1.1,0.1,2.2,0.1,3.3,0.1c0.1,0,0.1,0,0.2,0c0.1,0,0.2,0,0.3,0c1,0,2,0,3,0c0.7,0,1.4,0,2.2,0c0.2,0,0.5,0,0.7,0c0.5,0,1,0,1.5,0
				c0.1,0,0.2,0,0.3,0c0.2,0,0.4,0,0.6,0c0.4,0,0.8,0,1.2-0.1c0.3,0,0.6,0,0.9,0c0.4,0,0.8,0,1.2-0.1c0.3,0,0.6,0,0.9-0.1
				c0.4,0,0.8-0.1,1.2-0.1c0.3,0,0.6,0,0.8-0.1c0.4,0,0.8-0.1,1.2-0.1c0.2,0,0.4,0,0.6-0.1c0.1,0,0.1,0,0.2,0
				c0.7-0.1,1.5-0.2,2.2-0.2c0.1,0,0.2,0,0.3,0c0.7-0.1,1.3-0.2,2-0.3c0.2,0,0.5-0.1,0.7-0.1c0.5-0.1,1.1-0.2,1.6-0.2
				c0.2,0,0.4-0.1,0.6-0.1c0.7-0.1,1.4-0.2,2.2-0.4c0,0,0,0,0,0c0.2,0,0.3-0.1,0.5-0.1c0.4-0.1,0.9-0.2,1.3-0.2
				c0.2,0,0.5-0.1,0.7-0.1c0.4-0.1,0.8-0.2,1.1-0.2c0.3-0.1,0.5-0.1,0.7-0.2c0.3-0.1,0.7-0.2,1-0.2c0.3-0.1,0.5-0.1,0.8-0.2
				c0.3-0.1,0.7-0.2,1-0.2c0.3-0.1,0.5-0.1,0.8-0.2c0.3-0.1,0.6-0.2,1-0.3c0.3-0.1,0.5-0.1,0.8-0.2c0.3-0.1,0.6-0.2,0.9-0.3
				c0.3-0.1,0.5-0.1,0.8-0.2c0.3-0.1,0.6-0.2,0.9-0.3c0.3-0.1,0.5-0.2,0.8-0.2c0.3-0.1,0.6-0.2,0.9-0.3c0.1,0,0.2-0.1,0.4-0.1
				c0.1,0,0.2-0.1,0.3-0.1c0.7-0.2,1.4-0.5,2.2-0.7c0,0,0,0,0,0c0.7-0.2,1.4-0.5,2.1-0.8c0.2-0.1,0.3-0.1,0.5-0.2
				c0.7-0.3,1.4-0.5,2-0.8c0.1,0,0.1-0.1,0.2-0.1c0.6-0.3,1.2-0.5,1.8-0.8c0.2-0.1,0.3-0.1,0.5-0.2c0.6-0.3,1.3-0.6,1.9-0.9
				c0.1,0,0.2-0.1,0.3-0.1c0.6-0.3,1.1-0.6,1.7-0.8c0.1-0.1,0.3-0.1,0.4-0.2c0.6-0.3,1.2-0.6,1.8-1c0.1-0.1,0.2-0.1,0.3-0.2
				c0.5-0.3,1-0.6,1.5-0.9c0.1,0,0.2-0.1,0.2-0.1c0.1,0,0.1-0.1,0.2-0.1c0.3-0.2,0.5-0.3,0.8-0.5c0.2-0.1,0.4-0.2,0.5-0.3
				c0.3-0.2,0.5-0.3,0.8-0.5c0.2-0.1,0.3-0.2,0.5-0.3c0.3-0.2,0.6-0.4,0.9-0.6c0.1-0.1,0.2-0.1,0.3-0.2c0.4-0.3,0.8-0.6,1.2-0.9
				c0.1-0.1,0.2-0.1,0.3-0.2c0.3-0.2,0.6-0.4,0.9-0.7c0.1-0.1,0.3-0.2,0.4-0.3c0.2-0.2,0.5-0.4,0.7-0.6c0.2-0.1,0.3-0.2,0.4-0.4
				c0.2-0.2,0.4-0.4,0.6-0.5c0.2-0.1,0.3-0.3,0.4-0.4c0.2-0.2,0.4-0.4,0.6-0.5c0.1,0,0.1-0.1,0.2-0.1c0.1-0.1,0.1-0.1,0.2-0.2
				c0.3-0.3,0.6-0.6,0.9-0.8c0.1-0.1,0.2-0.2,0.3-0.3c0.4-0.4,0.7-0.7,1.1-1.1c0,0,0.1-0.1,0.1-0.1c0.3-0.3,0.6-0.7,0.9-1
				c0.1-0.1,0.2-0.2,0.3-0.3c0.3-0.3,0.5-0.6,0.7-0.9c0.1-0.1,0.1-0.1,0.2-0.2c0,0,0.1-0.1,0.1-0.1c0.2-0.2,0.4-0.5,0.6-0.7
				c0.1-0.1,0.2-0.2,0.2-0.3c0.3-0.4,0.5-0.7,0.8-1.1c0,0,0.1-0.1,0.1-0.1c0.2-0.3,0.4-0.6,0.6-1c0.1-0.1,0.2-0.2,0.2-0.4
				c0.1-0.2,0.3-0.5,0.4-0.7c0,0,0.1-0.1,0.1-0.1c0.1-0.1,0.1-0.2,0.2-0.3c0.1-0.2,0.2-0.4,0.3-0.5c0.1-0.2,0.2-0.3,0.3-0.5
				c0.1-0.2,0.2-0.4,0.3-0.6c0.1-0.2,0.2-0.3,0.2-0.5c0.1-0.2,0.2-0.4,0.2-0.6c0.1-0.2,0.1-0.3,0.2-0.5c0.1-0.2,0.2-0.4,0.2-0.6
				c0-0.1,0.1-0.1,0.1-0.2c0-0.1,0.1-0.2,0.1-0.3c0.1-0.2,0.1-0.3,0.2-0.5c0.1-0.2,0.1-0.4,0.2-0.6c0.1-0.2,0.1-0.3,0.2-0.5
				c0.1-0.2,0.1-0.4,0.2-0.6c0-0.2,0.1-0.4,0.1-0.5c0-0.2,0.1-0.4,0.1-0.6c0-0.2,0.1-0.4,0.1-0.5c0-0.1,0-0.1,0-0.2
				c0-0.1,0-0.3,0.1-0.4c0-0.2,0.1-0.4,0.1-0.5c0-0.2,0.1-0.4,0.1-0.6c0-0.2,0.1-0.4,0.1-0.5c0-0.2,0-0.4,0.1-0.6c0-0.2,0-0.4,0-0.5
				c0-0.2,0-0.4,0-0.6c0-0.2,0-0.4,0-0.5c0,0,0-0.1,0-0.1c0-0.3,0-0.6,0-0.9l0-15.8C296.6,93.4,296.6,93.7,296.6,94z"/>
		</g>
		<g>
			<path class="st10" d="M285.3,140c0.1-0.1,0.3-0.1,0.4-0.1c0.1,0,0.2-0.1,0.3-0.1c0.1,0,0.2,0,0.2-0.1c0.1,0,0.2,0,0.3,0
				c0.1,0,0.1,0,0.2,0c0.1,0,0.2,0,0.4,0c0,0,0.1,0,0.1,0c0.1,0,0.3,0,0.4,0.1c0,0,0.1,0,0.1,0c0.1,0,0.2,0.1,0.3,0.1
				c0,0,0.1,0,0.1,0c0.1,0.1,0.3,0.1,0.4,0.2l0,0c0,0,0,0,0,0l-17.1-9.9c0,0,0,0,0,0c-0.1-0.1-0.2-0.1-0.3-0.1c0,0,0,0-0.1,0
				c0,0-0.1,0-0.1,0c0,0-0.1,0-0.1-0.1c-0.1,0-0.1,0-0.2,0c0,0-0.1,0-0.1,0c0,0,0,0-0.1,0c-0.1,0-0.2,0-0.3,0c0,0,0,0,0,0
				c0,0-0.1,0-0.1,0c-0.1,0-0.2,0-0.3,0c0,0-0.1,0-0.1,0c-0.1,0-0.1,0-0.2,0c-0.1,0-0.1,0-0.2,0c0,0-0.1,0-0.1,0
				c-0.1,0-0.2,0-0.2,0.1c0,0-0.1,0-0.1,0c0,0-0.1,0-0.1,0c-0.1,0-0.3,0.1-0.4,0.1c0,0-0.1,0-0.1,0c0,0-0.1,0-0.1,0.1
				c0,0-0.1,0-0.1,0.1c-0.2,0.1-0.3,0.2-0.5,0.3c-0.2,0.1-0.4,0.2-0.5,0.3c-0.1,0-0.1,0.1-0.2,0.1c-0.1,0.1-0.2,0.2-0.4,0.3
				c-0.1,0.1-0.1,0.1-0.2,0.2c-0.1,0.1-0.2,0.2-0.3,0.3c-0.1,0.1-0.1,0.1-0.2,0.2c0,0-0.1,0.1-0.1,0.1c0,0-0.1,0.1-0.1,0.1
				c-0.1,0.1-0.3,0.3-0.4,0.4c0,0-0.1,0.1-0.1,0.1c0,0-0.1,0.1-0.1,0.1c-0.1,0.1-0.1,0.2-0.2,0.3c0,0.1-0.1,0.1-0.1,0.2
				c0,0-0.1,0.1-0.1,0.2c-0.1,0.1-0.1,0.1-0.2,0.2c0,0.1-0.1,0.1-0.1,0.1c-0.1,0.1-0.1,0.2-0.2,0.3c0,0.1-0.1,0.1-0.1,0.2
				c0,0,0,0,0,0.1c-0.1,0.2-0.2,0.3-0.3,0.5c0,0,0,0,0,0c0,0,0,0.1-0.1,0.1c-0.1,0.1-0.1,0.2-0.2,0.4c0,0.1-0.1,0.1-0.1,0.2
				c0,0.1-0.1,0.1-0.1,0.2c0,0.1-0.1,0.1-0.1,0.2c-0.1,0.1-0.1,0.3-0.2,0.4c0,0,0,0,0,0.1c0,0,0,0,0,0c-0.1,0.2-0.1,0.3-0.2,0.5
				c0,0,0,0.1,0,0.1c0,0.1,0,0.1-0.1,0.2c0,0.1-0.1,0.2-0.1,0.3c0,0.1,0,0.1-0.1,0.2c0,0.1,0,0.2-0.1,0.2c0,0,0,0.1,0,0.1
				c0,0.1,0,0.2-0.1,0.3c0,0.1,0,0.2-0.1,0.3c0,0,0,0.1,0,0.1c0,0.1,0,0.1,0,0.2c0,0.2-0.1,0.3-0.1,0.5c0,0,0,0.1,0,0.1
				c0,0.1,0,0.2,0,0.3c0,0.1,0,0.1,0,0.2c0,0.2,0,0.4,0,0.6c0,1.1,0.3,2,0.7,2.7c0.3,0.4,0.6,0.7,1,0.9l17.1,9.9
				c-1-0.6-1.7-1.9-1.7-3.7c0-0.2,0-0.4,0-0.6c0-0.1,0-0.1,0-0.2c0-0.1,0-0.3,0-0.4c0-0.2,0-0.3,0.1-0.5c0-0.1,0-0.2,0.1-0.3
				c0-0.1,0-0.2,0.1-0.3c0-0.1,0.1-0.3,0.1-0.4c0-0.1,0-0.2,0.1-0.2c0-0.2,0.1-0.3,0.2-0.5c0-0.1,0-0.1,0.1-0.2
				c0.1-0.2,0.2-0.4,0.3-0.6c0,0,0,0,0-0.1c0.1-0.2,0.2-0.4,0.3-0.6c0-0.1,0.1-0.1,0.1-0.2c0.1-0.2,0.2-0.3,0.3-0.5
				c0,0,0-0.1,0.1-0.1c0.1-0.2,0.2-0.4,0.4-0.6c0-0.1,0.1-0.1,0.1-0.2c0.1-0.1,0.2-0.3,0.3-0.4c0.1-0.1,0.1-0.1,0.2-0.2
				c0.1-0.1,0.2-0.2,0.3-0.3c0.1-0.1,0.1-0.2,0.2-0.3c0.1-0.1,0.1-0.2,0.2-0.2c0.1-0.1,0.3-0.3,0.4-0.4c0.1-0.1,0.2-0.2,0.2-0.2
				c0.1-0.1,0.1-0.1,0.2-0.2c0.1-0.1,0.2-0.2,0.3-0.3c0.1-0.1,0.1-0.1,0.2-0.2c0.1-0.1,0.2-0.2,0.4-0.3c0.1,0,0.1-0.1,0.2-0.1
				c0.2-0.1,0.4-0.2,0.5-0.3c0.2-0.1,0.4-0.2,0.5-0.3c0,0,0.1,0,0.1-0.1C285.1,140.1,285.2,140.1,285.3,140z"/>
			<g>
				<path class="st10" d="M284.3,140.5c3.2-1.8,5.7-0.4,5.7,3.3c0,3.6-2.5,8.1-5.7,9.9s-5.7,0.4-5.7-3.3
					C278.6,146.7,281.2,142.3,284.3,140.5z"/>
			</g>
		</g>
		<g>
			<g>
				<path class="st7" d="M289.1,140.2c0.2-0.1,0.3-0.1,0.5-0.2c0.1,0,0.2-0.1,0.3-0.1c0.1,0,0.2,0,0.3-0.1c0.1,0,0.3,0,0.4-0.1
					c0.1,0,0.1,0,0.2,0c0.2,0,0.3,0,0.5,0c0,0,0.1,0,0.1,0c0.2,0,0.4,0,0.5,0.1c0,0,0.1,0,0.1,0c0.1,0,0.3,0.1,0.4,0.1
					c0,0,0.1,0,0.1,0c0.2,0.1,0.3,0.1,0.5,0.2l0,0c0,0,0,0,0,0l-4-2.3c0,0,0,0,0,0c-0.1-0.1-0.2-0.1-0.4-0.2c0,0,0,0-0.1,0
					c0,0-0.1,0-0.1,0c-0.1,0-0.1,0-0.2-0.1c-0.1,0-0.1,0-0.2,0c0,0-0.1,0-0.1,0c0,0,0,0-0.1,0c-0.1,0-0.3,0-0.4-0.1c0,0,0,0,0,0
					c0,0-0.1,0-0.1,0c-0.1,0-0.2,0-0.3,0c0,0-0.1,0-0.1,0c-0.1,0-0.1,0-0.2,0c-0.1,0-0.1,0-0.2,0c-0.1,0-0.1,0-0.2,0
					c-0.1,0-0.2,0-0.3,0.1c-0.1,0-0.1,0-0.2,0c-0.1,0-0.1,0-0.2,0.1c-0.2,0.1-0.3,0.1-0.5,0.2c-0.1,0-0.1,0-0.2,0.1
					c-0.1,0-0.1,0.1-0.2,0.1c-0.1,0-0.1,0.1-0.2,0.1c-0.2,0.1-0.4,0.2-0.7,0.3c-0.2,0.1-0.5,0.3-0.7,0.4c-0.1,0.1-0.1,0.1-0.2,0.2
					c-0.2,0.1-0.3,0.2-0.5,0.3c-0.1,0.1-0.2,0.1-0.2,0.2c-0.1,0.1-0.3,0.2-0.4,0.4c-0.1,0.1-0.2,0.2-0.2,0.2c-0.1,0-0.1,0.1-0.2,0.1
					c-0.1,0.1-0.1,0.1-0.2,0.2c-0.2,0.2-0.3,0.3-0.5,0.5c-0.1,0.1-0.1,0.1-0.2,0.2c0,0-0.1,0.1-0.1,0.1c-0.1,0.1-0.2,0.2-0.3,0.3
					c-0.1,0.1-0.1,0.1-0.2,0.2c0,0.1-0.1,0.1-0.1,0.2c-0.1,0.1-0.1,0.2-0.2,0.3c0,0.1-0.1,0.1-0.1,0.2c-0.1,0.1-0.1,0.2-0.2,0.3
					c0,0.1-0.1,0.1-0.1,0.2c0,0,0,0.1-0.1,0.1c-0.1,0.2-0.3,0.4-0.4,0.6c0,0,0,0,0,0c0,0,0,0.1-0.1,0.1c-0.1,0.1-0.2,0.3-0.2,0.4
					c0,0.1-0.1,0.1-0.1,0.2c0,0.1-0.1,0.1-0.1,0.2c0,0.1-0.1,0.1-0.1,0.2c-0.1,0.2-0.2,0.3-0.2,0.5c0,0,0,0.1,0,0.1c0,0,0,0,0,0
					c-0.1,0.2-0.2,0.4-0.3,0.7c0,0,0,0.1,0,0.1c0,0.1-0.1,0.2-0.1,0.2c0,0.1-0.1,0.2-0.1,0.3c0,0.1-0.1,0.2-0.1,0.3
					c0,0.1-0.1,0.2-0.1,0.3c0,0.1,0,0.1-0.1,0.2c0,0.1-0.1,0.2-0.1,0.3c0,0.1-0.1,0.2-0.1,0.4c0,0,0,0.1,0,0.1c0,0.1,0,0.2,0,0.3
					c0,0.2-0.1,0.4-0.1,0.6c0,0.1,0,0.1,0,0.2c0,0.1,0,0.2,0,0.4c0,0.1,0,0.2,0,0.3c0,0.3,0,0.5,0,0.8c0,1.4,0.3,2.6,0.9,3.5
					c0.3,0.5,0.8,0.9,1.2,1.2l4,2.3c-1.3-0.8-2.1-2.4-2.1-4.7c0-0.3,0-0.5,0-0.8c0-0.1,0-0.2,0-0.3c0-0.2,0-0.3,0.1-0.5
					c0-0.2,0.1-0.4,0.1-0.6c0-0.1,0-0.3,0.1-0.4c0-0.1,0.1-0.2,0.1-0.4c0-0.2,0.1-0.3,0.1-0.5c0-0.1,0.1-0.2,0.1-0.3
					c0.1-0.2,0.1-0.4,0.2-0.6c0-0.1,0.1-0.2,0.1-0.2c0.1-0.3,0.2-0.5,0.3-0.8c0,0,0-0.1,0-0.1c0.1-0.2,0.2-0.5,0.3-0.7
					c0-0.1,0.1-0.1,0.1-0.2c0.1-0.2,0.2-0.4,0.4-0.7c0,0,0-0.1,0.1-0.1c0.1-0.3,0.3-0.5,0.5-0.7c0-0.1,0.1-0.1,0.1-0.2
					c0.1-0.2,0.2-0.3,0.4-0.5c0.1-0.1,0.1-0.2,0.2-0.3c0.1-0.1,0.2-0.3,0.3-0.4c0.1-0.1,0.2-0.2,0.3-0.3c0.1-0.1,0.2-0.2,0.3-0.3
					c0.2-0.2,0.3-0.3,0.5-0.5c0.1-0.1,0.2-0.2,0.3-0.3c0.1-0.1,0.2-0.2,0.2-0.2c0.1-0.1,0.3-0.2,0.4-0.4c0.1-0.1,0.2-0.1,0.2-0.2
					c0.2-0.1,0.3-0.2,0.5-0.3c0.1-0.1,0.1-0.1,0.2-0.2c0.2-0.2,0.5-0.3,0.7-0.4c0.2-0.1,0.4-0.2,0.7-0.3c0.1,0,0.1-0.1,0.2-0.1
					C288.8,140.3,288.9,140.2,289.1,140.2z"/>
				<g>
					<path class="st10" d="M287.9,140.8c4-2.3,7.3-0.5,7.3,4.2c0,4.6-3.2,10.2-7.3,12.6c-4,2.3-7.3,0.5-7.3-4.2
						C280.6,148.7,283.8,143.1,287.9,140.8z"/>
				</g>
			</g>
			<path class="st10" d="M393,203.5L393,203.5c0-0.2,0-0.3,0-0.5c0,0,0-0.1,0-0.1c0,0,0,0,0-0.1c0-0.2,0-0.4-0.1-0.7
				c0,0,0-0.1,0-0.1c0,0,0,0,0,0c0,0,0,0,0-0.1c0-0.3-0.1-0.5-0.1-0.8c0-0.1-0.1-0.3-0.1-0.4c0,0,0,0,0,0c0,0,0,0,0,0
				c0-0.1-0.1-0.3-0.1-0.4c0,0,0-0.1,0-0.1c-0.2-0.5-0.4-1-0.7-1.5c0,0,0-0.1-0.1-0.1c-0.1-0.1-0.2-0.3-0.3-0.5
				c-0.1-0.2-0.2-0.3-0.3-0.5c-0.1-0.1-0.2-0.2-0.2-0.3c-0.1-0.1-0.1-0.2-0.2-0.3c-0.1-0.1-0.1-0.1-0.2-0.2
				c-0.2-0.2-0.4-0.4-0.6-0.6c-0.1-0.1-0.1-0.1-0.2-0.2c0,0-0.1-0.1-0.1-0.1c0,0-0.1-0.1-0.1-0.1c-0.1-0.1-0.2-0.1-0.3-0.2
				c0,0,0,0,0,0c0,0,0,0-0.1,0c0,0,0,0,0,0c0,0,0,0-0.1,0c-0.1-0.1-0.3-0.2-0.5-0.3c0,0,0,0-0.1,0L293,140.2c0,0,0,0,0,0
				c-0.1-0.1-0.2-0.1-0.4-0.2c0,0,0,0-0.1,0c0,0-0.1,0-0.1,0c-0.1,0-0.1,0-0.2-0.1c-0.1,0-0.1,0-0.2,0c0,0-0.1,0-0.1,0
				c0,0,0,0-0.1,0c-0.1,0-0.3,0-0.4-0.1c0,0,0,0,0,0c0,0-0.1,0-0.1,0c-0.1,0-0.2,0-0.3,0c0,0-0.1,0-0.1,0c-0.1,0-0.1,0-0.2,0
				c-0.1,0-0.1,0-0.2,0c-0.1,0-0.1,0-0.2,0c-0.1,0-0.2,0-0.3,0.1c-0.1,0-0.1,0-0.2,0c-0.1,0-0.1,0-0.2,0.1c-0.2,0.1-0.3,0.1-0.5,0.2
				c-0.1,0-0.1,0-0.2,0.1c-0.1,0-0.1,0.1-0.2,0.1c-0.1,0-0.1,0.1-0.2,0.1c-0.2,0.1-0.4,0.2-0.7,0.3c-0.2,0.1-0.5,0.3-0.7,0.4
				c-0.1,0.1-0.1,0.1-0.2,0.2c-0.2,0.1-0.3,0.2-0.5,0.3c-0.1,0.1-0.2,0.1-0.2,0.2c-0.1,0.1-0.3,0.2-0.4,0.4
				c-0.1,0.1-0.2,0.2-0.2,0.2c-0.1,0-0.1,0.1-0.2,0.1c-0.1,0.1-0.1,0.1-0.2,0.2c-0.2,0.2-0.3,0.3-0.5,0.5c-0.1,0.1-0.1,0.1-0.2,0.2
				c0,0-0.1,0.1-0.1,0.1c-0.1,0.1-0.2,0.2-0.3,0.3c-0.1,0.1-0.1,0.1-0.2,0.2c0,0.1-0.1,0.1-0.1,0.2c-0.1,0.1-0.1,0.2-0.2,0.3
				c0,0.1-0.1,0.1-0.1,0.2c-0.1,0.1-0.1,0.2-0.2,0.3c0,0.1-0.1,0.1-0.1,0.2c0,0,0,0.1-0.1,0.1c-0.1,0.2-0.3,0.4-0.4,0.6c0,0,0,0,0,0
				c0,0,0,0.1-0.1,0.1c-0.1,0.1-0.2,0.3-0.2,0.4c0,0.1-0.1,0.1-0.1,0.2c0,0.1-0.1,0.1-0.1,0.2c0,0.1-0.1,0.1-0.1,0.2
				c-0.1,0.2-0.2,0.3-0.2,0.5c0,0,0,0.1,0,0.1c0,0,0,0,0,0c-0.1,0.2-0.2,0.4-0.3,0.7c0,0,0,0.1,0,0.1c0,0.1-0.1,0.2-0.1,0.2
				c0,0.1-0.1,0.2-0.1,0.3c0,0.1-0.1,0.2-0.1,0.3c0,0.1-0.1,0.2-0.1,0.3c0,0.1,0,0.1-0.1,0.2c0,0.1-0.1,0.2-0.1,0.3
				c0,0.1-0.1,0.2-0.1,0.4c0,0,0,0.1,0,0.1c0,0.1,0,0.2,0,0.3c0,0.2-0.1,0.4-0.1,0.6c0,0.1,0,0.1,0,0.2c0,0.1,0,0.2,0,0.4
				c0,0.1,0,0.2,0,0.3c0,0.3,0,0.5,0,0.8c0,1.4,0.3,2.6,0.9,3.5c0.3,0.5,0.8,0.9,1.2,1.2l95.3,55c0,0,0.1,0.1,0.1,0.1
				c0.1,0,0.1,0.1,0.2,0.1c0,0,0.1,0,0.1,0c0.1,0,0.1,0.1,0.2,0.1c0,0,0,0,0,0c0,0,0.1,0,0.1,0c0,0,0,0,0,0c0,0,0,0,0,0
				c0.1,0,0.2,0.1,0.2,0.1c0,0,0.1,0,0.2,0.1c0,0,0,0,0,0c0.1,0,0.1,0.1,0.2,0.1c0,0,0,0,0,0c0,0,0,0,0.1,0c0,0,0,0,0,0
				c0.1,0,0.1,0.1,0.2,0.1c0,0,0.1,0,0.1,0c0.2,0.1,0.4,0.1,0.5,0.2c0,0,0,0,0.1,0c0.3,0.1,0.5,0.1,0.7,0.2c0,0,0.1,0,0.1,0
				c0.1,0,0.1,0,0.2,0c0,0,0,0,0.1,0c0,0,0,0,0,0c0,0,0.1,0,0.1,0c0,0,0,0,0,0c0.1,0,0.2,0,0.3,0c0,0,0.1,0,0.1,0c0,0,0.1,0,0.1,0
				c0.4,0,0.6,0,0.7,0c0,0,0,0,0.1,0l0.1,0c0,0,0,0,0,0c0,0,0,0,0.1,0c0,0,0.1,0,0.1,0c0,0,0,0,0,0c0,0,0,0,0.1,0c0,0,0,0,0,0l0.1,0
				l0.1,0c0,0,0,0,0,0c1.7-0.1,3.1-0.7,4.1-1.3c0,0,0,0,0,0c0,0,0.1,0,0.1,0c0,0,0.1,0,0.1,0c0,0,0.1,0,0.1-0.1c0,0,0.1-0.1,0.1-0.1
				c0.1-0.1,0.2-0.1,0.3-0.2c0,0,0.1,0,0.1-0.1c0,0,0.1-0.1,0.1-0.1c0.3-0.2,0.5-0.4,0.6-0.4c0.2-0.2,0.4-0.3,0.5-0.5
				c0,0,0,0,0.1-0.1c0.1-0.1,0.2-0.2,0.3-0.3l0,0c0,0,0,0,0,0c0,0,0,0,0,0l0,0c0.2-0.2,0.3-0.4,0.5-0.6c0,0,0,0,0,0c0,0,0,0,0-0.1
				c0,0,0-0.1,0.1-0.1l0,0c0,0,0,0,0,0c0,0,0,0,0,0c0,0,0,0,0,0c0.1-0.1,0.1-0.2,0.2-0.2c0,0,0,0,0,0c0.2-0.2,0.3-0.4,0.4-0.7
				c0,0,0,0,0,0c0.1-0.2,0.2-0.4,0.3-0.6c0,0,0,0,0,0c0.1-0.1,0.1-0.2,0.2-0.4c0-0.1,0.1-0.1,0.1-0.2c0,0,0,0,0,0
				c0.1-0.1,0.1-0.3,0.2-0.4c0,0,0,0,0-0.1l0,0c0,0,0,0,0,0c0,0,0,0,0,0l0,0c0,0,0,0,0,0c0,0,0-0.1,0-0.1c0,0,0-0.1,0-0.1
				c0,0,0,0.1,0,0.1c0,0,0-0.1,0-0.1c0-0.1,0.1-0.1,0.1-0.2c0,0,0,0,0,0c0,0,0,0,0,0c0,0,0,0,0,0c0,0,0,0,0,0c0,0,0,0,0,0
				c0,0,0,0,0,0c0,0,0,0,0,0c0,0,0,0,0,0c0.1-0.3,0.2-0.5,0.2-0.5c0,0,0-0.1,0-0.1c0,0,0,0,0,0c0,0,0-0.1,0-0.1
				c0-0.1,0.1-0.2,0.1-0.3c0,0,0,0,0,0c0,0,0,0,0,0c0,0,0,0,0,0c0-0.1,0-0.1,0-0.2c0,0,0-0.1,0-0.1c0-0.1,0-0.2,0-0.2l0,0
				c0,0,0,0,0,0c0,0,0,0,0,0l0-0.1c0,0,0-0.1,0-0.1c0,0,0,0,0,0c0,0,0,0,0,0c0,0,0-0.1,0-0.1c0,0,0,0,0,0c0,0,0-0.1,0-0.1
				c0-0.1,0-0.1,0-0.2c0-0.2,0-0.3,0.1-0.5c0,0,0,0,0,0l0,0c0,0,0,0,0,0C393,203.9,393,203.7,393,203.5L393,203.5L393,203.5
				C393,203.5,393,203.5,393,203.5L393,203.5z"/>
			<path class="st11" d="M392.4,206.6c-0.1,0.1-0.3,0.3-0.6,0.5c-0.1,0.1-0.3,0.3-0.6,0.5c0,0-0.1,0.1-0.1,0.1c0,0-0.1,0-0.1,0.1
				c-0.1,0.1-0.2,0.1-0.3,0.2c-0.1,0-0.1,0.1-0.2,0.1c0,0-0.1,0.1-0.1,0.1c0,0-0.1,0-0.1,0.1c0,0-0.1,0-0.1,0.1c0,0,0,0,0,0
				c-1.1,0.6-2.7,1.3-4.6,1.4c0,0,0,0,0,0l-0.1,0l-0.1,0c0,0,0,0,0,0c0,0,0,0-0.1,0c0,0,0,0,0,0c0,0-0.1,0-0.1,0c0,0-0.1,0-0.1,0
				c0,0,0,0,0.1,0l-0.1,0c0,0-0.1,0-0.1,0c-0.1,0-0.4,0-0.8,0c0,0-0.1,0-0.1,0c0,0-0.1,0-0.1,0c-0.1,0-0.2,0-0.3,0c0,0,0,0,0,0
				c0,0-0.1,0-0.1,0c0,0,0,0,0,0c0,0-0.1,0-0.1,0c-0.1,0-0.1,0-0.2,0c0,0-0.1,0-0.1,0c-0.3,0-0.5-0.1-0.8-0.2c0,0,0,0-0.1,0
				c-0.2,0-0.4-0.1-0.6-0.2c0,0-0.1,0-0.1,0c-0.1,0-0.2-0.1-0.2-0.1c0,0,0,0,0,0c0,0-0.1,0-0.1,0c0,0,0,0,0,0
				c-0.1,0-0.2-0.1-0.2-0.1c0,0,0,0,0,0c-0.1,0-0.1-0.1-0.2-0.1c-0.1,0-0.2-0.1-0.2-0.1c0,0,0,0,0,0c0,0,0,0,0,0c0,0-0.1,0-0.1-0.1
				c0,0,0,0,0,0c-0.1,0-0.1-0.1-0.2-0.1c0,0-0.1,0-0.1-0.1c-0.1,0-0.2-0.1-0.3-0.1c0,0,0,0,0,0c0,0-0.1,0-0.1-0.1L276.8,149
				c0,0.1-0.1,0.3-0.1,0.4c0,0.1,0,0.1,0,0.2c0,0.1,0,0.2,0,0.4c0,0.1,0,0.2,0,0.3c0,0.3,0,0.5,0,0.8c0,1.4,0.3,2.6,0.9,3.5
				c0.3,0.5,0.8,0.9,1.2,1.2l4,2.3c0,0,0,0-0.1-0.1c0,0,0,0,0.1,0l0,0c0,0,0,0,0,0l95.3,55c0,0,0,0,0,0c0,0,0,0,0.1,0c0,0,0,0,0,0
				c0.1,0,0.1,0.1,0.2,0.1c0,0,0.1,0,0.1,0c0.1,0,0.1,0.1,0.2,0.1c0,0,0,0,0,0c0,0,0.1,0,0.1,0c0,0,0,0,0,0c0,0,0,0,0,0
				c0.1,0,0.2,0.1,0.2,0.1c0,0,0.1,0,0.2,0.1c0,0,0,0,0,0c0.1,0,0.1,0.1,0.2,0.1c0,0,0,0,0,0c0,0,0,0,0.1,0c0,0,0,0,0,0
				c0.1,0,0.1,0.1,0.2,0.1c0,0,0.1,0,0.1,0c0.2,0.1,0.4,0.1,0.5,0.2c0,0,0,0,0.1,0c0.3,0.1,0.5,0.1,0.7,0.2c0,0,0.1,0,0.1,0
				c0.1,0,0.1,0,0.2,0c0,0,0,0,0.1,0c0,0,0,0,0,0c0,0,0.1,0,0.1,0c0,0,0,0,0,0c0.1,0,0.2,0,0.3,0c0,0,0.1,0,0.1,0c0,0,0.1,0,0.1,0
				c0.4,0,0.6,0,0.7,0c0,0,0,0,0.1,0l0.1,0c0,0,0,0,0,0c0,0,0,0,0.1,0c0,0,0.1,0,0.1,0c0,0,0,0,0,0c0,0,0,0,0.1,0c0,0,0,0,0,0l0.1,0
				l0.1,0c0,0,0,0,0,0c1.7-0.1,3.1-0.7,4.1-1.3c0,0,0,0,0,0c0,0,0.1,0,0.1,0c0,0,0.1,0,0.1,0c0,0,0.1,0,0.1-0.1c0,0,0.1-0.1,0.1-0.1
				c0.1-0.1,0.2-0.1,0.3-0.2c0,0,0.1,0,0.1-0.1c0,0,0.1-0.1,0.1-0.1c0.3-0.2,0.5-0.4,0.6-0.4c0.2-0.2,0.4-0.3,0.5-0.5
				c0,0,0,0,0.1-0.1c0.1-0.1,0.2-0.2,0.3-0.3l0,0c0,0,0,0,0,0c0,0,0,0,0,0l0,0c0,0,0,0,0,0c0.2-0.2,0.3-0.4,0.5-0.6c0,0,0,0,0,0
				c0,0,0,0,0-0.1c0,0,0-0.1,0.1-0.1l0,0c0,0,0,0,0,0c0,0,0,0,0,0c0,0,0,0,0,0c0.1-0.1,0.1-0.2,0.2-0.2c0,0,0,0,0,0
				c0.2-0.2,0.3-0.4,0.4-0.7c0,0,0,0,0,0c0.1-0.2,0.2-0.4,0.3-0.6c0,0,0,0,0,0c0.1-0.1,0.1-0.2,0.2-0.4c0-0.1,0.1-0.1,0.1-0.2
				c0,0,0,0,0,0c0.1-0.1,0.1-0.3,0.2-0.4c0,0,0,0,0-0.1l0,0c0,0,0,0,0,0c0,0,0,0,0,0l0,0c0,0,0,0,0,0c0,0,0-0.1,0-0.1
				c0,0,0-0.1,0-0.1c0,0,0,0.1,0,0.1c0,0,0-0.1,0-0.1c0-0.1,0.1-0.1,0.1-0.2c0,0,0,0,0,0c0,0,0,0,0,0c0,0,0,0,0,0c0,0,0,0,0,0
				c0,0,0,0,0,0c0,0,0,0,0,0c0,0,0,0,0,0c0,0,0,0,0,0c0.1-0.3,0.2-0.5,0.2-0.5c0,0,0-0.1,0-0.1c0,0,0,0,0,0
				C392.5,206.5,392.5,206.6,392.4,206.6C392.4,206.6,392.4,206.6,392.4,206.6z"/>
		</g>
	</g>
</g>
</svg>
