<?xml version="1.0" encoding="utf-8"?>
<!-- Generator: Adobe Illustrator 23.0.3, SVG Export Plug-In . SVG Version: 6.00 Build 0)  -->
<svg version="1.1" id="Smartphone" xmlns="http://www.w3.org/2000/svg" xmlns:xlink="http://www.w3.org/1999/xlink" x="0px" y="0px"
	 viewBox="0 0 451 267.1" style="enable-background:new 0 0 451 267.1;" xml:space="preserve">
<style type="text/css">
	.st0{opacity:0.6;fill:#1F2223;}
	.st1{fill:#A4ABAF;}
	.st2{fill:#B4BABD;}
	.st3{fill:#1F2223;}
	.st4{fill:#FAD151;}
	.st5{fill:#FFFFFF;}
	.st6{fill:#AFB5C2;}
	.st7{fill:#9CA2AD;}
	.st8{fill:#7D8489;}
	.st9{opacity:0.5;fill:#7D8489;}
</style>
<g>
	<path class="st0" d="M404.8,105l-124-72c-7.1-4.1-19.6-3.6-27.8,1.2L6.8,176.3c-8.2,4.7-9.1,11.9-2,16l124,72
		c7.1,4.1,19.6,3.6,27.8-1.2L402.8,121C411,116.3,411.9,109.1,404.8,105z"/>
	<path class="st1" d="M147.4,258.7L25.6,188.3c-7.6-4.4-11.9-23,2.1-31.1L292.9,18c8.8-5.1,22.3-5.6,29.9-1.2l121.8,56.5
		c10.7,5.7,6.7,26-2.1,31.1L177.3,257.4C168.5,262.5,155,263.1,147.4,258.7z"/>
	<path class="st2" d="M147.4,251.7L25.6,181.4c-7.6-4.4-9-18.4,2.1-24.2L292.9,11.1c8.8-5.1,22.3-5.6,29.9-1.2l121.8,63.4
		c9.3,5,6.7,19.1-2.1,24.2L177.3,250.5C168.5,255.6,155,256.2,147.4,251.7z"/>
	<g>
		<path class="st3" d="M283.7,18.2L51.9,152l134.6,77.7L418.3,95.8L283.7,18.2z"/>
	</g>
	<g>
		<path class="st4" d="M296.2,25.2l-21.4,12.3c-5.6,3.2-6.2,8.1-1.4,10.9c4.9,2.8,13.3,2.5,18.9-0.8l21.4-12.3L296.2,25.2z"/>
		<g>
			<path class="st3" d="M279.5,42.5c0.1-0.7,0.6-1.4,1.6-2c2-1.1,4.9-1.3,6.6-0.3c0.9,0.5,1.2,1.2,1.1,1.9l3.4-0.1
				c0.1-1.2-0.5-2.4-2-3.2c-2.9-1.7-8.1-1.5-11.5,0.5c-1.7,1-2.6,2.2-2.8,3.4L279.5,42.5z"/>
			<path class="st3" d="M284.7,44.9c-1.5,0.2-3,0-4-0.6c-0.2-0.1-0.4-0.2-0.5-0.4l-3.8,0.2c0.3,0.6,0.9,1.2,1.7,1.7
				c1.8,1,4.4,1.4,7,1L284.7,44.9z"/>
		</g>
	</g>
	<g>
		<path class="st5" d="M298.2,58.4c-0.2-0.5-0.1-1.1,0.3-1.7c0.4-0.6,1.1-1.2,2.1-1.8c1-0.6,2-1,3.1-1.2c1.1-0.2,2.1-0.3,3-0.2
			c1,0.1,1.8,0.4,2.4,0.7c0.5,0.3,0.8,0.6,1,1c0.2,0.4,0.2,0.7,0.2,1.1l-2.1,0.2c0-0.3,0-0.5-0.1-0.7c-0.1-0.2-0.3-0.4-0.6-0.5
			c-0.4-0.2-0.9-0.4-1.4-0.4c-0.6,0-1.2,0-1.8,0.2c-0.6,0.2-1.3,0.4-1.9,0.8c-1,0.6-1.5,1.1-1.7,1.6c-0.2,0.5,0,1,0.6,1.3
			c0.6,0.4,1.4,0.5,2.5,0.4l-0.3,1.2c-1.6,0.1-2.9-0.1-3.9-0.7C298.9,59.4,298.4,59,298.2,58.4z"/>
		<path class="st5" d="M305.2,62.5c-0.2-0.5-0.1-1.1,0.2-1.7c0.4-0.6,1.1-1.2,2.1-1.8c1-0.6,2-1,3.1-1.2c1.1-0.2,2.1-0.3,3-0.2
			s1.8,0.4,2.5,0.8c1,0.6,1.4,1.3,1.3,2.1l-2.1,0.2c0-0.3,0-0.5-0.1-0.7c-0.1-0.2-0.3-0.4-0.6-0.6c-0.7-0.4-1.5-0.5-2.4-0.4
			s-1.9,0.4-2.8,1c-1,0.6-1.6,1.1-1.7,1.7c-0.1,0.5,0.2,1,0.9,1.5c0.2,0.1,0.4,0.2,0.6,0.3c0.2,0.1,0.4,0.1,0.6,0.1l1.7-1l-1.4-0.8
			l1.6-0.9l2.9,1.7l-4.2,2.4c-0.6,0-1.3,0-1.9-0.2c-0.7-0.1-1.3-0.4-1.8-0.7C305.9,63.5,305.4,63,305.2,62.5z"/>
		<path class="st5" d="M318,62.3l1.7,1l-7,4l-1.7-1L318,62.3z M319.6,61.6c0-0.2,0.2-0.4,0.5-0.6s0.6-0.3,1-0.3s0.7,0.1,1,0.2
			s0.4,0.3,0.4,0.6c0,0.2-0.2,0.4-0.5,0.6s-0.6,0.3-1,0.3s-0.7-0.1-1-0.2S319.5,61.8,319.6,61.6z"/>
		<path class="st5" d="M323.9,65.1l-0.5,0.3l1.1,0.6l-1.5,0.9l-1.1-0.6l-5.4,3.1l-1.7-1l5.4-3.1l-0.8-0.5l1.4-0.8l0.9,0.4l0.5-0.3
			c0.8-0.5,1.6-0.7,2.4-0.8c0.8-0.1,1.6,0.1,2.3,0.5c0.4,0.2,0.7,0.5,0.9,0.8l-1.7,0.6c-0.1-0.2-0.3-0.3-0.5-0.5
			C325.2,64.6,324.6,64.7,323.9,65.1z"/>
		<path class="st5" d="M320.1,70.9c0.1-0.5,0.6-0.9,1.5-1.4l3-1.7l-0.8-0.5l1.4-0.8l1,0.5l2-1l1.4,0.8l-1.9,1.1l1.5,0.9l-1.5,0.9
			l-1.5-0.9l-2.9,1.7c-0.8,0.4-0.9,0.8-0.3,1.1c0.2,0.1,0.4,0.2,0.7,0.3l-1.1,1c-0.6-0.2-1.1-0.4-1.6-0.6
			C320.3,71.8,320,71.4,320.1,70.9z"/>
		<path class="st5" d="M324.2,73.6c0-0.2,0.2-0.5,0.6-0.7c0.4-0.2,0.7-0.3,1.2-0.3c0.4,0,0.8,0,1.1,0.2c0.3,0.2,0.4,0.4,0.4,0.6
			c0,0.2-0.2,0.5-0.6,0.7c-0.4,0.2-0.7,0.3-1.2,0.3c-0.4,0-0.8,0-1.1-0.2C324.2,74.1,324.1,73.9,324.2,73.6z"/>
		<path class="st5" d="M334.4,71.7l1.7,1l-7,4l-1.7-1L334.4,71.7z M335.9,71c0-0.2,0.2-0.4,0.5-0.6s0.6-0.3,1-0.3
			c0.4,0,0.7,0.1,1,0.2s0.4,0.3,0.4,0.6s-0.2,0.4-0.5,0.6s-0.6,0.3-1,0.3c-0.4,0-0.7-0.1-1-0.2S335.9,71.2,335.9,71z"/>
		<path class="st5" d="M332.2,78.2c-0.2-0.4-0.1-0.9,0.2-1.3c0.3-0.5,0.8-0.9,1.5-1.4c0.7-0.4,1.5-0.7,2.4-0.9
			c0.8-0.2,1.6-0.2,2.3-0.1c0.7,0.1,1.4,0.3,1.9,0.6c0.5,0.3,0.8,0.7,1,1.1c0.2,0.4,0.1,0.9-0.2,1.4c-0.3,0.5-0.8,0.9-1.5,1.4
			c-0.7,0.4-1.5,0.7-2.3,0.9c-0.8,0.2-1.6,0.2-2.3,0.1c-0.7-0.1-1.4-0.3-1.9-0.6C332.6,78.9,332.3,78.6,332.2,78.2z M336.2,78.5
			c0.6-0.1,1.2-0.3,1.8-0.7c0.6-0.4,1.1-0.7,1.2-1.1s0.1-0.6-0.3-0.8c-0.4-0.2-0.9-0.3-1.5-0.2c-0.6,0.1-1.2,0.3-1.8,0.7
			c-0.6,0.4-1.1,0.7-1.2,1.1c-0.2,0.3-0.1,0.6,0.3,0.8C335.1,78.6,335.6,78.6,336.2,78.5z"/>
	</g>
	<path class="st5" d="M444.6,73.3L322.8,3c-7.6-4.4-21.1-3.8-29.9,1.2L27.8,157.3c-8.8,5.1-9.8,12.9-2.1,17.3l121.8,70.3
		c7.6,4.4,21.1,3.8,29.9-1.2L442.4,90.5C451.2,85.4,452.2,77.7,444.6,73.3z M186.5,229.7L51.9,152L283.7,18.2l134.6,77.7
		L186.5,229.7z"/>
	
		<ellipse transform="matrix(5.423482e-03 -1 1 5.423482e-03 -97.9478 302.0248)" class="st2" cx="102.9" cy="200.3" rx="8.5" ry="14.8"/>
	<path class="st2" d="M379.9,57.1c-0.8,0-1.5-0.2-2-0.5l-26-15c-0.6-0.3-0.9-0.8-0.9-1.3c0-0.6,0.4-1.2,1.2-1.7
		c0.7-0.4,1.6-0.6,2.5-0.6c0.8,0,1.5,0.2,2,0.5l26,15c0.6,0.3,0.9,0.8,0.9,1.3c0,0.6-0.4,1.2-1.2,1.7
		C381.8,56.9,380.8,57.1,379.9,57.1z"/>
	<path class="st6" d="M92.5,223.2l-11.9-6.9c-1-0.6-1.9-2.2-1.9-3.5l0,0c0-1.4,0.8-2,1.9-1.4l11.9,6.9c1,0.6,1.9,2.2,1.9,3.5l0,0
		C94.3,223.1,93.5,223.7,92.5,223.2z"/>
	<path class="st7" d="M94.3,221.7c0-1.4-0.8-3-1.9-3.5l-10.2-5.9c0,0,0,0,0,0.1l0,0c0,1.4,0.8,3,1.9,3.5L94.3,221.7
		C94.3,221.8,94.3,221.8,94.3,221.7L94.3,221.7z"/>
	<g>
		<path class="st2" d="M226.4,100.3c-11.4-1.3-23.1-0.7-34.1,1.4l12.5,36l62.4,7.2C279.2,124.2,260.9,104.2,226.4,100.3z"/>
		<path class="st4" d="M139.9,150.2c2.3,6.6,7.6,12.1,14.9,16.3l49.9-28.8l-12.5-36C156.5,108.6,133,130.3,139.9,150.2z"/>
		<path class="st8" d="M217.3,173.8c11-2.1,21.7-5.8,30.8-11.1c9.1-5.3,15.5-11.4,19.2-17.8l-62.4-7.2L217.3,173.8z"/>
		<path class="st9" d="M217.3,173.8c-11,2.1-22.7,2.7-34.1,1.4c-11.4-1.3-21-4.4-28.3-8.6l49.9-28.8L217.3,173.8z"/>
		
			<ellipse transform="matrix(0.9927 -0.121 0.121 0.9927 -15.1578 25.7869)" class="st3" cx="204.8" cy="137.7" rx="48.5" ry="27.4"/>
	</g>
</g>
</svg>
