<?xml version="1.0" encoding="utf-8"?>
<!-- Generator: Adobe Illustrator 23.0.3, SVG Export Plug-In . SVG Version: 6.00 Build 0)  -->
<svg version="1.1" xmlns="http://www.w3.org/2000/svg" xmlns:xlink="http://www.w3.org/1999/xlink" x="0px" y="0px"
	 viewBox="0 0 604 413" style="enable-background:new 0 0 604 413;" xml:space="preserve">
<style type="text/css">
	.st0{opacity:0.6;fill:#1F2223;}
	.st1{fill:#C7CED3;}
	.st2{fill:#6B6D6E;}
	.st3{fill:#2E3133;}
	.st4{fill:#F7F8F8;}
	.st5{fill:#1F2223;}
	.st6{opacity:0.8;fill:#FAD151;}
	.st7{opacity:0.8;fill:#F5A543;}
	.st8{opacity:0.9;fill:url(#SVGID_1_);}
	.st9{opacity:0.6;fill:#2E3133;}
	.st10{fill:#FCE4C7;}
	.st11{fill:#7D8489;}
	.st12{fill:#F5A543;}
	.st13{fill:#FAD151;}
	.st14{fill:#93999D;}
	.st15{fill:#E5E5E5;}
	.st16{fill:#FFFFFF;}
	.st17{fill:#333333;}
	.st18{fill:#D6D6D6;}
	.st19{fill:#E7E7E7;}
</style>
<g id="Ebene_4">
	<path class="st0" d="M395.6,331.3c-6.1,3.5-16.8,3.1-23.9-1L107.4,177.1c-7.1-4.1-7.8-10.3-1.7-13.8l188.8-109
		c6.1-3.5,16.8-3.1,23.9,1l264.3,153.2c7.1,4.1,7.8,10.3,1.7,13.8L395.6,331.3z"/>
	<polygon class="st0" points="0,349 109.7,411.9 258.2,326.7 148.5,263.8 	"/>
	<path class="st0" d="M299.7,341.8l-4.9,1.2l-10.5,2.6l0,0.1c-0.3,0-0.6,0.1-0.8,0.3l-97.8,56.1c-0.9,0.4-1.5,1.3-1.5,2.8
		c0,2.7,1.7,6,3.9,7.4c1.1,0.7,2.1,0.8,2.9,0.3l0,0l98.4-56.4l0-0.1c0.1-0.1,0.2-0.3,0.3-0.4l0.1,0.1l8.6-9.4l3.4-3.7L299.7,341.8z"
		/>
</g>
<g id="Ebene_1">
	<g>
		<path class="st1" d="M604,206.4L604,206.4v-7h-10L328.1,45.3c-8.1-4.7-20.5-5.2-27.6-1.1L115.7,150.9h-11.5v7.4c0,0,0,0,0,0v0.3h0
			c0,3.1,2.3,6.4,6.7,9l269.1,156c8.1,4.7,20.5,5.2,27.6,1.1l191.7-110.7C602.7,212.1,604.3,209.3,604,206.4z"/>
		<path class="st2" d="M597.3,191c8.1,4.7,9,11.9,2,15.9L407.5,317.6c-7,4.1-19.4,3.5-27.6-1.1l-269.1-156c-8.1-4.7-9-11.9-2-15.9
			L300.6,33.8c7-4.1,19.4-3.5,27.6,1.1L597.3,191z"/>
		<path class="st3" d="M405.8,316.6c-6.2,3.6-17.1,3.1-24.3-1l-269.1-156c-7.2-4.1-7.9-10.4-1.7-14L302.3,34.8
			c6.2-3.6,17.1-3.1,24.3,1l269.1,156c7.2,4.1,8,10.4,1.7,14L405.8,316.6z"/>
		<polygon class="st4" points="566.7,189 376.5,298.8 141.6,162.5 331.8,52.7 		"/>
		<path class="st5" d="M223.3,97.3c1.4,0.8,1.6,2.1,0.3,2.8c-1.2,0.7-3.4,0.6-4.8-0.2c-1.4-0.8-1.6-2.1-0.3-2.8
			C219.7,96.4,221.9,96.5,223.3,97.3z"/>
	</g>
	<polygon class="st6" points="389.4,111.5 236.6,199.7 236.6,178.4 250.5,156.7 264.4,131.1 278.3,124.2 292.1,104.5 309.2,102.6 
		322.7,78.4 337,61.5 350.9,49.5 361.6,45.2 375.5,23.3 389.4,0 	"/>
	<polygon class="st7" points="413.2,125.3 260.5,213.5 260.5,176.9 274.3,145.9 288.2,137.4 302.1,117.7 316,117.5 329.9,106.8 
		343.8,118.3 357.7,86.5 371.6,86.5 385.5,56.2 399.4,41.8 413.2,19.9 	"/>
	<linearGradient id="SVGID_1_" gradientUnits="userSpaceOnUse" x1="284.3325" y1="128.1635" x2="437.1204" y2="128.1635">
		<stop  offset="0" style="stop-color:#BA5C2B"/>
		<stop  offset="1" style="stop-color:#F5A543"/>
	</linearGradient>
	<polygon class="st8" points="437.1,139.1 284.3,227.3 284.3,192.7 298.2,166.6 312.1,171.5 326,151.7 339.9,144 353.8,124.2 
		367.7,123.5 381.6,79.6 395.5,80.6 409.3,64.2 423.2,45.2 437.1,29.1 	"/>
	<polygon class="st9" points="461,152.8 308.2,241.1 308.2,202.1 322.1,166.8 336,169.6 349.9,160.5 363.8,143.9 377.7,117.3 
		391.5,125.8 405.4,104.6 419.3,97.6 433.2,79.3 447.1,60 461,39.4 	"/>
	<g>
		<polygon class="st1" points="353.7,234.9 402.3,263.7 378.4,277.5 329.8,248.7 		"/>
		<polygon class="st1" points="384,217.5 432.5,246.2 408.6,260 360.1,231.3 		"/>
		<polygon class="st1" points="414.2,200 462.7,228.8 438.8,242.6 390.3,213.8 		"/>
		<polygon class="st1" points="444.4,182.6 493,211.3 469.1,225.1 420.5,196.4 		"/>
		<polygon class="st1" points="474.7,165.1 523.2,193.9 499.3,207.7 450.8,178.9 		"/>
	</g>
	<g>
		<path class="st10" d="M301.8,340.6l-11.2,12.1l-7.1-13.3l13.5-3.3C299.5,337.1,301,338.5,301.8,340.6z"/>
		<path class="st11" d="M306.2,335.8l-4.4,4.8c-0.8-2.1-2.3-3.5-4.7-4.5l6.4-1.6L306.2,335.8z"/>
		<path class="st12" d="M291.5,349.8c0.1-3.5-2.2-7.8-5.1-9.6c-1.5-0.9-2.9-1-3.8-0.3L189.2,394l7.4,13.5l93.6-54.3l-0.1-0.1
			C290.9,352.5,291.4,351.4,291.5,349.8z"/>
		<path class="st12" d="M291.5,349.8c0.1-3.5-2.2-7.8-5.1-9.6c-1.5-0.9-2.9-1-3.8-0.3L189.2,394l7.4,13.5l93.6-54.3l-0.1-0.1
			C290.9,352.5,291.4,351.4,291.5,349.8z"/>
		<path class="st13" d="M286.3,340.2c-1.5-0.9-2.9-1-3.8-0.3L189.2,394l3.3,6l96.9-56.7C288.5,342,287.5,340.9,286.3,340.2z"/>
		<path class="st10" d="M198.2,403.9c-0.1,3.5-2.4,4.9-5.3,3.1c-2.9-1.8-5.2-6.1-5.1-9.6c0.1-3.5,2.4-4.9,5.3-3.1
			C196,396.1,198.3,400.4,198.2,403.9z"/>
		<path class="st14" d="M195.6,402.3c0,1.8-1.2,2.5-2.7,1.6c-1.5-0.9-2.6-3.1-2.6-4.9c0-1.8,1.2-2.5,2.7-1.6
			C194.5,398.3,195.7,400.5,195.6,402.3z"/>
	</g>
	<g>
		<path class="st13" d="M160.7,151.4l31.4,18.1c8.2,4.8,20.7,5.3,27.8,1.2c7.1-4.1,6.2-11.3-2-16.1l-31.4-18.1L160.7,151.4z"/>
		<g>
			<path class="st5" d="M204.6,165.6c-1.8-0.1-3.6-0.5-5-1.4c-2.9-1.7-3.2-4.2-0.7-5.6c1.2-0.7,3-1,4.7-1l-0.4-2.9
				c-3-0.1-6,0.4-8.2,1.7c-4.3,2.5-3.8,6.8,1.2,9.7c2.5,1.4,5.6,2.2,8.7,2.4L204.6,165.6z"/>
			<path class="st5" d="M210.8,161.2c0.5,1.3,0.1,2.5-1.5,3.4c-0.3,0.2-0.6,0.3-0.9,0.4l0.4,3.2c1.6-0.3,3.1-0.7,4.3-1.4
				c2.7-1.5,3.5-3.8,2.5-5.9L210.8,161.2z"/>
		</g>
	</g>
</g>
<g id="Ebene_2">
	<g>
		<g>
			<polygon class="st15" points="16.1,339.7 125.8,402.6 274.3,317.5 274.3,299.5 164.6,257.8 16.1,321.7 			"/>
			<polygon class="st16" points="16.1,321.7 125.8,384.6 274.3,299.5 164.6,236.5 			"/>
			<g>
				<polygon class="st1" points="268.9,302.6 159.2,239.7 159.2,239.5 269,302.5 				"/>
				<polygon class="st1" points="260.8,307.3 151.1,244.3 151.1,244.2 260.9,307.1 				"/>
				<polygon class="st1" points="252.7,311.9 143,249 143,248.8 252.8,311.7 				"/>
				<polygon class="st1" points="244.6,316.6 134.9,253.6 134.9,253.5 244.7,316.4 				"/>
				<polygon class="st1" points="236.5,321.2 126.8,258.3 126.8,258.1 236.6,321 				"/>
				<polygon class="st1" points="228.4,325.8 118.7,262.9 118.7,262.8 228.5,325.7 				"/>
				<polygon class="st1" points="220.3,330.5 110.6,267.6 110.6,267.4 220.4,330.3 				"/>
				<polygon class="st1" points="212.2,335.1 102.5,272.2 102.5,272 212.3,335 				"/>
				<polygon class="st1" points="204.1,339.8 94.4,276.9 94.4,276.7 204.2,339.6 				"/>
				<polygon class="st1" points="196,344.4 86.3,281.5 86.3,281.3 196.1,344.3 				"/>
				<polygon class="st1" points="187.9,349.1 78.2,286.1 78.2,286 188,348.9 				"/>
				<polygon class="st1" points="179.8,353.7 70.1,290.8 70.1,290.6 179.9,353.6 				"/>
				<polygon class="st1" points="171.7,358.4 62,295.4 62,295.3 171.8,358.2 				"/>
				<polygon class="st1" points="163.6,363 53.9,300.1 53.9,299.9 163.7,362.8 				"/>
				<polygon class="st1" points="155.5,367.6 45.8,304.7 45.8,304.6 155.6,367.5 				"/>
				<polygon class="st1" points="147.4,372.3 37.7,309.4 37.7,309.2 147.5,372.1 				"/>
				<polygon class="st1" points="139.3,376.9 29.6,314 29.6,313.9 139.4,376.8 				"/>
				<polygon class="st1" points="131.2,381.6 21.4,318.7 21.5,318.5 131.3,381.4 				"/>
			</g>
			<polygon class="st1" points="111.3,376.3 111.3,376.2 259.8,291 259.8,291.2 			"/>
			<g>
				<polygon class="st13" points="125.8,402.6 274.3,317.5 274.3,313.9 125.8,399.1 				"/>
				<polygon class="st12" points="125.8,402.6 16.1,339.7 16.1,336.1 125.8,399.1 				"/>
			</g>
			<g>
				<path class="st17" d="M158.9,243.3c-0.9,0.5-0.9,1.3,0,1.8c0.9,0.5,2.3,0.5,3.2,0c0.9-0.5,0.9-1.3,0-1.8
					C161.2,242.8,159.8,242.8,158.9,243.3z"/>
				<path class="st17" d="M150.8,248c-0.9,0.5-0.9,1.3,0,1.8c0.9,0.5,2.3,0.5,3.2,0c0.9-0.5,0.9-1.3,0-1.8
					C153.1,247.5,151.7,247.5,150.8,248z"/>
				<ellipse class="st17" cx="144.3" cy="253.5" rx="2.2" ry="1.3"/>
				<path class="st17" d="M134.6,257.3c-0.9,0.5-0.9,1.3,0,1.8c0.9,0.5,2.3,0.5,3.2,0c0.9-0.5,0.9-1.3,0-1.8
					C136.9,256.8,135.5,256.8,134.6,257.3z"/>
				<path class="st17" d="M126.5,261.9c-0.9,0.5-0.9,1.3,0,1.8c0.9,0.5,2.3,0.5,3.2,0c0.9-0.5,0.9-1.3,0-1.8
					C128.8,261.4,127.4,261.4,126.5,261.9z"/>
				<path class="st17" d="M118.4,266.6c-0.9,0.5-0.9,1.3,0,1.8c0.9,0.5,2.3,0.5,3.2,0c0.9-0.5,0.9-1.3,0-1.8
					C120.7,266.1,119.3,266.1,118.4,266.6z"/>
				<path class="st17" d="M110.3,271.2c-0.9,0.5-0.9,1.3,0,1.8c0.9,0.5,2.3,0.5,3.2,0c0.9-0.5,0.9-1.3,0-1.8
					C112.6,270.7,111.2,270.7,110.3,271.2z"/>
				<path class="st17" d="M102.2,275.9c-0.9,0.5-0.9,1.3,0,1.8c0.9,0.5,2.3,0.5,3.2,0c0.9-0.5,0.9-1.3,0-1.8
					C104.5,275.4,103.1,275.4,102.2,275.9z"/>
				<path class="st17" d="M94.1,280.5c-0.9,0.5-0.9,1.3,0,1.8c0.9,0.5,2.3,0.5,3.2,0c0.9-0.5,0.9-1.3,0-1.8
					C96.4,280,95,280,94.1,280.5z"/>
				<path class="st17" d="M86,285.2c-0.9,0.5-0.9,1.3,0,1.8c0.9,0.5,2.3,0.5,3.2,0c0.9-0.5,0.9-1.3,0-1.8
					C88.3,284.7,86.9,284.7,86,285.2z"/>
				<path class="st17" d="M77.9,289.8c-0.9,0.5-0.9,1.3,0,1.8c0.9,0.5,2.3,0.5,3.2,0c0.9-0.5,0.9-1.3,0-1.8
					C80.2,289.3,78.8,289.3,77.9,289.8z"/>
				<path class="st17" d="M69.8,294.4c-0.9,0.5-0.9,1.3,0,1.8c0.9,0.5,2.3,0.5,3.2,0c0.9-0.5,0.9-1.3,0-1.8
					C72.1,293.9,70.7,293.9,69.8,294.4z"/>
				<path class="st17" d="M61.7,299.1c-0.9,0.5-0.9,1.3,0,1.8c0.9,0.5,2.3,0.5,3.2,0c0.9-0.5,0.9-1.3,0-1.8
					C64,298.6,62.6,298.6,61.7,299.1z"/>
				<path class="st17" d="M53.6,303.7c-0.9,0.5-0.9,1.3,0,1.8c0.9,0.5,2.3,0.5,3.2,0c0.9-0.5,0.9-1.3,0-1.8
					C55.9,303.2,54.5,303.2,53.6,303.7z"/>
				<path class="st17" d="M45.5,308.4c-0.9,0.5-0.9,1.3,0,1.8c0.9,0.5,2.3,0.5,3.2,0c0.9-0.5,0.9-1.3,0-1.8
					C47.8,307.9,46.4,307.9,45.5,308.4z"/>
				<path class="st17" d="M37.4,313c-0.9,0.5-0.9,1.3,0,1.8c0.9,0.5,2.3,0.5,3.2,0c0.9-0.5,0.9-1.3,0-1.8
					C39.7,312.5,38.3,312.5,37.4,313z"/>
				<path class="st17" d="M29.3,317.7c-0.9,0.5-0.9,1.3,0,1.8c0.9,0.5,2.3,0.5,3.2,0c0.9-0.5,0.9-1.3,0-1.8
					C31.6,317.2,30.2,317.2,29.3,317.7z"/>
			</g>
			<path class="st1" d="M159,243.9l1.2-0.3c0-0.2-0.9-5.5-4.5-5.5c-2.9,0-4.1,3.2-4.1,5.7l1.3-0.8c0-0.1,0.3-3.5,2.7-3.5
				C158.3,239.6,159,243.9,159,243.9z"/>
			<path class="st1" d="M150.9,248.5l1.2-0.3c0-0.2-0.9-5.5-4.5-5.5c-2.9,0-4.1,3.2-4.1,5.7l1.3-0.8c0-0.1,0.3-3.5,2.7-3.5
				C150.2,244.2,150.9,248.5,150.9,248.5z"/>
			<path class="st1" d="M142.9,253.2l1.2-0.3c0-0.2-0.9-5.5-4.5-5.5c-2.9,0-4.1,3.2-4.1,5.7l1.3-0.8c0-0.1,0.3-3.5,2.7-3.5
				C142.2,248.8,142.9,253.1,142.9,253.2z"/>
			<path class="st1" d="M134.9,257.8l1.2-0.3c0-0.2-0.9-5.5-4.5-5.5c-2.9,0-4.1,3.2-4.1,5.7l1.3-0.8c0-0.1,0.3-3.5,2.7-3.5
				C134.2,253.4,134.9,257.7,134.9,257.8z"/>
			<path class="st1" d="M126.8,262.4l1.2-0.3c0-0.2-0.9-5.5-4.5-5.5c-2.9,0-4.1,3.2-4.1,5.7l1.3-0.8c0-0.1,0.3-3.5,2.7-3.5
				C126.1,258.1,126.8,262.3,126.8,262.4z"/>
			<path class="st1" d="M118.8,267l1.2-0.3c0-0.2-0.9-5.5-4.5-5.5c-2.9,0-4.1,3.2-4.1,5.7l1.3-0.8c0-0.1,0.3-3.5,2.7-3.5
				C118.1,262.7,118.8,266.9,118.8,267z"/>
			<path class="st1" d="M110.7,271.6l1.2-0.3c0-0.2-0.9-5.5-4.5-5.5c-2.9,0-4.1,3.2-4.1,5.7l1.3-0.8c0-0.1,0.3-3.5,2.7-3.5
				C110,267.3,110.7,271.6,110.7,271.6z"/>
			<path class="st1" d="M102.7,276.2l1.2-0.3c0-0.2-0.9-5.5-4.5-5.5c-2.9,0-4.1,3.2-4.1,5.7l1.3-0.8c0-0.1,0.3-3.5,2.7-3.5
				C102,271.9,102.7,276.2,102.7,276.2z"/>
			<path class="st1" d="M94.7,280.8l1.2-0.3c0-0.2-0.9-5.5-4.5-5.5c-2.9,0-4.1,3.2-4.1,5.7l1.3-0.8c0-0.1,0.3-3.5,2.7-3.5
				C93.9,276.5,94.6,280.8,94.7,280.8z"/>
			<path class="st1" d="M86.6,285.4l1.2-0.3c0-0.2-0.9-5.5-4.5-5.5c-2.9,0-4.1,3.2-4.1,5.7l1.3-0.8c0-0.1,0.3-3.5,2.7-3.5
				C85.9,281.1,86.6,285.4,86.6,285.4z"/>
			<path class="st1" d="M78.6,290.1l1.2-0.3c0-0.2-0.9-5.5-4.5-5.5c-2.9,0-4.1,3.2-4.1,5.7l1.3-0.8c0-0.1,0.3-3.5,2.7-3.5
				C77.8,285.7,78.6,290,78.6,290.1z"/>
			<path class="st1" d="M70.6,294.7l1.2-0.3c0-0.2-0.9-5.5-4.5-5.5c-2.9,0-4.1,3.2-4.1,5.7l1.3-0.8c0-0.1,0.3-3.5,2.7-3.5
				C69.9,290.4,70.6,294.6,70.6,294.7z"/>
			<path class="st1" d="M62.5,299.3l1.2-0.3c0-0.2-0.9-5.5-4.5-5.5c-2.9,0-4.1,3.2-4.1,5.7l1.3-0.8c0-0.1,0.3-3.5,2.7-3.5
				C61.8,295,62.5,299.2,62.5,299.3z"/>
			<path class="st1" d="M54.4,303.9l1.2-0.3c0-0.2-0.9-5.5-4.5-5.5c-2.9,0-4.1,3.2-4.1,5.7l1.3-0.8c0-0.1,0.3-3.5,2.7-3.5
				C53.7,299.6,54.4,303.9,54.4,303.9z"/>
			<path class="st1" d="M46.3,308.5l1.2-0.3c0-0.2-0.9-5.5-4.5-5.5c-2.9,0-4.1,3.2-4.1,5.7l1.3-0.8c0-0.1,0.3-3.5,2.7-3.5
				C45.6,304.2,46.3,308.5,46.3,308.5z"/>
			<path class="st1" d="M37.9,313.3l1.2-0.3c0-0.2-0.9-5.5-4.5-5.5c-2.9,0-4.1,3.2-4.1,5.7l1.3-0.8c0-0.1,0.3-3.5,2.7-3.5
				C37.2,309,37.9,313.3,37.9,313.3z"/>
			<path class="st1" d="M29.7,318.1l1.2-0.3c0-0.2-0.9-5.5-4.5-5.5c-2.9,0-4.1,3.2-4.1,5.7l1.3-0.8c0-0.1,0.3-3.5,2.7-3.5
				C28.9,313.8,29.6,318,29.7,318.1z"/>
		</g>
		<polygon class="st18" points="125.8,399.1 274.3,313.9 274.3,299.5 125.8,384.6 		"/>
		<polygon class="st19" points="16.1,336.1 125.8,399.1 125.8,384.6 16.1,321.7 		"/>
		<polygon class="st18" points="16.1,324.7 125.8,387.6 125.8,384.6 16.1,321.7 		"/>
		<polygon class="st18" points="16.1,331.6 125.8,394.5 125.8,392.9 16.1,330.1 		"/>
		<polygon class="st18" points="274.3,302.5 125.8,387.6 125.8,384.6 274.3,299.5 		"/>
		<polyline class="st18" points="274.3,307.8 274.3,309.3 125.8,394.5 125.8,392.9 		"/>
	</g>
</g>
</svg>
