<?xml version="1.0" encoding="utf-8"?>
<!-- Generator: Adobe Illustrator 23.0.3, SVG Export Plug-In . SVG Version: 6.00 Build 0)  -->
<svg version="1.1" id="Layer_1" xmlns="http://www.w3.org/2000/svg" xmlns:xlink="http://www.w3.org/1999/xlink" x="0px" y="0px"
	 viewBox="0 0 293 274" style="enable-background:new 0 0 293 274;" xml:space="preserve">
<style type="text/css">
	.st0{opacity:0.6;fill:#1F2223;}
	.st1{fill:#FAD151;}
	.st2{fill:#F5A543;}
	.st3{fill:#FBDB76;}
	.st4{fill:#7D8489;}
	.st5{fill:#979DA1;}
	.st6{opacity:0.24;fill:#1F2223;}
	.st7{fill:#626465;}
	.st8{fill:#B0B4B7;}
	.st9{fill:#4C4E4F;}
</style>
<polygon class="st0" points="181.9,273.6 100.9,273.6 0,210.4 78.2,164.2 "/>
<g>
	<polygon class="st1" points="292.6,67.3 292.6,67.3 179.2,1.4 68,65.6 68,65.6 68,65.7 68,65.7 68,65.7 68.3,207.7 108,230.7 
		119.3,229.3 127.5,242.1 181.7,273.6 232.7,244 240.8,229.5 252.5,232.7 293,209.3 	"/>
	<g>
		<polygon class="st2" points="181.4,131.5 68,65.6 68.3,207.7 108,230.7 115.3,228.1 127.5,242.1 181.7,273.6 		"/>
	</g>
	<g>
		<polygon class="st3" points="292.6,67.3 179.2,1.4 68,65.7 181.4,131.6 		"/>
	</g>
	<polygon class="st4" points="252.2,90.6 252.5,232.7 232.7,244 232.7,101.9 	"/>
	<polyline class="st5" points="232.7,101.9 119.3,36 138.7,24.7 252.1,90.6 252.1,90.7 252.2,90.6 	"/>
	<polygon class="st5" points="219.4,24.8 238.8,36 127.8,100.5 108.4,89.3 108.4,89.3 	"/>
	<polyline class="st4" points="127.8,100.5 127.5,242.1 108,230.7 108.4,89.3 108.4,89.3 	"/>
</g>
<path class="st6" d="M241,70.6c0.9,5.3,0.9,11.6,0.9,11.6s-40.5,7.6-60.9-9.3l-2.6-2.2c0,0-25,22.6-55.3,16.8L118.3,71
	c0,0,4.4-4,12.5-5.8c0,0-8.9-4.4-12.9-13.3L142.9,36c0,0,19.4,13.7,20.3,14.6c0.9,0.9,9.3,3.6,9.3,3.6s-3.1-0.9,4.9-11.6
	c8-10.7,26.7-4,16.5,12.9c-10.2,16.9,15.1,13.8,23.6,14.2C225.9,70.1,241,70.6,241,70.6z"/>
<g>
	<g>
		<path class="st7" d="M217.2,9.6c7.1,2.7-2.5,34.4-38.5,60.6c0,0,40.4-52.4,13.2-69.1c0,0,6.2,4.8,13.7,7.3
			C209.4,9.6,214.9,8.7,217.2,9.6z"/>
		<path class="st5" d="M217.2,9.6c-19.3,8.8-28.9,21.8-33.8,33.5c-6,14.6-4.4,27.3-4.4,27.3c-7.4-17.1-7.8-31-5.2-41.6
			c4.7-19.2,19-28.4,19-28.4s6.1,3.4,10.6,4.9C207.9,6.8,217.2,9.6,217.2,9.6z"/>
		<path class="st7" d="M179,70.4c-7.4-17.1-7.8-31-5.2-41.6c-1.1,5.9,7.8,14.2,9.6,14.4C177.5,57.8,179,70.4,179,70.4z"/>
		<path class="st7" d="M116.1,35c-3.8,1.3,16.2,34.6,63.2,35.1c0,0-58.6-33.3-42.6-55.7C136.6,14.4,130.1,30.2,116.1,35z"/>
		<path class="st8" d="M116.2,35.1c4.1-0.1,8.1,0.2,12.2,0.9c1.3,0.2,2.5,0.5,3.8,0.8c1,0.2,2,0.5,2.9,0.7c0.1,0,0.3,0.1,0.4,0.1
			c0.2,0,0.3,0.1,0.5,0.1c8.1,2.3,15.6,5.9,22,9.9c4.1,2.5,7.6,5.2,10.6,7.8c8.4,7.4,10.2,14.7,10.2,14.7c-0.1-5.8-0.1-8.5-0.6-12.3
			c-1.2-10.3-6.4-18.6-12.7-25.1c-3.6-3.6-7.5-6.7-11.2-9.2c-0.7-0.5-1.4-0.9-2.1-1.4c-0.4-0.3-0.9-0.5-1.3-0.8
			c-0.2-0.1-0.5-0.3-0.7-0.4c-0.7-0.4-1.3-0.8-2-1.1c-6.5-3.6-11.5-5.3-11.5-5.3s-4.1,5.2-10,11.6C121.1,32.4,116.2,35.1,116.2,35.1
			z"/>
	</g>
</g>
<path class="st7" d="M219.7,78.9c-12.1,0.5-26.7-1.7-41.3-10.1c0,0,29.4-0.7,49.6-10.6c7.7-3.7,14-8.8,16.9-15.7c0,0,0,21.6,3.1,26
	C249.9,71.2,237.6,78.1,219.7,78.9z"/>
<path class="st9" d="M219.7,78.9c3-6.5,6-13.8,8.3-20.7c7.7-3.7,14-8.8,16.9-15.7c0,0,0,21.6,3.1,26
	C249.9,71.2,237.6,78.1,219.7,78.9z"/>
<path class="st8" d="M248,68.5c-3.3-2.3-6.8-4-10.4-5.3c-15.6-5.8-32.4-3.3-44.1,0c-7.6,2.1-12.7,4.9-14.3,5.6
	c-0.3,0.1-0.4,0.2-0.4,0.2c0.2-0.3,0.3-0.8,0.5-1.1c6.1-9.3,13.1-15.6,20.4-19.7c11.4-6.3,23.1-7.6,31.8-7.4
	c8,0.2,13.4,1.6,13.4,1.6L248,68.5z"/>
<path class="st7" d="M128.5,81.7c0.1,6.1,26.8,6,50.6-11.9c0,0-44.4,15.3-50.3-9.6C128.8,60.2,128.4,75.6,128.5,81.7z"/>
<path class="st5" d="M178.9,70.1c0,0-8.1-5-20.2-3.8c-5,0.5-10.7,2-16.7,5.2c-4.4,2.4-8.9,5.6-13.6,10.2l-0.5-21
	c0,0,2.5-1.7,6.7-3.2c5.8-2.1,14.7-3.8,24.8-0.6C165.7,59,172.3,63.1,178.9,70.1z"/>
</svg>
