<?xml version="1.0" encoding="utf-8"?>
<!-- Generator: Adobe Illustrator 23.0.3, SVG Export Plug-In . SVG Version: 6.00 Build 0)  -->
<svg version="1.1" id="Ebene_1" xmlns="http://www.w3.org/2000/svg" xmlns:xlink="http://www.w3.org/1999/xlink" x="0px" y="0px"
	 viewBox="0 0 495 325" style="enable-background:new 0 0 495 325;" xml:space="preserve">
<style type="text/css">
	.st0{opacity:0.6;fill:#1F2223;}
	.st1{fill:#C7CED3;}
	.st2{fill:#6B6D6E;}
	.st3{fill:#2E3133;}
	.st4{fill:#F7F8F8;}
	.st5{fill:#1F2223;}
	.st6{opacity:0.8;fill:#FAD151;}
	.st7{opacity:0.8;fill:#F5A543;}
	.st8{opacity:0.9;fill:url(#SVGID_1_);}
	.st9{opacity:0.6;fill:#2E3133;}
</style>
<g>
	<path class="st0" d="M307.8,321.9c-5.4,3.1-14.8,2.7-21.1-0.9L5.1,158.5c-6.2-3.6-6.9-9-1.5-12.2l166.5-96.1
		c5.4-3.1,14.8-2.7,21.1,0.9l281.6,162.6c6.2,3.6,6.9,9.1,1.5,12.2L307.8,321.9z"/>
	<path class="st1" d="M495,209.5L495,209.5v-6.2h-8.8l-283-163.4c-7.2-4.1-18.1-4.6-24.3-1L15.9,133H5.7v6.6c0,0,0,0,0,0v0.2h0
		c0,2.8,2,5.7,5.9,7.9l285.9,165.1c7.2,4.1,18.1,4.6,24.3,1l169-97.6C493.9,214.5,495.2,212,495,209.5z"/>
	<path class="st2" d="M489.1,195.9c7.2,4.1,7.9,10.4,1.7,14l-169,97.6c-6.2,3.6-17.1,3.1-24.3-1L11.6,141.4
		c-7.2-4.1-7.9-10.5-1.8-14l169-97.6c6.2-3.6,17.1-3.1,24.3,1L489.1,195.9z"/>
	<path class="st3" d="M320.2,306.6c-5.5,3.2-15.1,2.8-21.4-0.9L13,140.6c-6.3-3.6-7-9.2-1.5-12.3l169-97.6
		c5.5-3.2,15.1-2.8,21.4,0.9l285.9,165.1c6.3,3.7,7,9.2,1.5,12.3L320.2,306.6z"/>
	<polygon class="st4" points="462.2,194.1 294.5,291 38.7,143.3 206.4,46.5 	"/>
	<path class="st5" d="M110.8,85.8c1.3,0.7,1.4,1.8,0.3,2.5c-1.1,0.6-3,0.5-4.3-0.2c-1.3-0.7-1.4-1.8-0.3-2.5
		C107.6,85,109.5,85.1,110.8,85.8z"/>
	<polygon class="st1" points="225.7,207.1 291.6,245.1 270.5,257.3 204.6,219.3 	"/>
	<polygon class="st1" points="252.4,191.7 318.2,229.8 297.2,241.9 231.3,203.9 	"/>
	<polygon class="st1" points="279,176.4 344.9,214.4 323.8,226.5 258,188.5 	"/>
	<polygon class="st1" points="305.7,161 371.5,199 350.5,211.1 284.6,173.1 	"/>
	<polygon class="st1" points="332.3,145.6 398.2,183.6 377.1,195.8 311.3,157.7 	"/>
	<polygon class="st6" points="259.6,99.4 124.8,177.2 124.8,158.4 137,139.3 149.3,116.7 161.5,110.5 173.8,93.2 188.8,91.5 
		200.8,70.2 213.4,55.3 225.6,44.6 235.1,40.9 247.3,21.6 259.6,1 	"/>
	<polygon class="st7" points="280.6,111.5 145.8,189.4 145.8,157.1 158.1,129.7 170.3,122.2 182.6,104.8 194.8,104.6 207.1,95.2 
		219.4,105.4 231.6,77.3 243.9,77.3 256.1,50.6 268.4,37.9 280.6,18.5 	"/>
	<linearGradient id="SVGID_1_" gradientUnits="userSpaceOnUse" x1="166.8926" y1="114.0692" x2="301.7149" y2="114.0692">
		<stop  offset="0" style="stop-color:#BA5C2B"/>
		<stop  offset="1" style="stop-color:#F5A543"/>
	</linearGradient>
	<polygon class="st8" points="301.7,123.7 166.9,201.5 166.9,171 179.1,147.9 191.4,152.3 203.7,134.9 215.9,128 228.2,110.6 
		240.4,109.9 252.7,71.2 264.9,72.1 277.2,57.7 289.5,40.9 301.7,26.6 	"/>
	<polygon class="st9" points="322.8,135.8 188,213.7 188,179.3 200.2,148.1 212.5,150.6 224.7,142.6 237,127.9 249.2,104.5 
		261.5,112 273.8,93.3 286,87.1 298.3,70.9 310.5,54 322.8,35.7 	"/>
</g>
</svg>
