<?xml version="1.0" encoding="utf-8"?>
<!-- Generator: Adobe Illustrator 23.0.3, SVG Export Plug-In . SVG Version: 6.00 Build 0)  -->
<svg version="1.1" xmlns="http://www.w3.org/2000/svg" xmlns:xlink="http://www.w3.org/1999/xlink" x="0px" y="0px"
	 viewBox="0 0 604 390" style="enable-background:new 0 0 604 390;" xml:space="preserve">
<style type="text/css">
	.st0{opacity:0.6;}
	.st1{fill:#1F2223;}
	.st2{opacity:0.6;fill:#1F2223;}
	.st3{fill:#969CA0;}
	.st4{fill:#626A70;}
	.st5{fill:#A78A55;}
	.st6{fill:#F9F5C6;}
	.st7{fill:#6E6E6E;}
	.st8{fill:#D2D2D2;}
	.st9{fill:#BBC9CA;}
	.st10{fill:#818A8B;}
	.st11{fill:#9F3762;}
	.st12{fill:#B6537D;}
	.st13{fill:#DAB889;}
	.st14{fill:#BB8F56;}
	.st15{fill:#CCA574;}
	.st16{fill:#DFCDA0;}
	.st17{fill:#FAD151;}
	.st18{fill:#FBDB76;}
	.st19{fill:#F5A543;}
	.st20{fill:#595956;}
	.st21{fill:#8C8D88;}
	.st22{fill:#D284A6;}
	.st23{fill:#CC7499;}
	.st24{fill:#7D8489;}
	.st25{fill:#494949;}
	.st26{opacity:0.2;}
	.st27{fill:#422E1C;}
	.st28{fill:#5E412F;}
	.st29{fill:#FFFFFF;}
	.st30{fill:#F4DAB3;}
	.st31{fill:#E0E4E7;}
	.st32{fill:#C7CED3;}
	.st33{fill:#7B543D;}
	.st34{enable-background:new    ;}
	.st35{fill:#6B461F;}
</style>
<g id="Ebene_4">
	<g class="st0">
		<path class="st1" d="M343.8,283c-42,24.3-42.3,63.6-0.5,87.9c41.8,24.3,109.7,24.3,151.8,0c42-24.3,42.3-63.6,0.5-87.9
			C453.8,258.7,385.8,258.7,343.8,283z"/>
	</g>
	<g class="st0">
		<path class="st1" d="M470.7,203.6c-21.3,15-19.6,36,3.9,47c23.5,11,59.8,7.8,81.1-7.2c21.3-15,19.6-36-3.9-47
			C528.3,185.4,492,188.6,470.7,203.6z"/>
	</g>
	<polygon class="st2" points="0,277.2 152.8,365.2 368.9,240.8 216.2,152.8 0,277.2 	"/>
</g>
<g id="Ebene_3">
	<path class="st3" d="M560.8,79.2c-23.3-13.4-61-13.4-84.2,0c-23.3,13.4-23.3,35.2,0,48.6c23.3,13.4,61,13.4,84.2,0
		C584,114.4,584,92.6,560.8,79.2z M554.6,124.2c-19.9,11.5-52,11.5-71.9,0c-19.9-11.5-19.9-30,0-41.5c19.9-11.5,52-11.5,71.9,0
		C574.5,94.2,574.5,112.8,554.6,124.2z"/>
	<ellipse class="st4" cx="518.7" cy="103.5" rx="50.8" ry="29.4"/>
	<g>
		<g>
			<path class="st1" d="M520.8,208.4l-11.4-4.9l1.1-4.8c2.1-8.7,4.8-17.1,8.3-25.3l32.6-76.5l17.2,7.3l-32.6,76.5
				c-3.5,8.2-7.6,16-12.5,23.5L520.8,208.4z"/>
			
				<rect x="556" y="93.9" transform="matrix(0.3917 -0.9201 0.9201 0.3917 244.9553 576.8975)" class="st5" width="5.7" height="18.6"/>
			
				<rect x="554.6" y="99" transform="matrix(0.3918 -0.9201 0.9201 0.3918 244.5414 574.671)" class="st6" width="4.5" height="6.7"/>
			<path class="st5" d="M603.9,40.1c0.4-1.3-0.2-2.8-1.5-3.4l-2.7-1.2c-1.4-0.6-3,0-3.6,1.4l-2.5,5.6c-0.1,0-5.2,11.1-5.2,11.1
				c0.8-1.9,3-2.7,4.9-1.8c1.8,0.8,2.6,2.9,1.8,4.7c-2.3,6.2-5.1,13-8.3,20.2c-2.2,4.7-4.3,9.2-6.5,13.4c-0.9-1.6-3.1-1.9-4.4-0.7
				l-0.9,1c-2.5,3-2.9,7.3-1.2,10.8l0.5,1.2c0.2,0.4,0.5,0.8,0.9,1c0.8,0.4,1.8,0.1,2.3-0.7c4-6.7,8.3-15.1,12.6-24.4
				C597.1,62.9,602.1,48.8,603.9,40.1z"/>
			<path class="st6" d="M602.7,39.9c0.2-0.9,0.3-1.9-0.4-2c-0.5,0-0.6,0.8-0.8,1.8c-0.8,3.6-1,5.4-5.2,17.3
				c-2.3,6.5-5.2,13.3-8.4,20.3c-2.1,4.6-4.3,9.1-6.5,13.4c0,0-0.8,1.5-1,1.9c-1.9,3.6-2.5,4.8-4.8,8.8c-0.3,0.6,0.1,0.8,0.2,0.9
				c0.3,0.1,0.6,0,0.7-0.2c4.1-7,8.4-15.4,12.5-24.3C595.7,63,600.8,48.8,602.7,39.9z"/>
			<path class="st1" d="M598.3,30.9l-14.8-6.3c0,0-8.5,17.2-11.2,23.1c-5.5,12.2-21,49.2-21,49.2l17.2,7.3c0,0,16-36.8,21-49.2
				C591.8,49,598.3,30.9,598.3,30.9z"/>
			<path class="st5" d="M599,21.7l-9.4-4c-1.1-0.5-2.3,0-2.9,1l-3.2,5.9l14.8,6.3l2-6.4C600.7,23.4,600.1,22.2,599,21.7z"/>
			<path class="st6" d="M589.2,18l-3.1,7.3l6.1,2.6l3.1-7.4l-5.9-2.5C589.4,18,589.3,18,589.2,18z"/>
			<polygon class="st5" points="509.3,224.1 505.9,222.7 509.3,203.5 520.8,208.4 			"/>
			<polygon class="st6" points="507.3,222.7 506.9,222.6 511.1,205.1 514.2,206.5 			"/>
			<path class="st7" d="M505.7,228c-0.4-0.2-0.6-0.6-0.4-1l1.1-4.2l2.7,1.1l-2.3,3.7C506.5,228,506,228.2,505.7,228z"/>
			<path class="st8" d="M507.4,223.5l-0.7-0.3l-1.3,4.2c0,0.2,0.1,0.3,0.2,0.4L507.4,223.5z"/>
			<path class="st6" d="M579.6,91.4c-0.6-0.8-3.1-0.1-4.4,2.8c-1.3,2.9-0.9,4.9-0.5,6.5C576.1,98.1,579.6,91.4,579.6,91.4z"/>
			<path class="st6" d="M594.7,44.2c0.8-2.2,2.1-6,2.8-6.7c0.7-0.7,1.5-0.8,2.3-0.3c0.6,0.4,0.9,1.1,0.6,2.8
				c-0.3,1.6-1.6,5.4-1.7,5.7C598.3,44.4,596,43.3,594.7,44.2z"/>
		</g>
		<g>
			<polygon class="st9" points="518.6,194.6 517.7,201.9 503.4,199.9 504.3,192.5 			"/>
			<g>
				<polygon class="st10" points="518.1,199.2 517.9,200.2 503.6,198.1 503.7,197.2 				"/>
				<polygon class="st10" points="518.4,196.3 518.3,197.3 503.9,195.3 504.1,194.3 				"/>
			</g>
			<path class="st11" d="M513.9,210.1l-8.9-1.3c-1.5-0.2-2.6-1.6-2.4-3.2l0.7-5.7l14.4,2l-0.7,5.7
				C516.8,209.2,515.4,210.3,513.9,210.1z"/>
			<path class="st12" d="M505.1,208.2c-1.2-0.2-2-1.3-1.9-2.5l0.7-5.7l13.2,1.9l-0.7,5.7c-0.2,1.2-1.2,2.1-2.4,1.9L505.1,208.2z"/>
			<g>
				<polygon class="st13" points="526.4,14.6 535.6,0 531.2,15.3 				"/>
				<polygon class="st14" points="540.8,16.7 536,16 535.6,0 				"/>
				<polygon class="st15" points="536,16 531.2,15.3 535.6,0 				"/>
			</g>
			<path class="st16" d="M540.8,16.7L536,16l-4.8-0.7l-4.8-0.7c0,0,1.2-1.9,1.2-1.9c0.4-0.2,0.9-0.3,1.5-0.2
				c1.3,0.2,2.3,1.2,2.1,2.3c0.1-1.1,1.3-1.8,2.6-1.6c1.3,0.2,2.3,1.2,2.2,2.3c0.1-1.1,1.3-1.8,2.6-1.6c0.5,0.1,1,0.3,1.4,0.6
				L540.8,16.7z"/>
			<g>
				<polygon class="st17" points="536,16 531.2,15.3 509.1,193.2 513.9,193.9 				"/>
				<path class="st17" d="M536,16c0.1-1.1-0.8-2.1-2.1-2.3c-1.3-0.2-2.5,0.5-2.6,1.6c-0.1,1.1,0.8,2.1,2.2,2.3
					C534.7,17.8,535.9,17,536,16z"/>
			</g>
			<g>
				<polygon class="st18" points="531.2,15.3 526.4,14.6 504.3,192.5 509.1,193.2 				"/>
				<path class="st18" d="M526.4,14.6c0,0,0.7-1.2,0.7-1.2c0.5-0.4,1.2-0.5,1.9-0.4c1.3,0.2,2.3,1.2,2.2,2.3L526.4,14.6z"/>
			</g>
			<g>
				<polygon class="st19" points="540.8,16.7 536,16 513.9,193.9 518.6,194.6 				"/>
				<path class="st19" d="M540.8,16.7L536,16c0.1-1.1,1.3-1.8,2.6-1.6c0.7,0.1,1.3,0.5,1.7,0.9L540.8,16.7z"/>
			</g>
			<polygon class="st20" points="535.6,0 537.5,6.2 532.2,5.4 			"/>
			<polygon class="st21" points="535.6,0 534.8,5.8 533.2,5.6 			"/>
			<path class="st22" d="M503.2,205.7l0.7-5.7l4.2,0.6l-1,7.9l-2.1-0.3C503.9,208,503.1,206.9,503.2,205.7z"/>
			<path class="st11" d="M512.9,201.2l4.2,0.6l-0.7,5.7c-0.2,1.2-1.2,2.1-2.4,1.9l-2.1-0.3L512.9,201.2z"/>
			<path class="st23" d="M515.3,201.6l1.8,0.3l-0.7,5.7c-0.1,1.1-1,1.9-2.1,1.9L515.3,201.6z"/>
		</g>
		<g>
			
				<rect x="492.1" y="214.2" transform="matrix(0.9808 -0.1951 0.1951 0.9808 -32.9574 101.7558)" class="st9" width="15.9" height="7.9"/>
			<g>
				
					<rect x="492.4" y="219.1" transform="matrix(0.9808 -0.1949 0.1949 0.9808 -33.2176 101.721)" class="st10" width="15.9" height="1.1"/>
				
					<rect x="491.8" y="216.1" transform="matrix(0.9808 -0.1949 0.1949 0.9808 -32.644 101.5472)" class="st10" width="15.9" height="1.1"/>
			</g>
			<path class="st11" d="M507.4,230l-9.7,1.9c-1.6,0.3-3.2-0.7-3.5-2.4l-1.2-6l15.6-3.1l1.2,6C510.1,228.1,509,229.7,507.4,230z"/>
			<path class="st12" d="M497.6,231.3c-1.3,0.3-2.5-0.6-2.8-1.9l-1.2-6l14.3-2.8l1.2,6c0.3,1.3-0.6,2.5-1.9,2.8L497.6,231.3z"/>
			<g>
				<polygon class="st13" points="454.2,29.3 458.7,11.3 459.4,28.2 				"/>
				<polygon class="st14" points="469.7,26.2 464.6,27.2 458.7,11.3 				"/>
				<polygon class="st15" points="464.6,27.2 459.4,28.2 458.7,11.3 				"/>
			</g>
			<path class="st16" d="M469.7,26.2l-5.2,1l-5.2,1l-5.2,1c0,0,0.6-2.4,0.6-2.4c0.4-0.3,0.9-0.6,1.5-0.7c1.4-0.3,2.8,0.4,3,1.5
				c-0.2-1.1,0.8-2.3,2.2-2.5c1.4-0.3,2.8,0.4,3,1.5c-0.2-1.1,0.8-2.3,2.2-2.5c0.6-0.1,1.2-0.1,1.6,0.1L469.7,26.2z"/>
			<g>
				
					<rect x="478" y="25.9" transform="matrix(0.9808 -0.1951 0.1951 0.9808 -14.3717 96.076)" class="st17" width="5.3" height="190.3"/>
				<path class="st17" d="M464.6,27.2c-0.2-1.1-1.6-1.8-3-1.5c-1.4,0.3-2.4,1.4-2.2,2.5c0.2,1.1,1.6,1.8,3,1.5
					C463.8,29.4,464.8,28.3,464.6,27.2z"/>
			</g>
			<g>
				
					<rect x="472.8" y="26.9" transform="matrix(0.9808 -0.195 0.195 0.9808 -14.6708 95.0484)" class="st18" width="5.3" height="190.3"/>
				<path class="st18" d="M454.2,29.3c0,0,0.4-1.4,0.4-1.4c0.4-0.5,1-1,1.8-1.1c1.4-0.3,2.8,0.4,3,1.5L454.2,29.3z"/>
			</g>
			<g>
				<polygon class="st19" points="469.7,26.2 464.6,27.2 501.9,213.8 507,212.8 				"/>
				<path class="st19" d="M469.7,26.2l-5.2,1c-0.2-1.1,0.8-2.3,2.2-2.5c0.8-0.2,1.5,0,2.1,0.3L469.7,26.2z"/>
			</g>
			<polygon class="st20" points="458.7,11.3 462.8,16.8 457,18 			"/>
			<polygon class="st21" points="458.7,11.3 459.9,17.4 458.1,17.7 			"/>
			<path class="st22" d="M494.8,229.5l-1.2-6l4.6-0.9l1.7,8.3l-2.2,0.4C496.3,231.6,495.1,230.7,494.8,229.5z"/>
			<path class="st11" d="M503.4,221.5l4.6-0.9l1.2,6c0.3,1.3-0.6,2.5-1.9,2.8l-2.2,0.4L503.4,221.5z"/>
			<path class="st23" d="M506,221l2-0.4l1.2,6c0.2,1.2-0.4,2.3-1.5,2.7L506,221z"/>
		</g>
	</g>
	<path class="st24" d="M465.4,122.4v98.1c0,7.9,5.2,15.7,15.6,21.7c20.8,12,54.5,12,75.3,0c10.4-6,15.6-13.9,15.6-21.7v-98.1
		c0,0-14.3,18.9-53.2,18.9S465.4,122.4,465.4,122.4z"/>
	<path class="st25" d="M560.8,127.8c-23.3,13.4-61,13.4-84.2,0c-11.6-6.7-17.4-15.5-17.4-24.3v6.8c0,8.8,5.8,17.6,17.4,24.3
		c23.3,13.4,61,13.4,84.2,0c11.6-6.7,17.4-15.5,17.4-24.3v-6.8C578.2,112.3,572.4,121.1,560.8,127.8z"/>
	<path class="st26" d="M560.8,134.6c-23.3,13.4-61,13.4-84.2,0c-4.7-2.7-8.3-5.7-11.1-8.9v4c2.8,3.2,6.5,6.2,11.1,8.9
		c23.3,13.4,61,13.4,84.2,0c4.7-2.7,8.3-5.7,11.1-8.9v-4C569.1,128.9,565.4,131.9,560.8,134.6z"/>
	<path class="st24" d="M560.8,127.8c-23.3,13.4-61,13.4-84.2,0c-11.6-6.7-17.4-15.5-17.4-24.3v6.8c0,8.8,5.8,17.6,17.4,24.3
		c23.3,13.4,61,13.4,84.2,0c11.6-6.7,17.4-15.5,17.4-24.3v-6.8C578.2,112.3,572.4,121.1,560.8,127.8z"/>
	<path class="st3" d="M569.5,103.5c0,7.5-5,15-14.9,20.8c-19.9,11.5-52,11.5-71.9,0c-9.9-5.7-14.9-13.2-14.9-20.8h-8.7
		c0,8.8,5.8,17.6,17.4,24.3c23.3,13.4,61,13.4,84.2,0c11.6-6.7,17.4-15.5,17.4-24.3H569.5z"/>
</g>
<g id="Ebene_2">
	<polygon class="st27" points="396.4,225.8 396.4,219.5 180.3,343.9 180.3,350.2 396.4,225.8 	"/>
	<path class="st28" d="M243.7,95.4l-1.1-6.4L26.4,213.5c0.3-0.1,0.5-0.1,0.7,0.1v0.1c0.2,0,0.4,0.1,0.6,0.2l-0.2,5.9
		c-3.5,8.3-3.5,20.4,0,36l11.1-6.3v-26.3l-9.1-4.5L243.7,95.4L243.7,95.4z"/>
	<path class="st27" d="M27.1,213.6c-0.3-0.2-0.5-0.2-0.7-0.1c-0.3,0-0.6,0.1-0.8,0.4c-0.6,0.5-1.2,1.3-1.7,2.2
		c-2.4,4.9-3.6,11-3.5,18.4c0,7.5,1.2,15.5,3.7,24.1c0.6,1.6,1.5,2.6,2.7,3.2c0.3,0.1,0.5,0.3,0.7,0.4v-6.3c-3.5-15.6-3.5-27.7,0-36
		l0.2-5.9c-0.2-0.1-0.4-0.2-0.6-0.2V213.6L27.1,213.6z"/>
	<polygon class="st28" points="38.6,249.5 27.5,255.8 180.3,343.9 396.4,219.5 243.7,131.5 38.6,249.5 	"/>
	<polygon class="st27" points="27.5,255.8 27.5,262.2 180.3,350.2 180.3,343.9 27.5,255.8 	"/>
	<path class="st29" d="M387.3,219.6c-5.4-13.4-5.9-25.6-1.5-36.4L355,201L178.6,302.4c-4.4,10.8-4,22.9,1.5,36.4L387.3,219.6
		L387.3,219.6z"/>
	<path class="st30" d="M355,201l30.9-17.8L238.6,98.2c-2.5,13.1-2.5,25,0,35.9L355,201L355,201z"/>
	<path class="st31" d="M32.3,217.9l-0.9-0.5c-2.5,13.1-2.5,25,0,35.9l0.9,0.5C29.8,242.9,29.8,230.9,32.3,217.9L32.3,217.9z"/>
	<path class="st31" d="M46.2,226L35,219.5c-3.2,12.4-3.2,24.3,0,35.9l145.1,83.4c-5.4-13.4-5.9-25.6-1.5-36.4L46.2,226L46.2,226z"/>
	<path class="st32" d="M32.3,253.8l2.8,1.6c-3.2-11.6-3.2-23.6,0-35.9l-2.8-1.6C29.8,230.9,29.8,242.9,32.3,253.8L32.3,253.8z"/>
	<polygon class="st27" points="396.4,183.6 396.4,177.2 180.3,301.6 180.3,307.9 396.4,183.6 	"/>
	<polygon class="st27" points="27.5,213.6 27.5,219.9 180.3,307.9 180.3,301.6 27.5,213.6 	"/>
	<polygon class="st28" points="26,213.6 180.3,301.6 396.4,177.2 242.9,88.7 26.7,213.1 	"/>
	<polygon class="st17" points="260.1,98.6 42.9,223.5 42.9,257.1 51.4,252.8 61.7,267.9 61.7,234.3 278.8,109.4 	"/>
	<polygon class="st19" points="42.9,223.5 61.7,234.3 61.7,267.9 51.4,252.8 42.9,257.1 	"/>
	<polygon class="st33" points="248.4,91.4 31.3,216.4 33,217.9 250.2,93 	"/>
</g>
<g id="COFFEE_CUP">
	<g>
		<g>
			<g class="st34">
				<g>
					<path class="st31" d="M326.2,311.2l0,3.7c0,15.8,10.4,31.6,31.2,43.7c41.8,24.3,109.7,24.3,151.8,0
						c21.2-12.2,31.7-28.3,31.7-44.3l0-3.7c0,16-10.5,32-31.7,44.3c-42,24.3-110,24.3-151.8,0C336.7,342.8,326.3,327,326.2,311.2z"
						/>
				</g>
				<g>
					<path class="st29" d="M357.9,267c-42,24.3-42.3,63.6-0.5,87.9c41.8,24.3,109.7,24.3,151.8,0c42-24.3,42.3-63.6,0.5-87.9
						C467.9,242.7,400,242.7,357.9,267z"/>
				</g>
			</g>
		</g>
		
			<ellipse transform="matrix(0.9963 -8.582672e-02 8.582672e-02 0.9963 -25.3466 37.1544)" class="st32" cx="419.4" cy="313.4" rx="60.2" ry="24.9"/>
		<g>
			<g class="st34">
				<g>
					<polygon class="st29" points="371,263.8 379.1,259.2 384,253.9 376,258.6 					"/>
				</g>
				<g>
					<path class="st29" d="M349.8,215.8c0,4.1,1.7,9,4.6,13l21.5,29.8l8.1-4.7l-21.5-29.8c-2.9-4-4.7-8.9-4.6-13
						c0-3.5,1.2-5.9,3.2-7l-8.1,4.7C351,209.9,349.8,212.3,349.8,215.8z"/>
				</g>
				<g>
					<polygon class="st29" points="373.6,216.9 381.7,212.2 381.7,202.3 373.6,207 					"/>
				</g>
				<g>
					<path class="st29" d="M346.9,198.3c3.6-2.1,8.5-1.8,13.9,1.4l12.8,7.4l8.1-4.7l-12.8-7.4c-5.4-3.1-10.4-3.4-13.9-1.4
						L346.9,198.3z"/>
				</g>
				<g>
					<path class="st31" d="M360.8,199.6c-10.8-6.2-19.6-1.2-19.6,11.2c0,7.3,3.1,16,8.3,23.2l21.5,29.8l5-5.2l-21.5-29.8
						c-2.9-4-4.7-8.9-4.6-13c0-7,5-9.8,11-6.3l12.8,7.4l0-9.9L360.8,199.6z"/>
				</g>
			</g>
		</g>
		<g>
			<path class="st31" d="M508.8,232c0,41.5-19.5,101.1-75.2,101.1c-55.7,0-75.2-59.6-75.2-101.1H508.8z"/>
			<ellipse class="st29" cx="433.6" cy="233.3" rx="75.2" ry="43.4"/>
			<path class="st31" d="M367.9,242.2c0.1,0.2,0.2,0.5,0.3,0.7c2.9,6.5,8.8,12.7,17.6,17.8c26.3,15.2,69,15.2,95.4,0
				c2.3-1.3,4.4-2.7,6.3-4.2c5.4-4.2,9.2-8.8,11.3-13.7c0.1-0.2,0.2-0.5,0.3-0.7c5.2-12.7-0.8-26.6-17.9-36.5
				c-26.3-15.2-69-15.2-95.4,0C368.7,215.6,362.7,229.5,367.9,242.2z"/>
			<g>
				<path class="st35" d="M367.9,242.2c0.1,0.2,0.2,0.5,0.3,0.7c2.9,6.5,8.8,12.7,17.6,17.8c26.3,15.2,69,15.2,95.4,0
					c2.3-1.3,4.4-2.7,6.3-4.2c5.4-4.2,9.2-8.8,11.3-13.7c0.1-0.2,0.2-0.5,0.3-0.7c-2.8-6.8-8.8-13.3-18-18.6
					c-20-11.5-49.4-14.3-73.9-8.3c-7.8,1.9-15.1,4.7-21.4,8.3C376.7,228.9,370.7,235.4,367.9,242.2z"/>
				<g>
					<g>
						<path class="st27" d="M445.8,221.9c1.3,0.7,3.3,0.7,4.6,0c1.3-0.7,1.3-1.9,0-2.7c-1.3-0.7-3.3-0.7-4.6,0
							C444.6,220,444.6,221.2,445.8,221.9z"/>
						<path class="st27" d="M446.6,231.4c3,1.8,8,1.8,11,0c3-1.8,3-4.6,0-6.3c-3-1.8-8-1.8-11,0
							C443.5,226.9,443.5,229.7,446.6,231.4z"/>
						<path class="st27" d="M463.2,223.5c0.4,0.3,1.1,0.3,1.6,0c0.4-0.3,0.4-0.7,0-0.9c-0.4-0.3-1.1-0.3-1.6,0
							C462.7,222.8,462.7,223.2,463.2,223.5z"/>
						<path class="st27" d="M464,233.6c0.6,0.3,1.5,0.3,2.1,0c0.6-0.3,0.6-0.9,0-1.2c-0.6-0.3-1.5-0.3-2.1,0
							C463.4,232.7,463.4,233.2,464,233.6z"/>
						<path class="st27" d="M470.1,229.3c1.8,1,4.6,1,6.4,0c1.8-1,1.8-2.7,0-3.7c-1.8-1-4.6-1-6.4,0
							C468.3,226.7,468.3,228.3,470.1,229.3z"/>
						<path class="st27" d="M476.1,234.9c0.4,0.2,1,0.2,1.4,0c0.4-0.2,0.4-0.6,0-0.8c-0.4-0.2-1-0.2-1.4,0
							C475.7,234.3,475.7,234.7,476.1,234.9z"/>
						<path class="st27" d="M476.3,245.8c2.4,1.4,6.4,1.4,8.8,0c2.4-1.4,2.4-3.7,0-5.1c-2.4-1.4-6.4-1.4-8.8,0
							C473.9,242.1,473.9,244.4,476.3,245.8z"/>
						<path class="st27" d="M465.6,239.4c0.9,0.5,2.5,0.5,3.4,0c0.9-0.5,0.9-1.4,0-2c-0.9-0.5-2.5-0.5-3.4,0
							C464.6,238,464.6,238.9,465.6,239.4z"/>
						<path class="st27" d="M449.6,236.5c0.2,0.1,0.6,0.1,0.9,0c0.2-0.1,0.2-0.4,0-0.5c-0.2-0.1-0.6-0.1-0.9,0
							C449.3,236.1,449.3,236.4,449.6,236.5z"/>
						<ellipse class="st27" cx="432.4" cy="218.4" rx="1" ry="0.6"/>
						<path class="st27" d="M485.3,235.5c1.1,0.6,2.8,0.6,3.8,0c1.1-0.6,1.1-1.6,0-2.2c-1.1-0.6-2.8-0.6-3.8,0
							C484.2,233.9,484.2,234.9,485.3,235.5z"/>
						<path class="st27" d="M492.8,243.7c0.4,0.2,1,0.2,1.4,0c0.4-0.2,0.4-0.6,0-0.8c-0.4-0.2-1-0.2-1.4,0
							C492.4,243.1,492.4,243.5,492.8,243.7z"/>
						<path class="st27" d="M485.4,250.4c0.7,0.4,1.9,0.4,2.6,0c0.7-0.4,0.7-1.1,0-1.5c-0.7-0.4-1.9-0.4-2.6,0
							C484.6,249.3,484.6,250,485.4,250.4z"/>
					</g>
				</g>
				<path class="st27" d="M367.9,242.2c0.1,0.2,0.2,0.5,0.3,0.7c2.9,6.5,8.8,12.7,17.6,17.8c26.3,15.2,69,15.2,95.4,0
					c2.3-1.3,4.4-2.7,6.3-4.2c-2.3-0.7-4.7-1.4-6.3-2.1c-3.6-1.7-4.9-4.7-7.6-6.9c-3.2-2.6-8.1-4.4-13.6-4.8
					c-3.1-0.2-6.3-0.1-9.4-0.6c-10.9-1.8-11.4-11.2-14.1-16.4c-2.1-3.9-6.9-7.2-13.2-9.1c-0.4-0.1-0.8-0.2-1.3-0.4c0,0,0,0,0,0
					c-5-1.3-10-1.6-14.7-1.1c-7.8,1.9-15.1,4.7-21.4,8.3C376.7,228.9,370.7,235.4,367.9,242.2z"/>
			</g>
		</g>
	</g>
	<g>
		<path class="st27" d="M341.3,145.2l-35.5,20.5c-9.3,5.4-10.3,13.5-2.3,18.2c8.1,4.7,22.2,4.1,31.5-1.3l35.5-20.5L341.3,145.2z"/>
		<g>
			<g>
				<path class="st28" d="M313.6,173.9c0.1-1.2,1-2.3,2.7-3.3c3.3-1.9,8.2-2.1,11-0.5c1.4,0.8,2,1.9,1.9,3.1l5.7-0.2
					c0.2-2-0.8-3.9-3.3-5.3c-4.9-2.8-13.4-2.5-19,0.8c-2.8,1.6-4.4,3.7-4.6,5.7L313.6,173.9z"/>
				<path class="st28" d="M322.2,178c-2.5,0.3-5,0-6.7-1c-0.3-0.2-0.6-0.4-0.8-0.6l-6.3,0.3c0.5,1.1,1.5,2,2.8,2.8
					c3,1.7,7.4,2.3,11.6,1.7L322.2,178z"/>
			</g>
		</g>
	</g>
</g>
</svg>
