<?xml version="1.0" encoding="utf-8"?>
<!-- Generator: Adobe Illustrator 23.0.3, SVG Export Plug-In . SVG Version: 6.00 Build 0)  -->
<svg version="1.1" id="Ebene_1" xmlns="http://www.w3.org/2000/svg" xmlns:xlink="http://www.w3.org/1999/xlink" x="0px" y="0px"
	 viewBox="0 0 50 78.4" style="enable-background:new 0 0 50 78.4;" xml:space="preserve">
<style type="text/css">
	.st0{fill:#FAD151;}
	.st1{fill:#1F2223;}
</style>
<g>
	<polygon class="st0" points="3.1,37.1 25,78.4 46.9,37.1 	"/>
	<g>
		<circle class="st0" cx="25" cy="25" r="25"/>
		<g>
			<path class="st1" d="M19.5,30.5c-1.4-1.4-2.3-3.4-2.3-5.5c0-4.3,3.5-7.8,7.8-7.8c2.1,0,4.1,0.9,5.5,2.3l4-4
				c-2.4-2.4-5.8-3.9-9.5-3.9c-7.4,0-13.4,6-13.4,13.4c0,3.7,1.5,7.1,3.9,9.5L19.5,30.5z"/>
			<path class="st1" d="M31.4,29.4c-1.4,2-3.7,3.3-6.4,3.3c-0.5,0-1-0.1-1.4-0.1l-4.4,4.4c1.8,0.9,3.8,1.4,5.9,1.4
				c4.6,0,8.6-2.3,11-5.7L31.4,29.4z"/>
		</g>
	</g>
</g>
</svg>
